<svg xmlns="http://www.w3.org/2000/svg" width="21" height="15" fill="none" viewBox="0 0 21 15"><g clip-path="url(#a)"><path fill="#fff" d="M0 0h21v15H0z"/><g clip-path="url(#b)"><path fill="url(#c)" d="M21 0H0v15h21z"/><path fill="url(#d)" fill-rule="evenodd" d="M0 0h21v1H0zm0 2h21v1H0zm0 2h21v1H0zm0 2h21v1H0zm0 2h21v1H0zm0 2h21v1H0zm0 2h21v1H0zm0 2h21v1H0z" clip-rule="evenodd"/><path fill="url(#e)" d="M9 0H0v7h9z"/><path fill="url(#f)" fill-rule="evenodd" d="M1.5 2a.5.5 0 1 1 0-1 .5.5 0 0 1 0 1m2 0a.5.5 0 1 1 0-1 .5.5 0 0 1 0 1m2 0a.5.5 0 1 1 0-1 .5.5 0 0 1 0 1m2 0a.5.5 0 1 1 0-1 .5.5 0 0 1 0 1m-5 1a.5.5 0 1 1 0-1 .5.5 0 0 1 0 1m2 0a.5.5 0 1 1 0-1 .5.5 0 0 1 0 1m2 0a.5.5 0 1 1 0-1 .5.5 0 0 1 0 1m1 1a.5.5 0 1 1 0-1 .5.5 0 0 1 0 1m-2 0a.5.5 0 1 1 0-1 .5.5 0 0 1 0 1m-2 0a.5.5 0 1 1 0-1 .5.5 0 0 1 0 1m-2 0a.5.5 0 1 1 0-1 .5.5 0 0 1 0 1m1 1a.5.5 0 1 1 0-1 .5.5 0 0 1 0 1m2 0a.5.5 0 1 1 0-1 .5.5 0 0 1 0 1m2 0a.5.5 0 1 1 0-1 .5.5 0 0 1 0 1m1 1a.5.5 0 1 1 0-1 .5.5 0 0 1 0 1m-2 0a.5.5 0 1 1 0-1 .5.5 0 0 1 0 1m-2 0a.5.5 0 1 1 0-1 .5.5 0 0 1 0 1m-2 0a.5.5 0 1 1 0-1 .5.5 0 0 1 0 1" clip-rule="evenodd"/></g><mask id="g" width="21" height="15" x="0" y="0" maskUnits="userSpaceOnUse" style="mask-type:alpha"><path fill="#000" d="M21 15V0L0 15z"/></mask><g mask="url(#g)"><path fill="url(#h)" d="M21 0H0v15h21z"/><path fill="url(#i)" d="M20.998 0h-21v15h21z"/><path fill="url(#j)" fill-rule="evenodd" d="M5.003 10H-.002V5h5.005L-2.082.22l1.118-1.657 8.962 6.045V-1h5v5.608l8.962-6.045L23.078.22 15.993 5h5.005v5h-5.005l7.085 4.78-1.118 1.657-8.962-6.045V16h-5v-5.607l-8.962 6.044-1.118-1.658z" clip-rule="evenodd"/><path fill="#DB1F35" d="m14.137 4.958 9.499-6.25a.25.25 0 1 0-.275-.417l-9.5 6.25a.25.25 0 1 0 .275.417M14.868 10.48l8.515 5.74a.25.25 0 0 0 .28-.415l-8.516-5.74a.25.25 0 0 0-.279.415M6.142 4.526-2.74-1.461a.25.25 0 0 0-.28.415L5.863 4.94a.25.25 0 1 0 .279-.414M6.827 9.995l-9.845 6.53a.25.25 0 1 0 .276.416l9.846-6.529a.25.25 0 1 0-.277-.417"/><path fill="url(#k)" fill-rule="evenodd" d="M-.002 9h9v6h3V9h9V6h-9V0h-3v6h-9z" clip-rule="evenodd"/></g></g><defs><linearGradient id="c" x1="1050" x2="1050" y1="0" y2="1500" gradientUnits="userSpaceOnUse"><stop stop-color="#fff"/><stop offset="1" stop-color="#F0F0F0"/></linearGradient><linearGradient id="d" x1="1050" x2="1050" y1="0" y2="1500" gradientUnits="userSpaceOnUse"><stop stop-color="#D02F44"/><stop offset="1" stop-color="#B12537"/></linearGradient><linearGradient id="e" x1="450" x2="450" y1="0" y2="700" gradientUnits="userSpaceOnUse"><stop stop-color="#46467F"/><stop offset="1" stop-color="#3C3C6D"/></linearGradient><linearGradient id="f" x1="351" x2="351" y1="1" y2="501" gradientUnits="userSpaceOnUse"><stop stop-color="#fff"/><stop offset="1" stop-color="#F0F0F0"/></linearGradient><linearGradient id="h" x1="1050" x2="1050" y1="0" y2="1500" gradientUnits="userSpaceOnUse"><stop stop-color="#fff"/><stop offset="1" stop-color="#F0F0F0"/></linearGradient><linearGradient id="i" x1="1050" x2="1050" y1="0" y2="1500" gradientUnits="userSpaceOnUse"><stop stop-color="#0A17A7"/><stop offset="1" stop-color="#030E88"/></linearGradient><linearGradient id="j" x1="1255.94" x2="1255.94" y1="-1.437" y2="1786.03" gradientUnits="userSpaceOnUse"><stop stop-color="#fff"/><stop offset="1" stop-color="#F0F0F0"/></linearGradient><linearGradient id="k" x1="1050" x2="1050" y1="0" y2="1500" gradientUnits="userSpaceOnUse"><stop stop-color="#E6273E"/><stop offset="1" stop-color="#CF152B"/></linearGradient><clipPath id="a"><path fill="#fff" d="M0 0h21v15H0z"/></clipPath><clipPath id="b"><path fill="#fff" d="M0 0h21v15H0z"/></clipPath></defs></svg>