<?xml version="1.0" encoding="utf-8"?>
<!-- Generator: Adobe Illustrator 24.2.1, SVG Export Plug-In . SVG Version: 6.00 Build 0)  -->
<svg version="1.1" id="Layer_1" xmlns="http://www.w3.org/2000/svg" xmlns:xlink="http://www.w3.org/1999/xlink" x="0px" y="0px"
	 viewBox="0 0 180 180" style="enable-background:new 0 0 180 180;" xml:space="preserve">
<style type="text/css">
	.st0{fill:#FFFFFF;}
	.st1{fill:url(#SVGID_1_);}
	.st2{fill:none;}
	.st3{fill:url(#SVGID_2_);}
	.st4{fill:#0050FF;}
	.st5{fill:url(#SVGID_3_);}
</style>
<rect class="st0" width="180" height="180"/>
<g>
	<linearGradient id="SVGID_1_" gradientUnits="userSpaceOnUse" x1="118.4591" y1="26.2743" x2="89.0263" y2="79.8329">
		<stop  offset="0" style="stop-color:#0050FF"/>
		<stop  offset="0.9789" style="stop-color:#00009E"/>
	</linearGradient>
	<path class="st1" d="M131.4,21.9c0-5.6-5.9-10.9-13-5.9L94.6,36.2h36.8V21.9z"/>
	<g>
		<path class="st2" d="M48,87.9v65.2c0,2.4,1.5,3.4,2.1,3.7c0.6,0.3,2.1,0.8,3.7-0.4l37-32.7V85.8V42.8L54.2,74.6
			C50.9,77.4,48,83.7,48,87.9z"/>
		<path class="st0" d="M90.8,42.8c0,0-6.3,3-12,6.4s-27,17.2-32.8,29.7s-4.4,74.4-0.1,79.2s6.6,3.8,17-3.5
			c10.4-7.3,31.6-31.7,31.6-31.7L90.8,42.8z"/>
		<radialGradient id="SVGID_2_" cx="166.058" cy="46.0582" r="103.4998" gradientUnits="userSpaceOnUse">
			<stop  offset="0" style="stop-color:#00C3FF"/>
			<stop  offset="2.113178e-02" style="stop-color:#00BEFF"/>
			<stop  offset="0.2005" style="stop-color:#0097FF"/>
			<stop  offset="0.3777" style="stop-color:#0078FF"/>
			<stop  offset="0.5499" style="stop-color:#0062FF"/>
			<stop  offset="0.7148" style="stop-color:#0054FF"/>
			<stop  offset="0.8644" style="stop-color:#0050FF"/>
		</radialGradient>
		<path class="st3" d="M148.6,42.4H90.8v0l-2.2,0l0,0H79L49.5,66.7C43,72,39.2,80,39.2,88.5v40.6v24c0,5,2.7,9.5,7,11.6
			c1.7,0.8,3.5,1.3,5.4,1.3c2.7,0,5.4-0.9,7.7-2.7l0.1-0.1L98,129.1h50.6c5.6,0,10.1-4.5,10.1-10.1V52.5
			C158.6,46.9,154.1,42.4,148.6,42.4z M90.8,85.8v37.9l-37,32.7c-1.7,1.2-3.1,0.7-3.7,0.4c-0.6-0.3-2.1-1.3-2.1-3.7V87.9
			c0-4.3,2.9-10.5,6.2-13.3l36.6-31.8V85.8z"/>
		<path class="st4" d="M49.5,66.7L79,42.4H31.4c-5.6,0-10.1,4.5-10.1,10.1V119c0,5.6,4.5,10.1,10.1,10.1h7.7V88.5
			C39.2,80,43,72,49.5,66.7z"/>
		<linearGradient id="SVGID_3_" gradientUnits="userSpaceOnUse" x1="23.5835" y1="77.4451" x2="133.4331" y2="106.9368">
			<stop  offset="0" style="stop-color:#0050FF"/>
			<stop  offset="0.8476" style="stop-color:#00009E"/>
		</linearGradient>
		<path class="st5" d="M49.5,66.7L79,42.4H31.4c-5.6,0-10.1,4.5-10.1,10.1V119c0,5.6,4.5,10.1,10.1,10.1h7.7V88.5
			C39.2,80,43,72,49.5,66.7z"/>
	</g>
</g>
</svg>
