<svg width="790" height="790" viewBox="0 0 790 790" fill="none" xmlns="http://www.w3.org/2000/svg">
<path d="M603.855 51.7973C603.855 23.5758 574.122 -3.13385 538.341 22.0639L418.4 123.863H603.855V51.7973V51.7973Z" fill="url(#paint0_linear_44_34)"/>
<path d="M690.536 155.108H399.249H388.162H339.782L191.116 277.569C158.358 304.279 139.208 344.595 139.208 387.432V592.037V712.987C139.208 738.185 152.815 760.863 174.485 771.446C183.052 775.477 192.123 777.997 201.699 777.997C215.305 777.997 228.912 773.461 240.503 764.39L241.007 763.886L435.534 592.037H690.536C718.757 592.037 741.435 569.359 741.435 541.138V206.008C740.931 177.786 718.253 155.108 690.536 155.108ZM399.249 373.825V564.824L212.786 729.617C204.218 735.665 197.163 733.145 194.139 731.633C191.116 730.121 183.556 725.082 183.556 712.987V384.408C183.556 362.738 198.171 331.492 214.801 317.382L399.249 157.124V373.825Z" fill="url(#paint1_radial_44_34)"/>
<path d="M191.115 277.569L339.782 155.108H99.8995C71.678 155.108 49 177.786 49 206.008V541.138C49 569.359 71.678 592.037 99.8995 592.037H138.704V387.432C139.208 344.595 158.358 304.279 191.115 277.569Z" fill="#0050FF"/>
<path d="M191.115 277.569L339.782 155.108H99.8995C71.678 155.108 49 177.786 49 206.008V541.138C49 569.359 71.678 592.037 99.8995 592.037H138.704V387.432C139.208 344.595 158.358 304.279 191.115 277.569Z" fill="url(#paint2_linear_44_34)"/>
<defs>
<linearGradient id="paint0_linear_44_34" x1="538.639" y1="73.8418" x2="390.311" y2="343.753" gradientUnits="userSpaceOnUse">
<stop stop-color="#0050FF"/>
<stop offset="0.9789" stop-color="#00009E"/>
</linearGradient>
<radialGradient id="paint1_radial_44_34" cx="0" cy="0" r="1" gradientUnits="userSpaceOnUse" gradientTransform="translate(778.516 173.544) scale(521.593)">
<stop stop-color="#00C3FF"/>
<stop offset="0.0211318" stop-color="#00BEFF"/>
<stop offset="0.2005" stop-color="#0097FF"/>
<stop offset="0.3777" stop-color="#0078FF"/>
<stop offset="0.5499" stop-color="#0062FF"/>
<stop offset="0.7148" stop-color="#0054FF"/>
<stop offset="0.8644" stop-color="#0050FF"/>
</radialGradient>
<linearGradient id="paint2_linear_44_34" x1="60.5078" y1="331.72" x2="614.101" y2="480.345" gradientUnits="userSpaceOnUse">
<stop stop-color="#0050FF"/>
<stop offset="0.8476" stop-color="#00009E"/>
</linearGradient>
</defs>
</svg>
