<svg width="128" height="128" viewBox="0 0 128 128" fill="none" xmlns="http://www.w3.org/2000/svg">
<rect width="128" height="128" fill="white"/>
<path d="M48.5828 40.37C50.8601 40.37 52.8121 40.2887 54.4388 40.126C56.1468 39.9633 58.1801 39.8413 60.5388 39.76C60.7015 40.0853 60.7421 40.736 60.6608 41.712C60.5795 42.688 60.3761 43.176 60.0508 43.176C59.8068 43.176 59.1968 43.2167 58.2208 43.298C57.2448 43.3793 56.3095 43.5827 55.4148 43.908C54.6015 44.152 54.1948 44.5993 54.1948 45.25C54.1948 45.4127 54.2355 45.5753 54.3168 45.738L67.3708 77.946C67.3708 77.946 67.6961 77.092 68.3468 75.384C68.9975 73.5947 69.8515 71.358 70.9088 68.674C72.0475 65.9087 73.2268 62.94 74.4468 59.768C75.6668 56.596 76.8461 53.6273 77.9848 50.862C78.3101 50.13 78.5135 49.4387 78.5948 48.788C78.6761 48.056 78.7168 47.4867 78.7168 47.08C78.7168 45.86 78.0661 44.9247 76.7648 44.274C75.4635 43.542 73.7961 43.176 71.7628 43.176C71.4375 43.176 71.2748 42.688 71.2748 41.712C71.2748 40.736 71.4375 40.0853 71.7628 39.76C73.6335 39.8413 75.0975 39.9633 76.1548 40.126C77.2121 40.2887 78.9608 40.37 81.4008 40.37C83.6781 40.37 85.5081 40.2887 86.8908 40.126C88.2735 39.9633 90.1441 39.8413 92.5028 39.76C92.7468 40.0853 92.7875 40.736 92.6248 41.712C92.5435 42.688 92.3808 43.176 92.1368 43.176C91.8115 43.176 91.1201 43.298 90.0628 43.542C89.0868 43.786 88.0701 44.1927 87.0128 44.762C85.9555 45.3313 85.1828 46.1853 84.6948 47.324C82.9055 51.5533 81.2788 55.376 79.8148 58.792C78.4321 62.208 77.0495 65.5427 75.6668 68.796C74.3655 71.968 72.9828 75.3027 71.5188 78.8C70.0548 82.216 68.4688 86.0387 66.7608 90.268C66.5981 90.756 66.1508 91.2033 65.4188 91.61C64.6868 92.098 64.1175 92.342 63.7108 92.342C63.1415 92.342 62.7755 92.1793 62.6128 91.854C58.7901 82.6633 55.4148 74.3267 52.4868 66.844C49.6401 59.3613 46.5495 52.2853 43.2148 45.616C42.6455 44.396 41.6288 43.7047 40.1648 43.542C38.7008 43.298 37.6028 43.176 36.8708 43.176C36.7081 43.176 36.6268 43.176 36.6268 43.176C36.5455 42.8507 36.4641 42.3627 36.3828 41.712C36.3015 40.98 36.3828 40.3293 36.6268 39.76C39.0668 39.8413 41.0595 39.9633 42.6048 40.126C44.1501 40.2887 46.1428 40.37 48.5828 40.37Z" fill="black"/>
</svg>
