<svg width="196" height="196" viewBox="0 0 896 896" fill="none" xmlns="http://www.w3.org/2000/svg">
<rect width="896" height="896" rx="128" fill="white"/>
<path fill-rule="evenodd" clip-rule="evenodd" d="M715 366.974L709.275 350.902V245.191C706.882 222.967 700.158 207.715 690.988 197.443L690.982 197.435L690.975 197.428C680.982 186.196 666.289 179.021 646.912 175.834C636.838 174.186 628.816 167.622 624.854 159H137V759H624.871C628.841 750.407 636.853 743.868 646.857 742.178L646.883 742.174L646.908 742.17C666.287 738.983 680.981 731.808 690.975 720.575L690.988 720.56C700.155 710.292 706.881 694.99 709.275 672.811V489.075H639.582C623.23 489.075 610 475.785 610 459.458C610 443.132 623.23 429.841 639.582 429.841H709.275V350.903L715 366.976V366.974ZM709.275 350.903V350.902L646.912 175.834L709.275 350.903Z" fill="#000000"/>
<path d="M639.582 477.074C629.88 477.074 622 469.178 622 459.457C622 449.735 629.88 441.839 639.582 441.839H721.275V244.558C718.755 220.226 711.304 202.179 699.94 189.45C687.611 175.592 670.083 167.482 648.856 163.991C639.314 162.433 632.828 153.41 634.383 143.795C635.937 134.235 644.943 127.736 654.538 129.293C683.537 134.074 708.034 145.783 726.045 166.032C730.655 171.188 734.783 176.881 738.428 183.058C743.038 175.055 748.505 168.019 754.777 161.789C773.592 143.097 798.786 132.892 828.858 129.132C838.507 127.95 847.244 134.826 848.423 144.494C849.603 154.162 842.741 162.917 833.093 164.098C810.579 166.891 792.3 173.981 779.489 186.711C766.784 199.333 758.744 218.132 756.439 244.611V441.786H839.418C849.12 441.786 857 449.681 857 459.403C857 469.125 849.12 477.02 839.418 477.02H756.439V673.389C758.744 699.868 766.784 718.721 779.489 731.289C792.3 743.965 810.579 751.109 833.093 753.902C842.741 755.083 849.603 763.892 848.423 773.506C847.244 783.174 838.507 790.05 828.858 788.868C798.786 785.108 773.592 774.903 754.777 756.211C748.505 749.981 743.038 742.945 738.428 734.942C734.783 741.172 730.655 746.812 726.045 751.968C707.981 772.217 683.484 783.926 654.538 788.707C644.996 790.264 635.991 783.765 634.383 774.205C632.828 764.644 639.314 755.621 648.856 754.009C670.083 750.518 687.611 742.408 699.94 728.55C711.304 715.821 718.755 697.72 721.275 673.442V477.074H639.582Z" fill="#000000"/>
<path d="M596 277C569.464 325.899 540.887 389.068 505.497 467.858L496.652 487.554L422.479 656H419.077L251 277H359.873L468.067 522.878L485.077 483.487C523.179 398.585 543.6 329.303 545.641 277H596Z" fill="white"/>
</svg>
