<svg xmlns="http://www.w3.org/2000/svg" width="256" height="256" viewBox="0 0 100 100"><rect width="100" height="100" rx="0" fill="#ffffff"></rect><path fill="#4a90e2" d="M55.22 76.69L55.22 76.69Q54.77 77.14 53.51 77.50Q52.25 77.86 50.72 77.86L50.72 77.86Q49.01 77.86 47.66 77.36Q46.31 76.86 45.86 75.88L45.86 75.88Q44.69 73.53 43.12 69.84Q41.54 66.16 39.79 61.61Q38.03 57.06 36.19 52.03Q34.34 46.98 32.63 42.04Q30.92 37.09 29.39 32.45Q27.86 27.82 26.78 24.13L26.78 24.13Q27.32 23.41 28.40 22.78Q29.48 22.15 30.83 22.15L30.83 22.15Q32.54 22.15 33.35 22.96Q34.16 23.77 34.70 25.39L34.70 25.39Q38.75 37.18 42.44 48.16Q46.13 59.14 50.54 70.47L50.54 70.47L50.90 70.47Q52.88 65.34 55.00 59.54Q57.11 53.73 59.13 47.57Q61.16 41.41 63.09 35.11Q65.03 28.80 66.56 22.78L66.56 22.78Q67.73 22.15 69.62 22.15L69.62 22.15Q71.24 22.15 72.23 22.96Q73.22 23.77 73.22 25.39L73.22 25.39Q73.22 26.74 72.19 30.47Q71.15 34.21 69.53 39.16Q67.91 44.11 65.88 49.78Q63.86 55.45 61.88 60.67Q59.90 65.89 58.10 70.20Q56.30 74.53 55.22 76.69Z"></path></svg>