<svg width="77" height="77" viewBox="0 0 77 77" fill="none" xmlns="http://www.w3.org/2000/svg">
<rect width="77" height="77" fill="white"/>
<path d="M29.9 25.365C31.188 25.365 32.292 25.319 33.212 25.227C34.178 25.135 35.328 25.066 36.662 25.02C36.754 25.204 36.777 25.572 36.731 26.124C36.685 26.676 36.57 26.952 36.386 26.952C36.248 26.952 35.903 26.975 35.351 27.021C34.799 27.067 34.27 27.182 33.764 27.366C33.304 27.504 33.074 27.757 33.074 28.125C33.074 28.217 33.097 28.309 33.143 28.401L40.526 46.617C40.526 46.617 40.71 46.134 41.078 45.168C41.446 44.156 41.929 42.891 42.527 41.373C43.171 39.809 43.838 38.13 44.528 36.336C45.218 34.542 45.885 32.863 46.529 31.299C46.713 30.885 46.828 30.494 46.874 30.126C46.92 29.712 46.943 29.39 46.943 29.16C46.943 28.47 46.575 27.941 45.839 27.573C45.103 27.159 44.16 26.952 43.01 26.952C42.826 26.952 42.734 26.676 42.734 26.124C42.734 25.572 42.826 25.204 43.01 25.02C44.068 25.066 44.896 25.135 45.494 25.227C46.092 25.319 47.081 25.365 48.461 25.365C49.749 25.365 50.784 25.319 51.566 25.227C52.348 25.135 53.406 25.066 54.74 25.02C54.878 25.204 54.901 25.572 54.809 26.124C54.763 26.676 54.671 26.952 54.533 26.952C54.349 26.952 53.958 27.021 53.36 27.159C52.808 27.297 52.233 27.527 51.635 27.849C51.037 28.171 50.6 28.654 50.324 29.298C49.312 31.69 48.392 33.852 47.564 35.784C46.782 37.716 46 39.602 45.218 41.442C44.482 43.236 43.7 45.122 42.872 47.1C42.044 49.032 41.147 51.194 40.181 53.586C40.089 53.862 39.836 54.115 39.422 54.345C39.008 54.621 38.686 54.759 38.456 54.759C38.134 54.759 37.927 54.667 37.835 54.483C35.673 49.285 33.764 44.57 32.108 40.338C30.498 36.106 28.75 32.104 26.864 28.332C26.542 27.642 25.967 27.251 25.139 27.159C24.311 27.021 23.69 26.952 23.276 26.952C23.184 26.952 23.138 26.952 23.138 26.952C23.092 26.768 23.046 26.492 23 26.124C22.954 25.71 23 25.342 23.138 25.02C24.518 25.066 25.645 25.135 26.519 25.227C27.393 25.319 28.52 25.365 29.9 25.365Z" fill="black"/>
</svg>
