<svg
  width="191"
  height="59"
  viewBox="0 0 191 59"
  fill="none"
  xmlns="http://www.w3.org/2000/svg"
>
  <path
    fill="#212121"
    d="M7.4 17.44C8.59467 17.44 9.61867 17.3973 10.472 17.312C11.368 17.2267 12.4347 17.1627 13.672 17.12C13.7573 17.2907 13.7787 17.632 13.736 18.144C13.6933 18.656 13.5867 18.912 13.416 18.912C13.288 18.912 12.968 18.9333 12.456 18.976C11.944 19.0187 11.4533 19.1253 10.984 19.296C10.5573 19.424 10.344 19.6587 10.344 20C10.344 20.0853 10.3653 20.1707 10.408 20.256L17.256 37.152C17.256 37.152 17.4267 36.704 17.768 35.808C18.1093 34.8693 18.5573 33.696 19.112 32.288C19.7093 30.8373 20.328 29.28 20.968 27.616C21.608 25.952 22.2267 24.3947 22.824 22.944C22.9947 22.56 23.1013 22.1973 23.144 21.856C23.1867 21.472 23.208 21.1733 23.208 20.96C23.208 20.32 22.8667 19.8293 22.184 19.488C21.5013 19.104 20.6267 18.912 19.56 18.912C19.3893 18.912 19.304 18.656 19.304 18.144C19.304 17.632 19.3893 17.2907 19.56 17.12C20.5413 17.1627 21.3093 17.2267 21.864 17.312C22.4187 17.3973 23.336 17.44 24.616 17.44C25.8107 17.44 26.7707 17.3973 27.496 17.312C28.2213 17.2267 29.2027 17.1627 30.44 17.12C30.568 17.2907 30.5893 17.632 30.504 18.144C30.4613 18.656 30.376 18.912 30.248 18.912C30.0773 18.912 29.7147 18.976 29.16 19.104C28.648 19.232 28.1147 19.4453 27.56 19.744C27.0053 20.0427 26.6 20.4907 26.344 21.088C25.4053 23.3067 24.552 25.312 23.784 27.104C23.0587 28.896 22.3333 30.6453 21.608 32.352C20.9253 34.016 20.2 35.7653 19.432 37.6C18.664 39.392 17.832 41.3973 16.936 43.616C16.8507 43.872 16.616 44.1067 16.232 44.32C15.848 44.576 15.5493 44.704 15.336 44.704C15.0373 44.704 14.8453 44.6187 14.76 44.448C12.7547 39.6267 10.984 35.2533 9.448 31.328C7.95467 27.4027 6.33333 23.6907 4.584 20.192C4.28533 19.552 3.752 19.1893 2.984 19.104C2.216 18.976 1.64 18.912 1.256 18.912C1.17067 18.912 1.128 18.912 1.128 18.912C1.08533 18.7413 1.04267 18.4853 1 18.144C0.957333 17.76 1 17.4187 1.128 17.12C2.408 17.1627 3.45333 17.2267 4.264 17.312C5.07467 17.3973 6.12 17.44 7.4 17.44ZM45.5595 16.544C48.3328 16.544 50.7008 17.1413 52.6635 18.336C54.6688 19.5307 56.2048 21.152 57.2715 23.2C58.3808 25.248 58.9355 27.5733 58.9355 30.176C58.9355 32.864 58.3595 35.296 57.2075 37.472C56.0555 39.6053 54.4768 41.312 52.4715 42.592C50.4662 43.8293 48.2048 44.448 45.6875 44.448C42.9568 44.448 40.5675 43.8507 38.5195 42.656C36.5142 41.4187 34.9568 39.776 33.8475 37.728C32.7808 35.6373 32.2475 33.2907 32.2475 30.688C32.2475 28 32.8235 25.5893 33.9755 23.456C35.1702 21.3227 36.7702 19.6373 38.7755 18.4C40.7808 17.1627 43.0422 16.544 45.5595 16.544ZM44.8555 18.656C43.1062 18.656 41.6982 19.1893 40.6315 20.256C39.5648 21.28 38.7968 22.624 38.3275 24.288C37.8582 25.9093 37.6235 27.616 37.6235 29.408C37.6235 31.4133 37.9435 33.4187 38.5835 35.424C39.2662 37.4293 40.2475 39.0933 41.5275 40.416C42.8502 41.7387 44.4502 42.4 46.3275 42.4C48.1195 42.4 49.5275 41.888 50.5515 40.864C51.6182 39.7973 52.3862 38.432 52.8555 36.768C53.3248 35.104 53.5595 33.3973 53.5595 31.648C53.5595 29.6 53.2182 27.5947 52.5355 25.632C51.8528 23.6267 50.8715 21.9627 49.5915 20.64C48.3115 19.3173 46.7328 18.656 44.8555 18.656ZM85.372 19.872C85.372 20.9813 85.116 21.7707 84.604 22.24C84.092 22.6667 83.5587 22.88 83.004 22.88C82.3213 22.88 81.6813 22.5813 81.084 21.984C80.4867 21.3867 79.9107 20.9173 79.356 20.576C78.6733 20.1067 78.1187 19.7867 77.692 19.616C77.2653 19.4453 76.6467 19.36 75.836 19.36C74.7267 19.36 73.6173 19.7867 72.508 20.64C71.4413 21.4507 70.5453 22.624 69.82 24.16C69.1373 25.696 68.796 27.5733 68.796 29.792C68.796 33.4187 69.7773 36.0853 71.74 37.792C73.7027 39.4987 76.092 40.352 78.908 40.352C80.6573 40.352 82.0867 39.9467 83.196 39.136C84.348 38.3253 85.1373 37.6853 85.564 37.216C85.6067 37.216 85.692 37.3013 85.82 37.472C85.9907 37.6 86.076 37.792 86.076 38.048C86.076 38.3893 85.948 38.7733 85.692 39.2C85.308 39.7973 84.7107 40.5227 83.9 41.376C83.0893 42.1867 82.0653 42.912 80.828 43.552C79.5907 44.192 78.1613 44.512 76.54 44.512C74.0227 44.512 71.804 43.9147 69.884 42.72C68.0067 41.5253 66.5347 39.968 65.468 38.048C64.444 36.128 63.932 34.08 63.932 31.904C63.932 29.6 64.4013 27.5307 65.34 25.696C66.3213 23.8187 67.5587 22.1973 69.052 20.832C70.588 19.4667 72.2307 18.4213 73.98 17.696C75.772 16.9707 77.4787 16.608 79.1 16.608C81.404 16.608 83.2813 17.12 84.732 18.144C84.86 18.272 84.988 18.5067 85.116 18.848C85.2867 19.1893 85.372 19.5307 85.372 19.872ZM102.978 16.736C104.172 16.736 105.282 17.12 106.306 17.888C107.372 18.656 108.226 19.68 108.866 20.96C109.506 22.24 109.826 23.6907 109.826 25.312V38.176C109.826 38.9867 109.975 39.6907 110.274 40.288C110.572 40.8427 111.063 41.12 111.746 41.12C112.343 41.12 112.812 40.992 113.154 40.736C113.495 40.48 113.708 40.3307 113.794 40.288C113.879 40.288 113.943 40.352 113.986 40.48C114.028 40.608 114.05 40.7147 114.05 40.8C114.05 41.2693 113.943 41.6747 113.73 42.016C113.474 42.2293 113.047 42.528 112.45 42.912C111.895 43.296 111.298 43.6373 110.658 43.936C110.06 44.2347 109.527 44.384 109.058 44.384C108.162 44.384 107.351 43.936 106.626 43.04C105.943 42.144 105.495 41.2267 105.282 40.288C105.111 40.4587 104.706 40.7787 104.066 41.248C103.468 41.7173 102.764 42.208 101.954 42.72C101.143 43.1893 100.332 43.616 99.5215 44C98.7535 44.3413 98.0922 44.512 97.5375 44.512C95.4895 44.512 93.7615 43.8293 92.3535 42.464C90.9455 41.056 90.2415 39.3493 90.2415 37.344C90.2415 36.064 90.5828 34.976 91.2655 34.08C91.9908 33.1413 92.6948 32.544 93.3775 32.288C94.5722 31.8613 95.8948 31.4133 97.3455 30.944C98.8388 30.432 100.226 29.9413 101.506 29.472C102.786 29.0027 103.724 28.64 104.322 28.384C104.663 28.256 104.876 28.1067 104.962 27.936C105.047 27.7227 105.09 27.3387 105.09 26.784V25.12C105.09 24.1813 104.855 23.264 104.385 22.368C103.916 21.4293 103.276 20.6613 102.466 20.064C101.655 19.424 100.738 19.104 99.7135 19.104C98.6468 19.104 97.8575 19.4453 97.3455 20.128C96.8335 20.8107 96.4708 21.7707 96.2575 23.008C95.8735 25.0133 94.8922 26.016 93.3135 26.016C92.6308 26.016 92.0975 25.7387 91.7135 25.184C91.3722 24.6293 91.2015 24.032 91.2015 23.392C91.2015 23.264 91.2442 23.0293 91.3295 22.688C91.4148 22.304 91.5215 22.0267 91.6495 21.856C92.2895 21.2587 93.2068 20.5547 94.4015 19.744C95.5962 18.9333 96.9402 18.2293 98.4335 17.632C99.9695 17.0347 101.484 16.736 102.978 16.736ZM99.6495 41.12C100.375 41.12 101.164 40.9493 102.018 40.608C102.871 40.2667 103.596 39.904 104.194 39.52C104.791 39.0933 105.09 38.7733 105.09 38.56V30.048C104.279 30.304 103.255 30.624 102.018 31.008C100.78 31.392 99.8628 31.6907 99.2655 31.904C98.1562 32.3307 97.2388 32.9493 96.5135 33.76C95.7882 34.5707 95.4255 35.5733 95.4255 36.768C95.4255 37.92 95.8308 38.944 96.6415 39.84C97.4522 40.6933 98.4548 41.12 99.6495 41.12ZM127.997 44.448C127.527 44.448 126.802 44.32 125.821 44.064C124.882 43.8507 124.071 43.6587 123.389 43.488C123.261 43.4453 123.09 43.4027 122.877 43.36C122.322 43.1893 121.746 43.0613 121.149 42.976C120.551 42.848 119.954 42.8907 119.357 43.104C119.186 43.104 118.994 42.9333 118.781 42.592C118.61 42.208 118.525 41.9307 118.525 41.76C118.823 41.12 119.015 40.352 119.101 39.456C119.229 38.56 119.293 37.792 119.293 37.152V9.12C119.293 8.69333 119.271 8.13867 119.229 7.456C119.229 6.77333 119.143 6.24 118.973 5.856C118.802 5.38666 118.333 5.088 117.565 4.96C116.797 4.832 115.986 4.768 115.133 4.768C115.09 4.768 115.047 4.512 115.005 4C115.005 3.44533 115.069 3.14666 115.197 3.104C116.775 2.93333 118.311 2.63467 119.805 2.208C121.341 1.73866 122.77 1.20533 124.093 0.607998C124.263 0.607998 124.413 0.735998 124.541 0.991997C124.711 1.20533 124.797 1.41866 124.797 1.632C124.797 1.632 124.669 2.10133 124.413 3.04C124.199 3.97866 124.093 5.32266 124.093 7.072V19.36C124.093 19.5307 124.114 19.7227 124.157 19.936C124.199 20.1493 124.306 20.1707 124.477 20C124.818 19.744 125.437 19.36 126.333 18.848C127.229 18.2933 128.21 17.7813 129.277 17.312C130.343 16.8427 131.261 16.608 132.029 16.608C133.906 16.608 135.549 17.0133 136.957 17.824C138.407 18.592 139.602 19.616 140.541 20.896C141.522 22.1333 142.247 23.52 142.717 25.056C143.229 26.5493 143.485 28 143.485 29.408C143.485 32.1387 142.802 34.656 141.437 36.96C140.114 39.2213 138.279 41.0347 135.933 42.4C133.629 43.7653 130.983 44.448 127.997 44.448ZM129.021 20.32C128.21 20.32 127.314 20.5333 126.333 20.96C125.351 21.344 124.711 21.6853 124.413 21.984C124.199 22.1973 124.093 22.432 124.093 22.688V37.856C124.093 38.752 124.391 39.5413 124.989 40.224C125.586 40.9067 126.333 41.44 127.229 41.824C128.125 42.1653 129.021 42.336 129.917 42.336C131.41 42.336 132.775 41.824 134.013 40.8C135.293 39.7333 136.317 38.4107 137.085 36.832C137.853 35.2107 138.237 33.568 138.237 31.904C138.237 28.2773 137.383 25.44 135.677 23.392C134.013 21.344 131.794 20.32 129.021 20.32ZM151.506 9.12C151.506 8.65066 151.484 8.096 151.442 7.456C151.442 6.77333 151.356 6.24 151.186 5.856C151.015 5.38666 150.546 5.088 149.778 4.96C149.052 4.832 148.263 4.768 147.41 4.768C147.367 4.768 147.324 4.512 147.282 4C147.282 3.44533 147.346 3.14666 147.474 3.104C149.052 2.93333 150.588 2.63467 152.082 2.208C153.575 1.73866 154.983 1.20533 156.306 0.607998C156.476 0.607998 156.626 0.735998 156.754 0.991997C156.924 1.20533 157.01 1.41866 157.01 1.632C157.01 1.632 156.882 2.10133 156.626 3.04C156.412 3.97866 156.306 5.32266 156.306 7.072V36.768C156.306 37.7067 156.306 38.5813 156.306 39.392C156.348 40.2027 156.455 40.864 156.626 41.376C156.711 41.5893 157.01 41.7813 157.522 41.952C158.076 42.1227 158.652 42.2507 159.25 42.336C159.89 42.3787 160.338 42.4 160.594 42.4C160.722 42.5707 160.786 42.8693 160.786 43.296C160.828 43.7227 160.764 44.0213 160.594 44.192C159.314 44.1067 158.183 44.0427 157.202 44C156.22 43.9147 155.111 43.872 153.874 43.872C152.679 43.872 151.591 43.9147 150.61 44C149.671 44.0427 148.562 44.1067 147.282 44.192C147.111 44.0213 147.026 43.7227 147.026 43.296C147.068 42.8693 147.154 42.5707 147.282 42.4C147.538 42.4 147.964 42.3787 148.562 42.336C149.159 42.2507 149.735 42.1227 150.29 41.952C150.844 41.7813 151.143 41.5893 151.186 41.376C151.356 40.864 151.442 40.2027 151.442 39.392C151.484 38.5813 151.506 37.7067 151.506 36.768V9.12ZM167.836 17.44C169.031 17.44 170.225 17.3973 171.42 17.312C172.657 17.2267 173.553 17.1627 174.108 17.12C174.193 17.2907 174.215 17.632 174.172 18.144C174.129 18.656 174.023 18.912 173.852 18.912C173.724 18.912 173.404 18.9333 172.892 18.976C172.38 19.0187 171.889 19.1253 171.42 19.296C170.993 19.424 170.78 19.6587 170.78 20C170.78 20.0853 170.801 20.1707 170.844 20.256L177.5 37.152C177.5 37.152 177.671 36.704 178.012 35.808C178.353 34.8693 178.801 33.696 179.356 32.288C179.911 30.8373 180.508 29.28 181.148 27.616C181.788 25.952 182.407 24.3947 183.004 22.944C183.175 22.56 183.281 22.1973 183.324 21.856C183.367 21.472 183.388 21.1733 183.388 20.96C183.388 20.32 183.047 19.8293 182.364 19.488C181.724 19.104 180.871 18.912 179.804 18.912C179.633 18.912 179.548 18.656 179.548 18.144C179.548 17.632 179.633 17.2907 179.804 17.12C180.273 17.1627 180.999 17.2267 181.98 17.312C183.004 17.3973 184.156 17.44 185.436 17.44C186.631 17.44 187.633 17.3973 188.444 17.312C189.297 17.2267 190.044 17.1627 190.684 17.12C190.812 17.2907 190.833 17.632 190.748 18.144C190.705 18.656 190.62 18.912 190.492 18.912C190.321 18.912 189.959 18.976 189.404 19.104C188.892 19.232 188.337 19.4453 187.74 19.744C187.185 20.0427 186.78 20.4907 186.524 21.088C185.585 23.3067 184.732 25.312 183.964 27.104C183.239 28.896 182.513 30.6453 181.788 32.352C181.105 34.016 180.38 35.7653 179.612 37.6C178.887 39.392 178.076 41.3973 177.18 43.616C176.412 45.536 175.665 47.456 174.94 49.376C174.215 51.296 173.297 53.088 172.188 54.752C171.505 55.8187 170.673 56.672 169.692 57.312C168.753 57.952 167.772 58.272 166.748 58.272C166.151 58.272 165.553 58.1013 164.956 57.76C164.359 57.4187 164.06 56.6933 164.06 55.584C164.06 55.2 164.124 54.8373 164.252 54.496C164.423 54.1547 164.593 53.8987 164.764 53.728C165.745 53.728 166.599 53.664 167.324 53.536C168.092 53.4507 168.817 53.152 169.5 52.64C170.225 52.128 171.015 51.3173 171.868 50.208C172.209 49.7387 172.593 49.0347 173.02 48.096C173.447 47.2 173.831 46.3253 174.172 45.472C174.556 44.6187 174.769 44.0853 174.812 43.872C173.66 40.8853 172.572 38.112 171.548 35.552C170.524 32.9493 169.479 30.4107 168.412 27.936C167.388 25.4187 166.257 22.8373 165.02 20.192C164.721 19.552 164.188 19.1893 163.42 19.104C162.652 18.976 162.076 18.912 161.692 18.912C161.607 18.912 161.564 18.912 161.564 18.912C161.521 18.912 161.5 18.6347 161.5 18.08C161.5 17.4827 161.521 17.1627 161.564 17.12C162.161 17.1627 163.036 17.2267 164.188 17.312C165.34 17.3973 166.556 17.44 167.836 17.44Z"
  />
</svg>
