<?xml version="1.0" encoding="UTF-8"?>
<svg width="2823" height="824.84" version="1.1" viewBox="0 0 2823 824.84" xml:space="preserve" xmlns="http://www.w3.org/2000/svg">
<g transform="translate(-135.25,-333.57)" fill="#ffffff">
	<path d="m535.82 548.47c-30.81 56.88-63.99 130.36-105.08 222.01l-10.27 22.91-86.12 195.94h-3.95l-195.15-440.86h126.41l125.62 286.01 19.75-45.82c44.24-98.76 67.95-179.35 70.32-240.19z"/>
	<path d="m757.84 538.99c129.58 0 223.59 86.12 223.59 219.65s-99.55 224.38-229.91 224.38c-129.58 0-223.6-86.12-223.6-219.64 0-133.53 98.77-224.39 229.92-224.39zm-4.74 11.07c-67.16 0-101.92 79.01-101.92 209.37 0 129.58 38.71 212.54 104.29 212.54 67.16 0 102.71-79.01 102.71-207.8 0-130.37-38.71-214.11-105.08-214.11z"/>
	<path d="m1247.7 538.99c71.9 0 125.62 27.65 162.76 69.53l-40.3 35.55c-37.13-62.42-67.16-93.23-112.19-93.23-66.37 0-107.45 71.11-107.45 188.04 0 129.57 49.77 197.52 129.58 197.52 45.03 0 90.06-22.92 125.62-71.11l9.48 5.53c-48.99 75.06-111.4 112.19-186.46 112.19-113.77 0-203.05-85.33-203.05-215.69-2.37-135.89 101.13-230.7 222.01-228.33z"/>
	<path d="m1852.1 955.37c-18.96 12.64-50.57 26.07-88.49 26.07-54.52 0-75.86-29.23-81.38-60.04-37.13 37.92-86.91 60.04-136.68 60.04-67.16 0-111.4-41.87-111.4-101.13 0-71.9 66.37-120.88 173.82-132.73 34.77-2.37 59.26-4.74 73.48-6.32v-43.46c0-40.3-6.32-71.11-18.96-93.23-11.86-22.91-37.14-33.97-75.86-33.97-41.08 0-79.8 15.01-116.93 44.24l-7.11-8.69c48.2-44.24 93.23-67.16 168.29-67.16 111.4 0 167.5 48.99 167.5 150.91v202.26c0 43.46 1.58 60.05 37.93 60.05 3.95 0 9.48-0.79 15.8-1.58v4.74zm-170.66-202.26c-89.28 10.27-134.32 48.2-134.32 112.2 0 50.57 26.08 78.22 61.63 78.22 26.07 0 49.77-12.64 72.69-37.13v-153.29z"/>
	<path d="m2123.1 983.02c-64 0-115.35-17.38-153.28-52.15l-64.78 49.78h-3.16v-613.9l113.77-33.18h3.16v270.21c39.51-43.45 84.54-64.79 134.32-64.79 101.92 0 182.51 89.28 182.51 213.33 0 133.52-94.81 230.7-212.54 230.7zm-7.9-410.84c-33.97 0-66.36 17.38-96.39 52.15v264.67c13.43 49.78 47.4 80.59 89.28 80.59 66.37 0 103.51-76.64 103.51-208.58 0-133.53-33.98-188.83-96.4-188.83z"/>
	<path d="m2401.2 366.75 113.78-33.18h3.16v639.98h-116.94z"/>
	<path d="m2958.2 548.47c-30.81 56.88-62.42 130.36-99.55 216.48l-8.69 21.33-109.03 252.04c-37.93 86.12-97.18 120.09-178.56 120.09l6.32-58.46c15.01 6.32 31.61 9.48 48.19 9.48 45.04 0 89.28-24.49 109.03-71.89l23.7-54.52-190.41-434.55h125.63l126.41 289.96 25.28-57.68c40.3-94.02 60.84-171.45 63.2-232.28z"/>
</g>
</svg>
