<svg width="1060" height="1060" viewBox="0 0 1060 1060" fill="none" xmlns="http://www.w3.org/2000/svg">
<rect width="1060" height="1060" fill="white"/>
<path d="M799.428 311.443H260.665C235.211 311.443 214 331.809 214 358.116V663.609C214 689.067 234.363 710.281 260.665 710.281H296.299V820.599C296.299 843.511 309.026 863.877 328.54 874.06C336.176 878.303 344.661 880 353.145 880C365.872 880 377.75 875.757 388.78 868.12L566.954 711.13H799.428C824.882 711.13 846.093 690.764 846.093 664.457V358.964C846.093 332.658 824.882 311.443 799.428 311.443ZM364.175 835.874C356.539 841.814 349.752 839.268 347.206 837.57C344.661 835.873 337.873 831.63 337.873 820.599V521.045C337.873 501.527 351.448 472.676 366.72 459.947L534.713 313.989V685.672L364.175 835.874Z" fill="#0050FF"/>
<path d="M738.34 217.249C738.34 191.791 711.19 167.182 678.949 190.094L569.499 282.59H738.34V217.249Z" fill="#0050FF"/>
</svg>
