<svg width="256" height="256" viewBox="0 0 256 256" fill="none" xmlns="http://www.w3.org/2000/svg">
<rect width="256" height="256" fill="white"/>
<path fill-rule="evenodd" clip-rule="evenodd" d="M179.327 205.128C174.863 205.866 171.291 208.971 169.853 213H33V43H169.851C171.285 47.0348 174.855 50.1542 179.356 50.8771C184.468 51.7008 187.908 53.4824 190.115 55.9127L190.123 55.9215C192.131 58.1255 193.851 61.6335 194.503 67.299V116.112H177.784C171.169 116.112 165.638 121.405 165.638 128.13C165.638 134.856 171.169 140.148 177.784 140.148H194.503V188.7C193.85 194.355 192.13 197.877 190.123 200.079L190.115 200.087C187.908 202.518 184.468 204.299 179.356 205.123L179.327 205.128ZM147.02 131.487C159.801 103.214 170.122 80.5468 179.705 63H161.518C160.781 81.7684 153.406 106.629 139.645 137.096L133.501 151.231L94.4267 63H55.1063L115.809 199H117.037L143.825 138.555L147.02 131.487Z" fill="#212121"/>
<path d="M177.784 133.148C174.963 133.148 172.672 130.899 172.672 128.13C172.672 125.361 174.963 123.112 177.784 123.112H201.537V66.9164C200.804 59.9857 198.638 54.8451 195.333 51.2191C191.749 47.2718 186.652 44.9615 180.48 43.9671C177.706 43.5234 175.82 40.953 176.272 38.2144C176.724 35.4911 179.342 33.6398 182.132 34.0835C190.564 35.4452 197.687 38.7805 202.924 44.5484C204.264 46.0172 205.464 47.639 206.524 49.3984C207.864 47.1188 209.454 45.1145 211.278 43.3398C216.748 38.0155 224.074 35.1086 232.817 34.0376C235.623 33.701 238.163 35.6594 238.506 38.4133C238.849 41.1672 236.854 43.6611 234.049 43.9977C227.503 44.7932 222.188 46.8128 218.463 50.4388C214.769 54.0342 212.431 59.389 211.761 66.9317V123.096H235.888C238.709 123.096 241 125.346 241 128.115C241 130.884 238.709 133.133 235.888 133.133H211.761V189.068C212.431 196.611 214.769 201.981 218.463 205.561C222.188 209.172 227.503 211.207 234.049 212.002C236.854 212.339 238.849 214.848 238.506 217.587C238.163 220.341 235.623 222.299 232.817 221.962C224.074 220.891 216.748 217.984 211.278 212.66C209.454 210.885 207.864 208.881 206.524 206.602C205.464 208.376 204.264 209.983 202.924 211.452C197.671 217.219 190.549 220.555 182.132 221.916C179.358 222.36 176.739 220.509 176.272 217.786C175.82 215.062 177.706 212.492 180.48 212.033C186.652 211.038 191.749 208.728 195.333 204.781C198.638 201.155 200.804 195.999 201.537 189.084V133.148H177.784Z" fill="#212121"/>
</svg>
