<svg width="1060" height="1060" viewBox="0 0 1060 1060" fill="none" xmlns="http://www.w3.org/2000/svg">
<rect width="1060" height="1060" fill="white"/>
<path d="M863.269 259.421H196.732C165.242 259.421 139 284.624 139 317.177V695.22C139 726.723 164.192 752.976 196.732 752.976H240.818V889.492C240.818 917.845 256.562 943.048 280.705 955.65C290.152 960.9 300.648 963 311.145 963C326.89 963 341.585 957.749 355.231 948.298L575.66 754.026H863.269C894.758 754.026 921 728.823 921 696.27V318.227C921 285.674 894.758 259.421 863.269 259.421ZM324.791 908.394C315.344 915.745 306.946 912.594 303.797 910.494C300.648 908.394 292.251 903.143 292.251 889.492V518.799C292.251 494.647 309.046 458.943 327.94 443.191L535.773 262.572V722.523L324.791 908.394Z" fill="#0050FF"/>
<path d="M787.693 142.858C787.693 111.354 754.103 80.8999 714.216 109.253L578.809 223.716H787.693V142.858Z" fill="#0050FF"/>
</svg>
