<svg width="2366" height="2366" viewBox="0 0 2366 2366" fill="none" xmlns="http://www.w3.org/2000/svg">
<rect width="2366" height="2366" fill="white"/>
<path d="M457.5 1062.79C435.387 1103.59 411.573 1156.31 382.081 1222.06L374.71 1238.5L312.899 1379.07H310.064L170 1062.79H260.728L350.889 1267.97L365.064 1235.1C396.816 1164.25 413.833 1106.43 415.534 1062.79H457.5Z" fill="#212121"/>
<path d="M616.85 1055.99C709.853 1055.99 777.326 1117.77 777.326 1213.57C777.326 1309.36 705.877 1374.54 612.314 1374.54C519.311 1374.54 451.83 1312.76 451.83 1216.97C451.83 1121.17 522.72 1055.99 616.85 1055.99ZM613.448 1063.93C565.245 1063.93 540.297 1120.61 540.297 1214.13C540.297 1307.1 568.08 1366.61 615.149 1366.61C663.351 1366.61 688.866 1309.93 688.866 1217.53C688.866 1124 661.083 1063.93 613.448 1063.93Z" fill="#212121"/>
<path d="M968.435 1055.99C1020.04 1055.99 1058.6 1075.82 1085.25 1105.87L1056.33 1131.37C1029.68 1086.59 1008.13 1064.49 975.807 1064.49C928.171 1064.49 898.687 1115.5 898.687 1199.39C898.687 1292.35 934.408 1341.09 991.69 1341.09C1024.01 1341.09 1056.33 1324.65 1081.85 1290.08L1088.65 1294.05C1053.49 1347.89 1008.7 1374.53 954.827 1374.53C873.172 1374.53 809.093 1313.32 809.093 1219.79C807.392 1122.3 881.677 1054.29 968.435 1055.99V1055.99Z" fill="#212121"/>
<path d="M1402.23 1354.7C1388.62 1363.77 1365.93 1373.41 1338.72 1373.41C1299.59 1373.41 1284.27 1352.44 1280.31 1330.33C1253.66 1357.54 1217.93 1373.41 1182.21 1373.41C1134.01 1373.41 1102.26 1343.37 1102.26 1300.85C1102.26 1249.27 1149.89 1214.13 1227.01 1205.63C1251.97 1203.93 1269.54 1202.23 1279.75 1201.1V1169.92C1279.75 1141.01 1275.21 1118.9 1266.14 1103.03C1257.63 1086.6 1239.49 1078.66 1211.69 1078.66C1182.21 1078.66 1154.42 1089.43 1127.77 1110.4L1122.67 1104.17C1157.26 1072.43 1189.58 1055.99 1243.45 1055.99C1323.41 1055.99 1363.67 1091.13 1363.67 1164.25V1309.36C1363.67 1340.53 1364.81 1352.44 1390.9 1352.44C1393.73 1352.44 1397.7 1351.87 1402.24 1351.3V1354.7H1402.23ZM1279.74 1209.6C1215.66 1216.97 1183.34 1244.18 1183.34 1290.09C1183.34 1326.37 1202.06 1346.21 1227.57 1346.21C1246.28 1346.21 1263.29 1337.14 1279.74 1319.57V1209.6V1209.6Z" fill="#212121"/>
<path d="M1596.73 1374.54C1550.8 1374.54 1513.94 1362.07 1486.72 1337.13L1440.23 1372.84H1437.96V932.42L1519.61 908.616H1521.88V1102.47C1550.24 1071.3 1582.56 1055.99 1618.29 1055.99C1691.44 1055.99 1749.28 1120.04 1749.28 1209.03C1749.28 1304.82 1681.23 1374.54 1596.73 1374.54V1374.54ZM1591.06 1079.8C1566.68 1079.8 1543.44 1092.27 1521.88 1117.21V1307.09C1531.52 1342.8 1555.9 1364.9 1585.96 1364.9C1633.6 1364.9 1660.25 1309.92 1660.25 1215.27C1660.25 1119.47 1635.86 1079.8 1591.06 1079.8V1079.8Z" fill="#212121"/>
<path d="M1796.33 932.42L1878 908.616H1880.26V1367.75H1796.33V932.42Z" fill="#212121"/>
<path d="M2196.11 1062.79C2173.99 1103.59 2151.31 1156.31 2124.66 1218.09L2118.42 1233.4L2040.17 1414.21C2012.94 1476 1970.42 1500.37 1912.01 1500.37L1916.55 1458.43C1927.32 1462.96 1939.23 1465.23 1951.13 1465.23C1983.46 1465.23 2015.21 1447.66 2029.39 1413.65L2046.4 1374.54L1909.73 1062.79H1999.9L2090.63 1270.81L2108.77 1229.43C2137.7 1161.98 2152.44 1106.43 2154.13 1062.79H2196.11Z" fill="#212121"/>
</svg>
