<svg width="236" height="236" viewBox="0 0 236 236" fill="none" xmlns="http://www.w3.org/2000/svg">
<rect width="236" height="236" rx="48" fill="white"/>
<path fill-rule="evenodd" clip-rule="evenodd" d="M163.967 192.182C157.591 193.242 152.566 197.984 151.013 204H19V34H151.013C152.563 40.0174 157.576 44.786 164.013 45.8256C168.498 46.5517 170.979 48.0313 172.392 49.5947L172.405 49.6085C173.685 51.0204 175.13 53.615 175.726 58.5337V103.112H163.088C154.348 103.112 147 110.144 147 119.13C147 128.116 154.348 135.148 163.088 135.148H175.726V179.465C175.129 184.376 173.682 186.983 172.405 188.391L172.392 188.405C170.979 189.969 168.498 191.448 164.013 192.174L163.967 192.182ZM132.472 122.487C145.191 94.2145 155.462 71.5468 165 54H146.9C146.166 72.7684 138.827 97.6294 125.132 128.096L119.018 142.231L80.1313 54H41L101.41 190H102.633L129.292 129.555L132.472 122.487Z" fill="#212121"/>
<path d="M163.088 124.148C160.28 124.148 158 121.899 158 119.13C158 116.361 160.28 114.112 163.088 114.112H186.726V57.9164C185.997 50.9857 183.841 45.8451 180.553 42.2191C176.985 38.2718 171.913 35.9615 165.771 34.9671C163.01 34.5234 161.133 31.953 161.583 29.2144C162.033 26.4911 164.639 24.6398 167.415 25.0835C175.807 26.4452 182.895 29.7805 188.107 35.5484C189.441 37.0172 190.635 38.639 191.69 40.3984C193.024 38.1188 194.606 36.1145 196.421 34.3398C201.865 29.0155 209.155 26.1086 217.857 25.0376C220.649 24.701 223.177 26.6594 223.518 29.4133C223.859 32.1672 221.874 34.6611 219.082 34.9977C212.568 35.7932 207.278 37.8128 203.571 41.4388C199.895 45.0342 197.568 50.389 196.901 57.9317V114.096H220.912C223.72 114.096 226 116.346 226 119.115C226 121.884 223.72 124.133 220.912 124.133H196.901V180.068C197.568 187.611 199.895 192.981 203.571 196.561C207.278 200.172 212.568 202.207 219.082 203.002C221.874 203.339 223.859 205.848 223.518 208.587C223.177 211.341 220.649 213.299 217.857 212.962C209.155 211.891 201.865 208.984 196.421 203.66C194.606 201.885 193.024 199.881 191.69 197.602C190.635 199.376 189.441 200.983 188.107 202.452C182.88 208.219 175.791 211.555 167.415 212.916C164.654 213.36 162.048 211.509 161.583 208.786C161.133 206.062 163.01 203.492 165.771 203.033C171.913 202.038 176.985 199.728 180.553 195.781C183.841 192.155 185.997 186.999 186.726 180.084V124.148H163.088Z" fill="#212121"/>
</svg>
