<svg width="330" height="204" viewBox="0 0 330 204" fill="none" xmlns="http://www.w3.org/2000/svg"><rect width="330" height="203" rx="20" fill="#F2F2F2"/><mask id="a" style="mask-type:alpha" maskUnits="userSpaceOnUse" x="51" y="8" width="227" height="194"><path fill="#D9D9D9" d="M51 8h227v194H51z"/></mask><g mask="url(#a)"><path d="M257.1 180v181.4c0 8.6-.4 30-16.4 31.4-9.1.8-70.3 1.3-94.1 1.1-52.7-.4-59.4 1.1-66.2-10.5-3-5-4.8-25-4.1-52.2.7-27.3.4-89.3 1.1-133.7.8-44.5-1.8-94.1-.7-118.8 1.1-24.6 0-34.3 4.5-42.2 4.5-7.8 13.4-8.6 30.3-8.6 16.8 0 85.9-.7 105.7-1a74 74 0 0 1 28.4 3.3s5.6 1.5 8.6 7.8c3 6.4 2.6 12 3.7 32.9s-.8 83.3-.8 109Z" fill="#E6E6E6"/><path d="M260.2 156.6c-.7-42.1 1.5-66 1.5-87.1 0-21.2 0-31.4-14.9-41.8-15-10.5-24.9-3.8-58.3-4.3-33.3-.5-81.4-1.2-96.3 2-15 3.3-17 12-17 12s-3.7 71.6-3 139.3c.7 67.7 0 61.2 0 105.6 0 44.2 0 81.4.5 92 .5 10.8 7.5 19.3 25.2 22 17.6 2.7 101.3 0 118 .2 16.7.2 25.7.5 32.9-4 7.2-4.5 10.5-13 11.5-24.7s.2-51.2-.5-102c-.8-50.7 1.1-67.1.4-109.2Zm-8.2 222c-5 10.2-4 12.5-20 13.2-15.9.7-69.7-.2-83.4-.2-13.6 0-28.1.7-42.8-.2-14.7-1-20.7-1.3-23.6-10-3-8.7-4.3-25.7-4-48.3.2-22.6 2-111 1.5-149-.5-38.2-1-91.7-.5-110.6.2-11.2 0-23.6 1.7-30.4.7-2.5 3.5-7.7 6.5-9.2 5.6-2.8 8.2-3.5 15.4-3.5l12.1-.1c1.4.3 2.7 1 3.2 2.6.6 1.9.4 4.3 2 7.6 1.7 3.4 2.5 5.3 16.5 5.1 14-.2 43 .4 57.1.4 14.2 0 18.2-.7 20.4-4.7 2.3-4 1.4-6.3 1.9-8 .7-2.4 2.8-3.7 6.9-3.7l12 .1c7 .7 11.9 2.3 15 6 3.3 3.7 5 8.7 5 20l-.5 118-.2 165.6c0 13.7 2.8 29.1-2.2 39.3Z" fill="#333"/><path d="M263.5 73.9s2.5-1.2 2.6 0c.2 1.1.6 12.2.2 13.7-.3 1.6-.6 2-2.1 2-1.7 0-.7-15.7-.7-15.7Z" fill="gray"/><path d="M263.8 74c.4-.3 1-.7 1.5-.5.5.1.4.6.5 1l.2 3.6c0 3 .2 5.9 0 8.8l-.3 1.5c0 .2-.1.6-.4.9-.1.2-.7.3-1 .2-.4-.2-.4-1.4-.5-1.8-.3-2.7-.2-5.4-.2-8l.3-6s-.8 0-.8.3l-.2 6c-.1 2.7-.3 5.7.2 8.5 0 .4 0 .8.3 1 .2.4.6.3 1 .3.6 0 1.3-.2 1.7-.7a3 3 0 0 0 .6-1.8c.2-1.2.2-2.6.2-3.9l-.2-5.4c0-1.4 0-2.8-.2-4.1-.2-1.4-2.5-.5-3.2-.1-.5.3.3.2.5.1Z" fill="#4D4D4D"/><path d="M262.7 102.3s3.4-1.4 3.4.2c0 1.6 1 25.2.2 27.2-.7 2-4.3 1.4-4.3 1.4l.7-28.8Z" fill="gray"/><path d="M263 102.4c.5-.2 2.3-1 2.7 0 .2.3 0 1 0 1.5.1 2.2.3 4.4.3 6.7.2 5.6.4 11.2.2 16.8l-.1 2.1c-.3 1.3-1.7 1.5-3 1.5h-.7v-1.8l.4-14.8.2-7.7V104c0-.5.2-1 .1-1.5v-.2c0-.3-.8 0-.8.2l-.2 9.7-.5 15.6v3.6c2 .4 5 0 5.3-2.3.2-2.3.1-4.7.1-7 0-6.1-.3-12.1-.4-18.1 0-.6.1-1.7-.4-2.1-1-.6-2.7 0-3.6.4-.5 0 0 .2.3.1Z" fill="#4D4D4D"/><path d="M263.4 138.7s1.8-1 2.4.3c.6 1.1 2 26 .4 27.6-1.7 1.6-4.2.6-4.2.6l1.4-28.5Z" fill="gray"/><path d="M263.6 138.8c.7-.4 1.6-.4 1.8.6.2.6.2 1.3.3 2l.5 7c.3 5.2.6 10.5 0 15.8 0 .6 0 1.3-.2 2-.4 1.2-2.2 1.2-3.3 1l-.5-.2v.1-.4c.2-.5.2-1.1.2-1.7l.7-14.6.6-11.4v-.2c0-.4-.8-.2-.8 0l-.4 9.7-.8 15.3-.1 3.5v.2a5 5 0 0 0 4-.1c.8-.4 1.1-1 1.3-1.8.5-2.2.4-4.6.4-6.8 0-5.9-.2-11.8-.8-17.7 0-.6 0-1.4-.3-2-.4-1.4-2.2-.9-3-.4-.6.1.1.3.4.1Z" fill="#4D4D4D"/><path d="M265 330.8a8095 8095 0 0 1-.8-149.3c.4-22 0-72.8 0-96 0-23 3-38-3.4-50.4-6.3-12.3-24.2-14.9-38.8-14.1-10.8.5-47 .4-71.3 0-24.3-.4-47.9-1.6-57.2.7C84 23.9 71 27.3 69.9 52a1749 1749 0 0 0-.7 93.3c.4 25 .4 38.5.4 71.7s.4 68.7-.4 97c-.7 28.4.3 39.6.4 52.7 0 6.6-.7 17.2 7 25.4 8 8.2 20.2 9 36.3 9 16.1 0 118.5 1.5 126.7 0 8.2-1.6 20.6-7.9 23.1-18.7 2.6-10.9 2.6-32.9 2.2-51.6ZM257 180v181.4c0 8.6-.4 30-16.4 31.4-9.1.8-70.3 1.3-94.1 1.1-52.7-.4-59.4 1.1-66.2-10.5-3-5-4.8-25-4.1-52.2.7-27.3.4-89.3 1.1-133.7.8-44.5-1.8-94.1-.7-118.8 1.1-24.6 0-34.3 4.5-42.2 4.5-7.8 13.4-8.6 30.3-8.6 16.8 0 85.9-.7 105.7-1a74 74 0 0 1 28.4 3.3s5.6 1.5 8.6 7.8c3 6.4 2.6 12 3.7 32.9s-.8 83.3-.8 109Z" fill="gray"/><path d="m265.3 330.7-.3-32.1c-.2-17-.3-33.8-.3-50.8l-.2-47.6.2-35.7-.1-61.8c0-9.7-.2-19.3.2-29 .3-10.2 1.5-21-.8-31a28 28 0 0 0-5.4-11.6c-3-3.5-7.1-5.9-11.4-7.4a71 71 0 0 0-27.3-3c-20 .7-40 .3-60 0-13.1 0-26.1-.5-39.2-.6-9 0-18.8-.6-27.8 1.5-5.5 1.3-11 3.2-15 7.2-6.6 6.3-8 15.9-8.4 24.6-1 24-1 48.1-1 72.2.2 20 .6 40 .6 60l.2 79c0 13.3 0 26.6-.3 40-.2 11.8-.6 23.6-.4 35.5l.5 23c.2 9.1-.6 18.8 5.2 26.7 6 8.2 16 10.4 25.6 11 6.5.5 13 .4 19.4.5 13.3 0 26.6.3 39.9.4l48.7.2c10 0 20.3.4 30.4-.5 6.5-.6 13.4-4 18.2-8.5a22 22 0 0 0 6.9-11.5c1-4.8 1.4-9.7 1.7-14.6.6-12 .5-24.1.2-36 0-.3-.8-.1-.8.1.3 12.6.5 25.2-.4 37.7-.3 4.5-.7 9.1-1.8 13.6a22.2 22.2 0 0 1-8.6 12.4 31.9 31.9 0 0 1-17 6.5c-4.4.2-8.7.3-13.1.3-14.6.2-29.3 0-43.8 0-15.3 0-30.7-.2-46-.4H118c-7.4 0-14.8.1-22.1-.8-5-.6-10-1.9-14.4-4.5-4.5-2.8-8-7.2-9.7-12.2-2.8-7.8-1.8-16.6-2-24.8l-.5-24c0-12.2.4-24.3.6-36.4.3-27 0-54 0-81 0-21 0-41.9-.2-62.9-.3-22.3-.6-44.6-.3-66.8.1-11.7.4-23.4 1-35.1.3-9 2.2-18.9 9.6-24.9 4.6-3.7 11-5.5 16.7-6.3 11-1.4 22.3-.7 33.2-.5 23.3.4 46.5.8 69.7.7 7.7 0 15.3 0 23-.4a53 53 0 0 1 30.3 6.1c8 5.2 10.7 14.1 11.4 23 .8 11.1-.4 22.5-.5 33.7-.1 19 .1 38 .2 57l-.2 45.9c-.2 13-.1 26 0 39a15572.2 15572.2 0 0 0 .6 93.6l.2 11.6c0 .3.7 0 .7-.2Z" fill="#4D4D4D"/><path d="M256.7 180v170.6c0 8.6.6 17.6-1.3 26.1-1 4-2.5 8-5.2 11.2a14.7 14.7 0 0 1-10.5 4.8 3332.5 3332.5 0 0 1-105 1c-10.1 0-20.3 0-30.4-.4-5-.2-10.6-.4-15.4-2.3a15.7 15.7 0 0 1-7.6-6.8 21.3 21.3 0 0 1-2.4-6.8c-.9-4.4-1.3-8.8-1.6-13.3a374 374 0 0 1-.4-36.7c.4-21.6.4-43.2.5-64.8 0-25.2.5-50.4.6-75.7.2-27.2-.7-54.4-1-81.5-.2-10.3 0-20.6.3-30.9l.6-17.9c.1-4 .3-8.1 1-12.1.5-3 1.4-6 3-8.5A15 15 0 0 1 92 29.5c8.5-2 17.6-1.2 26.2-1.3 17.7 0 35.3-.3 53-.5 16.4-.2 32.8-.7 49.3-.6 8 0 16.6.4 24.3 3.2 5.7 2 9.2 6.8 10.6 12.5.8 3.3 1 6.6 1.2 9.9l.8 17c.4 7.8.4 15.6.4 23.4 0 21-.5 41.8-.8 62.7-.2 8-.3 16.2-.3 24.3 0 .2.8 0 .8-.2 0-19.6.6-39 .9-58.6.2-18.8.5-37.4-.4-56.2-.3-5.1-.4-10.3-.9-15.5-.2-3-.5-6-1.5-8.9a16.6 16.6 0 0 0-10.8-11c-8-2.7-17-3-25.4-3l-21.6.3c-19.4.3-39 .4-58.5.6l-23 .2c-8.6 0-17.8-.8-26.2 1.8-6.7 2-10.4 7.1-11.8 13.7-.8 3.6-1 7.3-1.2 11-.3 5.6-.4 11.2-.5 17-.4 10.6-.6 21.2-.6 31.9.1 13 .5 26 .7 39 .5 27.4.2 54.8 0 82.2l-.4 75.5-.3 28.6c-.3 12.6-.5 25.2.6 37.8.5 6.2.8 13.5 4.3 18.8 2 3 4.4 5.1 7.6 6.4 5 1.8 10.5 2 15.7 2.2 10.3.5 20.5.4 30.8.4h59.2l28.5-.5c5.8-.1 11.6-.1 17.4-.5 15.8-1.3 17.4-20 17.4-32.3v-181c0-.1-.8 0-.8.3Z" fill="#4D4D4D"/><path d="M70.2 95.7c0 1.4 1-3.8 1.5-8.3.4-4.5 0-31.7 1.8-41.2 1.7-9.5 4-12.6 9-16.2 5-3.5 10.7-5.2 26.4-5.7 15.8-.6 88 .7 98.4-.3 10.4-1 15.6-.8 14.7-1.4-.8-.5-51.7-.2-64.5 0-12.8.1-52.5-.5-58.1-.3A29.6 29.6 0 0 0 76 33.6c-4.3 6.1-4.4 18.6-4.7 26.2-.2 7.6-1 23.7-1 35.9Zm176.6-68c-.5.5 7.6 4.4 10.5 16 2.9 11.6 2.2 33 2.3 45.2.2 12.3-.8 20.7-.6 27 0 4-.5 5.7.5 4 1-1.7 3.4-61.4.7-73-2.7-11.6-5.1-14.2-7.8-16.5-2.7-2.4-5.2-3.3-5.6-2.7Z" fill="#B3B3B3"/><path d="M146 38.8a2.6 2.6 0 1 0 0-5.2 2.6 2.6 0 0 0 0 5.2Z" fill="gray"/><path d="M155.6 36.4s5 .2 10.2.2H179" stroke="gray" stroke-width="5" stroke-miterlimit="10" stroke-linecap="round"/><path d="M82 27.8c1.2-.8 5.4-3.3 6-2.2.5 1.2-4.4 2.6-9.4 7.3-1.4 1.3-2.6 1.3-1.5-.4a16 16 0 0 1 5-4.7Zm170.4 4.1c-.8.5 1.3 1.7 3 5.6 1.5 4 2.4 6.7 3 5.6.6-1.2-.7-5.7-2.5-8.5s-3-3-3.5-2.7Z" fill="#E6E6E6"/></g><g filter="url(#b)"><path d="m232.7 90.6-23.2-.2h-36.2c-7.6 0-29.2.5-36.8.5l-39.8-.2c-5.3 0-5.3 4.3-5.3 5.7 0 0 .6 12.5.6 17.7v23.1l-.3 25.2.2 27.8c0 1.4.2 4.7 3.7 4.5l33.1-.2 54.8.2c8.7 0 25.4.5 34.1.5h18c5.4-.2 6.2-5.3 6.2-6.7l-.1-18.6.4-32.4c0-6.7-.4-17.6-.4-24.4l-.2-16.6c.4-4.4-2.6-5.9-8.8-5.9Z" fill="#fff"/></g><path d="m232.9 90.4-21.4-.2h-29.9c-8.5 0-17 0-25.6.2l-24.6.3-26.7-.2h-7.4c-1.2 0-2.3 0-3.4.5a5 5 0 0 0-2.6 3.5 7 7 0 0 0-.1 2.5l.1 4.5c.2 4.3.4 8.5.4 12.7v29.1l-.3 28.7.2 13.2c0 2-.2 4.2 0 6.2.3 1.8 1.4 3.3 3.3 3.4h11.4l24.4-.3 29 .2 27.2.1c10.3.1 20.4.4 30.7.4H235c1.4 0 2.9-.2 4.1-1 2.3-1.3 3.2-3.9 3.2-6.4v-12c-.1-9.4.1-19 .3-28.5 0-4.4.2-8.7.1-13 0-5.8-.3-11.6-.4-17.2l-.1-13.2v-6l-.1-3c-.6-4.2-5.9-4.5-9.2-4.5-.3 0-1 .4-.4.4 2.3 0 5 .1 7 1.4 1.5 1 1.7 2.6 1.7 4.3l.2 9.3V119l.5 16.7c0 9.3-.3 18.7-.4 28v24.4c0 2.7-1.4 5.7-4.3 6.5-1 .3-2.2.2-3.2.2h-5.8l-27.9-.4-27-.2c-10.2 0-20.4 0-30.5-.2a1671.7 1671.7 0 0 0-45.8.2c-.8 0-1.8.1-2.5-.2-1.7-.6-2-2.5-2-4l-.1-6.6c-.1-8.5-.2-17-.1-25.6.1-10 .3-19.8.3-29.8 0-9 0-18.1-.4-27.2l-.2-4.3c0-.8 0-1.7.2-2.5.5-2 2-3.2 4-3.3H98l22 .2h23.7c9-.2 18-.4 27-.4H199l26.5.1 7 .1c.3 0 1-.4.4-.4Z" fill="#666"/><path d="M139.3 158.7c19.6 0 46 1.5 64.7 1.2 14.3-.1 29.8-.5 36.4-.6l.2-18.4V114l-.1-16.6c.2-4.3-2.8-5.8-9-5.8l-23.1-.2c-9.2 0-26.3.5-35.4.5l-36.6.2c-12.3 0-40.3-.5-40.3-.5-5.3 0-5.8 4.4-5.8 5.8 0 0 .6 12.5.6 17.6v23.2c0 6.2-.4 14.3-.4 20.9l1.2-.2c11.9-1 28-.2 47.6-.2Z" fill="#fff"/><path d="M90.9 191.2c0 1.4.2 4.7 3.7 4.5l33-.3 54.9.3c8.7 0 25.4.4 34 .4h18c5.5-.2 6.3-5.3 6.3-6.6 0 0-.4-15-.4-21.8v-8.4l-36.3.7c-18.7.2-45.1-1.2-64.8-1.2-19.6 0-35.7-1-47.6.1a5 5 0 0 0-1.1.2v.8l.3 31.3Z" fill="#F2F2F2"/><path d="m231.7 91.4-21.3-.2c-10.2 0-20.3.3-30.5.4-8.6 0-17.2 0-25.8.2-8.1 0-16.2.2-24.3.1l-26.5-.3-6.8-.1c-3 0-5.7 1.4-6.4 4.6-.2.8-.1 1.5-.1 2.3l.2 5c.2 4.2.3 8.3.3 12.5 0 10.4.2 20.9 0 31.2-.3 9.5-.3 19-.2 28.4l.1 11.8c0 1.8-.1 3.9.2 5.6.4 1.9 1.7 3 3.6 3h1.7l9.8-.2h53.6l26.9.2c10.2.1 20.4.4 30.6.4h12.9c2.8 0 6.1.5 8.6-1 2-1.4 3-4 2.9-6.3l-.2-10.4c-.3-11-.1-21.8 0-32.7.2-9.5.1-19 .1-28.5V99l-.1-3.1c-.7-4.3-6-4.5-9.3-4.5-.3 0-.9.5-.3.5 2.2 0 4.9 0 6.8 1.2 1.6 1 2 2.6 1.9 4.4v9.1c.2 9.4.1 18.7.1 28.1l-.3 31c0 7.8.2 15.7.4 23.6 0 2.6-1.3 5.5-4 6.4-1 .3-2.2.3-3.4.3h-5.6a4604 4604 0 0 1-55-.5 306913.5 306913.5 0 0 0-54-.2l-22.4.2h-2.1c-2-.3-2.5-2.2-2.6-3.9V186l-.2-24.3.2-16.2.1-15.3c0-9 0-18.2-.3-27.3l-.2-4.9.1-2.4c.5-1.8 1.7-3.2 3.5-3.6h2.4l21.3.2c7.8.2 15.8.2 23.7.2L169 92a1194.9 1194.9 0 0 1 55.1-.3l7.1.1c.4 0 1-.5.4-.5Z" fill="#666"/><path d="M107.2 129.7a1 1 0 1 0 0-2 1 1 0 0 0 0 2Zm0 9.8a1 1 0 1 0 0-2 1 1 0 0 0 0 2Z" fill="gray"/><path d="M100.4 120.3c8.8.4 17.5.1 26.2 0 7.7-.3 15.3-.4 23-.5l30-.3 24-.2c9.5 0 19 0 28.5-.5h.4c.5 0 .6-.6 0-.6-8.7.4-17.6.6-26.3.6h-23l-29.8.4-24.6.4-10.6.3-16.6-.1h-.9c-.3 0-.8.5-.3.5Z" fill="#CCC"/><g filter="url(#c)"><path d="M228.6 56.6s-32.8-.6-44.2-.6l-28.9.4c-8 0-22.9.6-30.8.6l-20.5-.3a12.7 12.7 0 0 0 0 25.3s27.2-.4 37.1-.4l31.8.4c7.2 0 23.3-.6 30.6-.6l25.6.2c7 0 12-5.3 12-12.3 0-7-5.7-12.7-12.7-12.7Z" fill="gray"/><path d="M228.9 56.4a3358.8 3358.8 0 0 0-55.4-.6l-38.6.7c-5.7.1-11.4.2-17.1 0l-13.3-.1a13.5 13.5 0 0 0-13.3 10.1 13 13 0 0 0 8.7 15.2c3 1 6.4.6 9.6.5l16.5-.1h33.8c5.7.2 11.4.2 17 .2l20.2-.5c10.2-.1 20.4 0 30.6.2 1.6 0 3.2 0 4.7-.4 3-.8 5.7-2.5 7.4-5a13.2 13.2 0 0 0-2.3-17.1 13 13 0 0 0-8.5-3.1c-.3 0-.8 0-.8.3-.1.2 0 .3.3.3a12.5 12.5 0 0 1 8.9 21.2 11 11 0 0 1-7.8 3.1c-8.8 0-17.5-.2-26.3-.1-11.8 0-23.7.6-35.5.5-11.2-.1-22.5-.4-33.8-.3l-28.7.3c-1.8 0-3.6-.2-5.3-.9a12.5 12.5 0 0 1-.4-22.8 14 14 0 0 1 5.7-1l6.7.2c5.3.1 10.6.2 16 .1l20.9-.4c5.6-.2 11.3-.2 16.9-.3 10.5-.1 21-.2 31.6 0a2538 2538 0 0 1 31.1.5c.4-.1 1.2-.7.5-.7Z" fill="#4D4D4D"/></g><path d="M113 103.8c.4 0 .8.2 1.1.6l.5 1c0 .3-.1.3-.3.3-.1 0-.3 0-.5-.2-.3-.2-.5-.3-.8-.3a3 3 0 0 0-1.2.4c-.5.3-.8.6-.8 1 0 .2.5.6 1.5 1.2l1 1c.3.3.4.7.4 1.1 0 .5-.3.9-.8 1.3a3.8 3.8 0 0 1-4 0c-.7-.4-1-.7-1-1v-.4l.4-.1.4.2a3 3 0 0 0 1.8.6c.6 0 1 0 1.4-.2.2-.1.4-.3.4-.6 0-.2-.2-.5-.5-.7a6 6 0 0 0-1-.8 5 5 0 0 1-1-.7c-.3-.4-.5-.7-.5-1 0-.6.5-1.1 1.3-1.7 1-.7 1.7-1 2.3-1Zm7.5 0c.5 0 .9.3 1.2.9.4.5.5 1.2.5 1.8 0 .6-.1 1.2-.5 1.9a7.2 7.2 0 0 1-3.1 2.8 4 4 0 0 1-1.8.5h-.6a105.3 105.3 0 0 0-.8 3c-.2.8-.3 1.2-.5 1.2-.1 0-.3-.1-.4-.4a1 1 0 0 1-.3-.6l.5-2.3c1-4.2 1.6-7 1.6-8.4 0-.3 0-.5.3-.5l.7.4c.3.3.4.6.4 1v.5c.9-1.2 1.9-1.8 2.8-1.8Zm-3.9 6.7c.6 0 1.2-.2 1.9-.6.6-.4 1.2-.9 1.6-1.5.5-.7.7-1.3.7-2 0-.8-.2-1.2-.6-1.2-.4 0-1 .3-1.7 1s-1.2 1.7-1.7 2.8l-.3 1.5h.1Zm12.7-4c0 .5-.3 1-.9 1.4a4 4 0 0 1-2 .5 8 8 0 0 1-2.2-.3l-.2 1.3c0 .4.1.7.3.9.3.2.7.3 1.2.3l1.6-.3 1-.3c.2 0 .4.1.4.3 0 .3-.4.6-1 1a5 5 0 0 1-2 .5 3 3 0 0 1-2-.8c-.5-.5-.7-1.1-.7-1.9a6.6 6.6 0 0 1 2.2-4.5 3 3 0 0 1 1.8-.8c.7 0 1.2.3 1.7 1 .6.5.8 1.1.8 1.7ZM127 105c-.4 0-.8.2-1.2.6l-1.1 1.5 1.5.2c.5 0 1-.1 1.4-.3.4-.2.6-.4.6-.7 0-.3-.1-.6-.4-.9-.3-.3-.5-.4-.8-.4Zm6.4-4.4a32.5 32.5 0 0 1-2.4 11c-.1 0-.3 0-.5-.3l-.3-.5.5-2a59 59 0 0 0 1.7-9.6c.2 0 .3.2.6.5s.4.6.4.9Zm7.2 5.8c0 .5-.4 1-1 1.4a4 4 0 0 1-2 .5 8 8 0 0 1-2.1-.3l-.3 1.3c0 .4.1.7.4.9.2.2.6.3 1.1.3l1.6-.3 1-.3c.2 0 .4.1.4.3 0 .3-.3.6-1 1-.6.3-1.3.5-1.9.5-.8 0-1.5-.3-2-.8-.6-.5-.8-1.1-.8-1.9a6.6 6.6 0 0 1 2.2-4.5 3 3 0 0 1 1.9-.8c.6 0 1.2.3 1.7 1 .5.5.8 1.1.8 1.7ZM138 105c-.4 0-.8.2-1.2.6a5 5 0 0 0-1 1.5l1.4.2c.5 0 1-.1 1.4-.3.4-.2.6-.4.6-.7 0-.3-.1-.6-.4-.9a1 1 0 0 0-.8-.4Zm4.8 3.9c1-1.8 1.9-3 2.5-3.9.7-.8 1.2-1.3 1.6-1.3.4 0 .8.2 1.2.7.4.4.6.9.6 1.4 0 .7-.2 1.7-.6 2.8-.6 2-1.2 3-1.7 3-.2 0-.4-.1-.4-.4l.4-1.4a48.2 48.2 0 0 0 1-3.5l-.2-.8-.3-.2h-.3l-.4.4a14.5 14.5 0 0 0-1.8 2.6 101.2 101.2 0 0 1-2.4 3.4c-.2 0-.3-.2-.5-.4l-.4-.6.2-.5.6-2.3c.3-.9.4-2 .4-3 0-.9.2-1.2.4-1.2s.4 0 .7.3c.2.3.3.5.3.8 0 .3 0 .9-.2 1.7l-.7 2.4Z" fill="#212529"/><path d="M142 74.1c-.2 0-.4 0-.5-.2a.8.8 0 0 1-.2-.5v-8.5l.2-.6.6-.2h3.3c1 0 2 .3 2.5.8.6.6.9 1.3.9 2.2 0 1-.3 1.7-1 2.3-.5.5-1.3.8-2.4.8h-2.6v3.2c0 .2 0 .4-.2.5l-.5.2Zm.8-5.1h2.4c.7 0 1.2-.2 1.6-.5.4-.3.5-.7.5-1.4 0-.6-.1-1-.5-1.3-.4-.3-.9-.5-1.6-.5h-2.4V69Zm8 5.1c-.3 0-.5 0-.6-.2a.8.8 0 0 1-.2-.5v-5.6c0-.2 0-.4.2-.5.1-.2.3-.2.5-.2s.4 0 .5.2l.2.5v1h-.1c.1-.6.4-1 .8-1.3a3 3 0 0 1 1.5-.5c.2 0 .3 0 .4.2l.2.4-.1.5-.5.2h-.3a1.8 1.8 0 0 0-1.9 2v3l-.1.6-.6.2Zm6.6 0c-.5 0-1 0-1.3-.3-.4-.1-.7-.4-1-.7l-.2-1c0-.6.1-1 .4-1.3.2-.3.6-.5 1.2-.6l2.4-.2h.7v.9h-2.2c-.4.1-.7.2-.9.4l-.2.6c0 .4 0 .7.3.9.3.2.6.3 1 .3s.7 0 1-.2l.6-.7.2-1v-1.6c0-.5-.1-.9-.3-1.1-.3-.2-.6-.4-1.1-.4a4.2 4.2 0 0 0-2 .5c-.1.1-.3.1-.4 0h-.2l-.1-.4v-.4l.4-.2a5.4 5.4 0 0 1 2.3-.6c.6 0 1.1.1 1.5.3.5.2.8.5 1 1 .2.3.3.9.3 1.5v3.6l-.2.5-.5.2c-.2 0-.4 0-.5-.2a.7.7 0 0 1-.2-.5v-1h.1c0 .4-.2.7-.4 1a2 2 0 0 1-.7.5c-.3.2-.7.2-1 .2Zm8.3 0c-.7 0-1.3-.1-1.8-.4a3 3 0 0 1-1.2-1.3 4 4 0 0 1-.4-1.9c0-.5 0-1 .2-1.4l.7-1.1a3 3 0 0 1 1-.7 3.9 3.9 0 0 1 2.5-.1c.4 0 .7.2 1 .5.2 0 .2.1.3.3v.3s0 .2-.2.3l-.3.1h-.3l-.7-.4-.7-.1-.9.1-.6.5a2 2 0 0 0-.4.7l-.2 1c0 .8.2 1.4.6 1.9.3.4.9.6 1.5.6h.7l.7-.4.3-.1.3.1.1.3v.3c0 .2 0 .2-.2.3a3 3 0 0 1-1 .5l-1 .1Zm6.5 0a3 3 0 0 1-1.5-.3l-.8-.8c-.2-.4-.3-.9-.3-1.4v-3.3h-.8c-.2 0-.4 0-.5-.2a.5.5 0 0 1-.1-.4l.1-.4.5-.1h.8v-1.5c0-.2 0-.4.2-.5l.5-.2c.3 0 .4 0 .5.2.2.1.2.3.2.5v1.5h1.7l.4.1.2.4-.2.4-.4.2H171v3.2c0 .4.1.8.3 1 .3.3.6.5 1 .5h.5l.3-.2c.1 0 .2 0 .3.2v.7c0 .2-.1.2-.3.3h-.4l-.5.1Zm3 0c-.2 0-.4 0-.5-.2a.8.8 0 0 1-.2-.6V68c0-.3 0-.5.2-.6l.5-.2c.2 0 .4 0 .5.2l.2.6v5.4c0 .3 0 .4-.2.6l-.5.2Zm0-8.5a1 1 0 0 1-.7-.2.8.8 0 0 1-.2-.6c0-.2 0-.4.2-.5.2-.2.4-.3.7-.3.3 0 .5.1.6.3.2 0 .3.3.3.5 0 .3-.1.5-.3.6-.1.2-.3.2-.6.2Zm5.7 8.5c-.7 0-1.3-.1-1.8-.4a3 3 0 0 1-1.2-1.3 4 4 0 0 1-.4-1.9c0-.5 0-1 .2-1.4l.7-1.1a3 3 0 0 1 1-.7 3.9 3.9 0 0 1 2.5-.1c.4 0 .7.2 1 .5.2 0 .2.1.3.3v.3l-.2.3-.3.1h-.3l-.7-.4a2.2 2.2 0 0 0-1.6 0l-.6.5a2 2 0 0 0-.4.7l-.2 1c0 .8.2 1.4.6 1.9.3.4.8.6 1.5.6h.7l.7-.4.3-.1.3.1.1.3v.3c0 .2 0 .2-.2.3a3 3 0 0 1-1 .5l-1 .1Zm6.6 0c-.8 0-1.4-.1-2-.4-.5-.3-.9-.7-1.2-1.2-.3-.5-.4-1.2-.4-1.9s.1-1.3.4-1.9a3.2 3.2 0 0 1 3-1.7l1.2.3c.4.1.7.4 1 .7l.6 1 .2 1.4c0 .2 0 .3-.2.4l-.4.1H185V70h4.3l-.2.2c0-.4 0-.8-.2-1.2l-.6-.7c-.3-.2-.6-.3-1-.3a2 2 0 0 0-1.1.3 2 2 0 0 0-.7.9c-.2.4-.3.8-.3 1.3 0 .9.2 1.5.6 2 .4.3 1 .5 1.7.5h.9l.9-.5h.7l.2.3v.4l-.4.3-1 .5-1.3.1Z" fill="#fff"/><path d="M111.7 183.6c0 .2.1.2.3.2.3 0 .7 0 1-.2l.8-.3c.2 0 .2.1.2.3 0 .2-.2.5-.7.8-.5.3-.9.4-1.3.4s-.7 0-1-.3a1 1 0 0 1-.3-.7l.1-.8a44 44 0 0 1 .9-2.8l-.8.1c-.1 0-.3 0-.4-.2l-.2-.4c0-.1.6-.3 1.6-.5l.2-1.8c0-.2 0-.3.3-.3 0 0 .3 0 .5.2l.3.6-.2 1.1h1c.5 0 .8 0 .8.3l-.4.3-1.7.4a52 52 0 0 1-1 3.6Zm7-2.7-.2-.8a1 1 0 0 0-.4-.5c-.5.2-1 .6-1.4 1.3a4 4 0 0 0-.6 2c0 .6.2 1 .5 1.1.5-.1 1-.5 1.4-1.2.4-.7.6-1.3.6-1.9Zm-3.2.1c.3-.6.6-1.1 1-1.5a2 2 0 0 1 1.5-.6c.4 0 .8.2 1.2.6.3.4.4.9.4 1.5 0 .5 0 1.1-.4 1.7-.3.6-.6 1.1-1.1 1.5-.5.4-1 .6-1.6.6-.4 0-.7-.2-1-.5-.3-.4-.4-.9-.4-1.5s.1-1.2.4-1.8Zm13.7-2.2c.3 0 .6.3.9.7.2.4.4.9.4 1.4 0 .4-.2.9-.4 1.4a5.4 5.4 0 0 1-2.4 2.1 3 3 0 0 1-1.3.4h-.5a116.6 116.6 0 0 0-.5 2.3l-.4.8c-.1 0-.2 0-.4-.3a.8.8 0 0 1-.2-.4l.4-1.8c.8-3 1.2-5.2 1.2-6.3 0-.2 0-.3.2-.3s.4 0 .6.3c.2.2.3.4.3.7v.4c.6-.9 1.4-1.4 2-1.4Zm-3 5c.5 0 1 0 1.4-.4a4 4 0 0 0 1.3-1.1c.3-.5.5-1 .5-1.4 0-.7-.1-1-.4-1-.4 0-.8.2-1.3.8-.5.5-1 1.2-1.3 2l-.3 1.2h.2Zm7.2-7.3a24.4 24.4 0 0 1-1.8 8.3c-.1 0-.3 0-.4-.2-.2-.2-.2-.4-.2-.5 0 0 0-.5.3-1.4a44.7 44.7 0 0 0 1.3-7.2c.1 0 .3.1.5.4l.3.6Zm3.7 2.4c.4 0 .7.2 1 .5.3.4.5.7.5 1l-.3.9.1.3-.1 1.2a42.7 42.7 0 0 0-.5 2c-.2 0-.3-.1-.4-.4l-.2-1c-.7 1-1.3 1.4-2 1.4-.3 0-.7-.1-1-.4-.4-.4-.5-.7-.5-1 0-.5.1-1.1.5-1.8a7 7 0 0 1 1.3-1.9c.6-.6 1.1-.8 1.6-.8Zm.6 2c0-.7-.2-1-.5-1s-.6.2-1 .6c-.5.5-.8 1-1.1 1.5a3 3 0 0 0-.4 1.4l.1.3.4.1c.4 0 .8-.2 1.3-.7.5-.5.8-1.2 1-1.9 0-.1 0-.2.2-.2Zm6.6-2s.2 0 .4.3l.2.6-.5 1.6a742.1 742.1 0 0 1-1.7 4.8c-.4 1.2-1 1.7-1.8 1.7a2 2 0 0 1-1.3-.4c-.4-.3-.6-.5-.6-.8l.1-.4.3-.2s.2 0 .3.3c.5.5.9.7 1.2.7.3 0 .5-.2.7-.6a12.7 12.7 0 0 0 .8-2.4l.1-.2.1-.2c-.6.7-1.1 1.1-1.7 1.1-.3 0-.6-.1-1-.4-.2-.4-.3-.7-.3-1.2 0-.4 0-1 .3-1.7l.7-1.8c.3-.6.5-.8.7-.8.1 0 .3 0 .4.2l.2.4-.3.8c-.7 1.3-1 2.4-1 3.1l.1.3.3.2c.3 0 .6-.3 1-.8s.8-1.1 1.1-1.8l1-2.3.2-.1Z" fill="#212529"/><path d="M112.2 172h-.8a1 1 0 0 1-.5-.6l-.1-.7v-2h-.5l-.3-.1v-.4h.8V167l.3-.1h.3v1.3h1.3v.4h-1.3v2l.2.7.7.2h.5v.4h-.1l-.3.1h-.2Zm1.5 0h-.2v-4h.4l.1.3v.6c0-.3.2-.5.4-.7.3-.2.6-.3 1-.3h.1l.1.3v.2l-.3.1h-.1c-.4 0-.7.2-.9.4l-.2.8v2l-.1.2h-.3Zm3.8 0h-.8l-.5-.5a1 1 0 0 1-.1-.6c0-.3 0-.5.2-.7.1-.2.4-.3.7-.4h1.8v.4h-1.4c-.3 0-.4.1-.5.2l-.2.4c0 .3 0 .4.2.6l.7.2a1 1 0 0 0 1-.6v-1.5c0-.3 0-.6-.2-.7 0-.2-.3-.2-.6-.2h-.6l-.6.3h-.2l-.1-.2v-.2l.1-.1a3.2 3.2 0 0 1 1.4-.4l.8.2.5.5.2.9v2.1l-.1.3h-.5v-1c0 .2 0 .4-.2.5l-.5.4h-.5Zm3.3 0h-.2l-.1-.3v-3.6h.5l.1.3v.7-.1c0-.3.2-.6.5-.7.2-.2.5-.3.8-.3l.8.2.5.5.1.9v2.4h-.5l-.1-.3v-2c0-.4 0-.7-.2-.9l-.7-.2c-.4 0-.7 0-.9.3-.2.2-.3.5-.3.9v2c0 .1 0 .3-.3.3Zm5.5 0h-.7a2 2 0 0 1-.7-.3v-.1l-.1-.2v-.1l.2-.1h.2l.6.3h1.2l.3-.5c0-.2 0-.3-.2-.4a1 1 0 0 0-.5-.2l-.7-.2c-.3 0-.6-.2-.7-.3a1 1 0 0 1-.3-.7c0-.2 0-.4.2-.6l.5-.4.8-.2.7.1.6.3v.2c.1 0 .1 0 0 .1v.1l-.1.1h-.2a1.8 1.8 0 0 0-1-.4c-.3 0-.5 0-.6.2-.2.1-.3.3-.3.5 0 .1 0 .2.2.3l.4.3.7.1c.4 0 .7.2.8.4.2.1.3.3.3.6 0 .4-.2.7-.4.9-.3.2-.7.3-1.2.3Zm3.8 0c-.4 0-.7 0-1-.3l-.2-1v-4.3l.3-.1h.2l.1.3v4c0 .4 0 .6.2.7.1.2.3.2.5.2h.4v.5h-.5Zm2.4 0h-.8l-.5-.5a1 1 0 0 1-.1-.6c0-.3 0-.5.2-.7.1-.2.4-.3.7-.4h1.8v.4h-1.4c-.3 0-.4.1-.5.2l-.2.4c0 .3 0 .4.2.6l.7.2a1 1 0 0 0 1-.6v-1.5l-.1-.7c-.2-.2-.4-.2-.7-.2h-.6l-.6.3h-.3v-.4l.1-.1a3.1 3.1 0 0 1 1.4-.4l.8.2c.3.1.4.3.5.5l.2.9v2.1l-.1.3h-.4l-.1-.3v-.6c0 .2 0 .4-.2.5l-.4.4h-.6Zm4.5 0h-.7a1 1 0 0 1-.5-.6l-.1-.7v-2h-.6l-.2-.1v-.4h.8V167l.3-.1h.2l.1.3v1h1.2l.1.2v.2h-1.3v2c0 .3 0 .5.2.7l.6.2h.5l.1.2v.2h-.1l-.3.1h-.3Zm1.6 0h-.2v-3.8l.2-.1h.3v3.9h-.3Zm0-4.8-.3-.1v-.6l.3-.1h.4v.7h-.4Zm3.2 4.9c-.4 0-.7-.1-1-.3-.3-.1-.5-.4-.6-.7-.2-.3-.3-.6-.3-1s0-.6.2-.9l.3-.6.6-.4.8-.2c.4 0 .7.1 1 .3.3.2.5.4.6.7.2.3.3.6.3 1s0 .6-.2.9l-.3.6-.6.4a2 2 0 0 1-.8.2Zm0-.5.6-.2c.2-.1.4-.3.4-.5.2-.3.2-.5.2-.8 0-.5-.1-.9-.3-1.2a1 1 0 0 0-.9-.3l-.6.1-.5.5a2 2 0 0 0-.1.9c0 .4.1.8.3 1 .2.3.5.5.9.5Zm3.2.5-.3-.1v-4h.5v1-.1c0-.3.3-.6.5-.7l.9-.3.8.2.4.5.2.9v2.1l-.1.3h-.5v-2.3c0-.4-.1-.7-.3-.9-.1-.1-.3-.2-.7-.2-.3 0-.6 0-.8.3-.2.2-.3.5-.3.9v2c0 .1-.1.3-.3.3Zm4.5 0-.3-.2-.1-.3a.4.4 0 0 1 .4-.4h.3l.1.4-.1.3-.3.1Zm0-3.1c-.1 0-.3 0-.3-.2l-.1-.3v-.3l.4-.1.3.1.1.3-.1.3-.3.2Zm-34.9-38c-.4 0-.7 0-1-.2-.2-.2-.4-.4-.4-.7v-.1 1h-.5v-5.6l.2-.1h.3v2.7c0-.3.2-.5.5-.7.2-.2.5-.3.9-.3l.9.3.6.7.2 1c0 .5 0 .8-.2 1.1a1.6 1.6 0 0 1-1.5 1Zm-.2-.4.7-.2.4-.5.1-.8c0-.5 0-.9-.3-1.2a1 1 0 0 0-.9-.3l-.6.1-.4.5a2 2 0 0 0-.2.9c0 .4.1.8.4 1 .2.3.5.5.8.5Zm4.6.5c-.4 0-.7-.1-1-.3-.3-.1-.6-.4-.7-.7-.2-.3-.3-.6-.3-1s.1-.8.3-1c.1-.4.4-.6.6-.8.3-.2.6-.3 1-.3.3 0 .5 0 .7.2.2 0 .4.2.5.4.2.1.3.3.4.6v.8h-3v-.3h2.7-.2l-.1-.7a1 1 0 0 0-.4-.4 1 1 0 0 0-.6-.2c-.3 0-.5 0-.7.2l-.4.5-.1.8c0 .5 0 1 .3 1.2.2.2.6.4 1 .4a2 2 0 0 0 1-.4h.4l.1.2v.1l-.1.2a2 2 0 0 1-.7.3h-.7Zm2.6-.1h-.2v-.5l2.3-3v.1h-2.3l-.1-.2v-.2h3v.4l-2.4 3v-.1h2.3c.1 0 .2 0 .2.2v.2l-.2.1h-2.6Zm4 0h-.3v-3.8l.2-.1h.3v3.9h-.3Zm0-4.8-.4-.1v-.6l.3-.1h.3l.2.4c0 .1 0 .2-.2.3h-.3Zm3.2 6.3h-.8l-.8-.4v-.1l-.1-.2v-.1l.2-.1h.2a2.4 2.4 0 0 0 1.3.4c.3 0 .6-.1.8-.3.2-.2.3-.5.3-.9v-.9h.1c0 .3-.3.6-.5.7-.3.2-.6.3-1 .3-.3 0-.6 0-.8-.2l-.7-.7-.2-1c0-.3 0-.6.2-.8 0-.3.2-.5.3-.6l.6-.4a1.8 1.8 0 0 1 1.6.1l.5.7v.1-1h.5v3.6c0 .6-.1 1-.4 1.4-.3.3-.7.4-1.3.4Zm-.1-2.1c.3 0 .5 0 .6-.2l.5-.5.1-.7c0-.5 0-.8-.3-1-.2-.3-.5-.4-.9-.4l-.6.1-.5.5-.1.8c0 .4.1.7.3 1 .2.3.5.4.9.4Zm5.2.6h-.2v-.5l2.3-3v.1h-2.3l-.1-.2v-.2h3v.4l-2.4 3v-.1h2.3c.2 0 .2 0 .2.2v.2l-.2.1h-2.6Zm4 0h-.3v-3.8l.3-.1h.2v3.9h-.3Zm0-4.8-.4-.1v-.6l.3-.1h.4v.7h-.3Zm.7 6.3h-.1l-.2-.1v-.2l.1-.1h.1c.3 0 .6-.2.7-.3l.2-.7v-4h.6v4l-.1.8a1 1 0 0 1-.5.4c-.2.2-.4.2-.8.2Zm1.1-6.3-.3-.1v-.6l.3-.1h.4v.7h-.4Zm1.9 4.9-.2-.1-.1-.3v-3.6h.5l.1.3v.7-.1c0-.3.2-.6.5-.7.2-.2.5-.3.8-.3l.8.2.5.5.1.9v2.4h-.5l-.1-.3v-2c0-.4 0-.7-.2-.9l-.7-.2c-.4 0-.6 0-.9.3-.2.2-.3.5-.3.9v2c0 .1 0 .3-.3.3Zm6.6 0-.2-.1v-4h.4l.1.3v.7-.1c0-.3.2-.6.4-.7.3-.2.5-.3.9-.3.3 0 .6.1.8.3.2.1.3.4.4.7h-.2c.1-.3.3-.5.6-.7.2-.2.5-.3.8-.3l.8.2.4.5.1.9v2.4h-.5l-.1-.3v-2c0-.4 0-.7-.2-.9l-.6-.2a1 1 0 0 0-.8.3c-.2.2-.3.5-.3.9v2.2h-.5l-.1-.3v-2c0-.4 0-.7-.2-.9l-.6-.2a1 1 0 0 0-.8.3c-.2.2-.2.5-.2.9v2c0 .1-.2.3-.4.3Zm8.3 0c-.4 0-.8-.1-1-.3-.4-.1-.6-.4-.8-.7l-.2-1c0-.4 0-.8.2-1 .2-.4.4-.6.7-.8.3-.2.6-.3 1-.3.2 0 .5 0 .7.2.2 0 .4.2.5.4.2.1.3.3.3.6l.2.7-.1.2h-3v-.3h2.6-.1l-.1-.7a1 1 0 0 0-.4-.4 1 1 0 0 0-.6-.2c-.3 0-.5 0-.7.2l-.4.5-.2.8c0 .5.1 1 .4 1.2.2.2.6.4 1 .4a2 2 0 0 0 1-.4h.4v.2c.1 0 0 0 0 .1v.2a2 2 0 0 1-.7.3h-.7Zm4 0c-.2 0-.5 0-.7-.2a1 1 0 0 1-.5-.5l-.1-.7v-2h-.6l-.2-.1v-.4h.8V126l.3-.1h.2l.1.3v1h1.2l.1.2v.2h-1.3v2c0 .3 0 .5.2.7l.6.2h.6v.4h-.1l-.3.1h-.2Zm5.1 0c-.4 0-.8-.1-1-.3-.3-.1-.6-.4-.7-.7-.2-.3-.3-.6-.3-1s.1-.8.3-1c.1-.4.3-.6.6-.8.3-.2.6-.3 1-.3.3 0 .5 0 .7.2.2 0 .4.2.5.4.2.1.3.3.4.6v.8h-3v-.3h2.6l-.2-.7a1 1 0 0 0-.4-.4 1 1 0 0 0-.6-.2c-.3 0-.5 0-.7.2l-.4.5-.2.8c0 .5.2 1 .4 1.2.2.2.6.4 1 .4a2 2 0 0 0 1-.4h.4l.1.2v.1l-.2.2a2 2 0 0 1-.6.3h-.7Zm4.3 0a2 2 0 0 1-1.1-.3c-.3-.1-.5-.4-.7-.7l-.2-1c0-.4 0-.8.2-1 .2-.4.4-.6.7-.8.3-.2.6-.3 1-.3.2 0 .4 0 .7.2.2 0 .3.2.5.4l.3.6.1.7v.2h-3v-.3h2.6-.1c0-.2 0-.5-.2-.7a1 1 0 0 0-.3-.4 1 1 0 0 0-.6-.2c-.3 0-.5 0-.7.2l-.5.5-.1.8c0 .5.1 1 .4 1.2.2.2.5.4 1 .4a2 2 0 0 0 1-.4h.4v.3l-.1.2a2 2 0 0 1-.6.3h-.7Zm2.8 0-.2-.1-.1-.3v-3.6h.5l.1.3v.7-.1c0-.3.2-.6.5-.7.2-.2.5-.3.8-.3l.8.2.5.5.1.9v2.4h-.5l-.1-.3v-2c0-.4 0-.7-.2-.9l-.7-.2c-.4 0-.7 0-.9.3-.2.2-.3.5-.3.9v2c0 .1 0 .3-.3.3Zm7.6 0-.7-.1a2 2 0 0 1-.7-.3l-.1-.1v-.3l.2-.1h.1l.6.3h1.3c.2-.2.2-.4.2-.5l-.1-.4a1 1 0 0 0-.5-.2l-.7-.2c-.4 0-.6-.2-.8-.3a1 1 0 0 1-.2-.7c0-.2 0-.4.2-.6 0-.2.3-.3.5-.4l.8-.2.7.1c.2 0 .4.2.5.3l.1.2v.2l-.2.1h-.1a1.8 1.8 0 0 0-1-.4c-.3 0-.5 0-.7.2l-.2.5.1.3.5.3.7.1c.4 0 .6.2.8.4.2.1.2.3.2.6 0 .4 0 .7-.4.9-.3.2-.6.3-1.1.3Zm2.9 1.4h-.3V127h.5v1c0-.4.2-.6.5-.8.2-.2.6-.3.9-.3.3 0 .7.1 1 .3.2.1.4.4.5.7.2.3.2.6.2 1 0 .5 0 .8-.2 1.1-.1.3-.3.6-.6.7-.2.2-.5.3-.9.3-.3 0-.7-.1-.9-.3-.3-.2-.4-.4-.5-.7v2.3l-.2.1Zm1.5-2 .6-.1.4-.5.2-.8c0-.5-.1-.9-.4-1.2a1 1 0 0 0-.8-.3l-.7.1-.4.5a2 2 0 0 0-.1.9c0 .4 0 .8.3 1 .2.3.5.5.9.5Zm4.6.6c-.5 0-.8-.1-1.1-.3-.3-.1-.5-.4-.7-.7-.2-.3-.2-.6-.2-1s0-.8.2-1c.2-.4.4-.6.7-.8.2-.2.6-.3 1-.3.2 0 .4 0 .6.2.2 0 .4.2.6.4l.3.6.1.7v.2h-3v-.3h2.6-.1c0-.2 0-.5-.2-.7a1 1 0 0 0-.3-.4 1 1 0 0 0-.7-.2c-.2 0-.5 0-.6.2l-.5.5-.1.8c0 .5.1 1 .3 1.2.3.2.6.4 1 .4a2 2 0 0 0 1.1-.4h.4v.3l-.1.2a2 2 0 0 1-.6.3h-.7Zm3.6 0a1 1 0 0 1-.8-.4c-.2-.2-.3-.6-.3-1v-4.3l.3-.1h.2l.1.3v4c0 .4 0 .6.2.7 0 .2.3.2.5.2h.3v.5h-.5Zm4.9 0c-.4 0-.7-.1-1-.3-.3-.1-.5-.4-.6-.7-.2-.3-.3-.6-.3-1s0-.6.2-.9l.3-.6.6-.4.8-.2c.4 0 .7.1 1 .3.3.2.5.4.6.7.2.3.3.6.3 1s0 .6-.2.9l-.3.6-.6.4a2 2 0 0 1-.8.2Zm0-.5.6-.2c.2-.1.4-.3.4-.5.2-.3.2-.5.2-.8 0-.5-.1-.9-.3-1.2a1 1 0 0 0-.9-.3l-.6.1-.5.5a2 2 0 0 0-.1.9c0 .4.1.8.3 1 .2.3.5.5.9.5Zm3.3.5-.2-.1-.1-.3v-3h-.5l-.2-.1v-.4h.9-.2v-.2c0-.5.1-1 .4-1.2.2-.3.6-.4 1-.4h.5v.4h-.3c-.3 0-.6.2-.7.3-.2.2-.3.5-.3.8v.3h1.1v.4h-1.1v3.1c0 .2 0 .4-.3.4Zm5.5 0-.7-.1a2 2 0 0 1-.7-.3v-.1l-.1-.2v-.1l.2-.1h.2l.6.3h1.2l.3-.5c0-.2 0-.3-.2-.4a1 1 0 0 0-.5-.2l-.7-.2c-.3 0-.6-.2-.7-.3a1 1 0 0 1-.3-.7c0-.2 0-.4.2-.6l.5-.4.8-.2.7.1.6.3v.2c.1 0 .1 0 0 .1v.1l-.1.1h-.2a1.8 1.8 0 0 0-1-.4c-.3 0-.5 0-.6.2-.2.1-.3.3-.3.5 0 .1 0 .2.2.3l.4.3.7.1c.4 0 .6.2.8.4.2.1.3.3.3.6 0 .4-.2.7-.4.9-.3.2-.7.3-1.2.3Zm2.9 1.4h-.2l-.1-.3V127h.5l.1.3v.7c0-.4.2-.6.4-.8.3-.2.6-.3 1-.3.3 0 .6.1.8.3.3.1.5.4.6.7.2.3.3.6.3 1 0 .5-.1.8-.3 1.1-.1.3-.3.6-.5.7-.3.2-.6.3-1 .3l-.9-.3-.5-.7h.1v2.3l-.3.1Zm1.5-2 .6-.1.5-.5.1-.8c0-.5-.1-.9-.3-1.2a1 1 0 0 0-.9-.3l-.6.1-.5.5a2 2 0 0 0-.1.9c0 .4.1.8.3 1 .2.3.5.5.9.5Zm4.5.6c-.4 0-.8-.1-1-.3-.3-.1-.5-.4-.7-.7l-.2-1 .1-.9.4-.6.6-.4.8-.2c.3 0 .7.1 1 .3l.6.7.2 1-.1.9-.4.6-.6.4a2 2 0 0 1-.7.2Zm0-.5.6-.2.4-.5.2-.8c0-.5-.2-.9-.4-1.2a1 1 0 0 0-.8-.3l-.7.1-.4.5a2 2 0 0 0-.1.9c0 .4 0 .8.3 1 .2.3.5.5.9.5Zm3.1.5-.2-.1-.1-.3v-3.6h.5l.1.3v.6c0-.3.2-.5.4-.7.3-.2.6-.3 1-.3h.1v.5l-.2.1h-.1c-.4 0-.7.2-.9.4-.2.2-.3.4-.3.8v2.2h-.3Zm4.3 0c-.3 0-.5 0-.8-.2a1 1 0 0 1-.4-.5l-.2-.7v-2h-.5l-.2-.1v-.4h.7v-1l.1-.2.3-.1h.2v1.3h1.3v.4h-1.2v2c0 .3 0 .5.2.7l.6.2h.6v.4h-.1l-.3.1h-.3Zm-110 9-.2-.1v-4h.5v1-.1c0-.3.2-.6.5-.7.2-.2.5-.3.8-.3.3 0 .6.1.8.3.2.1.3.4.4.7h-.1c0-.3.2-.5.5-.7.2-.2.5-.3.9-.3l.7.2.4.5.1.9v2.4h-.5l-.1-.3v-2c0-.4 0-.7-.2-.9l-.6-.2a1 1 0 0 0-.8.3l-.2.9v2l-.1.2h-.5v-2.3c0-.4-.2-.7-.3-.9l-.6-.2a1 1 0 0 0-.8.3l-.2.9v2c0 .1-.1.3-.4.3Zm8 0c-.4 0-.6 0-.8-.2-.3-.1-.4-.3-.5-.5l-.2-.9v-2.1l.1-.3h.5v2.4c0 .4.2.6.3.8.1.2.4.2.7.2.3 0 .6 0 .8-.3.2-.2.3-.5.3-.9v-2.2h.5l.1.3v3.3c0 .2 0 .4-.3.4l-.2-.1-.1-.3v-.7l.1.1c-.1.3-.3.6-.5.7-.3.2-.5.3-.9.3Zm3.1-.1h-.2v-.5l2.3-3v.1h-2.3v-.4h2.9v.4l-2.3 3v-.1h2.2c.2 0 .3 0 .3.2l-.1.2-.2.1H124Zm4 0h-.3v-3.8l.3-.1h.2v3.9h-.2Zm0-4.8-.3-.1-.2-.3c0-.2 0-.2.2-.3l.3-.1h.3v.7h-.3Zm3.3 4.9c-.5 0-.8-.1-1.1-.3-.3-.1-.5-.4-.7-.7-.2-.3-.2-.6-.2-1s0-.8.2-1c.2-.4.4-.6.7-.8.2-.2.6-.3 1-.3.2 0 .4 0 .6.2.3 0 .4.2.6.4l.3.6.1.7v.2h-3v-.3h2.6-.1c0-.2 0-.5-.2-.7a1 1 0 0 0-.3-.4 1 1 0 0 0-.6-.2c-.3 0-.5 0-.7.2l-.5.5-.1.8c0 .5.1 1 .3 1.2.3.2.6.4 1 .4a2 2 0 0 0 1.1-.4h.4v.3l-.1.2a2 2 0 0 1-.6.3h-.7Zm2.8 0-.3-.1v-5.6l.3-.1h.2l.1.3v3.2l1.7-1.5.2-.2h.4v.4l-1.8 1.7v-.4l2 1.8v.4h-.5l-.2-.2-1.8-1.6v1.5c0 .2-.1.4-.3.4Zm6 0-.2-.1v-4h.5v1-.1c0-.3.3-.6.5-.7.2-.2.5-.3.8-.3.3 0 .6.1.8.3.2.1.3.4.4.7h-.1c0-.3.3-.5.5-.7.2-.2.5-.3.9-.3l.7.2.4.5.2.9v2.1l-.1.3h-.5v-2.3c0-.4-.1-.7-.3-.9l-.6-.2a1 1 0 0 0-.7.3c-.2.2-.3.5-.3.9v2l-.1.2h-.5v-2.3c0-.4-.1-.7-.3-.9l-.6-.2a1 1 0 0 0-.7.3c-.2.2-.3.5-.3.9v2c0 .1-.1.3-.3.3Zm7.8 0c-.3 0-.5 0-.7-.2-.2 0-.4-.2-.5-.4a1 1 0 0 1-.2-.6c0-.3 0-.5.2-.7l.7-.4h1.8v.4h-1.4a1 1 0 0 0-.5.2l-.1.4c0 .3 0 .4.2.6l.6.2a1 1 0 0 0 1-.6v-1.5l-.1-.7c-.1-.2-.4-.2-.7-.2h-.5l-.6.3h-.3a.3.3 0 0 1 0-.4v-.1a3.2 3.2 0 0 1 1.4-.4l.9.2.5.5.1.9v2.4h-.5v-1c0 .2-.1.4-.3.5 0 .2-.2.3-.4.4h-.6Zm3.3 0-.2-.1v-5.6l.2-.1h.3v3.5l1.7-1.5.2-.2h.4l.1.2v.2l-1.8 1.7v-.4l1.9 1.8v.4h-.4l-.2-.2-1.8-1.6v1.5c0 .2-.1.4-.4.4Zm5.4 0c-.4 0-.8-.1-1-.3-.4-.1-.6-.4-.8-.7l-.2-1c0-.4 0-.8.2-1 .2-.4.4-.6.7-.8.3-.2.6-.3 1-.3.2 0 .4 0 .7.2.2 0 .3.2.5.4l.3.6.1.7v.2h-3v-.3h2.6-.1l-.1-.7a1 1 0 0 0-.4-.4 1 1 0 0 0-.6-.2c-.3 0-.5 0-.7.2l-.5.5-.1.8c0 .5.1 1 .4 1.2.2.2.5.4 1 .4a2 2 0 0 0 1-.4h.4v.5a2 2 0 0 1-.7.3h-.7Zm2.8 0-.2-.1-.1-.3v-3.6h.5l.1.3v.7-.1c0-.3.2-.6.5-.7.2-.2.5-.3.8-.3l.8.2.5.5.1.9v2.4h-.5l-.1-.3v-2c0-.4 0-.7-.2-.9l-.7-.2c-.4 0-.7 0-.9.3-.2.2-.3.5-.3.9v2c0 .1 0 .3-.3.3Zm7.9 0c-.4 0-.7-.1-1-.3-.3-.1-.5-.4-.6-.7-.2-.3-.3-.6-.3-1s0-.6.2-.9l.3-.6.6-.4.8-.2c.4 0 .7.1 1 .3.3.2.5.4.6.7.2.3.3.6.3 1s0 .6-.2.9l-.3.6-.6.4a2 2 0 0 1-.8.2Zm0-.5.6-.2c.2-.1.4-.3.4-.5.2-.3.2-.5.2-.8 0-.5-.1-.9-.3-1.2a1 1 0 0 0-.9-.3l-.6.1-.5.5a2 2 0 0 0-.1.9c0 .4.1.8.3 1 .2.3.5.5.9.5Zm3.3.5-.2-.1-.1-.3v-3h-.5l-.2-.1v-.4h.9-.2v-.2c0-.5.1-1 .4-1.2.2-.3.6-.4 1-.4h.5v.4h-.3c-.3 0-.6.2-.7.3-.2.2-.3.5-.3.8v.3h1.1v.4h-1v3.1c0 .2 0 .4-.3.4Zm5.6 0c-.3 0-.6 0-.8-.2l-.5-.5-.1-.9v-2.4h.6v2.4c0 .4.1.6.3.8 0 .2.3.2.6.2.4 0 .6 0 .8-.3.2-.2.3-.5.3-.9v-2l.1-.2h.5v3.6c0 .2 0 .4-.2.4l-.3-.1v-1 .1c0 .3-.2.6-.5.7-.2.2-.5.3-.8.3Zm3.4 0-.2-.1-.1-.3v-3.5l.3-.1h.3v3.9h-.3Zm0-5h-.3l-.1-.3.1-.3.3-.1h.3l.1.4v.3h-.4Zm3.1 5c-.3 0-.5 0-.7-.2a1 1 0 0 1-.5-.5l-.2-.7v-2h-.5l-.2-.1v-.4h.7v-1l.1-.2.3-.1h.2v1.3h1.3v.4H182v2c0 .3 0 .5.2.7l.6.2h.5l.1.2v.2h-.1l-.3.1h-.3Zm2.8 0-.3-.1-.2-.3-1.3-3.2s-.1-.1 0-.2v-.2h.4l.2.2 1.3 3.2h-.2l1.3-3.2.1-.2h.4l.1.2v.2l-1.4 3.2c0 .2-.1.2-.2.3h-.2Zm4.2 0c-.4 0-.7-.1-1-.3-.3-.1-.5-.4-.6-.7-.2-.3-.3-.6-.3-1s0-.6.2-.9l.3-.6.6-.4.8-.2c.4 0 .7.1 1 .3.2.2.5.4.6.7.2.3.2.6.2 1v.9l-.5.6c-.1.2-.3.3-.6.4a2 2 0 0 1-.7.2Zm0-.5.6-.2.4-.5.2-.8c0-.5-.1-.9-.3-1.2a1 1 0 0 0-1-.3l-.6.1-.4.5a2 2 0 0 0-.1.9c0 .4 0 .8.3 1 .2.3.5.5.9.5Zm4.6.5a2 2 0 0 1-1.1-.3c-.3-.1-.5-.4-.7-.7l-.2-1c0-.4 0-.8.2-1 .2-.4.4-.6.7-.8.3-.2.6-.3 1-.3.2 0 .4 0 .7.2.2 0 .3.2.5.4l.3.6.1.7v.2h-3v-.3h2.6-.1c0-.2 0-.5-.2-.7a1 1 0 0 0-.3-.4 1 1 0 0 0-.6-.2c-.3 0-.5 0-.7.2l-.5.5-.1.8c0 .5.1 1 .3 1.2.3.2.6.4 1 .4a2 2 0 0 0 1.1-.4h.4v.3l-.1.2a2 2 0 0 1-.6.3h-.7Zm2.8 0-.2-.1-.1-.3v-3.6h.5l.1.3v.6c0-.3.2-.5.4-.7.3-.2.5-.3.9-.3h.2v.5l-.2.1h-.1c-.4 0-.7.2-.9.4-.2.2-.3.4-.3.8v2.2h-.3Zm4.2 0c-.4 0-.7-.1-1-.3-.3-.1-.5-.4-.7-.7-.2-.3-.2-.6-.2-1s0-.8.2-1l.6-.8a2 2 0 0 1 1-.3c.3 0 .5 0 .7.2.2 0 .4.2.6.4l.3.6.1.7v.2h-3.2v-.3h2.7-.1c0-.2 0-.5-.2-.7a1 1 0 0 0-.4-.4 1 1 0 0 0-.6-.2c-.2 0-.5 0-.7.2l-.4.5-.1.8c0 .5 0 1 .3 1.2.3.2.6.4 1 .4a2 2 0 0 0 1.1-.4h.4v.3l-.1.2a2 2 0 0 1-.6.3h-.8Zm2.9 0-.3-.1v-4h.5v1-.1c.1-.3.3-.6.5-.7.3-.2.6-.3 1-.3l.7.2.5.5.1.9v2.4h-.6v-2.3c0-.4-.1-.7-.3-.9l-.6-.2c-.4 0-.7 0-.9.3-.2.2-.3.5-.3.9v2c0 .1-.1.3-.3.3Zm4.6.7h-.4v-.3c.2 0 .2-.2.2-.3v-.3l.1.1h-.3l-.1-.4v-.3l.4-.1.3.1.1.4a2 2 0 0 1-.1.7l-.2.4Zm-94.6 8.3c-.4 0-.7-.1-1-.3-.2-.1-.5-.4-.6-.7-.2-.3-.2-.6-.2-1l.1-.9c0-.2.2-.4.4-.6.1-.2.3-.3.6-.4l.7-.2c.4 0 .7.1 1 .3.3.2.5.4.6.7.2.3.3.6.3 1l-.1.9-.4.6-.6.4a2 2 0 0 1-.8.2Zm0-.5.7-.2.4-.5.1-.8c0-.5 0-.9-.3-1.2a1 1 0 0 0-.9-.3l-.6.1-.4.5a2 2 0 0 0-.2.9c0 .4.1.8.4 1 .2.3.5.5.8.5Zm3.3.5-.2-.1v-3.3h-.6l-.2-.1v-.4h.9-.2v-.2c0-.5.1-1 .4-1.2.2-.3.6-.4 1-.4h.5c.1.1.1.2 0 .2v.2h-.3c-.3 0-.6.2-.7.3-.2.2-.2.5-.2.8v.3h-.1 1.1l.1.2v.2h-1.1v3.1c0 .2-.1.4-.4.4Zm5.7 0-.9-.3-.6-.7-.2-1c0-.5 0-.8.2-1.1a1.6 1.6 0 0 1 1.5-1c.4 0 .7.1 1 .3l.4.7v-2.6l.3-.1h.2v5.7h-.5v-1c0 .4-.2.6-.5.8-.2.2-.5.3-.9.3Zm.2-.5.6-.2.4-.5.2-.8c0-.5-.2-.9-.4-1.2a1 1 0 0 0-.8-.3l-.7.1-.4.5a2 2 0 0 0-.1.9c0 .4 0 .8.3 1 .2.3.5.5.9.5Zm4.2.5c-.2 0-.5 0-.7-.2-.2 0-.4-.2-.5-.4a1 1 0 0 1-.2-.6l.2-.7.8-.4h1.7v.4h-1.3l-.6.2-.1.4c0 .3 0 .4.2.6l.6.2a1 1 0 0 0 1-.6l.1-.6v-.9c0-.3 0-.6-.2-.7-.1-.2-.3-.2-.6-.2h-.6l-.6.3h-.3v-.4l.1-.1a3.2 3.2 0 0 1 1.4-.4l.8.2.5.5.1.9v2.4h-.5v-1l-.2.5-.5.4h-.6Zm4.6 0c-.3 0-.6 0-.8-.2a1 1 0 0 1-.4-.5l-.2-.7v-2h-.5l-.2-.1v-.4h.7v-1l.1-.2.3-.1h.2v1.3h1.3v.4h-1.2v2c0 .3 0 .5.2.7l.6.2h.6v.4h-.2l-.2.1h-.3Zm3.6 0-.2-.1v-5.6l.2-.1h.3v3.5l1.7-1.5.2-.2h.4l.1.2-.1.2-1.7 1.7v-.4l1.9 1.8v.4h-.4l-.3-.2-1.7-1.6v1.5c0 .2-.2.4-.4.4Zm5 0c-.2 0-.5 0-.7-.2l-.5-.5-.1-.9v-2.4h.5l.1.3v2.1l.2.8c.2.2.4.2.7.2.3 0 .6 0 .8-.3.2-.2.3-.5.3-.9v-2l.1-.2h.5v3.6c0 .2 0 .4-.2.4l-.3-.1v-1 .1c0 .3-.2.6-.5.7-.2.2-.5.3-.8.3Zm3.5 0-.2-.1-.1-.3v-3.6h.5l.1.3v.7-.1c0-.3.2-.6.5-.7.2-.2.5-.3.9-.3l.7.2.5.5.1.9v2.4h-.5l-.1-.3v-2c0-.4 0-.7-.2-.9l-.7-.2c-.4 0-.6 0-.8.3-.3.2-.4.5-.4.9v2c0 .1 0 .3-.3.3Zm4.6 0-.3-.1v-4h.5v1-.1c0-.3.3-.6.5-.7.3-.2.6-.3 1-.3l.7.2.4.5.2.9v2.1l-.1.3h-.5v-2.3c0-.4-.1-.7-.3-.9l-.6-.2c-.4 0-.7 0-.9.3-.2.2-.3.5-.3.9v2c0 .1-.1.3-.3.3Zm6 0c-.5 0-.8-.1-1.1-.3-.3-.1-.6-.4-.7-.7-.2-.3-.3-.6-.3-1s.1-.8.3-1c.1-.4.4-.6.6-.8.3-.2.6-.3 1-.3.3 0 .5 0 .7.2.2 0 .4.2.5.4.2.1.3.3.4.6l.1.7v.2h-3.2v-.3h2.7-.2v-.7a1 1 0 0 0-.5-.4 1 1 0 0 0-.6-.2c-.2 0-.5 0-.7.2l-.4.5-.1.8c0 .5 0 1 .3 1.2.3.2.6.4 1 .4a2 2 0 0 0 1.1-.4h.4v.3l-.1.2a2 2 0 0 1-.7.3h-.7Zm2.8 0-.3-.1v-4h.5v1-.1c.1-.3.3-.6.5-.7.3-.2.6-.3 1-.3l.7.2.4.5.2.9v2.4h-.6v-2.3c0-.4-.1-.7-.3-.9l-.6-.2c-.4 0-.7 0-.9.3-.2.2-.3.5-.3.9v2c0 .1-.1.3-.3.3Zm7.7 0-.9-.3-.6-.7-.2-1c0-.5 0-.8.2-1.1a1.6 1.6 0 0 1 1.5-1c.4 0 .7.1 1 .3.2.2.4.4.4.7v-2.6l.3-.1h.2l.1.3v5.4h-.6v-1c0 .4-.2.6-.5.8-.2.2-.5.3-.9.3Zm.2-.5.6-.2.4-.5.2-.8c0-.5-.1-.9-.4-1.2a1 1 0 0 0-.8-.3l-.7.1-.4.5a2 2 0 0 0-.1.9c0 .4 0 .8.3 1 .2.3.5.5.9.5Zm4.6.5a2 2 0 0 1-1-.3l-.6-.7c-.2-.3-.2-.6-.2-1l.1-.9c0-.2.2-.4.4-.6.1-.2.3-.3.6-.4l.7-.2c.4 0 .7.1 1 .3l.7.7.2 1-.1.9-.4.6-.6.4a2 2 0 0 1-.8.2Zm0-.5.7-.2.4-.5.1-.8c0-.5 0-.9-.3-1.2a1 1 0 0 0-.9-.3l-.6.1-.4.5a2 2 0 0 0-.2.9c0 .4.1.8.4 1 .2.3.5.5.8.5Zm4.6.5c-.4 0-.8-.1-1-.3-.3-.1-.6-.4-.7-.7-.2-.3-.3-.6-.3-1s.1-.8.3-1c.1-.4.3-.6.6-.8.3-.2.6-.3 1-.3.3 0 .5 0 .7.2.2 0 .4.2.5.4.2.1.3.3.4.6v.8h-3v-.3h2.6l-.2-.7a1 1 0 0 0-.4-.4 1 1 0 0 0-.6-.2c-.3 0-.5 0-.7.2l-.4.5-.2.8c0 .5.2 1 .4 1.2.2.2.6.4 1 .4a2 2 0 0 0 1-.4h.4l.1.2v.1l-.2.2a2 2 0 0 1-.6.3h-.7Zm2.8 0-.2-.1v-4h.5v1-.1c0-.3.3-.6.5-.7l.9-.3.8.2.4.5.2.9v2.1l-.1.3h-.5v-2.3c0-.4-.1-.7-.3-.9l-.7-.2c-.3 0-.6 0-.8.3-.2.2-.3.5-.3.9v2c0 .1-.1.3-.4.3ZM158 112h-.2l-.2-.3-1.3-3.2v-.4h.4l.2.2 1.3 3.2h-.2l1.3-3.2.1-.2h.4l.1.2v.2l-1.4 3.2c0 .2-.1.2-.2.3h-.2Zm4.4 0c-.4 0-.7 0-1-.2-.3-.1-.6-.4-.7-.7-.2-.3-.3-.6-.3-1s.1-.8.3-1c.1-.4.3-.6.6-.8.3-.2.6-.3 1-.3.3 0 .5 0 .7.2.2 0 .4.2.5.4.2.1.3.3.4.6v.8h-3v-.3h2.7-.2l-.1-.7a1 1 0 0 0-.4-.4 1 1 0 0 0-.6-.2c-.3 0-.5 0-.7.2l-.4.5-.1.8c0 .5 0 1 .3 1.2.2.2.6.4 1 .4a2 2 0 0 0 1-.4h.4l.1.2v.1l-.1.2a2 2 0 0 1-.7.3h-.7Zm2.9 0h-.3v-4h.5v1c0-.3.2-.5.5-.7.2-.2.5-.3.9-.3h.1l.1.3v.2l-.3.1c-.5 0-.7.2-1 .4l-.2.8v2l-.1.2h-.2Zm4.5 0c-.4 0-.7 0-1-.2l-.5-.7.1-.1v1h-.5l-.1-.3v-5.3l.3-.1h.3v2.7c0-.3.2-.5.5-.7.2-.2.5-.3.9-.3l.9.3.6.7.2 1c0 .5 0 .8-.2 1.1a1.6 1.6 0 0 1-1.5 1Zm-.2-.4.7-.2.4-.5.1-.8c0-.5 0-.9-.3-1.2a1 1 0 0 0-.9-.3l-.6.1-.4.5a2 2 0 0 0-.2.9c0 .4.1.8.4 1 .2.3.5.5.8.5Z" fill="gray"/><defs><filter id="b" x="87.4" y="90.4" width="158.7" height="112.8" filterUnits="userSpaceOnUse" color-interpolation-filters="sRGB"><feFlood flood-opacity="0" result="BackgroundImageFix"/><feColorMatrix in="SourceAlpha" values="0 0 0 0 0 0 0 0 0 0 0 0 0 0 0 0 0 0 127 0" result="hardAlpha"/><feOffset dy="4"/><feGaussianBlur stdDeviation="2"/><feComposite in2="hardAlpha" operator="out"/><feColorMatrix values="0 0 0 0 0 0 0 0 0 0 0 0 0 0 0 0 0 0 0.15 0"/><feBlend in2="BackgroundImageFix" result="effect1_dropShadow_12_195"/><feBlend in="SourceGraphic" in2="effect1_dropShadow_12_195" result="shape"/></filter><filter id="c" x="86.9" y="54.8" width="159" height="34.6" filterUnits="userSpaceOnUse" color-interpolation-filters="sRGB"><feFlood flood-opacity="0" result="BackgroundImageFix"/><feColorMatrix in="SourceAlpha" values="0 0 0 0 0 0 0 0 0 0 0 0 0 0 0 0 0 0 127 0" result="hardAlpha"/><feOffset dy="3"/><feGaussianBlur stdDeviation="2"/><feComposite in2="hardAlpha" operator="out"/><feColorMatrix values="0 0 0 0 0 0 0 0 0 0 0 0 0 0 0 0 0 0 0.15 0"/><feBlend in2="BackgroundImageFix" result="effect1_dropShadow_12_195"/><feBlend in="SourceGraphic" in2="effect1_dropShadow_12_195" result="shape"/></filter></defs></svg>