<svg width="330" height="202" viewBox="0 0 330 202" fill="none" xmlns="http://www.w3.org/2000/svg"><rect width="330" height="202" rx="20" fill="#F2F2F2"/><g clip-path="url(#a)"><path d="M42.2 13.4s-7.8-2.2-10 5.5c-2.3 8.6-.4 169.3-.4 169.3h263.7s2.1-162.5.8-166.7c-1.3-4.1-3.3-8-10.4-8H42.2Z" fill="url(#b)" stroke="#4D4D4D" stroke-width=".8" stroke-miterlimit="10"/><path d="m32.7 24 66.7 1c25 .4 67 0 99.3-.3s51 1 71.2.4c20.1-.7 26-.4 26-.4s2.4-7.3-4.9-9.3c-7.3-2.1-191-1-210-1s-35-1.1-41.7 0c-6.6 1-6.6 9.6-6.6 9.6Z" fill="#fff"/><path d="M298.3 55.4c.3-16.5 1.5-35.4-1.3-41.1-3-5.8-7.9-3.7-22.5-4-14.7-.2-68.8-.2-89.8 0l-85.5 1c-13.3.3-55.2-.7-59.7-1-4.4-.2-7.8 1.1-9.6 4.5-1.7 3.4.5 20.4 0 27-.4 6.5-.3 55.2 0 71.4.2 16.2 0 79 0 79h268.4v-68.3c0-23-.3-52 0-68.5Zm-3 8.3c.3 18-1.8 68.3-1.2 82.7.5 14.4.5 38.2.5 38.2h-41.4c-21.3 0-59.6-.3-81.6 0l-95.2 1c-16.5.3-43.2-1-43.2-1s-.2-39 0-64.4c.3-25.3-.2-81.8 0-88.1.3-6.3-.2-11.8 3.4-13.6 3.7-1.9 15-.4 36.8-.4l109.5-.4c25.3 0 71.6.3 83.7 0 12-.3 22.7-1.3 26.4 1.8 3.7 3.2 2.1 26.2 2.4 44.2Z" fill="#737373"/><path d="M298.6 55.3c0-6.8.3-13.6.4-20.5.1-5.3.2-10.8-.6-16-.4-3-1.3-6.2-4-7.7-2.8-1.5-6.5-1-9.5-1-8 .2-15.8 0-23.7 0l-28.4-.1c-17.7 0-35.3 0-52.9.3l-58.1.6c-14.7.2-29.3.4-44 .2a2378.6 2378.6 0 0 1-36-.8c-2.8 0-5.9-.4-8.5 1a7.8 7.8 0 0 0-3.8 4c-.5 1.3-.5 2.9-.5 4.3 0 4.8.3 9.7.5 14.4.3 5.8 0 11.5 0 17.3-.2 17.7-.2 35.5 0 53.2l.2 42-.1 43.3v2.5H298c.1 0 .4 0 .4-.2V55.3l-.5.1c-.4 22.8 0 45.6 0 68.4v68.5l.4-.2H30.2c-.4 0-.1 0-.1-.2v-55.8c0-12.4 0-24.8-.2-37.2V50c.1-5.1.4-10.2.2-15.2-.1-4.5-.5-9-.5-13.4 0-3.6-.2-7.3 3-9.5 2.8-2 6.2-1.5 9.3-1.4l8.3.2 24.6.5c13.1.2 26.2.1 39.2 0 18-.3 36-.5 54.1-.6a5184.6 5184.6 0 0 1 97.3-.4l8.3.1h13.9c2.7 0 6 0 7.9 2.2 2.2 2.4 2.5 6.2 2.7 9.3.9 11.1 0 22.4-.2 33.5l.6-.1Z" fill="#4D4D4D"/><path d="M295.1 63.8c.2 16.8-.5 33.5-1 50.3-.2 8.2-.4 16.5-.4 24.7 0 7.8.4 15.6.5 23.4l.1 22.5.4-.2h-57.6c-15.3-.1-30.7-.2-46.1-.1-12.3 0-24.5.2-36.8.3l-43 .4c-12.4.1-24.9.4-37.3.4-12.7.1-25.3-.3-38-1h-2.4c-.2-.3 0-1.6 0-2v-55.2l.1-35.8-.1-38.4V30.4c.2-3.3-.3-7.8 1.8-10.6 1.2-1.6 3-1.8 4.8-2 5.1-.4 10.4 0 15.6.1 12 .4 23.8.3 35.7.3l39.3-.2 39-.2h34.1l42.2.2 15.6-.1c6.2 0 12.5-.4 18.8-.5 3.3 0 7 0 10.2 1a5 5 0 0 1 3.4 3.8c.7 2.5.8 5 1 7.6l.1 10.6v23.4l.6-.1c-.2-10.4.3-20.7 0-31-.1-3.5-.2-7.2-1-10.6-.3-.9-.6-1.9-1.3-2.5-.9-1-2.3-1.4-3.6-1.7-4.3-1-9-.8-13.5-.6-4.1.1-8.3.3-12.5.3l-20.5.1-54.7-.1-45.3.1L91 18H72c-9.4 0-18.6-.5-28-.5-2 0-4.3 0-6.3.5-3 .8-4 3.2-4.5 6-.4 3.2-.3 6.5-.4 9.6v5.8l.1 45.2.1 48.4v51.7h.2a703 703 0 0 0 45.9 1c19-.3 38.2-.4 57.3-.6 18-.2 36.2-.5 54.3-.5l62.3.1h41.6c.1 0 .4 0 .4-.2l-.1-18.8c-.1-8.3-.5-16.5-.5-24.8 0-17.3.7-34.7 1-52 .3-8.4.5-16.9.4-25.3 0 0-.6 0-.6.2Z" fill="#4D4D4D"/><path d="M164.6 15.6a1.3 1.3 0 1 0 0-2.6 1.3 1.3 0 0 0 0 2.6Z" fill="#E0E0E0"/><path d="M14.8 191.3s83.7-.3 100.2-.6c16.5-.2 70.4.3 98.7.3h96.5c5 0 4.7-.3 5.2 1.3s.7 7.8-6 8.9c-2.8.4-120.8 0-205.7.5-49.8.2-84.2-.4-85.2-.5-3-.6-4.2-5-4.2-6s.5-4 .5-4Z" fill="#CECECE"/><path d="M14.7 191.5H52l56.3-.4c19.2-.2 38.4-.1 57.6 0l70.1.2h74.5c1 0 2.9-.4 3.8 0 1 .6.9 3 .7 4a6.5 6.5 0 0 1-6.5 5.7h-4.8c-17.6.2-35.2.2-52.8.2h-83.4l-91.9.3a3370.6 3370.6 0 0 1-51.5-.4c-1.8 0-3.6 0-5.4-.2-2-.2-3.1-2.2-3.7-4-.7-1.9-.3-3.7 0-5.7.1-.3-.6-.2-.7 0-.3 2-.7 3.9 0 5.8.5 1.9 1.8 4 4 4.4 1.5.2 3 0 4.5.1l28.3.4c31 .2 62.1 0 93.2-.2h87.8l63.8-.1c4.3 0 8.6 0 12.9-.2a7.3 7.3 0 0 0 6.8-9.4c-.4-1.5-1.6-1.3-3-1.2h-53l-69.3-.1c-24.2-.1-48.4-.4-72.6-.2l-49 .3-50.8.2h-3c-.4 0-.8.5-.3.5Z" fill="#4D4D4D"/><path d="M144.4 190.9s.2 4.3 3 4.4c3.8.1 32.5.5 40.5.2 5.6-.1 5-4.6 5-4.6h-48.5Z" fill="url(#c)"/><path d="M144 191c.1 1.3.6 3 1.6 3.9 1 .8 2.3.7 3.5.7l10.7.1a1311.8 1311.8 0 0 0 26.5.1c2 0 4 0 5.6-1.3 1-.9 1.5-2.2 1.5-3.4v-.3l-.3-.2h-48.4c-.2 0-.5.1-.5.3-.1.1 0 .2.2.2h48.4l-.2-.1v.8c-.1.7-.3 1.3-.6 1.8-1.1 1.6-3.1 1.7-4.9 1.8h-11.3l-14-.1c-3.8 0-7.6 0-11.4-.2h-2.9c-1.8-.2-2.4-2.5-2.6-4v-.3c-.1-.3-.9-.2-.9.2Z" fill="#4D4D4D"/><path d="M44.8 23c1 0 1.9-.2 2.8-.4.4 0 .9-.2 1.1-.6.2-.3.3-.8 0-1a2 2 0 0 0-.9-1c-.4-.2-1-.3-1.5-.3l-2.7.5c-.4 0-.9.2-1.1.6-.2.3-.3.8-.1 1.1.2.4.5.8 1 1 .4.2 1 .3 1.4.2Z" fill="#333"/><path d="M54.3 22.2a12.4 12.4 0 0 0 5.5-.5l.6-.2.3-.3c.1-.2 0-.3-.3-.4-.4-.2-.8-.2-1.2-.2l-1.5.3h-.3l-.1.1h.3-.4.4-.4a2 2 0 0 0 .3 0H57h.4-.5.2-1.5c-.5 0-1 .1-1.4.3-.1 0-.6.3-.5.5 0 .2.4.3.6.4Zm10.3.2c1.5.2 2.9 0 4.3-.3.4-.1-.4-1.1-.8-1a11 11 0 0 1-4 .3c-.4 0-.3.3-.2.5.1.2.4.5.7.5Zm9.2.1c1 .7 2.5.8 3.6 0v-.2l-.3-.2c-.3-.1-.6-.2-.9 0l-1.1.2c-.1 0 0 0 0 0h-.3s-.2 0 0 0h-.3l-.2-.1-.5-.2-.3.1c-.2 0 .1.4.3.4Zm11.2-.6.2-.2-.1.1H85l-.2.1-.3.1h-1.3.1-.1l.1.1h.1l.3.1H85l.5-.2h.2l.2-.2-.2-.2H85a3 3 0 0 0-.6 0h-1.1l-.6.3h-.2v.2l.1.1h1.8l.3-.2.3-.1Z" fill="#9E9D9D"/><path d="m258.3 20.2-.9.4c-.6.3-1.5.8-1.4 1.6 0 .8 1.1.9 1.7.7l1.2-.2.5-.1h-.1 2.2-.1.2c.5 0 .9 0 1.4-.3.4-.1.9-.4 1.1-.8.2-.2.4-.6.3-1a1 1 0 0 0-.9-.5c-1.9-.1-3.7 0-5.6.5l.3 2.3 1-.3a3 3 0 0 0 1.2-.9c.1-.2.3-.6.2-1-.4-.8-1.6-.7-2.3-.4Zm10.3 1.8a3 3 0 0 0 2.1-.3l-.4-.4-.4-.3s-.1-.1-.2 0l-1.1.2h-1c0-.1 0 0 0 0l.3.3c.2 0 .3.2.4.3l.3.2Zm6.2.5c1.4.1 2.7 0 4.1-.4.3 0 .3-.5.2-.7-.2-.3-.5-.4-.9-.3-1.1.3-2.3.4-3.5.2-.3 0-.6.2-.6.5 0 .4.4.6.7.7Zm8.1-.6h2.4l.4-.1v-.3c0-.2-.5-.3-.7-.3h-2.4l-.4.1c-.1 0-.2.2-.1.3.1.2.5.3.8.3Z" fill="#8C8C8C"/><path d="M313 195c-.3 1.6-.4 3.7-3 4.4-2.7.7-106.3 1.2-109.6.7-3.3-.5-2-1.4-.3-1.4s55.7-.2 71.7 0 36-.2 37.3-1.2c1.2-1 .5-3.7 1-4.2.6-.5 3.2-1 2.8 1.7Zm-294.9-2c-1.3-.6-1.9 1.1-1 3.4.9 2.3 2.6 3.1 8.5 3.3 5.9.2 70.6-.7 80.5-.9 10-.1 12.5 0 11.7-.8-.9-.9-64.4-1.2-75.5-1-9.4 0-18.3-.3-19.7-.3-2.7.2-3.4-3.4-4.5-3.8Z" fill="#F2F2F2"/></g><g filter="url(#d)"><path d="M274.8 176.7s-31.2 1-41.2 1c-14.8 0-39.2.6-54 .6-12 0-38-1.3-50-1.3-9.7 0-28.4.4-38 .4H53.2c-2 0-3.7-1.7-3.7-3.8l.1-25.7v-30c0-6.8.7-23.4.7-30.2 0-7.6-.8-19.8-.8-27.5V35.6c0-2 1.7-3.7 3.7-3.7 0 0 19-.4 25.7-.4l39 .4h42.2c11.8 0 27.7-.5 43.7-.5h41.3c8.1 0 32 .5 32 .5 2 0 3.7 1.6 3.7 3.7l.2 19.7-.2 38.2-.3 28.4c0 10.6 1 47.3 1 47.3-.5 8.7-2.3 7.2-6.8 7.5Z" fill="#fff"/></g><path d="m274.8 176.5-25.6.7c-12.3.3-24.5.3-36.8.5-14.4.2-28.8.6-43.2.2-13.5-.4-27-1-40.5-1l-39.9.3H53.5c-2.6-.1-3.5-2.2-3.5-4.4v-55.2c0-13 1-26 .5-39-.2-6.9-.5-14-.5-21V35.8c0-1.5.8-3 2.4-3.4.5-.2 1-.1 1.6-.1l15.2-.3c12.6-.1 25.3 0 38 .2 14.3.2 28.5.1 42.8.1 17.4 0 34.8-.4 52.1-.5h45.7l17.2.3c4 0 8 0 11.9.2 2.5 0 3.6 1.9 3.6 4.1l.1 6.7c0 5.5.2 11 .1 16.6 0 15.2 0 30.5-.3 45.7-.2 12.8-.1 25.6.2 38.4l.4 16.8.2 8.7c0 1.9 0 4.8-1.4 6.4-1 1.3-3.5.8-5 .9-.4 0-.6.5-.1.4 1.6 0 3.7.3 5.1-.7 2-1.2 2-4.6 2.2-6.6.1-2.6-.1-5.2-.2-7.8l-.8-33.7v-21l.3-24.6c0-13.1.2-26.3 0-39.4v-6.8c-.1-2.2-1-4.1-3.4-4.5-1-.2-2.2-.1-3.3-.1l-7.2-.2-36-.2c-19.1 0-38.1 0-57.2.3-15.7.3-31.5.1-47.3.1l-41.7-.3c-10.5 0-20.8.1-31.3.3-2 0-3.8.8-4.5 2.8-.4 1.2-.2 2.9-.2 4.2V56c0 13.6 1 27.2.6 40.8-.2 6.7-.5 13.3-.6 20l.1 24.8v31.3c0 1.9.4 3.6 2.2 4.4 1 .5 2.2.4 3.3.4h14.4l35.6-.1c13.7-.1 27.4-.3 41.1.1 13.8.5 27.6 1 41.4 1 15.6-.2 31.1-.7 46.6-.7 11 0 21.9-.4 32.8-.7l8-.2c.4 0 .6-.5 0-.5Z" fill="#666"/><path d="M258.5 46.1s-26.6-1.2-35.4-1.2c-7.2 0-28.7 1.2-28.7 1.2s-85-1.5-113.3-1c-5 .1-19.7 1-19.7 1H48.6v15c0 7.7.7 19.9.7 27.6 0 6.7-.7 23.3-.7 30v55.9c0 2 1.6 3.7 3.7 3.7h38.2c9.6 0 28.3-.4 38-.4 12 0 38 1.3 50.1 1.3 14.8 0 39.2-.6 54-.6 10 0 41.1-1 41.1-1 4.5-.3 7 1 6.7-12.7 0 0-1.3-29.3-1.3-40 0-9.3.7-21 .7-30.4l-.3-37 .1-11.3h-21v-.1Z" fill="#fff"/><path d="M79 46a3115 3115 0 0 1 115.4 0s15.9-.5 28.9-.5c13.1 0 35.2.6 35.2.6h21.1l.2-9.6c0-2-1.6-3.7-3.7-3.7l-31.5.1c-8.6 0-26.8-.6-41.8-.6-16 0-29.4 1-41.2 1-11.3 0-33.3-.5-44.7-.5H52.3c-2 0-3.8 1.6-3.8 3.7V46s9.7-.2 12.9 0c4 .2 8.4.3 17.6-.1Z" fill="#CCC"/><path d="m274 177.4-25.8.7c-12.4.3-24.7.3-37.1.5-14.3.2-28.6.6-42.9.2-13.6-.3-27.2-1-40.8-1l-40 .3h-35c-2-.1-3.5-1.7-3.5-3.7V118c0-13 .9-26.2.4-39.2-.2-7-.4-14-.4-21V36.5c0-1.9 1.2-3.4 3.1-3.5h55.7c14 0 28 .2 41.8.4 7 .1 14 .2 21 0 9-.3 18-.7 27-.8 16-.2 31.8.6 47.7.6 10.1 0 20.1 0 30.2-.2 2.2 0 4 1.4 4 3.8v5a427 427 0 0 0-.3 16c0 14.8.6 29.6.3 44.4-.3 8.2-.7 16.4-.6 24.7 0 5.7.2 11.4.4 17l.6 16.5c.2 3.9.5 7.8 0 11.7-.2 1.5-.4 3.9-2 4.8-1 .7-2.7.5-4 .5-.1 0-.7.3-.2.3 2.8-.2 5.5 0 6.5-3.3 1.1-3.9.7-8.2.6-12.2-.5-11.2-1-22.4-1.2-33.6-.1-7.8.2-15.5.5-23.4.2-7.7.2-15.4 0-23.2-.1-13.1-.3-26.3 0-39.4l.2-5.8c0-2.3-1.6-4-3.9-4h-11.6a1537.7 1537.7 0 0 1-64.4-.5c-9.3 0-18.6.5-27.8.8-15 .5-30 0-45-.3h-74c-1.5 0-3 0-4.1 1.1-1.4 1.3-1.2 2.9-1.2 4.5v16.5c0 13.5 1 27 .6 40.6-.2 6.9-.5 13.7-.6 20.6-.2 8 0 15.9 0 23.8v33.2c0 1.6-.1 3.2 1.2 4.4 1.1 1 2.4 1 3.8 1h49.4c13.9-.2 27.7-.4 41.5 0s27.6 1 41.5 1c15.6-.2 31.2-.7 46.8-.7 11 0 22-.3 33-.7l8-.2c.2-.2.9-.5.5-.5Z" fill="#666"/><path d="M168.8 49.6H89.5l1.4-4.4V39c0-1.6 1.6-4.4 3.2-4H166c1.7-.4 3 2.5 3 4.1l-.4 5.3.3 5.3Z" fill="#fff"/><path d="M48.4 46.3h28.3l7.8-.1c1.7 0 3.6.1 5.4-.2 1-.2 1.3-.8 1.3-1.9.1-1.8-.1-3.6.1-5.4a5 5 0 0 1 1.4-3c.8-.5 1.7-.5 2.5-.6h5.4l13.4.2c9 0 17.9-.2 26.8 0 5.5 0 11 0 16.5-.2 2.2-.1 4.3-.3 6.4-.2 1.4 0 3.2.3 4 1.5 1.2 1.7.9 4.4.6 6.3 0 1-.6 2.6.6 3 .7.3 1.4.3 2 .3l4.1.2c14.1.4 28.2-.2 42.3-.5 19.5-.3 39 .7 58.6.5h4.8c.4 0 .5-.5.1-.5-19.4.3-38.8-.7-58.3-.5-14.1 0-28.2.9-42.4.6-3.1 0-6.2 0-9.2-.3-.8 0-1.8 0-2-.8-.2-.8 0-1.7 0-2.5.2-1.2.2-2.4.1-3.6-.1-1.5-.4-2.7-1.8-3.4a8.4 8.4 0 0 0-3.7-.9c-4.9 0-9.8.5-14.7.5-9.2 0-18.5-.2-27.8-.1h-13.7c-4-.1-8-.3-12-.1-1.3 0-2.6.1-3.5 1.1-1.2 1.3-1.4 3.1-1.4 4.8v2.8c0 .5.2 1.7-.3 2-.4.4-1.6.3-2 .3h-3.8c-10.8 0-21.5.4-32.3.2h-3.4c-.2 0-.6.5-.2.5Z" fill="#666"/><path d="M270.3 40.8c.6-.7.5-1.9-.2-2.5a1.8 1.8 0 1 0-2.3 2.8c.8.6 1.9.5 2.5-.3Z" fill="#fff"/><path d="M269.7 38.4a1.7 1.7 0 0 1 0 2.6l-.3.2h-.4c-.6 0-1.2-.4-1.5-1a2 2 0 0 1 .4-1.8l.2-.2h.2l.4-.1 1 .3c0 .1.3 0 .4 0 0 0 .3-.2.2-.3-.7-.5-1.7-.5-2.5-.1a2 2 0 0 0-1 2 2 2 0 0 0 1.6 1.7c.9.1 1.9-.3 2.3-1a2 2 0 0 0-.4-2.6h-.5c0 .1-.3.2-.2.3Z" fill="#666"/><path d="M265.2 40.8c.6-.7.5-1.9-.3-2.5a1.8 1.8 0 1 0-2.2 2.8c.7.6 1.8.5 2.5-.3Z" fill="#fff"/><path d="M264.6 38.5c.5.4.8 1.1.6 1.7-.1.3-.3.6-.6.7l-.1.1h-.1c-.1 0 0 0 0 0h-.1l-.4.1h-.4l-.5-.2c-.2-.2-.4-.4-.5-.8a1.6 1.6 0 0 1 .8-2h.9l.4.4c.3.2.9-.2.6-.4-.7-.5-1.7-.6-2.5-.1-.8.4-1.2 1.3-1 2.1a2 2 0 0 0 1.7 1.6 2 2 0 0 0 2.2-1c.5-1 .3-2-.4-2.6-.3-.2-.9.1-.6.4Z" fill="#666"/><path d="M259.4 40.8a1.8 1.8 0 0 0-2.8-2.2 1.8 1.8 0 0 0 2.8 2.2Z" fill="#fff"/><path d="M258.9 38.5c.4.4.7 1.1.5 1.7-.1.3-.3.6-.5.7l-.2.1h-.1l-.5.1h-.4l-.4-.2c-.3-.2-.5-.4-.6-.8a1.6 1.6 0 0 1 .8-2h1l.5.4c.2.2.8-.2.5-.4-.7-.5-1.7-.6-2.5-.1-.7.4-1.2 1.3-1 2.1a2 2 0 0 0 1.7 1.6c1 .2 1.8-.3 2.3-1 .5-1 .2-2-.5-2.6-.2-.2-.8.1-.5.4Z" fill="#666"/><path fill="#94D8FF" d="M158 139h28v8h-28z"/><g clip-path="url(#e)"><path d="m155 117.6-17.8.2-25-.2c-5.4 0-15.6-.4-21-.4l-22.1.4c-1.4 0-2.4-1-2.4-2.4v-13.7c0-4.4-.5-11-.5-15.4 0-3.1.5-11.6.5-14.7v-7.7c0-1.3.2-4.5 4.4-4.2h11c4 0 11.9.6 15.9.6 6.6 0 20-.6 26.5-.6l12-.4 17.6.1c3-.2 5.8 3 5.5 6.3v14c0 4.3-.8 12.4-.8 16.8 0 4.5.7 16.7.7 16.7.2 1.4-2 5-4.6 4.6Z" fill="url(#f)"/><path d="M155.2 117.5c-8.5.2-17 .3-25.5.2l-18-.3c-6 0-12-.3-18-.4-8.1 0-16.2.4-24.2.4-1.8 0-2.6-1.3-2.6-3v-6c0-5.3 0-10.8-.2-16.2-.3-5.6 0-11 .1-16.5.2-4.2 0-8.2.1-12.4 0-.8.2-1.7.7-2.4.7-1 2-1.3 3.4-1.2h5.8c5.4 0 10.8.1 16.2.4 5.5.2 11 0 16.4-.1l16.6-.4c5.3-.2 10.4-.4 15.6-.4l12.2.1c2.9 0 5.1 2.3 5.5 5.2V69c0 5.1 0 10.3-.2 15.5-.3 5.4-.7 10.7-.4 16l.6 12.4c0 2-2 4.9-4.1 4.6-.1 0-.6.3-.4.3 2 .2 3.8-1.4 4.7-3.1.7-1.3.5-2.2.4-3.5-.2-4.8-.5-9.5-.6-14.4 0-5.9.7-11.7.8-17.6 0-4.5-.1-9 0-13.7 0-2.5-1-5-3.4-6-1.3-.7-2.8-.5-4.2-.5h-15.3c-5.3 0-10.6.3-15.9.4l-18.8.5c-5.8.1-11.5-.2-17.2-.4-4.6-.2-9.3 0-13.8 0-1.7 0-3.5 0-4.4 1.7-.9 1.1-.8 2.6-.8 4 0 5 0 10.2-.2 15.4-.3 6.2 0 12.3.2 18.5.1 4.8 0 9.6 0 14.3 0 1.6-.2 3.5 1.6 4.2 1 .3 2.2 0 3 0 4.8 0 9.5-.2 14.2-.3 11-.1 21.8.3 32.8.5 11.1.1 22.3.2 33.4 0l3.4-.1.5-.2Z" fill="#4D4D4D"/><path d="M106.5 81.2s-1.6-1.1-.9-2c.8-1 5.5-3.2 5.2-6-.4-2.7-4-1.8-6.9-.8-2.8 1-8.5 6.4-11.4 7.2-3 .7-8-.5-11.6 0-3.5.5-10.7 1-11.7 9.4-1 8.3 2.4 16.8 5.1 20.4 2.7 3.5 7.5 5.3 11.2 3.5 3.8-1.7 6.2-8.5 9-10.6 2.7-2 4.5-2.2 8.5-2.9 4-.7 8-2.2 8.7-4.6.6-2.5-.9-2.4-2.4-2.4-1.4.1-3.6.6-4-1-.2-1.5.6-3.4.6-3.4s7.8-4.6 12.4-6.4c4.6-1.9 13.4-6 18.9-8 5.4-2 6.7-2.7 7.6-2.5 1 .2 1.6 1.8 3.5.8 1.9-.9 1.2-2.8 3.5-3 2.2-.1 2.2 1.5 4.1-.2 2-1.7 1.4-3.6-.6-4.3-1.9-1-6.8.4-9.3.4-2.4 0-3.1 0-3.4 1-.4.8-.4 1.6-.4 1.6l-35.7 13.8Z" fill="#fff"/><path d="M103 82.8s1.5-2.5.1-2.9c-1.4-.4-2.5 3-5.9 3.5-3.4.4-9.3 0-9.8 3s2.3 7 1.5 10c-.6 3-4.7 8.9-5.2 10.5-.5 1.6 0 3.8 2 2.4 1.9-1.4 5.9-9 10-10.1 4-1 12.3-1.3 13.3-3 1-1.6.2-1.2-2.4-2.6-2.7-1.4-3.5-2.6-3.6-3.4 0-.8-1 0-1.6-1-.7-1-2-4-1.6-4.7.2-.6 3.2-1.7 3.2-1.7Z" fill="#D1D1D1"/><path d="M86.1 94s-.2-2.7-2.3-4.5c-2.2-1.9-2.8-1.9-5.6-.1-2.8 1.7-6.2 4.5-6 6.5.3 2 2.4 6 5.3 6 2.8 0 7.2-2 8.4-3 1.3-1.1.2-4.9.2-4.9Z" fill="#D1D1D1"/><path opacity=".8" d="M107.2 81c-1-.3-1.6-1.6-1-2.5.4-.5 1.2-.7 1.7-1l1.6-1c1.4-1 2.6-3.3 1-4.7-1.6-1.4-4.3-.5-6 .1a46.5 46.5 0 0 0-10.1 5.8c-1.2 1-2.4 2-4.2 2-1.3.1-2.5-.1-3.9-.3a36 36 0 0 0-4.2 0c-4.6.3-9.4 1.4-12 5.6-2.7 4.5-2 10-.6 14.7 1.3 4.6 3 10 7.1 12.7 3.6 2.4 8 2.2 11.2-.7a26 26 0 0 0 4.7-5.8c1.4-2.3 2.7-4.2 5.3-5.2 4.3-1.6 9.5-.8 13.1-4 .9-.8 1.5-1.8 1.4-3a2 2 0 0 0-1.8-1.6c-1.2-.2-2.6 1-3.8.2-1.6-1-1.3-3-.6-4.4 0-.3-1-.2-1.2.1-.7 1.7-.9 4.4 1.3 5 .7.3 1.6.1 2.3 0 .7-.2 1.3-.5 2 0 .4.4.7 1 .7 1.4 0 2.4-3.2 3.7-5 4.2-2 .5-4 .6-6 1-1.6.3-3.3.8-4.8 1.7-1.7 1.1-2.7 2.8-3.8 4.3-1.4 2-2.8 4.1-4.5 5.8a6.5 6.5 0 0 1-7 1.6c-4.7-1.6-7-6.1-8.5-10.4-1.4-4.7-3-10-1.6-14.7a10 10 0 0 1 3.4-5.4c2.1-1.8 5.1-2.3 7.8-2.5 2.6-.3 5 .2 7.6.3 1.9.1 3.8-.2 5.4-1.5l3-2.5c1.3-.8 2.6-1.5 4-2.1l3.7-1.8c1.4-.5 3.5-1.2 4.6.1.8 1 .5 2.6-.3 3.5-.9 1-2.2 1.3-3.3 2-1.5 1-1.5 3 .3 3.7.3 0 1.4-.5 1-.6Z" fill="#333"/><path opacity=".8" d="M100.8 83.3c-1.2.3-2 1-1.7 2.3.2.9.6 1.8 1 2.6.1.6.3 1.3 1 1.5.4 0 .9 0 1.2-.2.9-.2 1.7-.6 2.6-1a62 62 0 0 0 5.3-2.4l5-2.8c1.7-1 3.5-1.7 5.4-2.5l11.3-4.8 12.8-5.4c.8-.3-.4-.2-.6-.1l-19.1 8c-3.1 1.2-6.3 2.4-9.3 3.9-2.9 1.5-5.7 3.2-8.7 4.6-.9.5-1.7.9-2.6 1.2-.6.3-2.2 1.2-2.7.7s-.7-1.8-1-2.5l-.3-1.3c0-.2-.2-1.5.1-1.5.5 0 1.1-.5.3-.3Z" fill="#333"/><path opacity=".8" d="M100.9 83.7c7.4-3.3 15-6.3 22.6-9l11.5-4.2 5.8-2 1.2-.5.7-.2s0 .2.2.2c.7.5 1.3 1.6 1.6 2.5 0 .2 1.2-.1 1.1-.4-.3-.9-1-2.5-2.1-2.7-1-.3-2.4.6-3.3 1l-10 3.6-19.1 7a309 309 0 0 0-11 4.7c-.6.3.4.2.8 0Z" fill="#333"/><path opacity=".8" d="M143.1 66.7c0-.3 0-.8.2-1.1.2-.3.2-.2.4-.3h1l3.8-.5 3.5-.4c1.1 0 2.4-.2 3.3.6.8.6 1.2 1.5 1 2.4-.1 1-1 1.6-2 1.1-1.5-.8-3.3.3-4.3 1.5-.6.9-1.7 2.4-2.9 1.5-.4-.3-.7-.6-1.2-.7l-.8-.2h-.7v.3-.1c-.3 0-.5.2-.8.3 0 0-.2 0-.3-.2v.1c0 .4 1.3.1 1.2-.3 0-.2-.3-.2-.4-.2-.3 0-.7 0-.9.4v.2c.4.3 1 .2 1.5.3.7.1 1.1.7 1.8 1 .9.4 2.1 0 3-.5 1-.8 1.6-2.2 2.8-2.8.7-.3 1 .1 1.7.3l1.5-.1c1-.3 1.8-.8 2-1.8.3-1-.2-2.2-1-3-.9-.7-2.1-.9-3.3-.8l-4.6.5-5.3.6c-1.2.3-1.4 1.3-1.3 2.2 0 .5 1.1.2 1.1-.3Zm-39.2 15c.5-.7.5-1.8-.5-2.2-1.1-.5-2.3.3-3 1.2-.6.6-1.1 1.3-2 1.6-.8.3-1.7.5-2.6.6-1.6 0-3.3 0-5 .4a6.1 6.1 0 0 0-4.6 5.7c0 1.5.6 2.8 1.3 4.2a6 6 0 0 1 .3 5.1c-1 3.4-4 5.8-5 9.2-.3 1.1-.1 2.4 1.2 2.5 1.2.2 2.3-.5 3-1.4 1-1.1 1.5-2.5 2.4-3.7a17.2 17.2 0 0 1 12.5-7c1.3-.1 9.3-.3 8.2-3-.7-1.5-2.8-.8-4-1.3-1.9-.8-2.6-2.9-2.8-4.8-.1-.5-1.3-.2-1.2.3.3 2.3 1.4 4.7 3.8 5.3.5.2 1.1.1 1.7.2.4 0 1 0 1.2.5.4.7-.1 1-.7 1-1.5.6-3 .7-4.6.8-2.5.3-5.1.6-7.5 1.7a17.9 17.9 0 0 0-8.2 6.8c-.7 1-1.2 2.5-2.2 3.3-1.2 1-1.8 0-1.6-1.2a32.7 32.7 0 0 1 3.2-5.6c1.5-2.2 2.8-4.8 2.2-7.5-.3-1.2-1-2.3-1.5-3.5a5.5 5.5 0 0 1 0-4.1c1.5-3.6 5.3-3 8.5-3.2a9 9 0 0 0 3.3-1c.6-.4 1-.9 1.5-1.4.3-.3.5-.8.8-1 1-.4 1.4.6.9 1.2-.4.7.7.8 1 .3Z" fill="#333"/><path opacity=".8" d="M73.2 93.3c2.3-1.5 4.6-3 7-4 .5-.4 1.4-1 2-.6.6.3.8.8 1.2 1.3a23 23 0 0 1 3 7c.1 1-.3 1.2-1 1.5l-2 1-3.8 1.6c-1.2.4-2.4.5-3.6-.3a6.7 6.7 0 0 1-2.4-3.1l-.5-2c-.1-.2-.5-1.8-.4-2-.2 0-.5 0-.7.2.6.1 1.5-.6.7-.9-.5-.1-1 0-1.2.5-.3.6 0 1.5.1 2 .4 1.6.8 3 1.7 4.3.8 1.1 2 2 3.3 2.3 1.6.3 3.2-.4 4.6-1 1.7-.7 3.4-1.4 5-2.3a2 2 0 0 0 1.2-1.2c.3-.8 0-1.6-.3-2.3-.4-1.5-1-3.1-2-4.5-.6-1.2-1.3-3-2.7-3.3-1-.3-1.7.1-2.5.5l-2.6 1.3-5.2 3.1c-.4.8.6 1.2 1.1.9Zm72.8-27c0-.2-.2-.5-.4-.6-.4 0-.8 0-1 .2a1 1 0 0 0-.4.5v.4l.3.6.6.5h.5l.4-.1c.3-.2.5-.3.6-.6v-.6c-.1-.5-.7-.9-1.2-.9l-.5.1-.3.3v.3l.3.2h.2-.2.2l.2.1v.2-.1.5h.2-.1l.2-.2h-.1.3v.1h-.2.1l-.2-.3-.1-.4v-.1l-.1.2v-.1h-.2.1-.2v-.1h-.1s0 .2.2.3l.4.1c.2 0 .3 0 .4-.2l.2-.3Zm3.2-.7-.8-.1c-.4 0-.7.1-1 .4-.3.2-.4.7-.3 1l.4.5h1c.5-.1 1.1-.4 1-1 0-.3-.1-.4-.4-.6 0 0-.2 0-.3-.2l-.7.1-.4.2s-.2.2 0 .2c0 .1 0 .2.2.2h.4s-.2 0 0 0h-.2.1v.3-.1.4-.1.2-.1c-.2 0 0 0 0-.1-.2 0 0 0 0 0s.2 0 0 0h.2-.1l-.2-.2h.1v-.5.1-.1c.2 0 0 .1 0 0v.1s-.2 0 0 0c-.2 0-.2 0 0 0h-.2.2v.1h.9l.3-.3-.2-.4Zm3.2 0-.5-.4-1 .1c-.2 0-.3.2-.4.3h-.1l-.1.1c-.1.2-.2.4-.1.5 0 .2 0 .4.2.4.1.2.4.3.6.3.4 0 .8-.2 1.1-.4l.2-.2.1-.3v-.4l-.1-.1-.2-.2s-.2 0-.3-.2h-.7l-.4.2s-.2.2 0 .3l.2.1h.4-.3.1l.1.1v.2-.1.2-.1.1h.2-.1l.1-.1h.3v-.1l-.2-.1h.1v-.4h.1-.2.1l-.2.2h.1-.3.2-.1.1l.4.1h.5l.3-.3-.2.2Zm2.4-.2c0-.2-.1-.3-.3-.3l-.3-.1h-.6c-.3.1-.6.3-.7.6l-.1.4.2.4c.2.2.4.2.6.2h.5l.7-.1.2-.2.1-.2V66c0-.2 0-.3-.2-.5a.5.5 0 0 0-.5-.3c0-.1-.2 0-.4 0l-.5.1v.1l-.2.2v.1l.3.2.2.2V66v.2l.1-.1.1-.1s.2-.1.1 0c0 0 .2 0 0 0h.2-.1.2-.2l-.2-.1h.1s-.2 0-.2-.2v.1l.1-.3.1-.2v.2h-.2c.1 0-.1.1 0 0-.3.1-.2 0-.1 0h-.3.1l.2.1.2.2h.4c.2 0 .4 0 .5-.2-.2 0-.1-.1-.1-.2Zm-10.9-.8a.5.5 0 0 1-.3-.5v.1l-.1-.6v-.3l-1 .3v.1c.5.3 1 .8 1.3 1.3h.4l.5-.1c.1 0 .2 0 .3-.2-.1.1 0 0 0 0v-.3h-.4c-.2 0-.4 0-.5.2l-.2.1h.9c-.4-.7-1-1.1-1.5-1.6h-.7c-.1.1-.4.2-.4.4-.1.5.1 1.1.5 1.5h.9l.3-.3v-.1Z" fill="#333"/><path opacity=".8" d="m146.1 64.4-.1-.4v-.2.1h-.1s-.2.2-.1 0h-.4l.2.2-.1-.1.2.1.1.2v.3c0 .4.4.4.6.3.1 0 .3 0 .4-.2h.2v-.1c.1-.3-.3-.3-.5-.2h.5v.2-.2l.1-.2V64c-.2-.3-.4-.4-.7-.4h-.7c-.2.1-.5.2-.6.5-.2.1-.3.3-.2.6v.2c0-.2 0 0 0 0h1.1v-.2l.1-.1v-.1c.1 0 0 0 0 0Zm2.3-.6s-.1 0 0 0l-.2-.2v-.1h-.2.1-.3.2-.1l.1.2.5 1 .3.1h.5c0-.2.2-.2.3-.3.1-.1.1-.3 0-.4l-.1-.2-.2-.5s0-.3-.2-.3c0-.1-.2-.3-.4-.3-.7-.1-1.7.3-1.6 1.1.1.3.4.6.7.7h.4c.2 0 .3-.1.4-.3.1 0 .2-.2.1-.3l-.3-.2Zm2.6-.2h.2c-.1 0 .1 0 0 0h.1v-.1l-.1-.1-.1-.2v.1-.2.1s-.2.1 0 .1c0 0-.3.1-.2 0 0 0-.1 0 0 0h-.1c.1 0 0 0 0 0h.1l.4.2v-.1.8l.2.2h.4c.2 0 .4 0 .4-.2h.1l.1-.2v-1l-.7-.3-1.1.1c-.2 0-.4.2-.5.3l-.2.3c0 .2 0 .4.2.6.3.3.8.2 1.2 0 .1 0 .3 0 .4-.2v-.3h-1Zm-48.2 20.7a4 4 0 0 0 1.4 2c.2.2.6.2.8 0 .1 0 .5-.2.4-.3l-1-1-.5-1-.2-.1h-.4c-.2 0-.3 0-.4.2l-.1.2Zm2.4-1.3 2 2.3h.6c.2 0 .4 0 .5-.2.2 0 .4-.4.3-.5 0-.2-.5-.2-.7-.1l-.4.1-.1.3v.2s0-.1 0 0l1-.2a15 15 0 0 1-2.1-2.3l-.4-.1h-.5c0 .1-.4.3-.2.5Zm3.9-1.3c.5.7 1 1.4 1.7 2h.5l.4-.1.1-.4-.1-.3-.4-.4-1.2-1.3a.5.5 0 0 0-.8-.1c-.1.1-.4.4-.2.6Zm3.2-1.7c.4.6.9 1.2 1.5 1.5h.9l.2-.4c0-.1 0-.3-.2-.3l-.7-.6v.1l-.6-.8-.3-.2-.5.1c-.3.1-.5.3-.3.6Zm2.7-1.2c.3.8 1 1.4 1.7 1.7h.4c.1 0 .3 0 .4-.2 0 0 .2 0 .2-.2v-.2c-.1 0-.3 0-.4-.2l.1.1-1-.8s0-.3-.2-.4l-.2-.2h-.4l-.4.2-.1.2Zm3.3-1c.1.4.3.6.5.9.2 0 .3.2.4.3l.7.2.5-.1.3-.3c.1 0 .1-.1 0-.2l-.3-.2h.2-.4.1l-.4-.2-.3-.4v-.2l-.3-.2h-.4l-.4.3-.2.1Zm3.8-1.6c.4.6 1 1.2 1.5 1.6l.4.1h.5l.3-.3v-.3l-1.5-1.6-.3-.1h-.5c-.1.2-.3.2-.4.3v.3Zm4.2-1.9c.4.9 1.2 1.6 2.1 1.9h.5l.4-.3v-.3l-.2-.3h-.3l-.2-.1c.2 0 0 0 0 0l-.7-.4h.1c-.2-.2-.5-.4-.6-.8v.1-.2c-.1-.2-.5-.3-.8-.2-.1 0-.3 0-.4.2v.4Zm3.7-.9c.4.6 1 1.1 1.8 1.5 0 .1.2 0 .4 0l.5-.1c0-.1.2-.1.2-.3v-.1l-.2-.1a4 4 0 0 1-1.5-1.4h-.8l-.4.3c-.1 0-.1 0 0 .2Zm3.5-2c.5.6 1 1.1 1.8 1.5h.4l.5-.2s.2 0 .2-.3v-.1l-.1-.1c-.5-.3-1-.7-1.5-1.3h-.8c-.3.2-.7.4-.5.5Zm3.1-.8c.5.7 1.2 1 2 1.1h.6c0-.2.2-.3.3-.3V71l-.3-.1h-.3l-.5-.2c-.2 0-.3-.2-.5-.3l-.2-.2c-.1-.2-.5-.2-.8 0-.2 0-.6.3-.3.4Zm3.8-.9 1.2.4h.5l.5-.1v-.1l.2-.2v-.2l-1.3-.4h-.4l-.5.2h-.1l-.2.2.1.2Zm-33.3 17.4a5.2 5.2 0 0 0-.7 4.8c.7 1.5 2.2 1.2 3.5 1.2 1 0 1.8.7 2.1 1.7.3 1 0 2-.8 2.8a8.5 8.5 0 0 1-5 2.7c-1.8.4-3.6.6-5.4 1.2-1.8.6-3.5 1.3-5 2.3-2.8 1.8-4.5 4.7-6.5 7-1.6 1.9-3.5 3.3-6 3.1a11 11 0 0 1-6.3-2.5c-.4-.2-1.5.3-1 .6 3 2.3 7.5 3.7 11 1.8 3.2-1.8 5-5 7.3-7.6 1.4-1.6 3-2.5 5-3.3 2-1 4.2-1.3 6.4-1.7 1.7-.4 3.4-.8 4.8-1.9 1.3-.9 2.8-2.3 2.8-4 0-1.8-1.3-3-3-3-1.4 0-2.4.2-2.8-1.4-.3-1.3 0-2.7.8-3.8.2-.4-1-.3-1.2 0Zm2.2-14.8c1 0 1.8.8 2 1.8.3 1 0 2.6-1 3-.5.2-1 .2-1.5.5a4 4 0 0 0-1.4 1c-.5.7-.7 1.7.1 2.4.4.2 1.4-.3 1-.6-.5-.3-.5-1-.2-1.4.2-.5.8-.8 1.3-1 .6-.2 1.2-.2 1.7-.6.5-.3.8-.7 1-1.2.4-1 .5-2.2-.1-3a3 3 0 0 0-2.5-1.5c-.3 0-.7 0-.9.3 0 .1.3.3.5.3Z" fill="#333"/><path opacity=".8" d="M120.5 63.4a23 23 0 0 0-5.3 9.4c-.1.3.3.4.5.4 2.4-.2 3.8-2.7 5.2-4.3 2-2.3 4-4.3 6.4-6.2l-1-.4a36.4 36.4 0 0 0-7 9.6c-.2.4.3.5.6.5 2-.6 3.5-2.7 5-4.2 2-1.9 4-3.6 6.2-5.2l-1-.3c-1.6 2.4-4.6 4-4.9 7 0 .6.8.5 1 .3 2.7-2 5.6-3.8 8.7-5.1l-.7-.5c-.4.6-3 3-1.6 3.6.6.3 1.2 0 1.7-.3 1-.4 2-.8 3-1.4.8-.4.1-1-.5-.7-.9.5-2 1.2-3 1.4-.3.1-.4.2-.2-.1 0-.3.3-.5.5-.8l1-1.4c.5-.5-.3-.6-.7-.5a44.8 44.8 0 0 0-9 5.3l1 .3c.3-3 3.4-4.6 4.9-7 .3-.6-.8-.5-1-.3a53.2 53.2 0 0 0-5.3 4.4l-2.5 2.3c-.8.8-1.6 2-2.8 2.3l.7.5c1.7-3.5 4.3-6.4 7-9.3.5-.5-.5-.8-.9-.5a60.9 60.9 0 0 0-7.8 7.8c-.7.9-1.5 2.3-2.8 2.4l.6.4a21 21 0 0 1 5-9c.5-.7-.7-.8-1-.4Zm4.2 27.4c-2.6 3.5-5 7-7.4 10.8-.6.9-5.8 8.8-2.9 8.8.6 0 1-.3 1.3-.6l2.2-2.2 3.8-4.3c2.5-2.9 4.8-5.9 7.4-8.7 3-3.3 6-6.4 9.6-9l-.9-.4a150.4 150.4 0 0 0-18 20.9c-1.7 2.3-3.8 4.6-4.6 7.4 0 .4.7.4.9.3 2.8-1.4 4.8-4.3 6.9-6.5l7-7.6c5-5 10-10 15.6-14.1l-.9-.5c-8.4 9-18 17-24.9 27.3-.2.4.4.5.7.5a20 20 0 0 0 6.2-4.4l6.4-5.7 13.1-12c.5-.5-.6-.8-.9-.4-3.3 3-6.6 6-9.8 9.2-1.6 1.6-3.2 3.1-4.7 4.8a15.2 15.2 0 0 0-3.6 4.7c-.2.6.7.6 1 .4 3.4-3 6.8-6 10.3-8.8a73 73 0 0 1 9.9-7.7l-1-.4-6.8 7.7c-2 2.3-4 4.6-5.5 7.2-.3.6.8.5 1 .3a121 121 0 0 0 13.4-14.4c.5-.6-.7-.6-1-.3-2.1 2-3.9 4-5.4 6.4-1.5 2.2-3.1 4.8-2.7 7.6 0 .2.3.3.4.3 1.2.1 2-.5 2.8-1.4l3.1-4.1 6.2-8.4c.4-.6-.7-.7-1-.3a34.4 34.4 0 0 0-7.3 13.2c-.3 1-.9 2.6.5 3 .3 0 .7 0 .9-.4l7.4-12c.4-.6-.9-.5-1.1 0a57.3 57.3 0 0 0-4.4 7.9c-1.1 2.5-2.5 5.4-2.2 8.2.1.6 1 .2 1.2 0l5.9-9h-1.2c-1.3 2.7-2 5.7-2.1 8.8 0 .3.3.4.5.4 1.5-.1 2.2-1.4 2.8-2.6l3-6-1.2-.1a25 25 0 0 0-1.3 10.7c0 .5 1.2.3 1.1-.3-.3-3.5.1-7 1.3-10.3.2-.6-1-.6-1.2 0l-2 4.2-1 2c-.3.5-.7 1.5-1.4 1.6l.6.4c.2-3 .8-5.9 2.2-8.5.3-.7-1-.5-1.2 0l-5.9 8.8 1.2-.1c-.4-2.8 1.2-5.9 2.4-8.5 1.1-2.5 2.5-5 4-7.3h-1.1l-7.5 12c.3-.1.6-.3 1-.3-1.5-.5 1.7-7.1 2.2-8a29 29 0 0 1 4.8-7l-1-.4a199 199 0 0 1-5 6.7l-2.3 3.2-1.4 1.7c-.4.5-1.1 1.8-2 1.7l.5.2c-.4-2.8 1.4-5.4 2.9-7.6 1.4-2 3-4 4.9-5.6l-1-.4c-4 5.2-8.5 10-13.3 14.4l1 .2c1.6-2.6 3.6-5 5.6-7.3l6.7-7.4c.5-.6-.6-.7-1-.5-3.5 2.2-6.7 5-9.8 7.7l-10.3 8.8 1 .3c.7-1.8 2.2-3.2 3.5-4.7A243.2 243.2 0 0 1 146 91.4l-1-.5-12.2 11.3-6.3 5.6c-2 1.7-4 3.8-6.4 4.6l.6.5c7.2-10.6 16.7-18.5 25.1-27.5.5-.5-.6-.7-1-.4-5.3 4-10.2 8.7-15 13.6a601.5 601.5 0 0 0-10.3 11.1c-1.2 1.2-2.3 2.6-3.8 3.4l.8.3c.8-3 3-5.4 4.8-7.8a180.3 180.3 0 0 1 17.5-20c.5-.6-.6-.8-.9-.5a79 79 0 0 0-14.4 14.5 158 158 0 0 1-6.6 7.7l-1.7 1.8c-.4.4-.5.6-.5 0l.5-1.8c.7-1.7 1.8-3.2 2.8-4.8 2.4-4 5-7.7 7.8-11.4.3-.6-.8-.7-1-.3ZM74.6 66.3l-1.6 6c-.4 1.4-1.2 3.1-.2 4.4.3.3.8.2 1-.1L83.7 63l-1-.2c-1.4 2.7-2.6 5.5-3.9 8.2l-1.7 4c-.3.8-.7 2 .1 2.7.4.3.8.1 1.1-.1 2-2 3.7-4.3 5.4-6.5l5.7-7.3c-.4 0-.7-.3-1-.3-2.9 4-5.7 8.2-7.3 13-.2.6.9.5 1.1.2 3.4-4 6.7-8.3 10.8-11.5l-1-.3-4 6.5c-.6.9-2.9 3.6-1.4 4.4.3.2.8.1 1-.1 3.2-3.4 6.4-6.6 9.8-9.7l-1-.5a39 39 0 0 0-6.7 10.2c-.3.7.8.5 1 .3L101 66l-1-.4c-2.1 2.4-4.3 4.8-5.6 7.7-.2.6.7.6 1 .4 2.8-2.4 5.6-4.8 8.4-7l-.8-.7c-1.7 1.5-3 3.3-4 5.3-.4.6.8.5 1 .2a54 54 0 0 1 8.5-6.8l-.9-.5a24.8 24.8 0 0 0-4 5.6c-.3.6.7.6 1 .3 2.4-2 5-3.8 7.3-5.8-.3 0-.6-.3-1-.3l-2 3.4c-.3.5.6.6.9.5a40 40 0 0 0 4.9-3l-1-.4c-.4 1-.5 2-.6 3.1 0 .7 1.1.5 1.2 0l.5-3c.2-.6-.6-.6-1-.3-1.4 1.2-3 2-4.5 2.9l.8.4 2-3.5c.3-.6-.8-.6-1-.3-2.4 1.9-5 3.8-7.3 5.8.3 0 .6.3 1 .3 1-2 2.3-3.7 3.8-5.3.5-.6-.6-.6-1-.5a51 51 0 0 0-8.5 7c.4 0 .8 0 1.1.2 1-1.9 2.2-3.4 3.7-4.8.5-.6-.4-1-.9-.6l-8.4 7 1 .4C97 70.5 99 68 101 65.9c.5-.6-.6-.8-1-.3l-10.3 10 1.1.2c1.6-3.7 4.1-7 6.7-10 .4-.6-.6-.7-1-.5-3.4 3.2-6.8 6.5-10 9.9l1-.2c-.7-.4 2-4.3 2.5-4.9l3.2-5.2c.3-.6-.8-.6-1-.3-4.3 3.3-7.6 7.6-11 11.7l1 .2c1.6-4.6 4.3-8.7 7-12.7.5-.7-.6-.8-1-.3a432 432 0 0 0-5.6 7.3c-1.7 2.2-3.4 4.5-5.4 6.5l1-.1c-.7-.9.3-2.6.7-3.5l1.5-3.7c1-2.4 2.1-4.7 3.3-7.1.2-.6-.8-.6-1-.2L72.8 76h1c-.8-1.2.3-3.6.6-4.7l1.4-5.3c0-.5-1.2-.3-1.3.2Z" fill="#B1B1B1"/></g><path d="M97 45v-.3l.3-.8v.2l-1-2.5v-.2l.2-.1h.1v.2l1 2.2h-.2l1-2.2v-.2h.3v.3l-1.3 3.3h-.1l-.2.1Zm3.3-1-.7-.1-.4-.5-.2-.7.1-.6c0-.2.2-.3.3-.4.1-.2.2-.3.4-.3l.5-.1.7.1.4.5.2.8v.5l-.4.5-.4.3h-.5Zm0-.3.5-.1.2-.4.1-.5c0-.4 0-.6-.2-.8a.7.7 0 0 0-.6-.3c-.2 0-.3 0-.4.2l-.3.3-.1.6c0 .3 0 .5.2.7l.6.3Zm3 .3h-.6a.8.8 0 0 1-.4-.4v-2.3h.3V43l.2.5.5.2.6-.3.2-.6v-1.5h.4v2.5c0 .2 0 .2-.2.2h-.2v-.7c0 .3-.1.5-.3.6a1 1 0 0 1-.6.1Zm2.3 0h-.2v-2.7h.3v.7c0-.3.2-.4.4-.5.1-.2.3-.2.6-.2h.1v.3h-.2l-.6.3-.2.6V44h-.2Zm1.7-1.3h-.1v-.2l.1-.1h1.3l.1.1v.2h-1.4ZM110 44h-.2v-2.3h-.5v-.4h.6-.1v-.2c0-.3 0-.6.2-.8.2-.1.4-.3.8-.3h.2l.1.1v.2h-.4c-.2 0-.3.1-.4.3l-.2.5v.2h.7v.2h-.7v2.2c0 .2 0 .2-.2.2Zm2.3 0h-.5a.9.9 0 0 1-.4-.4l-.1-.4.1-.4.6-.3h1.2v.2h-1l-.3.2-.1.3.1.4.4.1a.7.7 0 0 0 .7-.4v-1.5l-.5-.2h-.4a2 2 0 0 0-.4.2h-.2v-.2a2.2 2.2 0 0 1 1-.3h.6l.3.4.1.6V44h-.4v-.6l-.1.3-.3.3a1 1 0 0 1-.4 0Zm3 0h-.2v-.2l-1-2.2v-.2l.2-.1h.1v.2l1 2.2h-.2l1-2.2v-.2h.2v.3l-1 2.2v.2h-.2Zm3 0-.8-.1-.4-.5-.2-.7.1-.6c0-.2.2-.3.3-.4.1-.2.2-.3.4-.3l.5-.1.7.1.4.5.2.8-.1.5c0 .2-.1.4-.3.5l-.4.3h-.5Zm0-.3.4-.1.2-.4.1-.5c0-.4 0-.6-.2-.8a.7.7 0 0 0-.6-.3c-.2 0-.3 0-.4.2l-.3.3-.1.6c0 .3 0 .5.2.7l.6.3Zm2 .3-.1-.2v-2.5h.2l.1.2v.5c0-.3.1-.4.3-.5.1-.2.3-.2.6-.2h.1v.3h-.2l-.6.3-.2.6V44h-.2Zm2 0h-.1v-2.6l.2-.1h.1V44h-.1Zm0-3.3h-.2v-.5h.5v.4h-.2Zm2.2 3.3h-.5a.7.7 0 0 1-.4-.4v-1.9h-.8v-.4h.5v-.7l.1-.2h.4v.8h.9v.5h-.7V43l.1.5.4.2h.4v.2l-.2.1h-.2Zm2 0-.7-.1-.5-.5-.2-.7.2-.8.5-.4c.2-.2.4-.2.6-.2h.5l.4.3.2.4v.7h-2.1v-.2h1.9l-.2-.5-.2-.3a.7.7 0 0 0-.5 0h-.4c-.2.1-.3.2-.3.4l-.1.5c0 .4 0 .7.2.8.2.2.4.3.7.3a1.4 1.4 0 0 0 .7-.2h.2v.2l-.5.3h-.5Zm2-1.3h-.2v-.2l.1-.1h1.3l.2.1-.1.2h-1.5Zm3 1.3h-.2l-.1-.2-.9-2.2v-.2h.1l.1-.1h.2v.2l.8 2.2h-.1l.8-2.2v-.2h.4v.2l.8 2.2.7-2.2.1-.2h.2v.3l-.8 2.2-.1.2h-.4v-.2l-.9-2.2h.2l-.8 2.2v.2h-.3Zm4.8 0-.7-.1-.5-.5-.2-.7.2-.8.5-.4c.2-.2.4-.2.6-.2h.5l.4.3.2.4v.7h-2.1v-.2h1.9l-.2-.5-.2-.3a.7.7 0 0 0-.5 0h-.4c-.2.1-.3.2-.3.4l-.1.5c0 .4 0 .7.2.8.2.2.4.3.7.3a1.4 1.4 0 0 0 .7-.2h.2v.2l-.5.3h-.5Zm3 0a1 1 0 0 1-.5-.1.9.9 0 0 1-.4-.5v-.1.7h-.4v-4h.3v2c0-.2.2-.3.4-.4.1-.2.3-.2.6-.2l.6.1.4.5.2.8c0 .2 0 .5-.2.7a1.1 1.1 0 0 1-1 .6Zm0-.3.4-.1c.2-.1.3-.2.3-.4l.1-.5c0-.4 0-.6-.2-.8a.7.7 0 0 0-.6-.3c-.2 0-.3 0-.4.2-.2 0-.3.1-.3.3l-.1.6c0 .3 0 .5.2.7.1.2.3.3.6.3Zm2.8.3h-.5l-.4-.2v-.1l-.1-.1v-.1h.2l.5.2h.4l.4-.1.2-.3-.1-.3-.3-.1-.5-.1a1 1 0 0 1-.6-.3.6.6 0 0 1-.1-.4l.1-.4c0-.2.2-.3.4-.3l.5-.1h.5l.4.2v.3h-.2a1.2 1.2 0 0 0-.7-.2l-.5.1-.1.4v.2l.4.2h.5l.5.3c.2.1.2.3.2.5s0 .4-.3.5c-.2.2-.4.2-.8.2Zm2 0h-.2v-2.6l.2-.1h.2V44h-.2Zm0-3.3h-.2v-.5h.4l.1.2v.2h-.3Zm2.1 3.3h-.5a.7.7 0 0 1-.3-.4l-.1-.5v-1.4h-.5v-.4h.5v-.9h.4v.8h.8v.5h-.9V43c0 .2 0 .4.2.5l.4.2h.4v.2l-.3.1h-.2Zm2 0-.7-.1-.4-.5-.2-.7c0-.3 0-.6.2-.8 0-.2.2-.3.4-.4.2-.2.4-.2.7-.2h.5l.3.3.3.4v.7h-2.1v-.2h1.9-.1l-.1-.5-.3-.3a.7.7 0 0 0-.4 0h-.5l-.3.4v.5c0 .4 0 .7.2.8.1.2.4.3.7.3a1.4 1.4 0 0 0 .7-.2h.2c.1 0 .1.1 0 .2-.1.2-.3.2-.4.3h-.5Zm2 0h-.2v-.3a.3.3 0 0 1 .2-.3l.2.1.1.2v.2l-.3.1Zm2 0-.6-.1-.5-.5-.1-.8v-.5a1.1 1.1 0 0 1 .7-.7 1.5 1.5 0 0 1 1 0l.4.1a.2.2 0 0 1 0 .3h-.2a1 1 0 0 0-.6-.2 1 1 0 0 0-.4.1l-.3.2-.1.3v.5l.1.7a1 1 0 0 0 1.2 0h.2l.1.2v.2l-.4.2h-.4Zm2.5 0-.7-.1-.4-.5-.2-.7.1-.6c0-.2.2-.3.3-.4.1-.2.2-.3.4-.3l.5-.1.7.1.4.5.2.8v.5l-.3.5-.5.3h-.5Zm0-.3.5-.1.2-.4.1-.5c0-.4 0-.6-.2-.8a.7.7 0 0 0-.6-.3c-.1 0-.3 0-.4.2l-.3.3-.1.6c0 .3 0 .5.2.7l.6.3Zm2.2.3h-.2v-2.7h.4v.7c0-.3.1-.4.3-.6l.5-.1.6.1.3.5h-.1c0-.2.2-.3.4-.4.1-.2.3-.2.6-.2h.5l.2.4.1.6V44h-.5l-.1-.2v-1.4l-.1-.6-.5-.2c-.2 0-.3.1-.5.3a1 1 0 0 0-.2.6V44h-.4v-1.6l-.1-.6-.5-.2c-.2 0-.4.1-.5.3a1 1 0 0 0-.2.6v1.3c0 .2 0 .2-.2.2Z" fill="#212529"/><path d="M65.3 125c0-.3 0-.6.2-.8 0-.3.2-.5.3-.7l.6-.4.7-.1.8.1.6.4.3.7.1.8v.9l-.4.6a1.6 1.6 0 0 1-1.4.6c-.2 0-.5 0-.7-.2a1.7 1.7 0 0 1-1-1v-.8Zm.7 0v.6l.3.5.3.3.5.1.5-.1c.2 0 .3-.2.4-.3l.2-.5v-1.2l-.2-.4a1 1 0 0 0-.8-.4 1 1 0 0 0-.6 0 1 1 0 0 0-.3.4l-.2.4v.6Zm4.5-1.2v3.2h-.7v-4h.6v.8Zm-.2 1H70l.1-.7.3-.6.5-.4.7-.1h.5a1 1 0 0 1 .7.7l.1.7v2.6h-.7v-3.1l-.4-.3a1 1 0 0 0-.4 0 1 1 0 0 0-.5 0l-.3.3-.2.5v.5Zm2.6-.3-.5.1.1-.6.4-.5c0-.2.3-.3.4-.4l.7-.1h.6l.4.3.3.5v3.2h-.6v-2.6l-.1-.5-.3-.3h-.5a1 1 0 0 0-.4 0l-.3.2-.1.3-.1.4Zm7.8 1.7v-4.8h.7v5.6h-.6v-.8Zm-2.6-1.1v-.9l.4-.7.5-.4.6-.1.7.1c.2 0 .3.2.5.4l.3.6.1.8v.3l-.1.8-.3.6c-.2.1-.3.3-.5.3a1.6 1.6 0 0 1-1.3 0c-.2 0-.4-.2-.5-.4a2 2 0 0 1-.3-.6l-.1-.8Zm.6-.1.1.6.2.5.3.3.5.1a1 1 0 0 0 .9-.5l.2-.5v-1l-.1-.3-.2-.3-.4-.3a1 1 0 0 0-.4 0 1 1 0 0 0-.5 0 1 1 0 0 0-.3.4l-.2.4v.6Zm5.4 2a1.7 1.7 0 0 1-1.7-1.1l-.1-.7v-.2l.1-.9.4-.6a1.7 1.7 0 0 1 1.2-.5l.8.1.5.4.3.6v1.1h-3v-.5H85l-.1-.6a1 1 0 0 0-.3-.4.9.9 0 0 0-.6-.2 1 1 0 0 0-.7.4l-.3.5v1.3l.3.4.3.3.5.1.7-.1.4-.4.4.3-.3.4c-.2 0-.3.2-.5.3H84Zm4.9-3.3v3.3h-.7v-4h.7v.7Zm1.2-.7v.6h-.7l-.3.3-.2.3-.1.4-.2.1v-.7l.3-.5c0-.2.2-.3.4-.4a1 1 0 0 1 .8 0Zm2.2 4a1.7 1.7 0 0 1-1.7-1.1l-.1-.7v-.2l.1-.9.4-.6a1.7 1.7 0 0 1 1.2-.5l.8.1.5.4.3.6v1.1H91v-.5h2.3l-.1-.6a1 1 0 0 0-.3-.4.9.9 0 0 0-.6-.2 1 1 0 0 0-.7.4l-.2.5-.1.6v.7l.3.4.4.3.5.1.6-.1.4-.4.4.3-.3.4c-.2 0-.3.2-.5.3h-.7Zm3-5.6v5.6h-.7v-5.6h.7Zm2.4 1.6-1.7 1.9-1 1v-.7l.7-.9L97 123h.8Zm-.6 4-1.4-1.9.4-.6L98 127h-.8Zm3 0a1.7 1.7 0 0 1-1.7-1.1c-.2-.2-.2-.5-.2-.7v-.2l.1-.9.4-.6a1.7 1.7 0 0 1 1.2-.5l.8.1.5.4.3.6v1.1h-2.9v-.5h2.3l-.1-.6a1 1 0 0 0-.3-.4.9.9 0 0 0-.6-.2 1 1 0 0 0-.7.4l-.2.5-.1.6v.7l.3.4.4.3.5.1.6-.1.4-.4.4.3-.3.4-.5.3h-.7Zm3-3.1v3.1h-.7v-4h.6v.9Zm-.2 1h-.3l.1-.8.3-.6a1.5 1.5 0 0 1 1.2-.5h.5l.4.3.3.4v3.3h-.6v-2.6l-.1-.5-.3-.3a1 1 0 0 0-.4 0 1 1 0 0 0-.8.3 1.5 1.5 0 0 0-.3 1Zm4.3-1.9v4h-.6v-4h.6Zm-.7-1 .1-.3.3-.1.3.1.1.3-.1.3h-.6l-.1-.3Zm2.5 1.9v3.1h-.7v-4h.7v.9Zm-.2 1h-.2v-.8l.4-.6a1.5 1.5 0 0 1 1.2-.5h.5l.4.3.3.4v3.3h-.6v-2.6l-.1-.5-.3-.3a1 1 0 0 0-.4 0 1 1 0 0 0-.9.3 1.5 1.5 0 0 0-.3 1Zm6.2-1.9h.7v4c0 .3-.1.6-.3.8-.1.3-.3.4-.6.6a1.9 1.9 0 0 1-1.3.1 2 2 0 0 1-.6-.2l-.4-.4.4-.4.5.4.5.1.6-.1c.1 0 .3-.2.3-.4l.2-.6V123Zm-2.7 2 .1-.8c0-.3.2-.5.3-.7a1.4 1.4 0 0 1 1.2-.5l.6.1c.2 0 .4.2.5.4l.3.6.2.8v.3l-.2.8-.3.6c-.1.1-.3.3-.5.3a1.6 1.6 0 0 1-1.3 0c-.2 0-.3-.2-.5-.4a2 2 0 0 1-.3-.6v-.8Zm.7 0v.6l.2.5.4.3.4.1.6-.1.3-.4.2-.5v-1.3l-.3-.3a1 1 0 0 0-.3-.3 1 1 0 0 0-.5 0 1 1 0 0 0-.4 0 1 1 0 0 0-.4.4l-.2.4v.6Zm5.3 2a1.7 1.7 0 0 1-1.7-1.1l-.1-.7v-.2l.1-.9.4-.6a1.7 1.7 0 0 1 1.2-.5l.8.1.5.4.3.6v1.1H117v-.5h2.3l-.1-.6a1 1 0 0 0-.3-.4.9.9 0 0 0-.6-.2 1 1 0 0 0-.7.4l-.2.5-.1.6v.7l.3.4a1 1 0 0 0 .9.4l.6-.1.4-.4.4.3-.3.4-.5.3h-.7Zm3-3.1v3.1h-.6v-4h.6v.9Zm-.1 1h-.3l.1-.8.3-.6a1.5 1.5 0 0 1 1.2-.5h.5l.4.3.3.4v3.3h-.6v-2.6l-.1-.5-.3-.3a1 1 0 0 0-.4 0 1 1 0 0 0-.8.3 1.5 1.5 0 0 0-.3 1Zm7.1-1.9v.6h-2.1v-.6h2.1Zm-1.4-1h.7v4.3l.2.2h.2a1 1 0 0 0 .3 0v.5a1.7 1.7 0 0 1-.5 0 1 1 0 0 1-.4 0 .7.7 0 0 1-.4-.4l-.1-.6v-4Zm3.9 5a2 2 0 0 1-.8 0 1.7 1.7 0 0 1-1-1v-2l.5-.6a1.7 1.7 0 0 1 1.2-.5l.7.1.5.4.3.6.1.8v.3h-3v-.5h2.3v-.6a1 1 0 0 0-.4-.4.9.9 0 0 0-.5-.2 1 1 0 0 0-.8.4l-.2.5v1.3l.2.4.4.3.5.1.6-.1.4-.4.4.3-.3.4-.5.3h-.6Zm4.1-5.6h.7v5.6h-.7v-5.6Zm3.4 3.6-.1.9-.3.6-.5.4-.6.2c-.3 0-.5 0-.7-.2-.2 0-.3-.2-.5-.3a2 2 0 0 1-.3-.6l-.1-.8v-.3l.1-.8c0-.3.2-.5.3-.6l.5-.4.7-.1.6.1.5.4.3.7.1.8Zm-.7 0v-.6l-.2-.4a.9.9 0 0 0-.8-.5 1 1 0 0 0-.8.3l-.2.4-.1.4v.9c0 .1 0 .3.2.5l.3.3.6.2.5-.1.3-.3.2-.5v-.5Zm3.2 2a1.7 1.7 0 0 1-1.7-1.1l-.1-.7v-.2l.1-.9.4-.6a1.7 1.7 0 0 1 1.2-.5l.8.1.5.4.3.6v1.1h-3v-.5h2.4l-.1-.6a1 1 0 0 0-.3-.4.9.9 0 0 0-.6-.2 1 1 0 0 0-.7.4l-.3.5v1.3l.3.4a1.1 1.1 0 0 0 .8.4l.7-.1.4-.4.4.3-.3.4c-.2 0-.3.2-.5.3h-.7Zm4-4v.6h-2.1v-.6h2.1Zm-1.4-1h.7v4.3l.2.2h.2a1 1 0 0 0 .3 0v.5a1.6 1.6 0 0 1-.5 0 1 1 0 0 1-.5 0 .7.7 0 0 1-.3-.4l-.1-.6v-4Zm4.5 4.3V124l-.3-.3a1 1 0 0 0-.5 0 1 1 0 0 0-.5 0l-.3.2v.3h-.7v-.4l.4-.4.5-.2.6-.1.8.1.5.5.2.7v2.3l.1.3v.1h-.7v-.7Zm.1-1.7v.5H147l-.4.2c-.1 0-.2 0-.3.2v.6l.3.3h.4a1.1 1.1 0 0 0 1-.4l.1-.3.3.3s0 .2-.2.3a1.6 1.6 0 0 1-.7.7h-1.3l-.5-.5-.1-.6.1-.6.4-.4.5-.2.8-.1h.7Zm2.4-3.2v5.6h-.7v-5.6h.7Zm2.7 5.7a1.7 1.7 0 0 1-1.7-1.1v-2l.5-.6a1.7 1.7 0 0 1 1.2-.5l.7.1.5.4.3.6v1.1h-2.9v-.5h2.3l-.1-.6a1 1 0 0 0-.3-.4.9.9 0 0 0-.5-.2 1 1 0 0 0-.8.4l-.2.5-.1.6v.7l.3.4a1.1 1.1 0 0 0 .9.4l.6-.1.4-.4.4.3-.3.4-.5.3h-.7Zm3-3.2v3.1h-.6v-4h.6v.9Zm-.1 1h-.3l.1-.8.4-.6a1.5 1.5 0 0 1 1.1-.5h.5l.4.3c.2.1.2.3.3.4v3.3h-.6v-3.1l-.3-.3a1 1 0 0 0-.5 0 1 1 0 0 0-.8.3 1.5 1.5 0 0 0-.3 1Zm4.2 1.3v.5l-.1.7-.5.7-.4-.3a2.1 2.1 0 0 0 .3-.7v-.9h.7Zm5.7.2v.6h-2.9v-.6h3Zm0-2.9-2.7 3.5h-.4v-.5l2.6-3.5h.4v.5Zm-.4-.5v.6H163v-.6h2.7Zm1 2v-.8l.4-.7.6-.4.7-.1.8.1.6.4.3.7.2.8c0 .3 0 .6-.2.9l-.3.6a1.6 1.6 0 0 1-1.4.6c-.2 0-.5 0-.7-.2a1.7 1.7 0 0 1-1-1v-.8Zm.6 0v.6l.3.5.4.3.4.1.5-.1c.2 0 .3-.2.4-.3l.2-.5v-1.2l-.2-.4a1 1 0 0 0-.8-.4 1 1 0 0 0-.6 0 1 1 0 0 0-.3.4l-.2.4v.6Zm5.5 0 .1-.8c0-.3.2-.5.4-.7l.5-.4.8-.1.7.1.6.4.4.7v1.7l-.4.6a1.7 1.7 0 0 1-1.3.6c-.3 0-.5 0-.8-.2a1.7 1.7 0 0 1-.9-1l-.1-.8Zm.7 0v.6l.2.5.4.3.5.1.5-.1.3-.3.2-.5.1-.5v-.7l-.3-.4a1 1 0 0 0-.8-.4 1 1 0 0 0-.5 0 1 1 0 0 0-.4.4l-.2.4v.6Zm3.6 0v-.8l.4-.7.6-.4.8-.1.7.1.6.4c.1.2.3.4.3.7l.2.8c0 .3 0 .6-.2.9l-.3.6a1.6 1.6 0 0 1-1.3.6c-.3 0-.6 0-.8-.2a1.7 1.7 0 0 1-1-1v-.8Zm.6 0 .1.6.2.5.4.3.5.1.4-.1c.2 0 .3-.2.4-.3l.2-.5v-1.2l-.2-.4a1 1 0 0 0-.8-.4 1 1 0 0 0-.5 0 1 1 0 0 0-.4.4l-.2.4v.6Zm4.5-3.6v5.6h-.7v-5.6h.7Zm2.4 1.6-1.7 1.9-1 1v-.7l.7-.9 1.2-1.3h.8Zm-.6 4-1.4-1.9.3-.6 1.9 2.5h-.8Zm4.4-.6 1-3.4h.8l-1.5 4h-.4v-.6Zm-1-3.4 1.2 3.4v.6h-.4l-1.4-4h.7Zm3.2 2 .1-.8c0-.3.2-.5.4-.7l.5-.4.8-.1.7.1.6.4.4.7v1.7l-.4.6a1.6 1.6 0 0 1-1.3.6c-.3 0-.6 0-.8-.2-.2 0-.4-.2-.5-.4a2 2 0 0 1-.4-.6l-.1-.8Zm.6 0 .1.6.2.5.4.3.5.1.5-.1.3-.3.2-.5.1-.5v-.7l-.3-.4a1 1 0 0 0-.8-.4 1 1 0 0 0-.9.4l-.2.4v.6Zm3.6 0c0-.3 0-.6.2-.8 0-.3.2-.5.3-.7l.6-.4.7-.1.8.1.6.4.3.7.2.8c0 .3 0 .6-.2.9l-.3.6a1.7 1.7 0 0 1-1.3.6c-.3 0-.6 0-.8-.2a1.7 1.7 0 0 1-1-1v-.8Zm.7 0 .1.6.2.5.4.3.5.1.4-.1c.2 0 .3-.2.4-.3l.2-.5v-1.2l-.2-.4a1 1 0 0 0-.8-.4 1 1 0 0 0-.5 0 1 1 0 0 0-.4.4l-.2.4v.6Zm4.5-1.3v3.3h-.7v-4h.7v.7Zm1.2-.7v.6h-.7l-.3.3-.2.3-.1.4-.2.1v-.7l.3-.5c0-.2.2-.3.4-.4a1 1 0 0 1 .8 0Zm4.8 2.4v-3.7h.8v3.7c0 .4-.1.7-.3 1a1 1 0 0 1-.6.5 2 2 0 0 1-.8.2c-.4 0-.6 0-.9-.2a1 1 0 0 1-.6-.5l-.2-.9h.7l.1.6.4.3a1.2 1.2 0 0 0 1 0l.3-.4.1-.6Zm2.6-2.4v4h-.7v-4h.7Zm-.8-1 .1-.3.3-.1.3.1.2.3s0 .2-.2.3h-.6v-.3Zm2.5 1.8v3.2h-.6v-4h.6v.8Zm-.1 1h-.3v-.7l.4-.6.5-.4.7-.1h.5a1 1 0 0 1 .7.7v3.3h-.6v-2.6l-.1-.5-.3-.3a1 1 0 0 0-.4 0 1 1 0 0 0-.5 0l-.4.3-.1.5-.1.5Zm2.6-.3-.5.1.1-.6c0-.2.2-.4.3-.5l.5-.4.7-.1h.6l.4.3.2.5.1.6v2.6h-.7v-3.1c-.1-.2-.2-.2-.4-.3h-.4a1 1 0 0 0-.4 0l-.3.2a1 1 0 0 0-.2.7Zm4.2-1.5v4h-.7v-4h.7Zm-.8-1 .1-.3.3-.1.3.1.2.3s0 .2-.2.3h-.6v-.3Zm2.3-.6v1.6h-.6v-1.6h.6Zm2.9 4.5v-.2l-.3-.3-.6-.1-.6-.2-.5-.2a.9.9 0 0 1-.4-.7c0-.2 0-.4.2-.5 0-.2.1-.3.3-.4l.4-.2.6-.1.8.1c.3.1.4.3.6.5l.1.6h-.6l-.1-.3-.3-.3a.9.9 0 0 0-.5 0 1 1 0 0 0-.4 0l-.3.2a.5.5 0 0 0 0 .5l.1.2h.3l.4.2c.4 0 .6.2.8.3.3 0 .4.2.5.4l.2.5a1 1 0 0 1-.4.8l-.5.3h-.7a2 2 0 0 1-.8-.1 1 1 0 0 1-.6-.5l-.2-.6h.7c0 .2 0 .3.2.4l.3.3a1.4 1.4 0 0 0 1 0l.2-.3v-.3Zm5.8.2v-3h.7v3.9h-.6v-1Zm.2-.8h.3l-.1.7-.3.6-.5.3-.7.2-.5-.1a1 1 0 0 1-.7-.7V123h.6v3c0 .2.1.3.2.3l.2.2h.3c.3 0 .5 0 .7-.2.2 0 .3-.2.4-.4v-.7Zm2.2-4v5.7h-.6v-5.6h.6Zm2.5 1.7-1.8 1.9-1 1v-.7l.7-.9 1.2-1.3h.9Zm-.7 4-1.4-1.9.4-.6 1.8 2.5h-.8Zm3 0a2 2 0 0 1-.8 0 1.7 1.7 0 0 1-1-1v-2l.4-.6a1.7 1.7 0 0 1 1.2-.5l.8.1.5.4.3.6v1.1h-2.9v-.5h2.3l-.1-.6a1 1 0 0 0-.3-.4.9.9 0 0 0-.6-.2 1 1 0 0 0-.7.4l-.2.5-.1.6v.7l.3.4.4.3.5.1.6-.1.4-.4.4.3-.3.4-.5.3h-.7Zm3-5.6v5.6h-.7v-5.6h.7Zm2.7 5.7a1.7 1.7 0 0 1-1.7-1.1v-2l.4-.6a1.7 1.7 0 0 1 1.2-.5l.8.1.5.4.3.6v1.1h-2.9v-.5h2.3l-.1-.6a1 1 0 0 0-.3-.4.9.9 0 0 0-.6-.2 1 1 0 0 0-.7.4l-.2.5-.1.6v.7l.3.4a1.1 1.1 0 0 0 .9.4l.6-.1.4-.4.4.3-.3.4-.5.3h-.7Zm3.1-5.7v5.6h-.7v-5.6h.7Zm2.7 5.7a1.7 1.7 0 0 1-1.7-1.1v-2l.4-.6a1.6 1.6 0 0 1 1.2-.5l.8.1.5.4.3.6v1.1h-2.9v-.5h2.3l-.1-.6a1 1 0 0 0-.3-.4.9.9 0 0 0-.6-.2 1 1 0 0 0-.7.4l-.2.5-.1.6v.7l.3.4a1 1 0 0 0 .9.4l.6-.1.4-.4.4.3-.3.4-.5.3h-.7Zm2.4-.5v-.2l.4-.2c.1 0 .2 0 .3.2l.1.2v.3l-.4.1h-.3l-.1-.4Zm-180.6 4.5-1.8 4.9h-.7l2-5.3h.5v.4ZM69 136l-1.8-4.9v-.4h.5l2 5.3H69Zm-.1-2v.6h-3v-.6h3Zm3.7 1.3V133l-.3-.3a1 1 0 0 0-.5 0 1 1 0 0 0-.4 0c-.2 0-.3.1-.3.2l-.1.3h-.7v-.4l.4-.4.5-.2.7-.1.7.1.5.5c.2.1.2.4.2.7v2.3l.2.3v.1h-.7l-.1-.3v-.4Zm.2-1.7v.5h-1.2l-.4.2c-.1 0-.2 0-.2.2l-.1.3v.3l.3.3h.4a1.1 1.1 0 0 0 1-.4l.1-.3.3.3-.1.3a1.6 1.6 0 0 1-.8.7H71l-.4-.5c-.2-.2-.2-.4-.2-.6l.1-.6.4-.4.5-.2.8-.1h.8Zm2.3-.7v3.1h-.7v-4h.6v.9Zm-.2 1h-.3l.1-.8.4-.6a1.5 1.5 0 0 1 1.1-.5h.6l.4.3.2.4.1.7v2.6H77v-3.1l-.3-.3a1 1 0 0 0-.5 0 1 1 0 0 0-.8.3 1.5 1.5 0 0 0-.3 1Zm6.2-1.9h.6v4c0 .3 0 .6-.2.8-.1.3-.3.4-.6.6a1.9 1.9 0 0 1-1.3.1 2 2 0 0 1-.6-.2l-.4-.4.3-.4.5.4.6.1.5-.1c.2 0 .3-.2.4-.4l.1-.6v-3l.1-.9Zm-2.7 2v-.8l.4-.7a1.4 1.4 0 0 1 1.1-.5l.7.1c.2 0 .3.2.5.4l.3.6.1.8v.3l-.1.8-.3.6c-.2.1-.3.3-.5.3a1.6 1.6 0 0 1-1.3 0c-.2 0-.4-.2-.5-.4a2 2 0 0 1-.3-.6l-.1-.8Zm.7 0v.6l.2.5.3.3.5.1.6-.1.3-.4.2-.5v-1l-.1-.3-.2-.3-.4-.3a1 1 0 0 0-.4 0 1 1 0 0 0-.5 0 1 1 0 0 0-.3.4l-.2.4v.6Zm5.3 2a1.7 1.7 0 0 1-1.7-1.1l-.1-.7v-.2l.1-.9.4-.6a1.7 1.7 0 0 1 1.2-.5l.7.1.5.4.3.6.1.8v.3h-3v-.5h2.4c0-.3 0-.4-.2-.6a1 1 0 0 0-.2-.4.9.9 0 0 0-.6-.2 1 1 0 0 0-.8.4l-.2.5v1.3c0 .2.2.3.3.4l.3.3.5.1.6-.1.5-.4.4.3-.3.4c-.2 0-.3.2-.5.3h-.7Zm5.3-.6v.6h-3v-.6h3Zm-.1-2.9L87 136h-.4v-.5l2.6-3.5h.5v.5Zm-.3-.5v.6h-2.7v-.6h2.7Zm1.9 0v4h-.7v-4h.7Zm-.8-1 .1-.3.3-.1.3.1.1.3v.3h-.7v-.3Zm3.5 5a1.7 1.7 0 0 1-1.7-1.1l-.1-.7v-.2l.1-.9.4-.6a1.7 1.7 0 0 1 1.2-.5l.8.1.5.4.3.6v1.1h-3v-.5H95l-.1-.6a1 1 0 0 0-.3-.4.9.9 0 0 0-.6-.2 1 1 0 0 0-.7.4l-.3.5v1.3l.3.4.3.3.5.1.7-.1.4-.4.4.3-.3.4c-.2 0-.3.2-.5.3H94Zm3-3.1v3.1h-.7v-4h.7v.9Zm-.1 1h-.3l.1-.8.3-.6a1.5 1.5 0 0 1 1.2-.5h.5l.4.3.3.4v3.3h-.6v-2.6l-.1-.5-.3-.3a1 1 0 0 0-.4 0 1 1 0 0 0-.8.3 1.5 1.5 0 0 0-.3 1Zm7.5-2.8-1.7 4.9h-.8l2-5.3h.5v.4Zm1.5 4.9-1.8-4.9v-.4h.5l2 5.3h-.7Zm0-2v.6h-3v-.6h3Zm2-3.6v5.6h-.6v-5.6h.7Zm5.4 4v-3.7h.7v3.7l-.2 1-.6.5a2 2 0 0 1-1 .2c-.2 0-.5 0-.8-.2l-.6-.5-.2-.9h.7l.1.6.4.3a1.2 1.2 0 0 0 1 0c.1-.1.3-.2.3-.4l.2-.6Zm2.5-2.4v4h-.7v-4h.7Zm-.7-1v-.3l.4-.1.3.1v.6h-.6l-.1-.3Zm2.5 1.8v3.2h-.7v-4h.6v.8Zm-.2 1h-.3l.1-.7.3-.6.5-.4.7-.1h.5a1 1 0 0 1 .7.7l.1.7v2.6h-.7v-3.1l-.4-.3a1 1 0 0 0-.4 0 1 1 0 0 0-.5 0l-.3.3-.2.5v.5Zm2.6-.3-.5.1.1-.6.3-.5.5-.4.7-.1h.6l.4.3.3.5v3.2h-.6v-2.6l-.1-.5-.3-.3h-.5a1 1 0 0 0-.4 0l-.3.2-.2.3v.4Zm4.2-1.5v4h-.7v-4h.7Zm-.7-1v-.3l.4-.1.3.1v.6h-.6l-.1-.3Zm2.2-.6v1.6h-.5v-1.6h.5Zm3 4.5-.2-.2c0-.1 0-.2-.2-.3l-.6-.1-.6-.2-.4-.2a.9.9 0 0 1-.4-.7v-.5l.4-.4.4-.2.6-.1.9.1.5.5.2.6h-.7l-.1-.3-.3-.3a.9.9 0 0 0-.5 0 1 1 0 0 0-.4 0l-.3.2a.5.5 0 0 0 0 .5l.1.2h.3l.5.2c.3 0 .6.2.8.3.2 0 .3.2.4.4l.2.5a1 1 0 0 1-.4.8l-.5.3h-.6a2 2 0 0 1-1-.1l-.5-.5-.2-.6h.7c0 .2 0 .3.2.4l.3.3a1.4 1.4 0 0 0 1 0l.2-.3.1-.3Zm4-2.1v4.7h-.7V132h.7v.8Zm2.7 1.2-.1.9-.3.6-.5.4-.6.2c-.3 0-.5 0-.7-.2-.2 0-.4-.2-.5-.3l-.3-.6-.2-.7v-.4c0-.3 0-.6.2-.8 0-.3.2-.5.3-.6l.5-.4.6-.1.7.1.5.4.3.7v.8Zm-.7 0v-.6l-.2-.4a1 1 0 0 0-.9-.5 1 1 0 0 0-.8.3l-.1.4-.2.4v1l.2.4.4.4.6.1.4-.1c.2 0 .3-.2.4-.3l.1-.5.1-.5Zm2.3-3.6v5.6h-.7v-5.6h.7Zm2.7 5.7a1.7 1.7 0 0 1-1.7-1.1l-.1-.8v-.2l.1-.9.4-.6a1.7 1.7 0 0 1 1.2-.5l.8.1.5.4.3.6v1.1h-2.9v-.5h2.3l-.1-.6a1 1 0 0 0-.3-.4.9.9 0 0 0-.6-.2 1 1 0 0 0-.7.4l-.2.5-.1.6v.7l.3.4.4.3.5.1.6-.1.4-.4.4.3-.3.4-.5.3h-.7Zm5.3-.7v.6H142v-.6h3Zm-.1-2.9-2.6 3.5h-.4v-.5l2.6-3.5h.4v.5Zm-.3-.5v.6h-2.7v-.6h2.7Zm2 0v4h-.8v-4h.7Zm-.8-1v-.3l.4-.1.3.1v.6h-.6l-.1-.3Zm3.4 5a1.7 1.7 0 0 1-1.7-1.1v-1.8l.5-.6a1.7 1.7 0 0 1 1.2-.5l.7.1.5.4.3.6v1.1h-2.9v-.5h2.3l-.1-.6a1 1 0 0 0-.3-.4.9.9 0 0 0-.5-.2 1 1 0 0 0-.8.4l-.2.5-.1.6v.7l.3.4a1.1 1.1 0 0 0 .9.4l.6-.1.4-.4.4.3-.3.4-.5.3h-.7Zm3-3.3v3.3h-.6v-4h.6v.7Zm1.3-.7v.6h-.8l-.3.3-.2.3v.4l-.2.1v-.7c0-.2.2-.4.3-.5 0-.2.2-.3.3-.4a1 1 0 0 1 .9 0Zm2.5-1.6h.7v4.8l-.1.8h-.6v-5.6Zm3.3 3.6v.9l-.4.6-.5.4-.6.2c-.3 0-.5 0-.7-.2-.2 0-.3-.2-.4-.3a2 2 0 0 1-.4-.6l-.1-.8v-.3l.1-.8c.1-.3.2-.5.4-.6 0-.2.2-.3.4-.4l.7-.1.6.1.5.4c.2.2.3.4.3.7l.1.8Zm-.6 0-.1-.6-.2-.4c0-.2-.2-.3-.3-.3a1 1 0 0 0-.5-.2 1 1 0 0 0-.8.3l-.2.4v1.3l.1.5.4.3.5.2.5-.1.3-.3.2-.5v-.5Zm3.1 2a1.7 1.7 0 0 1-1.7-1.1v-1.8l.4-.6a1.7 1.7 0 0 1 2-.4l.5.4.3.6v1.1h-2.9v-.5h2.3l-.1-.6a1 1 0 0 0-.3-.4.9.9 0 0 0-.6-.2 1 1 0 0 0-.7.4l-.2.5-.1.6v.7l.3.4.4.3.5.1.6-.1.4-.4.4.3-.3.4-.5.3h-.7Zm3.1-5.6v5.6h-.7v-5.6h.7Zm3.4 5v-2.5l-.3-.3a1 1 0 0 0-.5 0 1 1 0 0 0-.5 0l-.3.2v.3h-.7v-.4l.4-.4.5-.2.6-.1.8.1.5.5.2.7v2.3l.1.3v.1h-.7v-.7Zm.1-1.8v.5h-1.2l-.3.2c-.1 0-.2 0-.3.2v.6l.3.3h1l.3-.4.2-.3.3.3s0 .2-.2.3a1.6 1.6 0 0 1-.7.7h-1.2l-.5-.5-.1-.6.1-.6.4-.4.5-.2.8-.1h.7Zm2.3-.7v3.1h-.6v-4h.6v.9Zm-.1 1h-.3l.1-.8.4-.6a1.5 1.5 0 0 1 1.1-.5h.5l.4.3c.2.1.2.3.3.4v3.3h-.6v-3.1l-.4-.3a1 1 0 0 0-.4 0 1 1 0 0 0-.8.3 1.5 1.5 0 0 0-.3 1Zm6.2-1.9h.6v4c0 .3 0 .6-.2.8l-.6.6a1.9 1.9 0 0 1-1.4.1 2 2 0 0 1-.5-.2l-.4-.4.3-.4.5.4.6.1.5-.1c.2 0 .3-.2.4-.4l.1-.6V132Zm-2.7 2v-.8l.4-.7a1.4 1.4 0 0 1 1.1-.5l.7.1c.2 0 .3.2.4.4.2.1.3.3.4.6l.1.8v.3l-.1.8-.4.6c0 .1-.2.3-.4.3a1.6 1.6 0 0 1-1.3 0c-.2 0-.4-.2-.5-.4a2 2 0 0 1-.3-.6l-.1-.8Zm.6 0v.6l.3.5.3.3.5.1.5-.1.4-.4.2-.5v-1l-.1-.3-.3-.3a1 1 0 0 0-.3-.3 1 1 0 0 0-.4 0 1 1 0 0 0-.5 0 1 1 0 0 0-.3.4l-.2.4v.6Zm4.4-1.3v3.3h-.7v-4h.7v.7Zm1.2-.7v.6h-.6l-.3.3-.2.3-.1.4-.2.1v-.7l.3-.5.4-.4a1 1 0 0 1 .8 0Zm1.4 0v4h-.7v-4h.7Zm-.7-1v-.3l.4-.1.3.1v.6h-.6l-.1-.3Zm1.8 1h.7v4.5l-.1.6-.4.4-.5.1a1.5 1.5 0 0 1-.5 0v-.6h.7l.2-.2V132Zm0-1v-.3l.3-.1.3.1.1.3v.3h-.7v-.3Zm2.5-.6v5.6h-.7v-5.6h.7Zm2.4 1.6-1.6 2-1 1v-.7l.6-.9 1.3-1.3h.8Zm-.6 4-1.4-1.9.3-.6 1.9 2.5h-.8Zm2.9 0a1.7 1.7 0 0 1-1.7-1.1l-.2-.7v-.2c0-.3 0-.6.2-.9 0-.2.2-.4.4-.6a1.7 1.7 0 0 1 1.9-.4l.5.4.3.6.1.8v.3h-3v-.5h2.3v-.6a1 1 0 0 0-.4-.4.9.9 0 0 0-.5-.2 1 1 0 0 0-.8.4l-.2.5v1.3l.2.4.4.3.5.1.6-.1.4-.4.4.3-.3.4-.5.3h-.6Zm3-3.3v3.3h-.7v-4h.6v.7Zm1.2-.7v.6h-.6l-.3.3-.2.3-.1.4-.2.1v-.7c0-.2.2-.4.3-.5 0-.2.2-.3.3-.4a1 1 0 0 1 1 0Zm3.7 3.4 1-3.4h.8l-1.4 4h-.5l.1-.6Zm-1-3.4 1.2 3.4v.6h-.4l-1.4-4h.7Zm3.2 2 .1-.8c0-.3.2-.5.4-.7l.5-.4.8-.1.7.1.6.4.4.7v1.7l-.4.6a1.6 1.6 0 0 1-1.3.6c-.3 0-.5 0-.8-.2a1.7 1.7 0 0 1-.9-1l-.1-.8Zm.7 0v.6l.2.5.4.3.5.1.5-.1.3-.3.2-.5.1-.5v-.7l-.3-.4a1 1 0 0 0-.8-.4 1 1 0 0 0-.5 0 1 1 0 0 0-.4.4l-.2.4v.6Zm4.4-1.1v3.1h-.7v-4h.7v.9Zm-.1 1h-.3l.1-.8.3-.6a1.5 1.5 0 0 1 1.2-.5h.5l.4.3.3.4v3.3h-.6v-2.6l-.1-.5-.3-.3a1 1 0 0 0-.4 0 1 1 0 0 0-.8.3 1.5 1.5 0 0 0-.3 1Zm6 1.3v-4.8h.8v5.6h-.7v-.8Zm-2.6-1.1v-.1l.1-.8.3-.7a1.4 1.4 0 0 1 1.2-.5l.6.1c.2 0 .4.2.5.4.1.1.3.3.3.6l.2.8v.3c0 .3 0 .5-.2.8l-.3.6c-.1.1-.3.3-.5.3a1.6 1.6 0 0 1-1.3 0l-.5-.4a2 2 0 0 1-.3-.6v-.8Zm.7-.1v.6l.3.5.3.3.4.1a1 1 0 0 0 1-.5l.2-.5v-1l-.2-.3c0-.1 0-.2-.2-.3l-.3-.3a1 1 0 0 0-.4 0 1 1 0 0 0-.5 0 1 1 0 0 0-.3.4l-.2.4-.1.6Zm8 1.2v-4.8h.8v5.6h-.7v-.8Zm-2.6-1.1v-.1l.1-.8.3-.7.5-.4.7-.1.6.1c.2 0 .4.2.5.4l.3.6.2.8v.3l-.2.8-.3.6c-.1.1-.3.3-.5.3a1.6 1.6 0 0 1-1.3 0c-.2 0-.3-.2-.5-.4a2 2 0 0 1-.3-.6v-.8Zm.7-.1v.6l.2.5.4.3.4.1a1 1 0 0 0 1-.5l.2-.5v-1l-.2-.3-.2-.3-.3-.3a1 1 0 0 0-.4 0 1 1 0 0 0-.5 0 1 1 0 0 0-.4.4l-.1.4-.1.6Zm6 1.3V133l-.3-.3a1 1 0 0 0-.5 0 1 1 0 0 0-.4 0c-.2 0-.3.1-.3.2l-.1.3h-.7v-.4l.4-.4.5-.2.7-.1.7.1.5.5c.2.1.2.4.2.7v2.3l.2.3v.1h-.7l-.1-.3v-.4Zm.2-1.7v.5h-1.2l-.4.2c-.1 0-.2 0-.2.2l-.1.3v.3l.3.3h.4a1.1 1.1 0 0 0 1-.4l.1-.3.3.3-.1.3a1.6 1.6 0 0 1-.8.7h-1.2l-.4-.5-.2-.6.1-.6.4-.4.5-.2.8-.1h.8Zm2.3-.7v3.1h-.7v-4h.6v.9Zm-.2 1h-.3c0-.3 0-.6.2-.8l.3-.6a1.5 1.5 0 0 1 1.1-.5h.6l.4.3.2.4.1.7v2.6h-.7v-3.1l-.3-.3a1 1 0 0 0-.5 0 1 1 0 0 0-.8.3 1.5 1.5 0 0 0-.3 1Zm6.2-3.5v5.6h-.7v-5.6h.7Zm-.2 3.5h-.3c0-.3 0-.6.2-.8l.3-.6a1.5 1.5 0 0 1 1.1-.5h.6l.4.3.2.4.1.7v2.6h-.7v-3.1l-.3-.3a1 1 0 0 0-.5 0 1 1 0 0 0-.8.3 1.5 1.5 0 0 0-.3 1Zm5.3 2.2a1.7 1.7 0 0 1-1.7-1.1l-.1-.8v-.2l.1-.9.4-.6a1.6 1.6 0 0 1 1.2-.5l.7.1.5.4.3.6.1.8v.3h-3v-.5h2.3v-.6a1 1 0 0 0-.4-.4.9.9 0 0 0-.5-.2 1 1 0 0 0-.8.4l-.2.5v1.3l.2.4a1 1 0 0 0 1 .4l.5-.1.5-.4.4.3-.4.4-.4.3h-.7Zm4-4v.5h-2.2v-.6h2.2Zm-1.4-1h.6v4.2l.3.2h.2a1 1 0 0 0 .3 0v.5a1.7 1.7 0 0 1-.5 0 1 1 0 0 1-.5 0 .7.7 0 0 1-.3-.4l-.1-.6v-4Zm7 4.3v.6h-3v-.6h3Zm-.1-2.9-2.7 3.5h-.4v-.5l2.6-3.5h.5v.5Zm-.3-.5v.6h-2.7v-.6h2.7Zm1.9 0v4h-.7v-4h.7Zm-.8-1 .1-.3.3-.1.3.1.2.3s0 .2-.2.3h-.6v-.3Zm1.9 1h.7v4.5l-.1.6-.4.4-.6.1a1.5 1.5 0 0 1-.4 0v-.6h.8l.1-.2V132Zm0-1v-.3l.3-.1.3.1.1.3v.3h-.7v-.3Zm2.4 1.9v3.1h-.6v-4h.6v.9Zm-.1 1h-.3l.1-.8.3-.6a1.5 1.5 0 0 1 1.2-.5h.5l.4.3.3.4v3.3h-.6v-3.1l-.4-.3a1 1 0 0 0-.4 0 1 1 0 0 0-.8.3 1.5 1.5 0 0 0-.3 1Zm5.3 2.2a2 2 0 0 1-.8-.2 1.7 1.7 0 0 1-1-1v-1.8l.5-.6a1.7 1.7 0 0 1 1.2-.5l.7.1.5.4.3.6v1.1h-2.9v-.5h2.3v-.6a1 1 0 0 0-.4-.4.9.9 0 0 0-.5-.2 1 1 0 0 0-.8.4l-.2.5v1.3l.2.4.4.3.5.1.6-.1.4-.4.4.3-.3.4-.5.3h-.6Zm2.9-1v.6c0 .3 0 .5-.2.7 0 .3-.2.5-.4.7l-.4-.3a2.1 2.1 0 0 0 .3-.7v-.9h.7Zm-189.5 6h.6v3.8c0 .4 0 .7-.2 1l-.6.5a1.9 1.9 0 0 1-1.4.1 2 2 0 0 1-.5-.2l-.4-.4.3-.4.5.4.6.1.5-.1c.2 0 .3-.2.4-.4l.1-.6V141Zm-2.7 2v-.9l.4-.7a1.4 1.4 0 0 1 1.1-.5l.7.1c.2 0 .3.2.4.4.2.1.3.3.4.6l.1.8v.3l-.1.8-.4.6c0 .1-.2.3-.4.3a1.6 1.6 0 0 1-1.3 0c-.2 0-.4-.2-.5-.4a2 2 0 0 1-.3-.6l-.1-.8Zm.6-.1v.6l.3.5.3.3.5.1.5-.1.4-.4.2-.5v-1l-.1-.3-.3-.3-.3-.3a1 1 0 0 0-.4 0 1 1 0 0 0-.5 0 1 1 0 0 0-.3.4l-.2.4v.6Zm6 1.3V142l-.3-.3a1 1 0 0 0-.5 0 1 1 0 0 0-.4 0l-.3.2-.1.3h-.7l.1-.4.3-.4.5-.2.7-.1.7.1c.3.1.4.3.6.5l.1.7v2.3l.2.3v.1h-.7l-.1-.3v-.4Zm.2-1.7v.5H71l-.4.2c-.1 0-.2 0-.2.2l-.1.3v.3l.3.3h.4a1.1 1.1 0 0 0 1-.4l.1-.3.3.3-.1.3a1.6 1.6 0 0 1-.8.7h-1.3l-.4-.5-.2-.6.1-.6.4-.4.6-.2.7-.1h.8Zm2.6 2.4H74v-4.4c0-.3 0-.5.2-.7l.4-.4c.2-.2.5-.2.7-.2a1.8 1.8 0 0 1 .5 0v.6H75l-.2.3v4.8Zm.9-4v.6h-2.2v-.6h2.2Zm3.3-1.6v5.6h-.7v-5.6h.7Zm-.2 3.5h-.3l.1-.8.4-.6a1.5 1.5 0 0 1 1.1-.5h.5l.4.3c.2.1.2.3.3.4v3.3h-.6v-3.1l-.3-.3a1 1 0 0 0-.5 0 1 1 0 0 0-.8.3 1.5 1.5 0 0 0-.3 1ZM83 141v4h-.6v-4h.6Zm-.7-1 .1-.3.3-.1.3.1.1.3v.3h-.7v-.3Zm1.8 1h.7v5.1l-.4.4-.6.1a1.5 1.5 0 0 1-.4 0v-.6h.5l.2-.2V141Zm0-1v-.3l.4-.1.3.1v.6h-.6l-.1-.3Zm4.4-.6v5.6h-.7v-5.6h.7Zm-.2 3.5H88l.1-.8.4-.6a1.5 1.5 0 0 1 1.1-.5h.6l.4.3.2.4.1.7v2.6h-.7v-3.1l-.3-.3a1 1 0 0 0-.5 0 1 1 0 0 0-.8.3 1.5 1.5 0 0 0-.3 1Zm5.3 2.2A1.7 1.7 0 0 1 92 144l-.2-.8v-.2c0-.3 0-.6.2-.9 0-.2.2-.4.4-.6a1.7 1.7 0 0 1 1.2-.5l.7.1.5.4.3.6.1.8v.3h-3v-.5h2.3v-.6a1 1 0 0 0-.4-.4.9.9 0 0 0-.5-.2 1 1 0 0 0-.8.4l-.2.5v1.3l.2.4.4.3.5.1.6-.1.4-.4.5.3-.4.4-.5.3h-.6Zm4-4v.5h-2.2v-.6h2.2Zm-1.5-1h.7v4.2l.2.2h.2a1 1 0 0 0 .4 0v.5a1.6 1.6 0 0 1-.6 0 1 1 0 0 1-.4 0 .7.7 0 0 1-.3-.4l-.2-.6v-4Zm6.4 3.8v-.2l-.3-.3-.6-.1-.6-.2-.4-.2a.9.9 0 0 1-.4-.7v-.5l.4-.4.4-.2.6-.1.9.1.5.5.2.6h-.7l-.1-.3-.3-.3a.9.9 0 0 0-.5 0 1 1 0 0 0-.4 0l-.3.2a.5.5 0 0 0 0 .5l.1.2h.3l.5.2c.3 0 .6.2.8.3.2 0 .3.2.4.4l.2.5a1 1 0 0 1-.4.8l-.5.3h-.6a2 2 0 0 1-1-.1l-.5-.5-.2-.6h.7c0 .2 0 .3.2.4l.3.3a1.4 1.4 0 0 0 1 0l.2-.3.1-.3Zm4 .4v-2l-.2-.4-.3-.3a1 1 0 0 0-.4 0 1 1 0 0 0-.5 0l-.3.2v.3h-.8l.2-.4.3-.4.5-.2.6-.1.8.1.5.5.2.7v2.3l.1.3v.1h-.7v-.7Zm0-1.7v.5h-1.2l-.3.2c-.1 0-.2 0-.3.2v.6l.3.3h.4a1.1 1.1 0 0 0 1-.4v-.3l.4.3s0 .2-.2.3a1.6 1.6 0 0 1-1.3.8c-.3 0-.5 0-.7-.2-.2 0-.4-.2-.5-.4l-.1-.6v-.6l.4-.4.6-.2.7-.1h.8Zm2.1-1.6.9 1.5.9-1.5h.8l-1.3 2 1.3 2h-.8l-.9-1.5-1 1.5h-.7l1.3-2-1.3-2h.8Zm3 2c0-.3 0-.6.2-.8 0-.3.2-.5.3-.7l.6-.4.7-.1.8.1.5.4.4.7.1.8v.9l-.5.6a1.7 1.7 0 0 1-1.3.6c-.2 0-.5 0-.7-.2a1.7 1.7 0 0 1-1-1v-.8Zm.7 0v.6l.3.5.3.3.5.1.5-.1c.2 0 .3-.2.4-.3l.2-.5v-1.2l-.2-.4a1 1 0 0 0-.8-.4 1 1 0 0 0-.6 0 1 1 0 0 0-.3.4l-.2.4v.6Zm4.8 2h-.7v-4.4c0-.3 0-.5.2-.7 0-.2.2-.3.4-.4.2-.2.5-.2.7-.2a1.8 1.8 0 0 1 .5 0v.6h-.8l-.2.3-.1.4v4.4Zm.8-4v.6H116v-.6h2.1Zm.6 2 .1-.8.4-.7.6-.4.7-.1.8.1.5.4.4.7.1.8-.1.9c0 .2-.2.4-.4.6a1.6 1.6 0 0 1-1.3.6c-.3 0-.5 0-.7-.2-.3 0-.4-.2-.6-.4a2 2 0 0 1-.4-.6v-.8Zm.7 0v.6l.3.5.3.3.5.1.5-.1.4-.3.2-.5v-1.2l-.2-.4a1 1 0 0 0-.8-.4 1 1 0 0 0-1 .4l-.1.4-.1.6Zm3.6 0 .1-.8.4-.7.5-.4.8-.1.7.1.6.4.4.7.1.8-.1.9-.4.6a1.7 1.7 0 0 1-1.3.6c-.3 0-.5 0-.8-.2a1.7 1.7 0 0 1-.9-1l-.1-.8Zm.7 0v.6l.2.5.4.3.5.1.5-.1.3-.3.2-.5.1-.5v-.7l-.3-.4a1 1 0 0 0-.8-.4 1 1 0 0 0-.5 0 1 1 0 0 0-.4.4l-.2.4v.6Zm4.4-1.1v3.1h-.7v-4h.7v.9Zm-.1 1h-.3l.1-.8.3-.6a1.5 1.5 0 0 1 1.2-.5h.5l.4.3.3.4v3.3h-.6v-2.6l-.1-.5-.3-.3a1 1 0 0 0-.4 0 1 1 0 0 0-.8.3 1.5 1.5 0 0 0-.3 1Zm5.9 1v-.2l-.3-.3-.6-.1-.6-.2-.5-.2a.9.9 0 0 1-.4-.7c0-.2 0-.4.2-.5 0-.2.1-.3.3-.4l.4-.2.6-.1.8.1c.3.1.4.3.6.5l.1.6h-.6l-.1-.3-.3-.3a.9.9 0 0 0-.5 0 1 1 0 0 0-.4 0l-.3.2a.5.5 0 0 0 0 .5l.1.2h.3l.5.2c.3 0 .5.2.8.3.2 0 .3.2.4.4l.2.5a1 1 0 0 1-.4.8l-.5.3h-.7a2 2 0 0 1-.8-.1 1 1 0 0 1-.6-.5l-.2-.6h.7c0 .2 0 .3.2.4l.3.3a1.4 1.4 0 0 0 1 0l.2-.3.1-.3Zm2.2-2.1v4.7h-.6V141h.6v.8Zm2.7 1.2v.9l-.4.6-.5.4-.6.2c-.3 0-.5 0-.7-.2-.2 0-.3-.2-.5-.3l-.3-.6-.2-.7v-.4l.2-.8c0-.3.2-.5.3-.6l.5-.4.7-.1.6.1.5.4.3.7.1.8Zm-.7 0v-.6l-.2-.4a1 1 0 0 0-.8-.5 1 1 0 0 0-.8.3l-.2.4-.1.4v1c0 .1 0 .3.2.4 0 .2.2.3.3.4l.6.1.4-.1c.2 0 .3-.2.4-.3l.2-.5v-.5Zm3.2 2a1.7 1.7 0 0 1-1.7-1.1l-.1-.7v-.2l.1-.9.4-.6a1.7 1.7 0 0 1 1.2-.5l.8.1.5.4.3.6v1.1h-2.9v-.5h2.3l-.1-.6a1 1 0 0 0-.3-.4.9.9 0 0 0-.6-.2 1 1 0 0 0-.7.4l-.2.5-.1.6v.7l.3.4a1.1 1.1 0 0 0 .9.4l.6-.1.4-.4.4.3-.3.4-.5.3h-.7Zm3-5.6v5.6h-.6v-5.6h.7Zm3 3.5a5.4 5.4 0 0 1 .7-2.6c.1-.4.3-.6.5-.9l.6-.4.1.4-.4.5-.4.7a6.4 6.4 0 0 0-.4 2.2 6.4 6.4 0 0 0 .4 2.3l.4.7.4.5v.4c-.3 0-.5-.2-.7-.4a4.8 4.8 0 0 1-1-2l-.2-1.4Zm3.3-3.5v5.6h-.7v-5.6h.7Zm-.2 3.5h-.3c0-.3 0-.6.2-.8l.3-.6a1.5 1.5 0 0 1 1.2-.5h.5l.4.3.2.4.1.7v2.6h-.7v-3.1l-.3-.3a1 1 0 0 0-.4 0 1 1 0 0 0-.9.3 1.5 1.5 0 0 0-.3 1Zm4.4-1.9v4h-.7v-4h.7Zm-.8-1 .1-.3.3-.1.3.1.1.3v.3h-.7v-.3Zm1.9 1h.7v4.5c0 .2 0 .4-.2.6 0 .2-.1.3-.3.4l-.6.1a1.5 1.5 0 0 1-.4 0v-.6h.7l.1-.2V141Zm0-1v-.3l.3-.1.3.1.1.3v.3h-.7v-.3Zm6 4-.1-.3-.3-.3-.6-.1-.6-.2-.4-.2a.9.9 0 0 1-.4-.7v-.5l.4-.4.5-.2.6-.1.8.1.5.5.2.6h-.7l-.1-.3-.3-.3a.9.9 0 0 0-.4 0 1 1 0 0 0-.5 0l-.3.2a.5.5 0 0 0 0 .5l.1.2h.3l.5.2c.3 0 .6.2.8.3.2 0 .3.2.5.4l.1.5a1 1 0 0 1-.4.8l-.5.3h-.6a2 2 0 0 1-1-.1l-.5-.5-.1-.6h.6l.2.4.4.3a1.4 1.4 0 0 0 .8 0l.3-.3.1-.3Zm2.2-2.2v4.7h-.7V141h.6v.8Zm2.6 1.2v.9l-.4.6a1.4 1.4 0 0 1-1.1.6c-.2 0-.5 0-.7-.2-.2 0-.3-.2-.5-.3l-.3-.6-.1-.7v-.4l.1-.8.3-.6.5-.4.7-.1.7.1.4.4c.2.2.3.4.3.7l.1.8Zm-.6 0-.1-.6-.2-.4a1 1 0 0 0-.8-.5 1 1 0 0 0-.8.3l-.2.4-.1.4v1l.2.4c0 .2.2.3.3.4l.6.1.5-.1.3-.3.2-.5v-.5Zm3.2 2a2 2 0 0 1-.8 0 1.7 1.7 0 0 1-1-1v-2l.5-.6a1.7 1.7 0 0 1 1.2-.5l.7.1.5.4.3.6v1.1h-2.9v-.5h2.3v-.6a1 1 0 0 0-.4-.4.9.9 0 0 0-.5-.2 1 1 0 0 0-.8.4l-.2.5v1.3l.2.4.4.3.5.1.6-.1.4-.4.4.3-.3.4-.5.3h-.7Zm4 0a1.7 1.7 0 0 1-1.7-1.1c-.2-.2-.2-.5-.2-.7v-.2l.1-.9.4-.6a1.7 1.7 0 0 1 2-.4l.5.4.3.6v1.1h-2.9v-.5h2.3l-.1-.6a1 1 0 0 0-.3-.4.9.9 0 0 0-.6-.2 1 1 0 0 0-.7.4l-.2.5-.1.6v.7l.3.4.4.3.5.1.6-.1.4-.4.4.3-.3.4-.5.3h-.7Zm3-5.6v5.6h-.7v-5.6h.7Zm3.6 4.8v-4.8h.7v5.6h-.7v-.8Zm-2.7-1.1v-.1l.1-.8.3-.7.5-.4.7-.1.6.1c.2 0 .4.2.5.4l.3.6.2.8v.3l-.2.8-.3.6c-.1.1-.3.3-.5.3a1.6 1.6 0 0 1-1.3 0c-.2 0-.3-.2-.5-.4a2 2 0 0 1-.3-.6v-.8Zm.7-.1v.6l.2.5.4.3.4.1a1 1 0 0 0 1-.5l.2-.5v-1l-.2-.3-.2-.3-.3-.3a1 1 0 0 0-.4 0 1 1 0 0 0-.5 0 1 1 0 0 0-.4.4l-.1.4-.1.6Zm5.4 2a1.7 1.7 0 0 1-1.7-1.1l-.2-.7v-.2c0-.3 0-.6.2-.9 0-.2.2-.4.4-.6a1.7 1.7 0 0 1 1.2-.5l.7.1.5.4.3.6.1.8v.3h-3v-.5h2.3v-.6a1 1 0 0 0-.4-.4.9.9 0 0 0-.5-.2 1 1 0 0 0-.8.4l-.2.5v1.3l.2.4.4.3.5.1.6-.1.4-.4.5.3-.4.4-.5.3h-.6Zm5.8-4v.6H187v-.6h2.1Zm-1.4-1h.7v4.3l.2.2h.2a1 1 0 0 0 .3 0v.5a1.7 1.7 0 0 1-.5 0 1 1 0 0 1-.4 0 .7.7 0 0 1-.4-.4l-.1-.6v-4Zm2 3v-.8l.4-.7.6-.4.8-.1.7.1.6.4c.1.2.3.4.3.7l.2.8c0 .3 0 .6-.2.9l-.3.6a1.7 1.7 0 0 1-1.3.6c-.3 0-.6 0-.8-.2a1.7 1.7 0 0 1-1-1v-.8Zm.6 0 .1.6.2.5.4.3.5.1.4-.1c.2 0 .3-.2.4-.3l.2-.5v-1.2l-.2-.4a1 1 0 0 0-.8-.4 1 1 0 0 0-.5 0 1 1 0 0 0-.4.4l-.2.4v.6Zm5.5 2a1.7 1.7 0 0 1-1.7-1.1l-.2-.7v-.2c0-.3 0-.6.2-.9 0-.2.2-.4.4-.6a1.7 1.7 0 0 1 1.2-.5l.7.1.5.4.3.6.1.8v.3h-3v-.5h2.3v-.6a1 1 0 0 0-.4-.4.9.9 0 0 0-.5-.2 1 1 0 0 0-.8.4l-.2.5v1.3l.2.4.4.3.5.1.6-.1.4-.4.4.3-.3.4-.5.3h-.6Zm3-3.1v3.1h-.7v-4h.6v.9Zm-.2 1h-.3l.1-.8.4-.6a1.5 1.5 0 0 1 1.1-.5h.6l.4.3.2.4.1.7v2.6h-.7v-3.1l-.3-.3a1 1 0 0 0-.5 0 1 1 0 0 0-.8.3 1.5 1.5 0 0 0-.3 1Zm5.3-1.9v.6h-2.1v-.6h2Zm-1.4-1h.7v4.3l.2.2h.2a1 1 0 0 0 .3 0v.5a1.6 1.6 0 0 1-.5 0 1 1 0 0 1-.5 0 .7.7 0 0 1-.3-.4l-.1-.6v-4Zm3.8 5a1.7 1.7 0 0 1-1.7-1.1v-1.8l.4-.6a1.7 1.7 0 0 1 1.2-.5l.8.1.5.4.3.6v1.1h-2.9v-.5h2.3l-.1-.6a1 1 0 0 0-.3-.4.9.9 0 0 0-.6-.2 1 1 0 0 0-.7.4l-.2.5-.1.6v.7l.3.4a1 1 0 0 0 .9.4l.6-.1.4-.4.4.3-.3.4-.5.3h-.7Zm3-3.3v3.3h-.6v-4h.6v.7Zm1.3-.7v.6h-.8l-.3.3-.2.3v.4l-.3.1.1-.7.2-.5.4-.4a1 1 0 0 1 .9 0Zm2.4 0v.6h-2v-.6h2Zm-1.4-1h.7v4.3l.2.2h.2a1 1 0 0 0 .4 0v.5a1.7 1.7 0 0 1-.6 0 1 1 0 0 1-.4 0 .7.7 0 0 1-.3-.4l-.2-.6v-4Zm3 1v4h-.7v-4h.7Zm-.8-1 .1-.3.3-.1.3.1.2.3s0 .2-.2.3h-.6v-.3Zm1.9 1h.7v4.5c0 .2 0 .4-.2.6 0 .2-.1.3-.3.4l-.6.1a1.5 1.5 0 0 1-.4 0v-.6h.7l.1-.2V141Zm0-1v-.3l.3-.1.3.1.1.3v.3h-.7v-.3Zm4.3 4.2v-4.8h.6v5.6h-.6v-.8Zm-2.7-1.1v-.1l.1-.8c0-.3.2-.5.3-.7l.5-.4.7-.1.6.1c.2 0 .4.2.5.4l.3.6.2.8v.3l-.2.8-.3.6c-.1.1-.3.3-.5.3a1.6 1.6 0 0 1-1.3 0c-.2 0-.3-.2-.5-.4a2 2 0 0 1-.3-.6l-.1-.8Zm.7-.1v.6l.2.5.3.3.5.1a1 1 0 0 0 1-.5l.1-.5v-1l-.1-.3-.2-.3-.3-.3a1 1 0 0 0-.5 0 1 1 0 0 0-.5 0 1 1 0 0 0-.3.4l-.2.4v.6Zm8.5 1.4v.6h-2.9v-.6h3Zm-.1-2.9-2.6 3.5h-.4v-.5l2.6-3.5h.4v.5Zm-.3-.5v.6h-2.7v-.6h2.7Zm2.8 4a1.7 1.7 0 0 1-1.7-1.1l-.2-.7v-.2c0-.3 0-.6.2-.9 0-.2.2-.4.4-.6a1.7 1.7 0 0 1 1.2-.5l.7.1.5.4.3.6.1.8v.3h-3v-.5h2.3v-.6a1 1 0 0 0-.4-.4.9.9 0 0 0-.5-.2 1 1 0 0 0-.8.4l-.2.5v1.3l.2.4a1.1 1.1 0 0 0 .9.4l.6-.1.4-.4.5.3-.4.4-.5.3h-.6Zm3-5.6v5.6h-.7v-5.6h.7Zm2.1 5.6h-.6v-4.4l.1-.7.5-.4c.2-.2.4-.2.7-.2a1.8 1.8 0 0 1 .4 0v.6h-.8l-.2.3v4.8Zm.9-4v.6h-2.2v-.6h2.2Zm4.9 3v-.3l-.3-.3-.6-.1-.6-.2-.5-.2a.9.9 0 0 1-.4-.7c0-.2 0-.4.2-.5 0-.2.1-.3.3-.4l.4-.2.6-.1.8.1c.3.1.4.3.6.5l.1.6h-.6l-.1-.3-.3-.3a.9.9 0 0 0-.5 0 1 1 0 0 0-.4 0c-.2 0-.2.1-.3.2a.5.5 0 0 0 0 .5l.1.2h.3l.4.2c.4 0 .6.2.8.3.3 0 .4.2.5.4l.2.5a1 1 0 0 1-.5.8c0 .2-.2.2-.4.3h-.7a2 2 0 0 1-.8-.1 1 1 0 0 1-.6-.5l-.2-.6h.7c0 .2 0 .3.2.4l.3.3a1.4 1.4 0 0 0 1 0l.2-.3v-.3Zm3.9.3v-2l-.1-.4-.3-.3a1 1 0 0 0-.4 0 1 1 0 0 0-.5 0l-.3.2v.3h-.8l.1-.4.4-.4.5-.2.6-.1.8.1.5.5.2.7v2.3l.1.3v.1h-.7v-.3l-.1-.4Zm.1-1.7v.5h-1.2l-.4.2-.2.2v.6l.3.3h.9l.4-.4.2-.3.3.3-.2.3a1.6 1.6 0 0 1-.7.7h-1.2l-.5-.5-.2-.6c0-.2 0-.4.2-.6l.3-.4.6-.2.7-.1h.8Zm2.1-1.6.9 1.5.8-1.5h.8l-1.3 2 1.4 2h-.8l-1-1.5-.8 1.5h-.8l1.3-2-1.3-2h.8Zm4.8 1.8a5.4 5.4 0 0 1-.6 2.6 4 4 0 0 1-.6.9l-.6.4-.1-.4.4-.5c.2-.1.3-.4.4-.7.2-.3.3-.6.3-1l.1-1.2a6 6 0 0 0-.4-2.3 3.8 3.8 0 0 0-.8-1.2l.1-.4c.2 0 .4.2.6.4l.6.9a5 5 0 0 1 .6 2.5Zm-185.3 9.3v-.1c0-.3 0-.6.2-.8 0-.3.2-.5.3-.7l.6-.4.7-.1.8.1.6.4.3.7.1.8v.9l-.4.6a1.6 1.6 0 0 1-1.4.6c-.2 0-.5 0-.7-.2a1.7 1.7 0 0 1-1-1v-.8Zm.7-.1v.6l.3.5.3.3.5.1.5-.1c.2 0 .3-.2.4-.3l.2-.5v-1.2l-.2-.4a1 1 0 0 0-.8-.4 1 1 0 0 0-.6 0 1 1 0 0 0-.3.4l-.2.4v.6Zm4.5-1.2v4.7h-.7V150h.6v.8ZM73 152v.9l-.4.6a1.4 1.4 0 0 1-1.1.6c-.2 0-.5 0-.7-.2-.2 0-.3-.2-.5-.3l-.3-.6-.1-.7v-.4l.1-.8.3-.6.5-.4.7-.1.7.1.4.4c.2.2.3.4.3.7l.1.8Zm-.6 0-.1-.6-.2-.4a1 1 0 0 0-.8-.5 1 1 0 0 0-.8.3l-.2.4-.1.4v1l.2.4c0 .2.2.3.3.4l.6.1.5-.1.3-.3.2-.5v-.5Zm1.5 1.6.1-.2.3-.2c.2 0 .3 0 .3.2l.2.2c0 .2 0 .2-.2.3l-.3.1H74v-.4Zm7.5-.2v.6H78v-.6h3.6Zm0-4.2L78 154h-.5v-.5l3.4-4.8h.4v.5Zm-.4-.5v.5h-3.4v-.5H81Zm1 3.4v-.1l.1-.8c0-.3.2-.5.4-.7l.5-.4.8-.1.7.1.6.4.4.7v1.7l-.4.6a1.7 1.7 0 0 1-1.3.6c-.3 0-.5 0-.8-.2a1.7 1.7 0 0 1-.9-1l-.1-.8Zm.7-.1v.6l.2.5.4.3.5.1.5-.1.3-.3.2-.5.1-.5v-.7l-.3-.4a1 1 0 0 0-.8-.4 1 1 0 0 0-.5 0 1 1 0 0 0-.4.4l-.2.4v.6Zm6.3-3.6v5.6h-.7v-5.6h.7Zm2.4 1.6-1.7 1.9-1 1v-.7l.6-.9 1.3-1.3h.8Zm-.6 4-1.4-1.9.3-.6 1.9 2.5h-.8Zm1.1-2 .1-.8.4-.7.6-.4.7-.1.8.1.5.4.4.7.1.8-.1.9c0 .2-.2.4-.4.6a1.7 1.7 0 0 1-1.3.6c-.3 0-.5 0-.7-.2a1.7 1.7 0 0 1-1-1v-.8Zm.7 0v.6l.3.5.3.3.5.1.5-.1c.2 0 .3-.2.4-.3l.2-.5v-1.2l-.2-.4a1 1 0 0 0-.8-.4 1 1 0 0 0-.6 0 1 1 0 0 0-.3.4l-.2.4-.1.6Zm4.5-1.1v3.1h-.7v-4h.6v.9Zm-.2 1h-.3l.1-.8.4-.6a1.5 1.5 0 0 1 1.1-.5h.5l.4.3c.2.1.2.3.3.4v3.3H99v-3.1l-.3-.3a1 1 0 0 0-.5 0 1 1 0 0 0-.8.3 1.5 1.5 0 0 0-.3 1Zm6.2-3.5v5.6h-.7v-5.6h.7Zm-.2 3.5h-.3l.1-.8.4-.6a1.5 1.5 0 0 1 1.1-.5h.6l.4.3.2.4.1.7v2.6h-.7v-3.1l-.3-.3a1 1 0 0 0-.5 0 1 1 0 0 0-.8.3 1.5 1.5 0 0 0-.3 1Zm4.3-1.9v4h-.6v-4h.6Zm-.7-1 .1-.3.3-.1.3.1.1.3v.3h-.7v-.3Zm1.9 1h.6v5.1l-.4.4-.6.1a1.5 1.5 0 0 1-.4 0v-.6h.5l.2-.2V150Zm-.1-1v-.3l.4-.1.3.1v.6h-.6l-.1-.3Zm5.3 5a2 2 0 0 1-.7 0 1.7 1.7 0 0 1-1-1v-2l.4-.6a1.7 1.7 0 0 1 1.2-.5l.8.1.5.4.3.6v1.1h-2.9v-.5h2.3l-.1-.6a1 1 0 0 0-.3-.4.9.9 0 0 0-.6-.2 1 1 0 0 0-.7.4l-.2.5-.1.6v.7l.3.4.4.3.5.1.6-.1.4-.4.4.3-.3.4-.5.3h-.7Zm4 0a1.7 1.7 0 0 1-1.7-1.1l-.1-.7v-.2l.1-.9.4-.6a1.7 1.7 0 0 1 1.2-.5l.8.1.5.4.3.6v1.1h-3v-.5h2.4l-.1-.6a1 1 0 0 0-.3-.4.9.9 0 0 0-.6-.2 1 1 0 0 0-.7.4l-.3.5v1.3l.3.4.4.3.4.1.7-.1.4-.4.4.3-.3.4c-.2 0-.3.2-.5.3h-.7Zm3-3.1v3.1h-.7v-4h.7v.9Zm-.1 1h-.3l.1-.8.3-.6a1.5 1.5 0 0 1 1.2-.5h.5l.4.3.3.4v3.3h-.6v-2.6l-.1-.5-.3-.3a1 1 0 0 0-.4 0 1 1 0 0 0-.8.3 1.5 1.5 0 0 0-.3 1Zm7.8 1.4v-2l-.1-.4-.3-.3a1 1 0 0 0-.4 0 1 1 0 0 0-.5 0l-.3.2-.1.3h-.7l.1-.4.3-.4.5-.2.7-.1.8.1.5.5.2.7v2.3l.1.3v.1h-.7v-.3l-.1-.4Zm.1-1.7v.5h-1.2l-.4.2s-.2 0-.2.2v.6l.3.3h.9l.4-.4.2-.3.2.3-.1.3a1.6 1.6 0 0 1-.7.7h-1.2l-.5-.5-.2-.6c0-.2 0-.4.2-.6l.3-.4.6-.2.7-.1h.8Zm2.3-3.2v5.6h-.7v-5.6h.7Zm2.4 1.6-1.7 1.9-1 1v-.7l.7-.9 1.2-1.3h.8Zm-.6 4-1.4-1.9.4-.6 1.8 2.5h-.8Zm1.2-2v-.8l.4-.7.6-.4.8-.1.7.1.6.4c.1.2.3.4.3.7l.2.8c0 .3 0 .6-.2.9l-.3.6a1.7 1.7 0 0 1-1.3.6c-.3 0-.6 0-.8-.2a1.7 1.7 0 0 1-1-1v-.8Zm.6 0 .1.6.2.5.4.3.5.1.4-.1c.2 0 .3-.2.4-.3l.2-.5v-1.2l-.2-.4a1 1 0 0 0-.8-.4 1 1 0 0 0-.5 0 1 1 0 0 0-.4.4l-.2.4v.6Zm5.5 2a1.7 1.7 0 0 1-1.7-1.1l-.2-.7v-.2c0-.3 0-.6.2-.9 0-.2.2-.4.4-.6a1.7 1.7 0 0 1 1.9-.4l.5.4.3.6v1.1h-2.9v-.5h2.3v-.6a1 1 0 0 0-.4-.4.9.9 0 0 0-.5-.2 1 1 0 0 0-.8.4l-.2.5v1.3l.2.4.4.3.5.1.6-.1.4-.4.4.3-.3.4-.5.3h-.6Zm4.6-1v-.3l-.3-.3-.6-.1-.6-.2-.5-.2a.9.9 0 0 1-.4-.7c0-.2 0-.4.2-.5 0-.2.1-.3.3-.4l.4-.2.6-.1.8.1c.3.1.4.3.6.5l.1.6h-.6l-.1-.3-.3-.3a.9.9 0 0 0-.5 0 1 1 0 0 0-.4 0c-.2 0-.2.1-.3.2a.5.5 0 0 0 0 .5l.1.2h.3l.4.2c.4 0 .6.2.8.3.3 0 .4.2.5.4l.2.5a1 1 0 0 1-.4.8l-.5.3h-.7a2 2 0 0 1-.8-.1 1 1 0 0 1-.6-.5l-.2-.6h.7c0 .2 0 .3.2.4l.3.3a1.4 1.4 0 0 0 1 0l.2-.3v-.3Zm3.2-3v.6h-2.1v-.6h2.1Zm-1.4-1h.7v4.3l.2.2h.2a1 1 0 0 0 .3 0v.5a1.6 1.6 0 0 1-.5 0 1 1 0 0 1-.4 0 .7.7 0 0 1-.4-.4l-.1-.6v-4Zm3 1v4h-.7v-4h.7Zm-.8-1 .1-.3.3-.1.3.1.1.3v.3h-.7v-.3Zm4.1 4v-.3l-.3-.3-.6-.1-.6-.2-.4-.2a.9.9 0 0 1-.4-.7l.1-.5c0-.2.2-.3.3-.4l.5-.2.6-.1.8.1.5.5.2.6h-.7v-.3l-.4-.3a.9.9 0 0 0-.4 0 1 1 0 0 0-.5 0l-.2.2a.5.5 0 0 0 0 .5v.2h.3l.5.2c.3 0 .6.2.8.3.2 0 .4.2.5.4l.1.5a1 1 0 0 1-.4.8c-.1.2-.3.2-.5.3h-.6a2 2 0 0 1-.9-.1l-.5-.5c-.2-.2-.2-.4-.2-.6h.7l.1.4.4.3a1.4 1.4 0 0 0 .9 0l.2-.3.1-.3Zm3.2.5h.4l.4-.4.1-.4h.7c0 .3-.1.5-.3.7a1.6 1.6 0 0 1-1.3.7c-.3 0-.6 0-.8-.2-.2 0-.4-.2-.5-.4a2 2 0 0 1-.4-.6v-1.7c.1-.3.2-.5.4-.6l.5-.5.8-.1c.3 0 .6 0 .8.2.2 0 .4.3.6.5l.2.7h-.7l-.1-.4c0-.2-.2-.3-.3-.4a.9.9 0 0 0-.5 0 1 1 0 0 0-.5 0 1 1 0 0 0-.4.4l-.1.4v1.2l.1.5.4.3.5.1Zm3-5.1v5.6h-.7v-5.6h.7Zm-.1 3.5h-.3v-.8l.4-.6a1.5 1.5 0 0 1 1.2-.5h.5l.4.3.3.4v3.3h-.6v-2.6l-.1-.5-.3-.3a1 1 0 0 0-.4 0 1 1 0 0 0-.8.3 1.5 1.5 0 0 0-.3 1Zm5.2 2.2a1.7 1.7 0 0 1-1.7-1.1l-.1-.8v-.2l.1-.9.4-.6a1.7 1.7 0 0 1 1.2-.5l.8.1.5.4.3.6v1.1h-2.9v-.5h2.3l-.1-.6a1 1 0 0 0-.3-.4.9.9 0 0 0-.6-.2 1 1 0 0 0-.7.4l-.2.5-.1.6v.7l.3.4.4.3.4.1.7-.1.4-.4.4.3-.3.4c-.2 0-.3.2-.5.3h-.7Zm6.8-4h.6v3.8c0 .4 0 .7-.2 1l-.6.5a1.9 1.9 0 0 1-1.4.1 2 2 0 0 1-.5-.2l-.5-.4.4-.4.5.4.6.1.5-.1c.2 0 .3-.2.4-.4l.1-.6V150Zm-2.8 2v-.1c0-.3 0-.6.2-.8 0-.3.1-.5.3-.7a1.4 1.4 0 0 1 1.1-.5l.7.1.4.4c.2.1.3.3.3.6l.2.8v.3c0 .3 0 .5-.2.8l-.3.6-.4.3a1.6 1.6 0 0 1-1.3 0c-.2 0-.4-.2-.5-.4a2 2 0 0 1-.3-.6l-.2-.8Zm.7-.1v.6l.3.5.3.3.5.1.5-.1.4-.4.2-.5v-1l-.1-.3-.3-.3-.3-.3a1 1 0 0 0-.4 0 1 1 0 0 0-.5 0 1 1 0 0 0-.3.4l-.2.4v.6Zm4.5-2v4h-.7v-4h.7Zm-.8-1 .1-.3.3-.1.3.1.1.3v.3h-.7v-.3Zm3.5 1v.6h-2.1v-.6h2.1Zm-1.4-1h.7v4.3l.2.2h.2a1 1 0 0 0 .3 0v.5a1.6 1.6 0 0 1-.5 0 1 1 0 0 1-.5 0 .7.7 0 0 1-.3-.4l-.1-.6v-4Zm4.5 4.3V151l-.3-.3a1 1 0 0 0-.5 0 1 1 0 0 0-.5 0l-.3.2v.3h-.7v-.4l.4-.4.5-.2.6-.1.8.1.5.5.2.7v2.3l.1.3v.1h-.7v-.7Zm.1-1.7v.5h-.9l-.4.2c-.1 0-.2 0-.3.2v.6l.3.3h.4a1.1 1.1 0 0 0 1-.4l.1-.3.3.3s0 .2-.2.3a1.6 1.6 0 0 1-.7.7h-1.4l-.5-.5-.1-.6.1-.6.4-.4.5-.2.8-.1h.7Zm4 1.7V151l-.4-.3a1 1 0 0 0-.4 0 1 1 0 0 0-.5 0l-.3.2v.3h-.8l.2-.4.3-.4.5-.2.6-.1.8.1.5.5.2.7v2.3l.1.3v.1h-.7v-.7Zm.1-1.7v.5h-1l-.3.2c-.1 0-.2 0-.3.2v.6l.3.3h.9l.4-.4.2-.3.3.3-.2.3a1.6 1.6 0 0 1-.7.7h-1.4l-.5-.5-.1-.6v-.6l.4-.4.6-.2.7-.1h.8Zm2.3-1v3.4h-.6v-4h.6v.7Zm1.3-.6v.6h-.8l-.3.3-.2.3v.4l-.3.1.1-.7.2-.5.4-.4a1 1 0 0 1 .9 0Zm3.7 3.4 1-3.4h.7l-1.4 4h-.4v-.6Zm-1-3.4 1.2 3.4v.6h-.4l-1.4-4h.7Zm3.2 2v-.8l.4-.7.6-.4.7-.1.8.1.6.4c.1.2.3.4.3.7l.2.8c0 .3 0 .6-.2.9l-.3.6a1.6 1.6 0 0 1-1.3.6c-.3 0-.6 0-.8-.2-.2 0-.4-.2-.6-.4a2 2 0 0 1-.3-.6l-.1-.8Zm.6 0 .1.6.2.5.4.3.5.1.4-.1c.2 0 .3-.2.4-.3l.2-.5v-1.2l-.2-.4a1 1 0 0 0-.8-.4 1 1 0 0 0-.9.4l-.2.4v.6Zm3.6 0c0-.3 0-.6.2-.8 0-.3.2-.5.3-.7l.6-.4.7-.1.8.1.5.4.4.7.1.8v.9l-.5.6a1.7 1.7 0 0 1-1.3.6c-.2 0-.5 0-.7-.2a1.7 1.7 0 0 1-1-1v-.8Zm.7 0v.6l.3.5.3.3.5.1.5-.1c.2 0 .3-.2.4-.3l.2-.5v-1.2l-.2-.4a1 1 0 0 0-.8-.4 1 1 0 0 0-.6 0 1 1 0 0 0-.3.4l-.2.4v.6Zm4.5-1.3v3.3h-.7v-4h.6v.7Zm1.2-.7v.6h-.6l-.3.3-.2.3-.1.4-.2.1v-.7c0-.2.2-.4.3-.5 0-.2.2-.3.3-.4a1 1 0 0 1 .9 0Zm4.8 2.4v-3.7h.7v3.7c0 .4 0 .7-.2 1a1 1 0 0 1-.6.5 2 2 0 0 1-.8.2c-.4 0-.7 0-1-.2l-.5-.5c-.2-.2-.2-.5-.2-.9h.7l.1.6.3.3a1.2 1.2 0 0 0 1 0l.4-.4.1-.6Zm2.6-2.4v4h-.7v-4h.7Zm-.8-1 .1-.3.3-.1.3.1.1.3v.3h-.7v-.3Zm2.5 1.8v3.2h-.7v-4h.7v.8Zm-.1 1h-.3v-.7l.4-.6.5-.4.7-.1h.5a1 1 0 0 1 .7.7v3.3h-.6v-2.6l-.1-.5-.3-.3a1 1 0 0 0-.5 0 1 1 0 0 0-.5 0l-.3.3-.2.5v.5Zm2.6-.3-.5.1.1-.6c0-.2.2-.4.3-.5l.5-.4.7-.1h.5l.5.3.2.5.1.6v2.6h-.7v-3.1l-.4-.3h-.4a1 1 0 0 0-.4 0l-.3.2-.2.3v.4Zm4.2-1.5v4h-.7v-4h.7Zm-.8-1 .1-.3.3-.1.3.1.1.3v.3h-.7v-.3Zm4.4-.6v5.6h-.7v-5.6h.7Zm2.4 1.6-1.7 1.9-1 1v-.7l.7-.9 1.2-1.3h.8Zm-.6 4-1.4-1.9.3-.6 1.9 2.5h-.8Zm1.1-2c0-.3 0-.6.2-.8 0-.3.2-.5.3-.7l.6-.4.7-.1.8.1.6.4.3.7.1.8v.9l-.4.6a1.6 1.6 0 0 1-1.4.6c-.2 0-.5 0-.7-.2-.2 0-.4-.2-.6-.4a2 2 0 0 1-.3-.6l-.2-.8Zm.7 0v.6l.3.5.3.3.5.1.5-.1c.2 0 .3-.2.4-.3l.2-.5v-1.2l-.2-.4a1 1 0 0 0-.8-.4 1 1 0 0 0-1 .4l-.1.4v.6Zm4.5-1.2v4.7h-.7V150h.6v.8Zm2.6 1.2v.9l-.4.6a1.4 1.4 0 0 1-1.1.6c-.3 0-.5 0-.7-.2-.2 0-.3-.2-.5-.3l-.3-.6-.1-.7v-.4l.1-.8.3-.6.5-.4.7-.1.6.1.5.4c.2.2.3.4.3.7l.1.8Zm-.6 0-.1-.6-.2-.4a1 1 0 0 0-.8-.5 1 1 0 0 0-.8.3l-.2.4-.1.4v1l.2.4c0 .2.2.3.3.4l.6.1.5-.1.3-.3.2-.5v-.5Zm3.1 2a1.7 1.7 0 0 1-1.7-1.1v-1.8l.5-.6a1.7 1.7 0 0 1 1.2-.5l.7.1.5.4.3.6v1.1h-2.9v-.5h2.3l-.1-.6a1 1 0 0 0-.3-.4.9.9 0 0 0-.5-.2 1 1 0 0 0-.8.4l-.2.5v1.3l.2.4.4.3.5.1.6-.1.4-.4.4.3-.3.4-.5.3h-.7Zm3-3.1v3.1h-.6v-4h.6v.9Zm-.1 1h-.3l.1-.8.4-.6a1.5 1.5 0 0 1 1.1-.5h.6l.3.3c.2.1.2.3.3.4v3.3h-.6v-3.1l-.3-.3a1 1 0 0 0-.5 0 1 1 0 0 0-.8.3 1.5 1.5 0 0 0-.3 1Zm4.2 1.3v.5l-.1.7-.5.7-.4-.3.2-.3a1.6 1.6 0 0 0 .2-.7v-.6h.6Zm5.3 0v-4.8h.6v5.6h-.6v-.8Zm-2.7-1.1v-.1l.1-.8c0-.3.2-.5.3-.7l.5-.4.7-.1.6.1c.2 0 .4.2.5.4l.3.6.2.8v.3l-.2.8-.3.6c-.1.1-.3.3-.5.3a1.6 1.6 0 0 1-1.3 0c-.2 0-.3-.2-.5-.4a2 2 0 0 1-.3-.6l-.1-.8Zm.7-.1v.6l.2.5.3.3.5.1a1 1 0 0 0 1-.5l.1-.5v-1l-.1-.3-.2-.3a1 1 0 0 0-.3-.3 1 1 0 0 0-.5 0 1 1 0 0 0-.4 0 1 1 0 0 0-.4.4l-.2.4v.6Zm4.4-2v4h-.6v-4h.6Zm-.7-1 .1-.3.3-.1.3.1.1.3-.1.3h-.6l-.1-.3Zm3.5 5a2 2 0 0 1-.8 0 1.7 1.7 0 0 1-1-1v-2l.5-.6a1.7 1.7 0 0 1 1.2-.5l.7.1.5.4.3.6.1.8v.3h-3v-.5h2.3v-.6a1 1 0 0 0-.4-.4.9.9 0 0 0-.5-.2 1 1 0 0 0-.8.4l-.2.5v1.3l.2.4a1.1 1.1 0 0 0 .9.4l.6-.1.4-.4.5.3-.4.4-.5.3h-.6Zm-187.1 5v4h-.7v-4h.7Zm-.8-1 .1-.3.3-.1.3.1.1.3v.3h-.7v-.3Zm2.5 1.9v3.1h-.7v-4h.7v.9Zm-.1 1h-.3l.1-.8.3-.6a1.5 1.5 0 0 1 1.2-.5h.5l.4.3.3.4v3.3h-.6v-2.6l-.1-.5-.3-.3a1 1 0 0 0-.4 0 1 1 0 0 0-.8.3 1.5 1.5 0 0 0-.3 1Zm4.3-1v3.1h-.7v-4h.6v.8Zm-.2 1h-.3l.1-.8.3-.6.5-.4.7-.1h.5a1 1 0 0 1 .7.7v3.3H74v-3.1l-.4-.3a1 1 0 0 0-.4 0 1 1 0 0 0-.5 0l-.4.3-.1.5v.5Zm2.6-.4-.5.1.1-.6.3-.5.5-.4.7-.1h.6l.4.3.2.5.1.6v2.6h-.6v-2.6c0-.2 0-.4-.2-.5 0-.2-.1-.2-.2-.3h-.5a1 1 0 0 0-.4 0l-.3.2-.2.3v.4Zm4.2-1.5v4H78v-4h.7Zm-.7-1v-.3l.4-.1.3.1v.6h-.6l-.1-.3Zm4.3 4.2v-4.8h.7v5.6h-.7v-.8Zm-2.7-1.1v-.1l.1-.8.3-.7.5-.4.7-.1.6.1c.2 0 .4.2.5.4l.3.6.2.8v.3l-.2.8-.3.6c-.1.1-.3.3-.5.3a1.6 1.6 0 0 1-1.3 0l-.5-.4a2 2 0 0 1-.3-.6v-.8Zm.7-.1v.6l.2.5.4.3.4.1a1 1 0 0 0 1-.5l.2-.5v-1l-.2-.3-.2-.3-.3-.3a1 1 0 0 0-.4 0 1 1 0 0 0-.5 0 1 1 0 0 0-.4.4l-.1.4-.1.6Zm6.2 1.2v-4.8h.7v5.6h-.6v-.8Zm-2.6-1.1v-.9l.4-.7.5-.4.6-.1.7.1c.2 0 .3.2.4.4.2.1.3.3.4.6l.1.8v.3l-.1.8-.4.6c0 .1-.2.3-.4.3a1.6 1.6 0 0 1-1.3 0c-.2 0-.4-.2-.5-.4a2 2 0 0 1-.3-.6l-.1-.8Zm.6-.1v.6l.3.5.3.3.5.1a1 1 0 0 0 .9-.5l.2-.5v-1l-.1-.3-.3-.3-.3-.3a1 1 0 0 0-.4 0 1 1 0 0 0-.5 0 1 1 0 0 0-.3.4l-.2.4v.6Zm5.4 2a1.7 1.7 0 0 1-1.7-1.1l-.1-.7v-.2l.1-.9.4-.6a1.7 1.7 0 0 1 1.2-.5l.7.1.6.4.2.6.1.8v.3h-3v-.5H91l-.1-.6a1 1 0 0 0-.3-.4.9.9 0 0 0-.6-.2 1 1 0 0 0-.7.4l-.3.5v1.3c0 .2.2.3.3.4l.3.3.5.1.6-.1.5-.4.4.3-.3.4c-.2 0-.3.2-.5.3H90Zm3-5.6v5.6h-.6v-5.6h.7Zm3.5 4.5-.1-.2-.3-.3-.6-.1-.5-.2-.5-.2a.9.9 0 0 1-.4-.7l.1-.5c0-.2.2-.3.3-.4l.5-.2.6-.1.8.1.5.5.2.6h-.7v-.3l-.4-.3a.9.9 0 0 0-.4 0 1 1 0 0 0-.5 0l-.2.2a.5.5 0 0 0 0 .5v.2h.4l.4.2c.3 0 .6.2.8.3.2 0 .4.2.5.4l.1.5a1 1 0 0 1-.4.8c-.1.2-.3.2-.5.3h-.6a2 2 0 0 1-.9-.1l-.5-.5c-.2-.2-.2-.4-.2-.6h.7l.1.4.4.3a1.4 1.4 0 0 0 .9 0l.3-.3v-.3Zm5.5-4.3v5.4h-.6v-4.5l-1.4.5v-.6l2-.8Zm4.3 0v5.4h-.7v-4.5l-1.4.5v-.6l2-.8Zm4 1.4h.6v4.5l-.1.6-.4.4-.6.1a1.5 1.5 0 0 1-.4 0v-.6h.7l.2-.2V159Zm-.2-1 .1-.3.3-.1.3.1.1.3v.3h-.7v-.3Zm4.2 4.3V160l-.4-.3a1 1 0 0 0-.4 0 1 1 0 0 0-.5 0l-.3.2v.3h-.8l.2-.4.3-.4.5-.2.6-.1.8.1.5.5.2.7v2.3l.1.3v.1h-.7v-.7Zm.1-1.7v.5h-1.2l-.3.2c-.1 0-.2 0-.3.2v.6l.3.3h.4a1.1 1.1 0 0 0 1-.4v-.3l.4.3s0 .2-.2.3a1.6 1.6 0 0 1-.7.7h-1.2l-.5-.5-.1-.6v-.6l.4-.4.6-.2.7-.1h.8Zm4 1.7v-2l-.1-.4-.3-.3a1 1 0 0 0-.4 0 1 1 0 0 0-.5 0l-.3.2v.3h-.8l.1-.4.4-.4.5-.2.6-.1.8.1.5.5.2.7v2.3l.1.3v.1h-.7v-.3l-.1-.4Zm.1-1.7v.5h-1.2l-.4.2-.2.2v.6l.3.3h.4a1.1 1.1 0 0 0 1-.4v-.3l.4.3-.2.3a1.6 1.6 0 0 1-1.3.8c-.3 0-.5 0-.7-.2-.2 0-.4-.2-.5-.4l-.2-.6c0-.2 0-.4.2-.6l.3-.4.6-.2.7-.1h.8Zm2.3-1v3.4h-.7v-4h.7v.7Zm1.3-.6v.6h-.8l-.3.3-.2.3v.4l-.3.1v-.7l.3-.5.4-.4a1 1 0 0 1 .9 0Zm3.4 3.3 1-3.3h.5v.7l-1.1 3.3h-.5l.1-.7Zm-.6-3.3.8 3.3v.7h-.4l-1.1-4h.7Zm3 3.3 1-3.3h.6l-1.2 4h-.4v-.7Zm-.8-3.3 1 3.2.1.8h-.4l-1-3.3-.2-.7h.5Zm5.4 3.3V160l-.4-.3a1 1 0 0 0-.4 0 1 1 0 0 0-.5 0l-.3.2v.3h-.8l.2-.4.3-.4.5-.2.6-.1.8.1.5.5.2.7v2.3l.1.3v.1h-.7v-.7Zm.1-1.7v.5h-1.2l-.3.2c-.1 0-.2 0-.3.2v.6l.3.3h.4a1.1 1.1 0 0 0 1-.4v-.3l.4.3s0 .2-.2.3a1.6 1.6 0 0 1-1.3.8c-.3 0-.5 0-.7-.2-.2 0-.4-.2-.5-.4l-.1-.6v-.6l.4-.4.6-.2.7-.1h.8Zm4 1.3-.1-.2-.3-.3-.5-.1-.6-.2-.5-.2a.9.9 0 0 1-.4-.7l.1-.5.3-.4.5-.2.6-.1.8.1.5.5.2.6h-.7v-.3l-.4-.3a.9.9 0 0 0-.4 0 1 1 0 0 0-.5 0l-.2.2a.5.5 0 0 0 0 .5v.2h.4l.4.2c.3 0 .6.2.8.3.2 0 .4.2.5.4l.1.5a1 1 0 0 1-.4.8c-.1.2-.3.2-.5.3h-.6a2 2 0 0 1-.9-.1l-.5-.5-.2-.6h.7l.1.4.4.3a1.4 1.4 0 0 0 .9 0l.3-.3v-.3Zm1.5.7s0-.2.2-.2c0-.1.1-.2.3-.2.1 0 .2 0 .3.2v.5l-.3.1h-.3l-.2-.4Zm30-103.5v5.6h-.6v-5.6h.7Zm2.5 1.7-1.7 1.8-1 1V63l.6-.8 1.3-1.3h.8Zm-.6 4-1.4-2 .3-.6 1.9 2.5h-.8Zm3.6-.7v-2.5l-.3-.3a1 1 0 0 0-.5 0 1 1 0 0 0-.5 0l-.3.3v.3h-.7v-.5l.4-.3.5-.3.6-.1.8.1.5.5.2.7v2.3l.1.4h-.7v-.6Zm.1-1.8v.5h-1.2l-.3.2-.3.2v.7l.3.2.4.1a1.1 1.1 0 0 0 1-.4v-.4l.4.3-.2.4a1.6 1.6 0 0 1-.7.6l-.6.1-.7-.1-.5-.5-.1-.6.1-.5c0-.2.2-.3.4-.4l.5-.3h1.5Zm2.3-.7v3.1h-.6v-4h.6v.9Zm-.1 1h-.3v-.8l.4-.6.5-.4.7-.1h.5a1 1 0 0 1 .7.8v3.2h-.6v-2.6l-.1-.5-.3-.2a1 1 0 0 0-.4-.1 1 1 0 0 0-.5 0l-.4.4-.1.4-.1.5Zm2.6-.4-.5.2.1-.7c0-.2.2-.3.3-.5l.5-.4.7-.1h.6l.4.3.2.5.1.6v2.6h-.7v-3.1l-.4-.3a1.2 1.2 0 0 0-.8 0l-.3.3-.2.3v.3Zm5 2.6a1.7 1.7 0 0 1-1.7-1.1v-1l.1-.8.4-.7a1.7 1.7 0 0 1 2-.4l.4.5c.2.1.3.3.3.6l.1.7v.3h-3v-.5h2.4c0-.2 0-.4-.2-.6a1 1 0 0 0-.2-.4.9.9 0 0 0-.6-.1 1 1 0 0 0-.8.3l-.2.5v1.3c0 .2.2.3.3.5a1.1 1.1 0 0 0 .8.4c.3 0 .5 0 .6-.2.2 0 .3-.2.5-.4l.4.3-.3.4-.5.3-.7.1Zm3.1-3.4v3.3h-.7v-4h.7v.7Zm1.2-.6v.6h-.3a1 1 0 0 0-.4 0l-.3.2-.2.3-.1.4-.2.1v-.6l.3-.6.4-.4a1 1 0 0 1 .8 0Zm4.2 0v.5h-2.2v-.5h2.2Zm-1.4-1h.6v4l.1.3h.2l.2.1a1.1 1.1 0 0 0 .3 0v.5h-.2l-.3.1a1 1 0 0 1-.5 0 .7.7 0 0 1-.3-.4l-.1-.7v-3.9Zm3.8 5a2 2 0 0 1-.7-.1 1.7 1.7 0 0 1-1-1l-.1-.8v-.2l.1-.8.4-.7a1.7 1.7 0 0 1 2-.4l.5.5.3.6v1H193v-.5h2.3l-.1-.6a1 1 0 0 0-.3-.4.9.9 0 0 0-.6-.1 1 1 0 0 0-.7.3l-.2.5-.1.6v.7l.3.5.4.2.5.2c.2 0 .4 0 .6-.2l.4-.4.4.3c0 .2-.2.3-.3.4l-.5.3-.7.1Zm5.4-.7 1.1-3.3h.7l-1.4 4h-.5l.1-.7Zm-.9-3.3L200 64l.1.6h-.4l-1.5-4h.7Zm5 4a2 2 0 0 1-.8-.1 1.7 1.7 0 0 1-1-1v-1.8l.5-.7a1.7 1.7 0 0 1 1.9-.4l.5.5.3.6v1h-2.9v-.5h2.3l-.1-.6a1 1 0 0 0-.3-.4.9.9 0 0 0-.5-.1 1 1 0 0 0-.8.3l-.2.5-.1.6v.7l.3.5.4.2.5.2c.2 0 .4 0 .6-.2.2 0 .3-.2.4-.4l.4.3c0 .2-.2.3-.3.4l-.5.3-.7.1Zm4.8-4h.7v3.9c0 .3-.1.6-.3.8a1 1 0 0 1-.5.6 1.9 1.9 0 0 1-1.4.1 2 2 0 0 1-.5-.2c-.2 0-.4-.2-.5-.4l.4-.4.5.4.5.1h.6l.3-.4.2-.6v-4Zm-2.7 2 .1-.9c0-.3.2-.5.3-.6a1.4 1.4 0 0 1 1.2-.6l.6.1.5.4.3.6.2.8v.3l-.2.8-.3.6-.5.4a1.6 1.6 0 0 1-1.3 0l-.5-.5a2 2 0 0 1-.3-.6v-.8Zm.7 0v.6l.2.4.4.3.4.1.6-.1c.1-.1.3-.2.3-.4l.2-.5v-1.3l-.3-.3a1 1 0 0 0-.3-.2 1 1 0 0 0-.5-.1 1 1 0 0 0-.4 0 1 1 0 0 0-.4.4l-.2.5v.5Zm5.3 2a1.7 1.7 0 0 1-1.7-1.1v-1.8l.4-.7a1.7 1.7 0 0 1 2-.4l.5.5.3.6v1h-2.9v-.5h2.3l-.1-.6a1 1 0 0 0-.3-.4.9.9 0 0 0-.6-.1 1 1 0 0 0-.7.3l-.2.5-.1.6v.7l.3.5a1.1 1.1 0 0 0 .9.4c.2 0 .4 0 .6-.2l.4-.4.4.3c0 .2-.2.3-.3.4l-.5.3-.7.1Zm3-3.2v3.1h-.6v-4h.6v1Zm-.1 1h-.3l.1-.8.3-.6a1.5 1.5 0 0 1 1.2-.5h.5l.4.3.3.5v3.2h-.6v-3.1l-.4-.2a1 1 0 0 0-.4-.1 1 1 0 0 0-.8.4 1.5 1.5 0 0 0-.3.9Zm4.2 1.3v.6l-.1.7-.5.6-.4-.3a2.1 2.1 0 0 0 .3-.6v-1h.7Zm4.4 1a1.7 1.7 0 0 1-1.7-1.1l-.1-1 .1-1 .4-.6a1.7 1.7 0 0 1 2-.4l.4.5c.2.1.3.3.3.6l.1.7v.3h-3v-.5h2.4c0-.2 0-.4-.2-.6a1 1 0 0 0-.2-.4.9.9 0 0 0-.6-.1 1 1 0 0 0-.8.3l-.2.5v1.3c0 .2.2.3.3.5a1.1 1.1 0 0 0 .8.4c.3 0 .5 0 .6-.2.2 0 .3-.2.5-.4l.4.3-.3.4-.5.3-.7.1Zm3-3.3v3.1h-.7v-4h.7v1Zm-.2 1h-.2v-.8l.4-.6a1.5 1.5 0 0 1 1.2-.5h.5l.4.3.3.5v3.2h-.6v-2.6l-.1-.5-.3-.2a1 1 0 0 0-.4-.1 1 1 0 0 0-.8.4 1.5 1.5 0 0 0-.4.9Zm6.2-1v3.1h-.7v-4h.7v1Zm-.2 1h-.2v-.8l.4-.6a1.5 1.5 0 0 1 1.2-.5h.5l.4.3.3.5v3.2h-.6v-2.6l-.1-.5-.3-.2a1 1 0 0 0-.4-.1 1 1 0 0 0-.8.4 1.5 1.5 0 0 0-.4.9Zm6 1.5v-2.5l-.4-.3a1 1 0 0 0-.4 0 1 1 0 0 0-.5 0l-.3.3v.3h-.8c0-.2 0-.3.2-.5l.3-.3.5-.3.6-.1.8.1.5.5.2.7v2.3l.1.4h-.7v-.6Zm.1-1.8v.5h-1.2l-.3.2-.3.2v.7l.3.2.4.1a1.1 1.1 0 0 0 1-.4v-.4l.4.3-.2.4a1.6 1.6 0 0 1-.7.6l-.6.1-.7-.1-.5-.5-.1-.6v-.5l.4-.4.6-.3h1.5Zm5.9 1.8v-2l-.1-.5-.3-.3a1 1 0 0 0-.5 0 1 1 0 0 0-.4 0c-.2 0-.3.2-.3.3l-.1.3h-.7v-.5c.2 0 .3-.2.4-.3l.5-.3.7-.1.7.1.5.5c.2.2.2.4.2.7v2.3l.2.4h-.7l-.1-.3v-.3Zm0-1.8v.5h-1.1l-.4.2-.2.2-.1.3v.4l.3.2.4.1a1.1 1.1 0 0 0 1-.4l.1-.4.3.3-.1.4a1.6 1.6 0 0 1-.8.6l-.6.1-.7-.1-.4-.5-.2-.6.1-.5.4-.4.5-.3h1.6Zm2.7 2.4h-.7v-4.3c0-.3 0-.6.2-.8 0-.2.2-.3.4-.4l.8-.2h.4a10.3 10.3 0 0 1 1 .3l-.3.4a9.3 9.3 0 0 0-1 0h-.5l-.2.2v4.8Zm1.5 0v-5.4h.6v5.4h-.6Zm-.7-4v.6h-2.1v-.5h2.1Zm2.3 2.1.1-.9c0-.2.2-.4.4-.6l.5-.4.8-.2c.3 0 .5 0 .7.2.3 0 .4.2.6.4l.4.6v1.7l-.4.6a1.7 1.7 0 0 1-1.3.6l-.8-.1a1.7 1.7 0 0 1-.9-1.1l-.1-.8Zm.7 0v.6l.2.4c.1.2.2.3.4.3l.5.2c.2 0 .3 0 .5-.2l.3-.3.2-.4.1-.6v-.6l-.3-.5a1 1 0 0 0-.8-.4 1 1 0 0 0-.5 0 1 1 0 0 0-.4.4l-.2.5v.5Zm3.6 0v-.9l.4-.6.6-.4.8-.2c.2 0 .5 0 .7.2.2 0 .4.2.6.4l.3.6.2.8v.1c0 .3 0 .5-.2.8l-.3.6a1.7 1.7 0 0 1-1.3.6l-.8-.1a1.7 1.7 0 0 1-1-1.1v-.8Zm.6 0 .1.6.2.4c.1.2.2.3.4.3l.5.2c.1 0 .3 0 .4-.2.2 0 .3-.1.4-.3l.2-.4v-1.2l-.2-.5a1 1 0 0 0-.8-.4 1 1 0 0 0-.9.4l-.2.5v.5Zm4.5-1.3v4.8h-.7v-5.5h.6v.7Zm2.7 1.2v.1l-.1.8-.3.6-.5.5-.7.1-.6-.1-.5-.4c-.2-.1-.3-.3-.4-.6l-.1-.7v-.4l.1-.8.4-.6.5-.4.6-.1.7.1.5.5.3.6v.8Zm-.7.1v-.6l-.3-.5a1 1 0 0 0-.8-.4 1 1 0 0 0-.8.3l-.2.3v1.4l.1.5.4.3.5.2c.2 0 .4 0 .5-.2l.3-.3.2-.4v-.6Zm-94.2 7v.5H165v-.5h2.2Zm-1.4-1h.6v4l.1.3h.2l.2.1a1.1 1.1 0 0 0 .3 0v.5h-.2l-.3.1a1 1 0 0 1-.5 0 .7.7 0 0 1-.3-.4l-.1-.7v-3.9Zm3 1v4h-.8v-4h.7Zm-.8-1v-.4h.7v.6l-.3.1-.3-.1-.1-.3Zm3.4 5a1.7 1.7 0 0 1-1.7-1.1v-1.8l.5-.7a1.7 1.7 0 0 1 1.9-.4l.5.5.3.6v1H170v-.5h2.3l-.1-.6a1 1 0 0 0-.3-.4.9.9 0 0 0-.5-.1 1 1 0 0 0-.8.3l-.2.5v1.3l.2.5a1.1 1.1 0 0 0 .9.4c.2 0 .4 0 .6-.2.2 0 .3-.2.4-.4l.4.3c0 .2-.2.3-.3.4l-.5.3-.7.1Zm3-3.2v3.1h-.6v-4h.6v1Zm-.1 1h-.3l.1-.8.4-.6a1.5 1.5 0 0 1 1.1-.5h.6l.4.3.2.5.1.6v2.6h-.7v-3.1l-.3-.2a1 1 0 0 0-.5-.1 1 1 0 0 0-.8.4 1.5 1.5 0 0 0-.3.9Zm5.3-1.8v.5h-2.2v-.5h2.2Zm-1.4-1h.6v4l.1.3h.2l.2.1a1.1 1.1 0 0 0 .3 0v.5h-.2l-.3.1a1 1 0 0 1-.5 0 .7.7 0 0 1-.3-.4l-.1-.7v-3.9Zm4.5 4.3v-2.5l-.4-.3a1 1 0 0 0-.4 0 1 1 0 0 0-.5 0l-.3.3v.3h-.8c0-.2 0-.3.2-.5l.3-.3.5-.3.6-.1.8.1.5.5.2.7v2.3l.1.4h-.7v-.6Zm.1-1.8v.5h-1.2l-.3.2-.3.2v.7l.3.2.4.1a1.1 1.1 0 0 0 1-.4v-.4l.4.3-.2.4a1.6 1.6 0 0 1-.7.6l-.6.1-.7-.1-.5-.5-.1-.6v-.5l.4-.4.6-.3h1.5Zm2.4-3.2v5.6h-.7v-5.6h.7Zm1.8 0v5.6h-.7v-5.6h.7Zm2.8 5.7a1.7 1.7 0 0 1-1.7-1.1l-.2-.8v-.2c0-.3 0-.6.2-.8 0-.3.2-.5.4-.7a1.7 1.7 0 0 1 1.9-.4l.5.5.3.6v1h-2.9v-.5h2.3v-.6a1 1 0 0 0-.4-.4.9.9 0 0 0-.5-.1 1 1 0 0 0-.8.3l-.2.5v1.3l.2.5a1.1 1.1 0 0 0 .9.4c.2 0 .4 0 .6-.2.2 0 .3-.2.4-.4l.4.3c0 .2-.2.3-.3.4l-.5.3-.6.1Zm3-3.2v3.1h-.7v-4h.6v1Zm-.2 1h-.3l.1-.8.4-.6a1.5 1.5 0 0 1 1.1-.5h.6l.4.3.2.5.1.6v2.6h-.7v-3.1l-.3-.2a1 1 0 0 0-.5-.1 1 1 0 0 0-.8.4 1.5 1.5 0 0 0-.3.9Zm7.2-1.8v.5h-2.2v-.5h2.2Zm-1.5-1h.7v4.3h.2l.2.1a1.1 1.1 0 0 0 .4 0v.5a1.6 1.6 0 0 1-.6.1 1 1 0 0 1-.4 0 .7.7 0 0 1-.3-.4l-.2-.7v-3.9Zm3.2 4.2 1-3.2h.5v.6l-1.1 3.3h-.4V73Zm-.6-3.2.8 3.3v.6h-.4l-1.1-4h.7Zm3 3.2 1-3.2h.6l-1.2 4h-.4V73Zm-.8-3.2 1 3.2.1.7h-.4l-1-3.3-.2-.6h.5Zm3.8 0v4h-.7v-4h.7Zm-.7-1v-.4h.7v.6l-.3.1-.3-.1-.1-.3Zm1.8 1h.7v4.4l-.1.6c0 .2-.2.3-.4.4l-.5.1a1.5 1.5 0 0 1-.4 0v-.6h.5l.2-.2v-4.7Zm0-1v-.4h.7v.6l-.3.1-.3-.1-.1-.3Zm4.4 1h.6v3.9c0 .3 0 .6-.2.8l-.6.6a1.9 1.9 0 0 1-1.4.1 2 2 0 0 1-.5-.2c-.2 0-.3-.2-.5-.4l.4-.4.5.4.6.1h.5l.4-.4.1-.6v-4Zm-2.8 2 .1-.9c.1-.3.2-.5.4-.6a1.4 1.4 0 0 1 1.1-.6l.7.1.4.4.3.6.2.8v.3c0 .3 0 .6-.2.8l-.3.6-.4.4a1.6 1.6 0 0 1-1.3 0l-.5-.5a2 2 0 0 1-.4-.6v-.8Zm.7 0v.6l.3.4.3.3.5.1.5-.1.4-.4.2-.5v-.9l-.2-.4s0-.2-.2-.3a1 1 0 0 0-.3-.2 1 1 0 0 0-.4-.1 1 1 0 0 0-.5 0 1 1 0 0 0-.3.4l-.2.5v.5Zm3.7-2h.7v4.4l-.1.6c0 .2-.2.3-.3.4l-.6.1a1.5 1.5 0 0 1-.4 0v-.6h.5l.2-.2v-4.7Zm0-1v-.4h.7v.6l-.3.1-.3-.1-.1-.3Zm3.5 5a2 2 0 0 1-.8-.1 1.7 1.7 0 0 1-1-1v-1.8l.5-.7a1.7 1.7 0 0 1 1.9-.4l.5.5.3.6v1H216v-.5h2.3v-.6a1 1 0 0 0-.4-.4.9.9 0 0 0-.5-.1 1 1 0 0 0-.8.3l-.2.5v1.3l.2.5.4.2.5.2c.2 0 .4 0 .6-.2.2 0 .3-.2.4-.4l.4.3c0 .2-.2.3-.3.4l-.5.3-.6.1Zm4.6-1.1v-.3l-.3-.2-.6-.2-.6-.2-.5-.2a.9.9 0 0 1-.4-.7c0-.2 0-.3.2-.5l.3-.4.4-.2.6-.1c.3 0 .6 0 .8.2.3 0 .4.2.6.4l.1.6h-.6l-.1-.3-.3-.2a1 1 0 0 0-.5-.1 1 1 0 0 0-.4 0l-.3.3a.5.5 0 0 0 0 .4l.1.2.3.1.4.1.8.3c.3.1.4.2.5.4l.2.5a1 1 0 0 1-.5.9l-.4.2-.7.1a2 2 0 0 1-.8-.2 1 1 0 0 1-.6-.5l-.2-.6h.7c0 .2 0 .3.2.5l.3.2a1.4 1.4 0 0 0 .9 0l.3-.2v-.3Zm3.2-.9c0-.4 0-.6.2-.9l.3-.6.6-.4.7-.2c.3 0 .6 0 .8.2.2 0 .4.2.6.4l.3.6.1.8v.9l-.4.6a1.7 1.7 0 0 1-1.4.6l-.7-.1a1.7 1.7 0 0 1-1-1.1v-.8Zm.7 0v.6l.3.4c0 .2.2.3.4.3l.4.2c.2 0 .4 0 .5-.2.2 0 .3-.1.4-.3l.2-.4v-1.2l-.2-.5a1 1 0 0 0-.8-.4 1 1 0 0 0-.9.4l-.2.5v.5Zm4.5-1.3v4.8h-.7v-5.5h.6v.7Zm2.6 1.2v.9c-.1.2-.2.5-.4.6 0 .2-.2.4-.4.5l-.7.1-.7-.1-.5-.4-.3-.6-.1-.7v-.4l.1-.8.3-.6.5-.4.7-.1.7.1.4.5c.2.1.3.3.3.6l.1.8Zm-.6.1-.1-.6-.2-.5a1 1 0 0 0-.8-.4 1 1 0 0 0-.8.3l-.2.3-.1.4v1l.2.5.4.3.5.2c.2 0 .3 0 .5-.2l.3-.3.2-.4v-.6Zm5.9 1.2v-5h.6v5.6h-.6V73Zm-2.7-1.2.1-.9c0-.3.2-.5.3-.6l.5-.5.7-.1.6.1.5.4.3.6.2.8v.3l-.2.8-.3.6-.5.4a1.6 1.6 0 0 1-1.3 0l-.5-.5a2 2 0 0 1-.3-.6l-.1-.8Zm.7 0v.6l.2.4.4.3.4.1.6-.1.3-.4.2-.5v-1.3l-.3-.3a1 1 0 0 0-.3-.2 1 1 0 0 0-.5-.1 1 1 0 0 0-.4 0 1 1 0 0 0-.4.4l-.2.5v.5Zm5.3 2a1.7 1.7 0 0 1-1.7-1.1v-1.8l.5-.7a1.7 1.7 0 0 1 1.9-.4l.5.5.3.6v1h-2.9v-.5h2.3l-.1-.6a1 1 0 0 0-.3-.4.9.9 0 0 0-.5-.1 1 1 0 0 0-.8.3l-.2.5v1.3l.2.5.4.2.5.2c.2 0 .4 0 .6-.2.2 0 .3-.2.4-.4l.4.3c0 .2-.2.3-.3.4l-.5.3-.7.1Zm6.8-4h.6v3.9c0 .3 0 .6-.2.8-.1.3-.3.5-.6.6a1.9 1.9 0 0 1-1.3.1 2 2 0 0 1-.6-.2c-.2 0-.3-.2-.4-.4l.3-.4.6.4.5.1h.5l.4-.4.1-.6v-3l.1-1Zm-2.7 2v-.9l.4-.6a1.4 1.4 0 0 1 1.1-.6l.7.1.5.4.3.6.1.8v.3l-.1.8-.3.6-.5.4a1.6 1.6 0 0 1-1.3 0l-.5-.5a2 2 0 0 1-.3-.6l-.1-.8Zm.7 0v.6l.2.4.3.3.5.1.6-.1.3-.4.2-.5v-.9l-.1-.4-.2-.3a1 1 0 0 0-.3-.2 1 1 0 0 0-.5-.1 1 1 0 0 0-.5 0 1 1 0 0 0-.3.4l-.2.5v.5Zm4.3-1.4v3.3h-.6v-4h.6v.7Zm1.3-.6v.6h-.4a1 1 0 0 0-.4 0l-.3.2-.2.3v.4l-.3.1.1-.6.2-.6.4-.4a1 1 0 0 1 .9 0Zm.3 2c0-.4 0-.6.2-.9l.3-.6.6-.4.7-.2c.3 0 .6 0 .8.2.2 0 .4.2.6.4l.3.6.1.8v.9l-.4.6a1.7 1.7 0 0 1-1.4.6l-.7-.1a1.7 1.7 0 0 1-1-1.1v-.8Zm.7 0v.6l.3.4c0 .2.2.3.4.3l.4.2c.2 0 .4 0 .5-.2.2 0 .3-.1.4-.3l.2-.4v-1.2l-.2-.5a1 1 0 0 0-.8-.4 1 1 0 0 0-.6 0 1 1 0 0 0-.3.4l-.2.5v.5Zm4.5-1.2v3.1h-.7v-4h.6v1Zm-.2 1h-.3c0-.3 0-.5.2-.8l.3-.6a1.5 1.5 0 0 1 1.1-.5h.6l.4.3.2.5.1.6v2.6h-.7v-3.1l-.3-.2a1 1 0 0 0-.5-.1 1 1 0 0 0-.8.4 1.5 1.5 0 0 0-.3.9Zm6.1 1.4v-5h.7v5.6h-.6V73Zm-2.6-1.2v-.9l.4-.6.5-.5.6-.1.7.1.5.4.3.6.1.8v.3l-.1.8-.3.6-.5.4a1.6 1.6 0 0 1-1.3 0l-.5-.5a2 2 0 0 1-.3-.6l-.1-.8Zm.7 0v.6l.2.4.3.3.5.1.6-.1.3-.4.2-.5v-.9l-.1-.4-.2-.3a1 1 0 0 0-.3-.2 1 1 0 0 0-.5-.1 1 1 0 0 0-.5 0 1 1 0 0 0-.3.4l-.2.5v.5ZM166.7 82l1.1-3.3h.7l-1.4 4h-.5l.1-.7Zm-.9-3.3L167 82l.1.6h-.4l-1.5-4h.7Zm3.1 2 .1-.9.4-.6.6-.4.7-.2c.3 0 .5 0 .8.2.2 0 .4.2.5.4l.4.6.1.8v.9l-.5.6a1.7 1.7 0 0 1-1.3.6l-.7-.1a1.7 1.7 0 0 1-1-1.1v-.8Zm.7 0v.6l.3.4c0 .2.2.3.3.3l.5.2c.2 0 .4 0 .5-.2.2 0 .3-.1.4-.3l.2-.4v-1.2l-.2-.5a1 1 0 0 0-.8-.4 1 1 0 0 0-.6 0 1 1 0 0 0-.3.4l-.2.5-.1.5Zm4.5-1.2v3.1h-.7v-4h.6v1Zm-.2 1h-.3l.1-.8.4-.6a1.5 1.5 0 0 1 1.1-.5h.6l.4.3.2.5v3.2h-.6v-3.1l-.3-.2a1 1 0 0 0-.5-.1 1 1 0 0 0-.8.4 1.5 1.5 0 0 0-.3.9ZM180 82v-5h.7v5.6h-.6V82Zm-2.6-1.2v-.9c.1-.3.2-.5.4-.6a1.4 1.4 0 0 1 1.1-.6l.7.1.5.4.3.6.1.8v.3l-.1.8-.3.6-.5.4a1.6 1.6 0 0 1-1.3 0l-.5-.5a2 2 0 0 1-.3-.6l-.1-.8Zm.6 0 .1.6.2.4.3.3.5.1.5-.1.4-.4.2-.5v-.9l-.1-.4-.2-.3a1 1 0 0 0-.4-.2 1 1 0 0 0-.4-.1 1 1 0 0 0-.5 0 1 1 0 0 0-.3.4l-.2.5v.5Zm3.8 1.6V82l.4-.1h.3l.1.4-.1.3h-.6l-.1-.3Zm7.4-2.7v.6h-3v-.6h3Zm-2.8-2.3v5.3h-.7v-5.3h.7Zm3.4 0v5.3h-.7v-5.3h.7Zm1.9 1.4v4h-.7v-4h.7Zm-.7-1v-.4h.7l.2.3c0 .1 0 .2-.2.3l-.2.1-.3-.1-.1-.3Zm3.4 5a1.7 1.7 0 0 1-1.7-1.1l-.1-.8v-.2l.1-.8.4-.7a1.7 1.7 0 0 1 2-.4l.5.5.3.6v1H193v-.5h2.3l-.1-.6a1 1 0 0 0-.3-.4.9.9 0 0 0-.6-.1 1 1 0 0 0-.7.3l-.2.5-.1.6v.7l.3.5.4.2.5.2c.2 0 .4 0 .6-.2l.4-.4.4.3c0 .2-.2.3-.3.4l-.5.3-.7.1Zm3-3.4v3.3h-.7v-4h.7v.7Zm1.3-.6v.6h-.4a1 1 0 0 0-.4 0l-.3.2-.2.3v.4l-.3.1.1-.6.2-.6.4-.4a1 1 0 0 1 .9 0Zm1.3.8v3.1h-.7v-4h.6v1Zm-.2 1h-.3l.1-.8.4-.6a1.5 1.5 0 0 1 1.1-.5h.6l.4.3.2.5.1.6v2.6h-.7v-3.1l-.3-.2a1 1 0 0 0-.5-.1 1 1 0 0 0-.8.4 1.5 1.5 0 0 0-.3.9Zm6 1.5v-2l-.1-.5-.3-.3a1 1 0 0 0-.5 0 1 1 0 0 0-.4 0l-.3.3-.1.3h-.7l.1-.5.3-.3.5-.3.7-.1.7.1c.3.1.4.3.6.5l.2.7v2.7h-.6l-.1-.3v-.3Zm0-1.8.1.5h-1.2l-.4.2-.2.2-.1.3v.4l.3.2.5.1a1.1 1.1 0 0 0 .9-.4l.1-.4.3.3-.1.4a1.6 1.6 0 0 1-.8.6l-.5.1-.7-.1-.5-.5-.2-.6.1-.5.4-.4.6-.3h1.5Zm3.6-3.2h.7V82l-.1.7h-.6v-5.6Zm3.3 3.6v.9c-.1.2-.2.5-.4.6l-.5.5-.6.1-.7-.1-.4-.4a2 2 0 0 1-.4-.6l-.1-.8v-.3l.1-.8.4-.6c0-.2.2-.3.4-.4l.7-.1.6.1.5.5c.2.1.3.3.3.6l.1.8Zm-.6.1-.1-.6-.2-.5a.9.9 0 0 0-.8-.4 1 1 0 0 0-.8.3l-.2.3v1.3l.1.5c0 .2.2.3.4.4l.5.1h.5l.3-.4.2-.4v-.6Zm3.1 2a1.7 1.7 0 0 1-1.7-1.1v-1.8l.4-.7a1.7 1.7 0 0 1 2-.4l.5.5.3.6v1h-2.9v-.5h2.3l-.1-.6a1 1 0 0 0-.3-.4.9.9 0 0 0-.6-.1 1 1 0 0 0-.7.3l-.2.5-.1.6v.7l.3.5a1.1 1.1 0 0 0 .9.4c.2 0 .4 0 .6-.2l.4-.4.4.3c0 .2-.2.3-.3.4l-.5.3-.7.1Zm4.7-1.1v-.3l-.4-.2-.5-.2-.6-.2-.5-.2a.9.9 0 0 1-.4-.7l.1-.5.3-.4.5-.2.6-.1c.3 0 .6 0 .8.2.2 0 .4.2.5.4l.2.6h-.7v-.3l-.3-.2a1 1 0 0 0-.5-.1 1 1 0 0 0-.5 0l-.2.3a.5.5 0 0 0 0 .4v.2l.4.1.4.1.8.3.5.4.2.5a1 1 0 0 1-.5.9l-.5.2-.6.1a2 2 0 0 1-.9-.2l-.5-.5-.2-.6h.7l.1.5.4.2a1.4 1.4 0 0 0 .9 0l.3-.2v-.3Zm2.3-4.6v5.6h-.7v-5.6h.7Zm.9 3.7.1-.9c0-.2.2-.4.4-.6l.5-.4.8-.2c.3 0 .5 0 .7.2.3 0 .4.2.6.4l.4.6v1.7l-.4.6a1.7 1.7 0 0 1-1.3.6l-.8-.1a1.7 1.7 0 0 1-.9-1.1l-.1-.8Zm.7 0v.6l.2.4c.1.2.3.3.4.3l.5.2c.2 0 .3 0 .5-.2l.3-.3.2-.4.1-.6v-.6l-.3-.5a1 1 0 0 0-.8-.4 1 1 0 0 0-.5 0 1 1 0 0 0-.4.4l-.2.5v.5Zm3.6 0v-.9l.4-.6.6-.4.8-.2c.2 0 .5 0 .7.2.2 0 .4.2.6.4l.3.6.2.8v.1c0 .3 0 .5-.2.8l-.3.6a1.7 1.7 0 0 1-1.3.6l-.8-.1a1.7 1.7 0 0 1-1-1.1v-.8Zm.6 0 .1.6.2.4c.1.2.2.3.4.3l.5.2c.2 0 .3 0 .5-.2l.3-.3.2-.4v-1.2l-.2-.5a1 1 0 0 0-.8-.4 1 1 0 0 0-.5 0 1 1 0 0 0-.4.4l-.2.5v.5Zm5.5-2v.5h-2.2v-.5h2.2Zm-1.4-1h.6v4l.1.3h.2l.2.1a1.1 1.1 0 0 0 .3 0v.5a1.6 1.6 0 0 1-.5.1 1 1 0 0 1-.5 0 .7.7 0 0 1-.3-.4l-.1-.7v-3.9Zm6.1 0-1.8 5h-.7l2-5.4h.5v.5Zm1.5 5-1.8-5v-.4h.5l2 5.3h-.7Zm-.1-2v.5h-3v-.5h3Zm2.2-3.7v5.6h-.7v-5.6h.7Zm4.6 5.7a1.7 1.7 0 0 1-1.7-1.1l-.2-.8v-.2c0-.3 0-.6.2-.8 0-.3.2-.5.4-.7a1.7 1.7 0 0 1 1.9-.4l.5.5.3.6v1H245v-.5h2.3v-.6a1 1 0 0 0-.4-.4.9.9 0 0 0-.5-.1 1 1 0 0 0-.8.3l-.2.5v1.3l.2.5.4.2.5.2c.2 0 .4 0 .6-.2.2 0 .3-.2.4-.4l.4.3c0 .2-.2.3-.3.4l-.5.3-.6.1Zm4 0a1.7 1.7 0 0 1-1.7-1.1l-.2-.8v-.2c0-.3 0-.6.2-.8 0-.3.2-.5.3-.7a1.7 1.7 0 0 1 2-.4l.5.5.3.6v1H249v-.5h2.3l-.1-.6a1 1 0 0 0-.3-.4.9.9 0 0 0-.6-.1 1 1 0 0 0-.7.3l-.2.5-.1.6v.7l.3.5.4.2.5.2c.2 0 .4 0 .6-.2l.4-.4.4.3c0 .2-.2.3-.3.4l-.5.3-.7.1Zm3-3.2v3.1h-.7v-4h.6v1Zm-.2 1h-.3l.1-.8.3-.6a1.5 1.5 0 0 1 1.2-.5h.5l.4.3.3.5v3.2h-.6v-3.1l-.4-.2a1 1 0 0 0-.4-.1 1 1 0 0 0-.8.4 1.5 1.5 0 0 0-.3.9ZM168 90.8v-3h.6v4h-.6v-1Zm0-.8h.4l-.1.7-.3.6-.5.4-.7.1h-.5a1 1 0 0 1-.7-.8v-3.2h.6v3l.2.3h.2l.3.1.7-.1.4-.5V90Zm2.3-3.9v5.6h-.6v-5.6h.6Zm2.5 1.7-1.8 1.8-1 1V90l.7-.8 1.2-1.3h.9Zm-.7 4-1.4-2 .4-.6 1.8 2.5h-.8Zm3 0a1.7 1.7 0 0 1-1.7-1.1l-.2-.8v-.2c0-.3 0-.6.2-.8 0-.3.2-.5.3-.7a1.7 1.7 0 0 1 2-.4l.5.5.3.6v1h-2.9v-.5h2.3l-.1-.6a1 1 0 0 0-.3-.4.9.9 0 0 0-.6-.1 1 1 0 0 0-.7.3l-.2.5-.1.6v.7l.3.5.4.2.5.2c.2 0 .4 0 .6-.2l.4-.4.4.3c0 .2-.2.3-.3.4l-.5.3-.7.1Zm3-5.7v5.6h-.7v-5.6h.7Zm2.7 5.7a1.7 1.7 0 0 1-1.7-1.1v-1.8l.4-.7a1.7 1.7 0 0 1 2-.4l.5.5.3.6v1h-2.9v-.5h2.3l-.1-.6a1 1 0 0 0-.3-.4.9.9 0 0 0-.5-.1 1 1 0 0 0-.8.3l-.2.5-.1.6v.7l.3.5.4.2.5.2c.2 0 .4 0 .6-.2l.4-.4.4.3c0 .2-.2.3-.3.4l-.5.3-.7.1Zm3.1-5.7v5.6h-.7v-5.6h.7Zm2.7 5.7a2 2 0 0 1-.7-.1 1.7 1.7 0 0 1-1-1v-1.8l.4-.7a1.7 1.7 0 0 1 2-.4l.5.5.3.6v1h-2.9v-.5h2.3l-.1-.6a1 1 0 0 0-.3-.4.9.9 0 0 0-.5-.1 1 1 0 0 0-.8.3l-.2.5-.1.6v.7l.3.5.4.2.5.2c.2 0 .4 0 .6-.2l.4-.4.4.3c0 .2-.2.3-.3.4l-.5.3-.7.1Zm5.4-.7 1.1-3.3h.7l-1.4 4h-.5l.1-.7Zm-.9-3.3 1.2 3.3v.6h-.4l-1.5-4h.7Zm3.1 2c0-.4 0-.6.2-.9l.3-.6.6-.4.7-.2c.3 0 .6 0 .8.2.2 0 .4.2.5.4l.4.6.1.8v.9l-.5.6a1.7 1.7 0 0 1-1.3.6l-.7-.1a1.7 1.7 0 0 1-1-1.1v-.8Zm.7 0v.6l.3.4c0 .2.2.3.3.3l.5.2c.2 0 .4 0 .5-.2.2 0 .3-.1.4-.3l.2-.4v-1.2l-.2-.5a1 1 0 0 0-.8-.4 1 1 0 0 0-1 .4l-.1.5v.5Zm3.6 0 .1-.9.4-.6c.1-.2.3-.3.6-.4l.7-.2c.3 0 .5 0 .8.2.2 0 .4.2.5.4l.4.6.1.8v.1l-.1.8-.4.6a1.7 1.7 0 0 1-1.3.6l-.7-.1a1.7 1.7 0 0 1-1-1.1v-.8Zm.7 0v.6l.3.4c0 .2.2.3.3.3l.5.2c.2 0 .4 0 .5-.2.1 0 .3-.1.3-.3l.3-.4v-1.2c0-.2-.2-.4-.3-.5a1 1 0 0 0-.8-.4 1 1 0 0 0-.5 0 1 1 0 0 0-.3.4l-.2.5-.1.5Zm4.4-1.4v3.3h-.6v-4h.6v.7Zm1.3-.6v.6h-.4a1 1 0 0 0-.4 0l-.3.2-.2.3v.4l-.3.1.1-.6.2-.6.4-.4a1 1 0 0 1 .9 0Zm5.4 3.4v.5h-2.9v-.5h3Zm0-3-2.7 3.5h-.4v-.5l2.6-3.4h.4v.5Zm-.4-.4v.5h-2.7v-.5h2.7Zm2 0v4h-.8v-4h.7Zm-.8-1v-.4h.7v.6l-.3.1-.3-.1-.1-.3Zm1.8 1h.7v4.4l-.1.6c0 .2-.2.3-.4.4l-.5.1a1.5 1.5 0 0 1-.4 0v-.6h.5l.2-.2v-4.7Zm0-1v-.4h.7v.6l-.3.1-.3-.1-.1-.3Zm2.5 1.8v3.1h-.7v-4h.6v1Zm-.2 1h-.3c0-.3 0-.5.2-.8l.3-.6a1.5 1.5 0 0 1 1.1-.5h.6l.4.3.2.5.1.6v2.6h-.7v-3.1l-.3-.2a1 1 0 0 0-.5-.1 1 1 0 0 0-.8.4 1.5 1.5 0 0 0-.3.9Zm8.5 1.6v.5h-3v-.5h3Zm-.1-3-2.7 3.5h-.4v-.5l2.6-3.4h.5v.5Zm-.3-.4v.5h-2.8v-.5h2.8Zm.9 2 .1-.9.4-.6.5-.4.8-.2c.3 0 .5 0 .7.2.3 0 .5.2.6.4l.4.6.1.8v.1l-.1.8-.4.6a1.7 1.7 0 0 1-1.3.6l-.8-.1a1.7 1.7 0 0 1-.9-1.1l-.1-.8Zm.7 0v.6l.2.4c.1.2.3.3.4.3l.5.2c.2 0 .3 0 .5-.2l.3-.3.2-.4.1-.6v-.6l-.3-.5a1 1 0 0 0-.8-.4 1 1 0 0 0-.5 0 1 1 0 0 0-.4.4l-.2.5v.5Zm3.6 0v-.9l.5-.6.5-.4.8-.2c.2 0 .5 0 .7.2.2 0 .4.2.6.4l.4.6v1.7l-.4.6a1.7 1.7 0 0 1-1.3.6l-.8-.1a1.7 1.7 0 0 1-1-1.1v-.8Zm.6 0 .1.6.2.4c.1.2.2.3.4.3l.5.2c.2 0 .3 0 .5-.2l.3-.3.2-.4v-1.2l-.2-.5a1 1 0 0 0-.8-.4 1 1 0 0 0-.5 0 1 1 0 0 0-.4.4l-.2.5v.5Zm4.5-1.2v3.1h-.7v-4h.7v1Zm-.2 1h-.2v-.8l.4-.6a1.5 1.5 0 0 1 1.2-.5h.5l.4.3.3.5v3.2h-.6v-2.6l-.1-.5-.3-.2a1 1 0 0 0-.4-.1 1 1 0 0 0-.8.4 1.5 1.5 0 0 0-.4.9Zm7.2-1.8v.5h-2.2v-.5h2.2Zm-1.4-1h.7v4.3h.2l.2.1a1.1 1.1 0 0 0 .3 0v.5h-.2l-.3.1a1 1 0 0 1-.5 0 .7.7 0 0 1-.3-.4l-.1-.7v-3.9Zm3.8 5a1.7 1.7 0 0 1-1.7-1.1v-1.8l.4-.7a1.7 1.7 0 0 1 2-.4l.5.5.3.6v1h-2.9v-.5h2.3l-.1-.6a1 1 0 0 0-.3-.4.9.9 0 0 0-.6-.1 1 1 0 0 0-.7.3l-.2.5-.1.6v.7l.3.5.4.2.5.2c.2 0 .4 0 .6-.2l.4-.4.4.3c0 .2-.2.3-.3.4l-.5.3-.7.1Zm-76.8 3.3v5.6h-.7v-5.6h.7Zm-.2 3.5h-.2v-.8l.4-.6a1.5 1.5 0 0 1 1.2-.5h.5l.4.3.3.5v3.2h-.6v-2.6l-.1-.5-.3-.2a1 1 0 0 0-.4-.1 1 1 0 0 0-.8.4 1.5 1.5 0 0 0-.4.9Zm6 1.2v-3h.8v4h-.7v-1Zm.2-.8h.3v.7l-.4.6c0 .2-.2.3-.4.4l-.8.1h-.5a1 1 0 0 1-.7-.8v-3.2h.6v3l.2.3h.3l.3.1.6-.1.4-.5.1-.6Zm2.3-1.6v3.3h-.7v-4h.7v.7Zm1.2-.6v.6h-.3a1 1 0 0 0-.4 0c-.2 0-.3.1-.3.2l-.2.3-.1.4-.2.1v-.6l.3-.6.4-.4a1 1 0 0 1 .8 0Zm2.2 4a1.7 1.7 0 0 1-1.7-1.1l-.1-.8v-.2l.1-.8.4-.7a1.7 1.7 0 0 1 2-.4l.5.5.3.6v1h-3v-.5h2.4l-.1-.6a1 1 0 0 0-.3-.4.9.9 0 0 0-.6-.1 1 1 0 0 0-.7.3l-.3.5v1.3l.3.5.3.2.5.2c.3 0 .5 0 .7-.2l.4-.4.4.3c0 .2-.2.3-.3.4l-.5.3-.7.1Zm3-3.2v3.1h-.7v-4h.7v1Zm-.1 1h-.3l.1-.8.3-.6a1.5 1.5 0 0 1 1.2-.5h.5l.4.3.3.5v3.2h-.6v-2.6l-.1-.5-.3-.2a1 1 0 0 0-.4-.1 1 1 0 0 0-.8.4 1.5 1.5 0 0 0-.3.9Zm3.6 1.8.1-.3.3-.1h.3l.1.4v.3h-.7l-.1-.3Zm8-5v5.3h-.7l-2.7-4v4h-.7v-5.3h.7l2.7 4.1v-4.1h.7Zm3.5 4.7v-2.5l-.4-.3a1 1 0 0 0-.4 0 1 1 0 0 0-.5 0l-.3.3v.3h-.8c0-.2 0-.3.2-.5l.3-.3.5-.3.6-.1.8.1.5.5.2.7v2.3l.1.4h-.7v-.6Zm.1-1.8v.5h-1.2l-.3.2-.3.2v.7l.3.2.4.1.5-.1.4-.3.2-.4.3.3-.2.4a1.6 1.6 0 0 1-.7.6l-.6.1-.7-.1-.5-.5-.1-.6v-.5l.4-.4.6-.3h1.5Zm5.2 2.5a1.7 1.7 0 0 1-1.7-1.1l-.2-.8v-.2c0-.3 0-.6.2-.8 0-.3.2-.5.4-.7a1.7 1.7 0 0 1 2-.4l.4.5.3.6.1.7v.3h-3v-.5h2.3v-.6a1 1 0 0 0-.4-.4.9.9 0 0 0-.5-.1 1 1 0 0 0-.8.3l-.2.5v1.3l.2.5.4.2.5.2c.2 0 .4 0 .6-.2.2 0 .3-.2.4-.4l.5.3-.4.4-.5.3-.6.1Zm4 0a1.7 1.7 0 0 1-1.7-1.1l-.2-.8v-.2c0-.3 0-.6.2-.8 0-.3.2-.5.4-.7a1.7 1.7 0 0 1 1.9-.4l.5.5.3.6v1h-2.9v-.5h2.3l-.1-.6a1 1 0 0 0-.3-.4.9.9 0 0 0-.5-.1 1 1 0 0 0-.8.3l-.2.5-.1.6v.7l.3.5.4.2.5.2c.2 0 .4 0 .6-.2.2 0 .3-.2.4-.4l.4.3c0 .2-.2.3-.3.4l-.5.3-.7.1Zm3-3.2v3.1h-.7v-4h.6v1Zm-.2 1h-.3l.1-.8.4-.6a1.5 1.5 0 0 1 1.1-.5h.5l.4.3c.2.1.2.3.3.5v3.2h-.6v-3.1l-.4-.2a1 1 0 0 0-.4-.1 1 1 0 0 0-.8.4 1.5 1.5 0 0 0-.3.9Zm7.8 1.5v-2.5l-.4-.3a1 1 0 0 0-.4 0 1 1 0 0 0-.5 0l-.3.3v.3h-.8c0-.2 0-.3.2-.5l.3-.3.5-.3.6-.1.8.1.5.5.2.7v2.3l.1.4h-.7v-.6Zm.1-1.8v.5h-1.2l-.3.2-.3.2v.7l.3.2.4.1a1.1 1.1 0 0 0 1-.4v-.4l.4.3-.2.4a1.6 1.6 0 0 1-1.3.7l-.7-.1-.5-.5-.1-.6v-.5l.4-.4.6-.3h1.5Zm4 1.8v-2l-.1-.5-.3-.3a1 1 0 0 0-.4 0 1 1 0 0 0-.5 0l-.3.3-.1.3h-.7l.1-.5.3-.3.5-.3.7-.1.8.1.5.5.2.7v2.3l.1.4h-.7v-.3l-.1-.3Zm.1-1.8v.5h-1.2l-.4.2-.2.2v.7s.1.2.3.2l.4.1a1.1 1.1 0 0 0 1-.4v-.4l.3.3v.4a1.6 1.6 0 0 1-.8.6l-.6.1-.7-.1-.5-.5-.2-.6c0-.2 0-.4.2-.5 0-.2.2-.3.3-.4l.6-.3h1.5Zm2.3-.7v3.1h-.7v-4h.7v1Zm-.1 1h-.3v-.8l.4-.6a1.5 1.5 0 0 1 1.2-.5h.5l.4.3.3.5v3.2h-.6v-2.6l-.1-.5-.3-.2a1 1 0 0 0-.4-.1 1 1 0 0 0-.8.4 1.5 1.5 0 0 0-.3.9Zm5.2-1.8v.5h-2.1v-.5h2.1Zm-1.4-1h.7v4.3h.2l.2.1a1 1 0 0 0 .4 0v.5h-.3l-.3.1a1 1 0 0 1-.4 0 .7.7 0 0 1-.4-.4v-4.6Zm4.6 4.3v-2l-.1-.5-.3-.3a1 1 0 0 0-.5 0 1 1 0 0 0-.4 0l-.3.3-.1.3h-.7l.1-.5.3-.3.5-.3.7-.1.7.1c.3.1.4.3.6.5l.2.7v2.7h-.6l-.1-.3v-.3Zm0-1.8.1.5h-1.2l-.4.2-.2.2-.1.3v.4l.3.2.5.1a1.1 1.1 0 0 0 .9-.4l.1-.4.3.3-.1.4a1.6 1.6 0 0 1-.8.6l-.5.1-.7-.1-.5-.5-.2-.6.1-.5.4-.4.6-.3h1.5Zm2.5-3.2v5.6h-.7v-5.6h.7Zm-66.9 11.5v3.1h-.7v-4h.7v.9Zm-.1 1h-.4c0-.3 0-.5.2-.8l.3-.6.5-.4.7-.1h.5a1 1 0 0 1 .6.8l.1.6v2.6h-.6v-2.6l-.1-.5-.3-.2a1 1 0 0 0-.5-.1 1 1 0 0 0-.5 0l-.3.4-.2.4v.5Zm2.5-.4-.4.2v-.7l.4-.5.5-.4.7-.1h.5l.4.3.3.5v3.2h-.6v-2.6l-.1-.5-.3-.3a1.2 1.2 0 0 0-.8 0l-.3.3c-.1 0-.2.1-.2.3v.3Zm5.8 1.9v-2.5l-.3-.3a1 1 0 0 0-.5 0h-.4c-.2 0-.3.2-.3.3l-.2.3h-.6v-.5c.2 0 .3-.2.4-.3l.5-.3.6-.1.8.1.5.5c.2.2.2.4.2.7v2.3l.2.4h-.7l-.1-.3v-.3Zm.2-1.8v.5h-1.2l-.4.2-.3.2v.7l.3.2.4.1a1.1 1.1 0 0 0 1-.4l.1-.4.3.3-.1.4a1.6 1.6 0 0 1-.8.6l-.6.1-.7-.1-.4-.5c-.2-.1-.2-.3-.2-.6l.1-.5c0-.2.2-.3.4-.4l.5-.3h1.6Zm4 1.8v-2l-.2-.5-.3-.3a1 1 0 0 0-.4 0 1 1 0 0 0-.5 0l-.3.3v.3h-.7v-.5l.4-.3.5-.3.6-.1.8.1.5.5.2.7v2.3l.1.4h-.7v-.6Zm0-1.8v.5h-1.2l-.3.2-.3.2v.7l.3.2.4.1a1.1 1.1 0 0 0 1-.4v-.4l.4.3-.2.4a1.6 1.6 0 0 1-1.3.7l-.7-.1-.5-.5-.1-.6v-.5l.5-.4.5-.3h1.5Zm2.3-.7v3.1h-.6v-4h.6v1Zm-.1 1h-.3l.1-.8.3-.6a1.5 1.5 0 0 1 1.2-.5h.5l.4.3.3.5v3.2h-.6v-3.1l-.4-.2a1 1 0 0 0-.4-.1 1 1 0 0 0-.8.4 1.5 1.5 0 0 0-.3.9Zm6.1 1.4v-5h.7v5.6h-.6v-.7Zm-2.7-1.2c0-.4 0-.7.2-.9 0-.3.1-.5.3-.6l.5-.5.6-.1.7.1.4.4.3.6.2.8v.3c0 .3 0 .6-.2.8l-.3.6c0 .2-.3.3-.4.4a1.6 1.6 0 0 1-1.3 0l-.5-.5a2 2 0 0 1-.3-.6l-.2-.8Zm.7 0v.6l.3.4.3.3.5.1.5-.1.4-.4.2-.5v-.9l-.1-.4-.3-.3a1 1 0 0 0-.3-.2 1 1 0 0 0-.4-.1 1 1 0 0 0-.5 0 1 1 0 0 0-.3.4l-.2.5v.5Zm5.4 2a1.7 1.7 0 0 1-1.7-1.1l-.1-.8v-.2l.1-.8.4-.7a1.7 1.7 0 0 1 2-.4l.4.5c.2.1.3.3.3.6l.1.7v.3h-3v-.5h2.4c0-.2 0-.4-.2-.6a1 1 0 0 0-.3-.4.9.9 0 0 0-.5-.1 1 1 0 0 0-.8.3l-.2.5v1.3c0 .2.2.3.3.5l.3.2.5.2c.3 0 .5 0 .6-.2.2 0 .3-.2.5-.4l.4.3-.3.4-.5.3-.7.1Zm3-3.2v3.1h-.7v-4h.7v1Zm-.2 1h-.2v-.8l.4-.6a1.5 1.5 0 0 1 1.2-.5h.5l.4.3.2.5.1.6v2.6h-.6v-2.6l-.1-.5-.3-.2a1 1 0 0 0-.4-.1 1 1 0 0 0-.9.4 1.5 1.5 0 0 0-.3.9Zm6.5 1.4 1-3.2h.5v.6l-1.1 3.3h-.5l.1-.7Zm-.7-3.2 1 3.3v.6h-.5l-1.1-4h.6Zm3.2 3.2.8-3.2h.7l-1.2 4h-.4v-.8Zm-1-3.2 1 3.2.2.7h-.4l-1.1-3.3v-.6h.4Zm4.8 4a1.7 1.7 0 0 1-1.7-1.1l-.1-.8v-.2l.1-.8.4-.7a1.7 1.7 0 0 1 2-.4l.5.5.3.6v1h-3v-.5h2.4l-.1-.6a1 1 0 0 0-.3-.4.9.9 0 0 0-.6-.1 1 1 0 0 0-.7.3l-.3.5v1.3l.3.5.3.2.5.2c.3 0 .5 0 .7-.2l.4-.4.4.3c0 .2-.2.3-.3.4l-.5.3-.7.1Zm3-3.4v3.3h-.7v-4h.7v.7Zm1.3-.7v.7h-.4a1 1 0 0 0-.4 0l-.3.2-.2.3v.4l-.3.1.1-.6.2-.6.4-.4a1 1 0 0 1 .9 0Zm3 3.3v-5h.7v5.6h-.6v-.7Zm-2.7-1.2c0-.4 0-.7.2-.9 0-.3.1-.5.3-.6l.5-.5.6-.1.7.1.4.4.3.6.2.8v.3c0 .3 0 .6-.2.8l-.3.6c0 .2-.3.3-.4.4a1.6 1.6 0 0 1-1.3 0l-.5-.5a2 2 0 0 1-.3-.6l-.2-.8Zm.7 0v.6l.3.4.3.3.5.1.5-.1.4-.4.2-.5v-.9l-.1-.4-.3-.3a1 1 0 0 0-.3-.2 1 1 0 0 0-.4-.1 1 1 0 0 0-.5 0 1 1 0 0 0-.3.4l-.2.5v.5Zm6.3-3.7v5.6h-.7v-5.6h.7Zm-.2 3.5h-.3c0-.3 0-.5.2-.8l.3-.6a1.5 1.5 0 0 1 1.2-.5h.5l.4.3.2.5.1.6v2.6h-.7v-3.1l-.3-.2a1 1 0 0 0-.5-.1 1 1 0 0 0-.8.4 1.5 1.5 0 0 0-.3.9Zm5.3 2.2a1.7 1.7 0 0 1-1.7-1.1l-.1-.8v-.2l.1-.8.4-.7a1.7 1.7 0 0 1 2-.4l.4.5c.2.1.3.3.3.6l.1.7v.3h-3v-.5h2.3v-.6a1 1 0 0 0-.4-.4.9.9 0 0 0-.5-.1 1 1 0 0 0-.8.3l-.2.5v1.3l.2.5.4.2.5.2c.3 0 .5 0 .6-.2.2 0 .3-.2.5-.4l.4.3-.4.4-.4.3-.7.1Zm4-4v.5h-2.2v-.5h2.2Zm-1.4-1h.6v4.3h.3l.2.1a1 1 0 0 0 .3 0v.5h-.2l-.3.1a1 1 0 0 1-.5 0 .7.7 0 0 1-.3-.4l-.1-.7v-3.9Zm6.3 3.9v-.3l-.3-.2-.6-.2-.6-.2-.4-.2a.9.9 0 0 1-.4-.7l.1-.5.3-.4.5-.2.6-.1c.3 0 .6 0 .8.2.2 0 .4.2.5.4l.2.6h-.7l-.1-.3-.3-.2a1 1 0 0 0-.4-.1 1 1 0 0 0-.5 0l-.2.3a.5.5 0 0 0 0 .4v.2l.3.1.5.1.8.3.5.4.1.5a1 1 0 0 1-.4.9l-.5.2-.6.1a2 2 0 0 1-1-.2l-.5-.5-.1-.6h.6l.2.5.4.2a1.4 1.4 0 0 0 .8 0c.2 0 .3-.1.3-.2l.1-.3Zm3.3-3v.6h-2.2v-.5h2.2Zm-1.5-.9h.7v4.3h.2l.3.1a1 1 0 0 0 .3 0v.5h-.2l-.3.1a1 1 0 0 1-.5 0 .7.7 0 0 1-.3-.4l-.2-.7v-3.9Zm3.9 5a1.7 1.7 0 0 1-1.7-1.1l-.1-.8v-.2l.1-.8.4-.7a1.7 1.7 0 0 1 2-.4l.5.5.2.6.1.7v.3h-3v-.5h2.4l-.1-.6a1 1 0 0 0-.3-.4.9.9 0 0 0-.6-.1 1 1 0 0 0-.7.3l-.3.5v1.3c0 .2.2.3.3.5l.3.2.5.2c.3 0 .5 0 .6-.2.2 0 .4-.2.5-.4l.4.3-.3.4-.5.3-.7.1Zm4 0a1.7 1.7 0 0 1-1.7-1.1l-.1-.8v-.2l.1-.8c0-.3.2-.5.4-.7a1.7 1.7 0 0 1 2-.4l.4.5c.2.1.3.3.3.6l.1.7v.3h-3v-.5h2.3v-.6a1 1 0 0 0-.4-.4.9.9 0 0 0-.5-.1 1 1 0 0 0-.8.3l-.2.5v1.3l.2.5.4.2.5.2c.3 0 .5 0 .6-.2.2 0 .3-.2.5-.4l.4.3-.4.4-.4.3-.7.1Zm4.8-.8v-5h.7v5.6h-.6v-.7Zm-2.7-1.2.1-.9c.1-.3.2-.5.4-.6l.5-.5.6-.1.7.1.4.4.3.6.2.8v.3c0 .3 0 .6-.2.8l-.3.6c0 .2-.3.3-.4.4a1.6 1.6 0 0 1-1.3 0l-.5-.5a2 2 0 0 1-.4-.6v-.8Zm.7 0v.6l.3.4.3.3.5.1.5-.1.4-.4.2-.5v-.9l-.1-.4-.3-.3a1 1 0 0 0-.3-.2 1 1 0 0 0-.4-.1 1 1 0 0 0-.5 0 1 1 0 0 0-.3.4l-.2.5v.5Zm6 .9v-.3s-.1-.2-.3-.2l-.6-.2-.6-.2-.4-.2a1 1 0 0 1-.3-.3v-.9l.3-.4.5-.2.6-.1c.3 0 .6 0 .8.2.2 0 .4.2.5.4l.2.6h-.7v-.3l-.4-.2a1 1 0 0 0-.4-.1 1 1 0 0 0-.5 0l-.2.3-.1.2v.2l.2.2.2.1.5.1.8.3.5.4.1.5v.5l-.4.4-.5.2-.6.1a2 2 0 0 1-.9-.2l-.5-.5c-.2-.2-.2-.4-.2-.6h.7l.1.5.4.2a1.4 1.4 0 0 0 .9 0l.3-.2v-.3Zm-83.8 6.9v3.1h-.7v-4h.7v.9Zm-.1 1h-.4c0-.3 0-.5.2-.8l.3-.6.5-.4.7-.1h.5a1 1 0 0 1 .6.8l.1.6v2.6h-.6v-2.6l-.1-.5-.3-.2a1 1 0 0 0-.5-.1 1 1 0 0 0-.5 0l-.3.4-.2.4v.5Zm2.5-.4-.4.2v-.7l.4-.5.5-.4.7-.1h.5l.4.3.3.5v3.2h-.6v-2.6l-.1-.5-.3-.3a1.2 1.2 0 0 0-.8 0l-.3.3c-.1 0-.2.1-.2.3v.3Zm3.3.6.1-.9.4-.6.6-.4c.2-.2.4-.2.7-.2.3 0 .6 0 .8.2.2 0 .4.2.5.4l.4.6.1.8v.9l-.5.6a1.7 1.7 0 0 1-1.3.6l-.7-.1a1.7 1.7 0 0 1-1-1.1v-.8Zm.7 0v.6l.3.4c0 .2.2.3.3.3l.5.2c.2 0 .4 0 .5-.2.2 0 .3-.1.4-.3l.2-.4v-1.2l-.2-.5a1 1 0 0 0-.8-.4 1 1 0 0 0-.6 0 1 1 0 0 0-.3.4l-.2.5-.1.5Zm5.4 2a1.7 1.7 0 0 1-1.7-1.1v-1.8l.4-.7a1.7 1.7 0 0 1 2-.4l.5.5.3.6v1h-2.9v-.5h2.3l-.1-.6a1 1 0 0 0-.3-.4.9.9 0 0 0-.6-.1 1 1 0 0 0-.7.3l-.2.5-.1.6v.7l.3.5.4.2.5.2c.2 0 .4 0 .6-.2l.4-.4.4.3c0 .2-.2.3-.3.4l-.5.3-.7.1Zm3-4v4h-.6v-4h.7Zm-.6-1v-.4h.7v.6l-.3.1-.3-.1-.1-.3Zm2.5-.7v5.6h-.7v-5.6h.7Zm1.8 1.7v4h-.6v-4h.6Zm-.7-1 .1-.4h.6l.1.3v.3l-.4.1-.3-.1v-.3Zm1.8 1h.7v5l-.4.4-.6.1a1.5 1.5 0 0 1-.4 0v-.6h.5c.1 0 .2 0 .2-.2v-4.7Zm0-1v-.4h.7v.6l-.3.1-.3-.1-.1-.3Zm2.5-.7v5.6h-.7v-5.6h.7Zm2.4 1.7-1.7 1.8-1 1v-.7l.7-.8 1.2-1.3h.8Zm-.6 4-1.4-2 .3-.6 2 2.5h-.9Zm2.9 0a1.7 1.7 0 0 1-1.7-1.1l-.1-.8v-.2l.1-.8.4-.7a1.7 1.7 0 0 1 2-.4l.5.5.2.6.1.7v.3h-3v-.5h2.4l-.1-.6a1 1 0 0 0-.3-.4.9.9 0 0 0-.6-.1 1 1 0 0 0-.7.3l-.3.5v1.3c0 .2.2.3.3.5l.3.2.5.2c.3 0 .5 0 .6-.2.2 0 .4-.2.5-.4l.4.3-.3.4-.5.3-.7.1Zm3-3.4v3.3h-.7v-4h.7v.7Zm1.2-.7v.7h-.2a1 1 0 0 0-.4 0l-.3.2-.2.3-.1.4-.2.1v-.6l.3-.6.4-.4a1 1 0 0 1 .8 0Zm3.7 3.4 1.1-3.3h.7l-1.4 4h-.5l.1-.7Zm-.9-3.3 1.1 3.3.1.6h-.4l-1.5-4h.7Zm3.1 2c0-.4 0-.6.2-.9l.3-.6.6-.4c.2-.2.4-.2.7-.2.3 0 .6 0 .8.2.2 0 .4.2.5.4l.4.6.1.8v.9l-.5.6a1.7 1.7 0 0 1-1.3.6l-.7-.1a1.7 1.7 0 0 1-1-1.1v-.8Zm.7 0v.6l.3.4c0 .2.2.3.3.3l.5.2c.2 0 .4 0 .5-.2.2 0 .3-.1.4-.3l.2-.4v-1.2l-.2-.5a1 1 0 0 0-.9-.4 1 1 0 0 0-.5 0 1 1 0 0 0-.3.4l-.2.5-.1.5Zm3.6 0 .1-.9.4-.6c.1-.2.3-.3.6-.4.2-.2.4-.2.7-.2.3 0 .5 0 .8.2.2 0 .4.2.5.4l.4.6.1.8v.1l-.1.8c-.1.2-.2.5-.4.6a1.7 1.7 0 0 1-1.3.6l-.7-.1a1.7 1.7 0 0 1-1-1.1l-.1-.8Zm.7 0v.6l.3.4c0 .2.2.3.3.3l.5.2c.2 0 .4 0 .5-.2.1 0 .3-.1.3-.3l.3-.4v-1.2c0-.2-.2-.4-.3-.5a1 1 0 0 0-.8-.4 1 1 0 0 0-.8.4l-.2.5-.1.5Zm4.4-1.4v3.3h-.6v-4h.6v.7Zm1.3-.7v.7h-.4a1 1 0 0 0-.4 0l-.3.2-.2.3v.4l-.3.1.1-.6.2-.6.4-.4a1 1 0 0 1 .9 0Zm4.8 2.5v-3.8h.7v3.8c0 .3 0 .6-.2.9l-.6.5a2 2 0 0 1-.9.2c-.3 0-.6 0-.8-.2-.3 0-.5-.2-.6-.5-.2-.2-.3-.5-.3-.8h.7c0 .2 0 .4.2.5 0 .2.2.3.3.3a1.2 1.2 0 0 0 1 0c.2 0 .3-.2.4-.3l.1-.6Zm2.5-2.4v4h-.6v-4h.6Zm-.7-1 .1-.4h.6l.1.3-.1.3-.3.1-.3-.1-.1-.3Zm2.5 1.8v3.1h-.7v-4h.7v.9Zm-.1 1h-.4c0-.3 0-.5.2-.8l.3-.6.5-.4.7-.1h.5a1 1 0 0 1 .6.8l.1.6v2.6h-.6v-2.6c0-.2 0-.3-.2-.5l-.2-.2a1 1 0 0 0-.5-.1 1 1 0 0 0-.5 0l-.3.4-.2.4v.5Zm2.5-.4-.4.2v-.7l.4-.5.5-.4.6-.1h.6l.4.3.3.5v3.2h-.6v-2.6l-.1-.5-.3-.3a1.2 1.2 0 0 0-.8 0l-.3.3a1 1 0 0 0-.3.6Zm4.2-1.4v4h-.6v-4h.6Zm-.7-1 .1-.4h.6l.1.3-.1.3-.3.1-.3-.1v-.3Zm2.2-.7v1.9h-.5v-2h.5Zm3 4.6-.1-.3s-.1-.2-.3-.2l-.6-.2-.6-.2-.4-.2a.9.9 0 0 1-.4-.7l.1-.5.3-.4.5-.2.6-.1c.3 0 .6 0 .8.2.2 0 .4.2.5.4l.2.6h-.7v-.3l-.4-.2a1 1 0 0 0-.4-.1 1 1 0 0 0-.5 0l-.2.3a.5.5 0 0 0 0 .4v.2l.3.1.5.1.8.3.5.4.1.5a1 1 0 0 1-.4.9l-.5.2-.6.1a2 2 0 0 1-.9-.2l-.5-.5c-.2-.2-.2-.4-.2-.6h.7l.1.5.4.2a1.4 1.4 0 0 0 .9 0l.3-.2v-.3Zm4.6.4 1-3.3h.8l-1.5 4h-.4v-.7Zm-1-3.3 1.2 3.3v.6h-.4l-1.4-4h.7Zm5.7 3.3v-2l-.1-.5-.3-.3a1 1 0 0 0-.4 0 1 1 0 0 0-.5 0l-.3.3-.1.3h-.7l.1-.5.3-.3.5-.3.7-.1.8.1.5.5.2.7v2.3l.1.4h-.7v-.3l-.1-.3Zm.1-1.8v.5h-1.2l-.4.2-.2.2v.7s.1.2.3.2l.4.1.5-.1.4-.3.2-.4.2.3v.4a1.6 1.6 0 0 1-.8.6l-.6.1-.7-.1-.5-.5-.2-.6c0-.2 0-.4.2-.5 0-.2.2-.3.3-.4l.6-.3h1.5Zm4.1 1.7v-5h.7v5.6h-.6v-.7Zm-2.6-1.2v-.9l.4-.6.5-.5.6-.1.7.1.5.4.3.6.1.8v.3l-.1.8-.3.6-.5.4a1.6 1.6 0 0 1-1.3 0l-.5-.5a2 2 0 0 1-.3-.6l-.1-.8Zm.6 0 .1.6.2.4.3.3.5.1.5-.1.4-.4.2-.5v-.9l-.1-.4-.2-.3a1 1 0 0 0-.4-.2 1 1 0 0 0-.4-.1 1 1 0 0 0-.5 0 1 1 0 0 0-.3.4l-.2.5v.5Zm5.4 2a1.7 1.7 0 0 1-1.7-1.1l-.1-.8v-.2l.1-.8.4-.7a1.7 1.7 0 0 1 2-.4l.5.5.3.6v1h-3v-.5h2.4l-.1-.6a1 1 0 0 0-.3-.4.9.9 0 0 0-.6-.1 1 1 0 0 0-.7.3l-.3.5v1.3l.3.5.3.2.5.2c.3 0 .5 0 .7-.2l.4-.4.4.3c0 .2-.2.3-.3.4l-.5.3-.7.1Zm3-3.4v3.3h-.7v-4h.7v.7Zm1.3-.7v.7h-.4a1 1 0 0 0-.4 0l-.3.2-.2.3v.4l-.3.1.1-.6.2-.6.4-.4a1 1 0 0 1 .9 0Z" fill="#000"/><defs><linearGradient id="b" x1="93.7" y1="-32.1" x2="215.4" y2="204.1" gradientUnits="userSpaceOnUse"><stop stop-color="#fff"/><stop offset="1" stop-color="#8F8F8F"/></linearGradient><linearGradient id="c" x1="144.4" y1="193.2" x2="193" y2="193.2" gradientUnits="userSpaceOnUse"><stop stop-color="#fff"/><stop offset="1" stop-color="#8F8F8F"/></linearGradient><linearGradient id="f" x1="66.2" y1="88.5" x2="159.7" y2="88.5" gradientUnits="userSpaceOnUse"><stop stop-color="#F2F2F2"/><stop offset="1" stop-color="#E3E3E3"/></linearGradient><clipPath id="a"><path fill="#fff" transform="translate(14 10)" d="M0 0h302v192H0z"/></clipPath><clipPath id="e"><path fill="#fff" transform="translate(66 59)" d="M0 0h94v59H0z"/></clipPath><filter id="d" x="41.6" y="27.4" width="248" height="162.9" filterUnits="userSpaceOnUse" color-interpolation-filters="sRGB"><feFlood flood-opacity="0" result="BackgroundImageFix"/><feColorMatrix in="SourceAlpha" values="0 0 0 0 0 0 0 0 0 0 0 0 0 0 0 0 0 0 127 0" result="hardAlpha"/><feOffset dy="4"/><feGaussianBlur stdDeviation="4"/><feComposite in2="hardAlpha" operator="out"/><feColorMatrix values="0 0 0 0 0 0 0 0 0 0 0 0 0 0 0 0 0 0 0.15 0"/><feBlend in2="BackgroundImageFix" result="effect1_dropShadow_12_196"/><feBlend in="SourceGraphic" in2="effect1_dropShadow_12_196" result="shape"/></filter></defs></svg>