<?xml version="1.0" encoding="utf-8"?>
<svg
  class="svg"
  version="1.1"
  baseProfile="full"
  viewBox="0 0 464 464"
  xmlns="http://www.w3.org/2000/svg"
>
  <rect width="464" height="464" fill="transparent" cx="0" cy="0" />
  <defs>
    <rect id="p" width="16" height="16" />
  </defs>
  <g fill="#fff">
    <rect width="16" height="16" x="0" y="0" />
    <rect width="16" height="16" x="0" y="16" />
    <rect width="16" height="16" x="0" y="32" />
    <rect width="16" height="16" x="0" y="48" />
    <rect width="16" height="16" x="0" y="64" />
    <rect width="16" height="16" x="0" y="80" />
    <rect width="16" height="16" x="0" y="96" />
    <rect width="16" height="16" x="0" y="128" />
    <rect width="16" height="16" x="0" y="160" />
    <rect width="16" height="16" x="0" y="176" />
    <rect width="16" height="16" x="0" y="192" />
    <rect width="16" height="16" x="0" y="224" />
    <rect width="16" height="16" x="0" y="240" />
    <rect width="16" height="16" x="0" y="256" />
    <rect width="16" height="16" x="0" y="352" />
    <rect width="16" height="16" x="0" y="368" />
    <rect width="16" height="16" x="0" y="384" />
    <rect width="16" height="16" x="0" y="400" />
    <rect width="16" height="16" x="0" y="416" />
    <rect width="16" height="16" x="0" y="432" />
    <rect width="16" height="16" x="0" y="448" />
    <rect width="16" height="16" x="16" y="0" />
    <rect width="16" height="16" x="16" y="96" />
    <rect width="16" height="16" x="16" y="144" />
    <rect width="16" height="16" x="16" y="224" />
    <rect width="16" height="16" x="16" y="272" />
    <rect width="16" height="16" x="16" y="352" />
    <rect width="16" height="16" x="16" y="448" />
    <rect width="16" height="16" x="32" y="0" />
    <rect width="16" height="16" x="32" y="32" />
    <rect width="16" height="16" x="32" y="48" />
    <rect width="16" height="16" x="32" y="64" />
    <rect width="16" height="16" x="32" y="96" />
    <rect width="16" height="16" x="32" y="176" />
    <rect width="16" height="16" x="32" y="208" />
    <rect width="16" height="16" x="32" y="224" />
    <rect width="16" height="16" x="32" y="256" />
    <rect width="16" height="16" x="32" y="288" />
    <rect width="16" height="16" x="32" y="320" />
    <rect width="16" height="16" x="32" y="352" />
    <rect width="16" height="16" x="32" y="384" />
    <rect width="16" height="16" x="32" y="400" />
    <rect width="16" height="16" x="32" y="416" />
    <rect width="16" height="16" x="32" y="448" />
    <rect width="16" height="16" x="48" y="0" />
    <rect width="16" height="16" x="48" y="32" />
    <rect width="16" height="16" x="48" y="48" />
    <rect width="16" height="16" x="48" y="64" />
    <rect width="16" height="16" x="48" y="96" />
    <rect width="16" height="16" x="48" y="128" />
    <rect width="16" height="16" x="48" y="144" />
    <rect width="16" height="16" x="48" y="160" />
    <rect width="16" height="16" x="48" y="176" />
    <rect width="16" height="16" x="48" y="208" />
    <rect width="16" height="16" x="48" y="224" />
    <rect width="16" height="16" x="48" y="288" />
    <rect width="16" height="16" x="48" y="320" />
    <rect width="16" height="16" x="48" y="352" />
    <rect width="16" height="16" x="48" y="384" />
    <rect width="16" height="16" x="48" y="400" />
    <rect width="16" height="16" x="48" y="416" />
    <rect width="16" height="16" x="48" y="448" />
    <rect width="16" height="16" x="64" y="0" />
    <rect width="16" height="16" x="64" y="32" />
    <rect width="16" height="16" x="64" y="48" />
    <rect width="16" height="16" x="64" y="64" />
    <rect width="16" height="16" x="64" y="96" />
    <rect width="16" height="16" x="64" y="128" />
    <rect width="16" height="16" x="64" y="160" />
    <rect width="16" height="16" x="64" y="176" />
    <rect width="16" height="16" x="64" y="192" />
    <rect width="16" height="16" x="64" y="208" />
    <rect width="16" height="16" x="64" y="240" />
    <rect width="16" height="16" x="64" y="256" />
    <rect width="16" height="16" x="64" y="304" />
    <rect width="16" height="16" x="64" y="320" />
    <rect width="16" height="16" x="64" y="352" />
    <rect width="16" height="16" x="64" y="384" />
    <rect width="16" height="16" x="64" y="400" />
    <rect width="16" height="16" x="64" y="416" />
    <rect width="16" height="16" x="64" y="448" />
    <rect width="16" height="16" x="80" y="0" />
    <rect width="16" height="16" x="80" y="96" />
    <rect width="16" height="16" x="80" y="128" />
    <rect width="16" height="16" x="80" y="144" />
    <rect width="16" height="16" x="80" y="160" />
    <rect width="16" height="16" x="80" y="176" />
    <rect width="16" height="16" x="80" y="208" />
    <rect width="16" height="16" x="80" y="224" />
    <rect width="16" height="16" x="80" y="256" />
    <rect width="16" height="16" x="80" y="352" />
    <rect width="16" height="16" x="80" y="448" />
    <rect width="16" height="16" x="96" y="0" />
    <rect width="16" height="16" x="96" y="16" />
    <rect width="16" height="16" x="96" y="32" />
    <rect width="16" height="16" x="96" y="48" />
    <rect width="16" height="16" x="96" y="64" />
    <rect width="16" height="16" x="96" y="80" />
    <rect width="16" height="16" x="96" y="96" />
    <rect width="16" height="16" x="96" y="128" />
    <rect width="16" height="16" x="96" y="160" />
    <rect width="16" height="16" x="96" y="192" />
    <rect width="16" height="16" x="96" y="224" />
    <rect width="16" height="16" x="96" y="256" />
    <rect width="16" height="16" x="96" y="288" />
    <rect width="16" height="16" x="96" y="320" />
    <rect width="16" height="16" x="96" y="352" />
    <rect width="16" height="16" x="96" y="368" />
    <rect width="16" height="16" x="96" y="384" />
    <rect width="16" height="16" x="96" y="400" />
    <rect width="16" height="16" x="96" y="416" />
    <rect width="16" height="16" x="96" y="432" />
    <rect width="16" height="16" x="96" y="448" />
    <rect width="16" height="16" x="112" y="128" />
    <rect width="16" height="16" x="112" y="144" />
    <rect width="16" height="16" x="112" y="160" />
    <rect width="16" height="16" x="112" y="176" />
    <rect width="16" height="16" x="112" y="240" />
    <rect width="16" height="16" x="112" y="288" />
    <rect width="16" height="16" x="112" y="304" />
    <rect width="16" height="16" x="128" y="0" />
    <rect width="16" height="16" x="128" y="16" />
    <rect width="16" height="16" x="128" y="32" />
    <rect width="16" height="16" x="128" y="64" />
    <rect width="16" height="16" x="128" y="96" />
    <rect width="16" height="16" x="128" y="128" />
    <rect width="16" height="16" x="128" y="144" />
    <rect width="16" height="16" x="128" y="192" />
    <rect width="16" height="16" x="128" y="224" />
    <rect width="16" height="16" x="128" y="272" />
    <rect width="16" height="16" x="128" y="288" />
    <rect width="16" height="16" x="128" y="320" />
    <rect width="16" height="16" x="128" y="336" />
    <rect width="16" height="16" x="128" y="352" />
    <rect width="16" height="16" x="128" y="368" />
    <rect width="16" height="16" x="128" y="384" />
    <rect width="16" height="16" x="128" y="400" />
    <rect width="16" height="16" x="128" y="448" />
    <rect width="16" height="16" x="144" y="64" />
    <rect width="16" height="16" x="144" y="80" />
    <rect width="16" height="16" x="144" y="112" />
    <rect width="16" height="16" x="144" y="128" />
    <rect width="16" height="16" x="144" y="144" />
    <rect width="16" height="16" x="144" y="160" />
    <rect width="16" height="16" x="144" y="176" />
    <rect width="16" height="16" x="144" y="192" />
    <rect width="16" height="16" x="144" y="224" />
    <rect width="16" height="16" x="144" y="288" />
    <rect width="16" height="16" x="144" y="320" />
    <rect width="16" height="16" x="144" y="336" />
    <rect width="16" height="16" x="144" y="352" />
    <rect width="16" height="16" x="144" y="368" />
    <rect width="16" height="16" x="144" y="384" />
    <rect width="16" height="16" x="144" y="448" />
    <rect width="16" height="16" x="160" y="16" />
    <rect width="16" height="16" x="160" y="32" />
    <rect width="16" height="16" x="160" y="96" />
    <rect width="16" height="16" x="160" y="112" />
    <rect width="16" height="16" x="160" y="128" />
    <rect width="16" height="16" x="160" y="160" />
    <rect width="16" height="16" x="160" y="176" />
    <rect width="16" height="16" x="160" y="192" />
    <rect width="16" height="16" x="160" y="208" />
    <rect width="16" height="16" x="160" y="224" />
    <rect width="16" height="16" x="160" y="272" />
    <rect width="16" height="16" x="160" y="304" />
    <rect width="16" height="16" x="160" y="320" />
    <rect width="16" height="16" x="160" y="352" />
    <rect width="16" height="16" x="160" y="368" />
    <rect width="16" height="16" x="160" y="384" />
    <rect width="16" height="16" x="160" y="400" />
    <rect width="16" height="16" x="160" y="432" />
    <rect width="16" height="16" x="176" y="16" />
    <rect width="16" height="16" x="176" y="80" />
    <rect width="16" height="16" x="176" y="112" />
    <rect width="16" height="16" x="176" y="144" />
    <rect width="16" height="16" x="176" y="160" />
    <rect width="16" height="16" x="176" y="176" />
    <rect width="16" height="16" x="176" y="192" />
    <rect width="16" height="16" x="176" y="224" />
    <rect width="16" height="16" x="176" y="240" />
    <rect width="16" height="16" x="176" y="256" />
    <rect width="16" height="16" x="176" y="272" />
    <rect width="16" height="16" x="176" y="288" />
    <rect width="16" height="16" x="176" y="320" />
    <rect width="16" height="16" x="176" y="352" />
    <rect width="16" height="16" x="176" y="400" />
    <rect width="16" height="16" x="176" y="416" />
    <rect width="16" height="16" x="192" y="0" />
    <rect width="16" height="16" x="192" y="16" />
    <rect width="16" height="16" x="192" y="32" />
    <rect width="16" height="16" x="192" y="48" />
    <rect width="16" height="16" x="192" y="80" />
    <rect width="16" height="16" x="192" y="96" />
    <rect width="16" height="16" x="192" y="112" />
    <rect width="16" height="16" x="192" y="160" />
    <rect width="16" height="16" x="192" y="176" />
    <rect width="16" height="16" x="192" y="192" />
    <rect width="16" height="16" x="192" y="208" />
    <rect width="16" height="16" x="192" y="240" />
    <rect width="16" height="16" x="192" y="272" />
    <rect width="16" height="16" x="192" y="288" />
    <rect width="16" height="16" x="192" y="320" />
    <rect width="16" height="16" x="192" y="336" />
    <rect width="16" height="16" x="192" y="352" />
    <rect width="16" height="16" x="192" y="368" />
    <rect width="16" height="16" x="192" y="384" />
    <rect width="16" height="16" x="192" y="400" />
    <rect width="16" height="16" x="208" y="112" />
    <rect width="16" height="16" x="208" y="128" />
    <rect width="16" height="16" x="208" y="144" />
    <rect width="16" height="16" x="208" y="160" />
    <rect width="16" height="16" x="208" y="176" />
    <rect width="16" height="16" x="208" y="192" />
    <rect width="16" height="16" x="208" y="208" />
    <rect width="16" height="16" x="208" y="224" />
    <rect width="16" height="16" x="208" y="272" />
    <rect width="16" height="16" x="208" y="320" />
    <rect width="16" height="16" x="208" y="384" />
    <rect width="16" height="16" x="208" y="432" />
    <rect width="16" height="16" x="208" y="448" />
    <rect width="16" height="16" x="224" y="64" />
    <rect width="16" height="16" x="224" y="96" />
    <rect width="16" height="16" x="224" y="208" />
    <rect width="16" height="16" x="224" y="256" />
    <rect width="16" height="16" x="224" y="272" />
    <rect width="16" height="16" x="224" y="304" />
    <rect width="16" height="16" x="224" y="320" />
    <rect width="16" height="16" x="224" y="336" />
    <rect width="16" height="16" x="224" y="352" />
    <rect width="16" height="16" x="224" y="368" />
    <rect width="16" height="16" x="224" y="384" />
    <rect width="16" height="16" x="224" y="448" />
    <rect width="16" height="16" x="240" y="0" />
    <rect width="16" height="16" x="240" y="32" />
    <rect width="16" height="16" x="240" y="64" />
    <rect width="16" height="16" x="240" y="80" />
    <rect width="16" height="16" x="240" y="112" />
    <rect width="16" height="16" x="240" y="160" />
    <rect width="16" height="16" x="240" y="192" />
    <rect width="16" height="16" x="240" y="240" />
    <rect width="16" height="16" x="240" y="288" />
    <rect width="16" height="16" x="240" y="320" />
    <rect width="16" height="16" x="240" y="368" />
    <rect width="16" height="16" x="240" y="416" />
    <rect width="16" height="16" x="240" y="448" />
    <rect width="16" height="16" x="256" y="0" />
    <rect width="16" height="16" x="256" y="16" />
    <rect width="16" height="16" x="256" y="32" />
    <rect width="16" height="16" x="256" y="48" />
    <rect width="16" height="16" x="256" y="64" />
    <rect width="16" height="16" x="256" y="80" />
    <rect width="16" height="16" x="256" y="96" />
    <rect width="16" height="16" x="256" y="112" />
    <rect width="16" height="16" x="256" y="144" />
    <rect width="16" height="16" x="256" y="160" />
    <rect width="16" height="16" x="256" y="176" />
    <rect width="16" height="16" x="256" y="192" />
    <rect width="16" height="16" x="256" y="208" />
    <rect width="16" height="16" x="256" y="224" />
    <rect width="16" height="16" x="256" y="256" />
    <rect width="16" height="16" x="256" y="272" />
    <rect width="16" height="16" x="256" y="320" />
    <rect width="16" height="16" x="256" y="432" />
    <rect width="16" height="16" x="272" y="0" />
    <rect width="16" height="16" x="272" y="48" />
    <rect width="16" height="16" x="272" y="128" />
    <rect width="16" height="16" x="272" y="144" />
    <rect width="16" height="16" x="272" y="160" />
    <rect width="16" height="16" x="272" y="176" />
    <rect width="16" height="16" x="272" y="288" />
    <rect width="16" height="16" x="272" y="320" />
    <rect width="16" height="16" x="272" y="336" />
    <rect width="16" height="16" x="272" y="352" />
    <rect width="16" height="16" x="272" y="368" />
    <rect width="16" height="16" x="272" y="384" />
    <rect width="16" height="16" x="272" y="400" />
    <rect width="16" height="16" x="272" y="416" />
    <rect width="16" height="16" x="272" y="432" />
    <rect width="16" height="16" x="272" y="448" />
    <rect width="16" height="16" x="288" y="16" />
    <rect width="16" height="16" x="288" y="32" />
    <rect width="16" height="16" x="288" y="48" />
    <rect width="16" height="16" x="288" y="64" />
    <rect width="16" height="16" x="288" y="96" />
    <rect width="16" height="16" x="288" y="112" />
    <rect width="16" height="16" x="288" y="144" />
    <rect width="16" height="16" x="288" y="160" />
    <rect width="16" height="16" x="288" y="176" />
    <rect width="16" height="16" x="288" y="240" />
    <rect width="16" height="16" x="288" y="272" />
    <rect width="16" height="16" x="288" y="336" />
    <rect width="16" height="16" x="288" y="368" />
    <rect width="16" height="16" x="288" y="384" />
    <rect width="16" height="16" x="288" y="400" />
    <rect width="16" height="16" x="288" y="432" />
    <rect width="16" height="16" x="304" y="16" />
    <rect width="16" height="16" x="304" y="32" />
    <rect width="16" height="16" x="304" y="64" />
    <rect width="16" height="16" x="304" y="112" />
    <rect width="16" height="16" x="304" y="128" />
    <rect width="16" height="16" x="304" y="144" />
    <rect width="16" height="16" x="304" y="176" />
    <rect width="16" height="16" x="304" y="224" />
    <rect width="16" height="16" x="304" y="240" />
    <rect width="16" height="16" x="304" y="256" />
    <rect width="16" height="16" x="304" y="272" />
    <rect width="16" height="16" x="304" y="288" />
    <rect width="16" height="16" x="304" y="320" />
    <rect width="16" height="16" x="304" y="336" />
    <rect width="16" height="16" x="304" y="352" />
    <rect width="16" height="16" x="304" y="368" />
    <rect width="16" height="16" x="304" y="384" />
    <rect width="16" height="16" x="304" y="400" />
    <rect width="16" height="16" x="304" y="416" />
    <rect width="16" height="16" x="304" y="432" />
    <rect width="16" height="16" x="304" y="448" />
    <rect width="16" height="16" x="320" y="16" />
    <rect width="16" height="16" x="320" y="80" />
    <rect width="16" height="16" x="320" y="96" />
    <rect width="16" height="16" x="320" y="112" />
    <rect width="16" height="16" x="320" y="176" />
    <rect width="16" height="16" x="320" y="192" />
    <rect width="16" height="16" x="320" y="208" />
    <rect width="16" height="16" x="320" y="224" />
    <rect width="16" height="16" x="320" y="256" />
    <rect width="16" height="16" x="320" y="272" />
    <rect width="16" height="16" x="320" y="288" />
    <rect width="16" height="16" x="320" y="304" />
    <rect width="16" height="16" x="320" y="320" />
    <rect width="16" height="16" x="320" y="336" />
    <rect width="16" height="16" x="320" y="352" />
    <rect width="16" height="16" x="320" y="368" />
    <rect width="16" height="16" x="320" y="384" />
    <rect width="16" height="16" x="320" y="400" />
    <rect width="16" height="16" x="320" y="448" />
    <rect width="16" height="16" x="336" y="128" />
    <rect width="16" height="16" x="336" y="160" />
    <rect width="16" height="16" x="336" y="272" />
    <rect width="16" height="16" x="336" y="288" />
    <rect width="16" height="16" x="336" y="304" />
    <rect width="16" height="16" x="336" y="320" />
    <rect width="16" height="16" x="336" y="384" />
    <rect width="16" height="16" x="336" y="416" />
    <rect width="16" height="16" x="336" y="432" />
    <rect width="16" height="16" x="336" y="448" />
    <rect width="16" height="16" x="352" y="0" />
    <rect width="16" height="16" x="352" y="16" />
    <rect width="16" height="16" x="352" y="32" />
    <rect width="16" height="16" x="352" y="48" />
    <rect width="16" height="16" x="352" y="64" />
    <rect width="16" height="16" x="352" y="80" />
    <rect width="16" height="16" x="352" y="96" />
    <rect width="16" height="16" x="352" y="192" />
    <rect width="16" height="16" x="352" y="208" />
    <rect width="16" height="16" x="352" y="240" />
    <rect width="16" height="16" x="352" y="320" />
    <rect width="16" height="16" x="352" y="352" />
    <rect width="16" height="16" x="352" y="384" />
    <rect width="16" height="16" x="352" y="448" />
    <rect width="16" height="16" x="368" y="0" />
    <rect width="16" height="16" x="368" y="96" />
    <rect width="16" height="16" x="368" y="144" />
    <rect width="16" height="16" x="368" y="176" />
    <rect width="16" height="16" x="368" y="192" />
    <rect width="16" height="16" x="368" y="208" />
    <rect width="16" height="16" x="368" y="224" />
    <rect width="16" height="16" x="368" y="256" />
    <rect width="16" height="16" x="368" y="304" />
    <rect width="16" height="16" x="368" y="320" />
    <rect width="16" height="16" x="368" y="384" />
    <rect width="16" height="16" x="368" y="416" />
    <rect width="16" height="16" x="384" y="0" />
    <rect width="16" height="16" x="384" y="32" />
    <rect width="16" height="16" x="384" y="48" />
    <rect width="16" height="16" x="384" y="64" />
    <rect width="16" height="16" x="384" y="96" />
    <rect width="16" height="16" x="384" y="128" />
    <rect width="16" height="16" x="384" y="144" />
    <rect width="16" height="16" x="384" y="160" />
    <rect width="16" height="16" x="384" y="176" />
    <rect width="16" height="16" x="384" y="208" />
    <rect width="16" height="16" x="384" y="240" />
    <rect width="16" height="16" x="384" y="272" />
    <rect width="16" height="16" x="384" y="320" />
    <rect width="16" height="16" x="384" y="336" />
    <rect width="16" height="16" x="384" y="352" />
    <rect width="16" height="16" x="384" y="368" />
    <rect width="16" height="16" x="384" y="384" />
    <rect width="16" height="16" x="384" y="416" />
    <rect width="16" height="16" x="384" y="448" />
    <rect width="16" height="16" x="400" y="0" />
    <rect width="16" height="16" x="400" y="32" />
    <rect width="16" height="16" x="400" y="48" />
    <rect width="16" height="16" x="400" y="64" />
    <rect width="16" height="16" x="400" y="96" />
    <rect width="16" height="16" x="400" y="176" />
    <rect width="16" height="16" x="400" y="208" />
    <rect width="16" height="16" x="400" y="256" />
    <rect width="16" height="16" x="400" y="288" />
    <rect width="16" height="16" x="400" y="304" />
    <rect width="16" height="16" x="400" y="320" />
    <rect width="16" height="16" x="400" y="336" />
    <rect width="16" height="16" x="400" y="352" />
    <rect width="16" height="16" x="400" y="384" />
    <rect width="16" height="16" x="400" y="432" />
    <rect width="16" height="16" x="400" y="448" />
    <rect width="16" height="16" x="416" y="0" />
    <rect width="16" height="16" x="416" y="32" />
    <rect width="16" height="16" x="416" y="48" />
    <rect width="16" height="16" x="416" y="64" />
    <rect width="16" height="16" x="416" y="96" />
    <rect width="16" height="16" x="416" y="128" />
    <rect width="16" height="16" x="416" y="144" />
    <rect width="16" height="16" x="416" y="160" />
    <rect width="16" height="16" x="416" y="208" />
    <rect width="16" height="16" x="416" y="224" />
    <rect width="16" height="16" x="416" y="240" />
    <rect width="16" height="16" x="416" y="272" />
    <rect width="16" height="16" x="416" y="304" />
    <rect width="16" height="16" x="416" y="320" />
    <rect width="16" height="16" x="416" y="416" />
    <rect width="16" height="16" x="416" y="432" />
    <rect width="16" height="16" x="432" y="0" />
    <rect width="16" height="16" x="432" y="96" />
    <rect width="16" height="16" x="432" y="128" />
    <rect width="16" height="16" x="432" y="144" />
    <rect width="16" height="16" x="432" y="208" />
    <rect width="16" height="16" x="432" y="272" />
    <rect width="16" height="16" x="432" y="320" />
    <rect width="16" height="16" x="432" y="400" />
    <rect width="16" height="16" x="432" y="416" />
    <rect width="16" height="16" x="448" y="0" />
    <rect width="16" height="16" x="448" y="16" />
    <rect width="16" height="16" x="448" y="32" />
    <rect width="16" height="16" x="448" y="48" />
    <rect width="16" height="16" x="448" y="64" />
    <rect width="16" height="16" x="448" y="80" />
    <rect width="16" height="16" x="448" y="96" />
    <rect width="16" height="16" x="448" y="128" />
    <rect width="16" height="16" x="448" y="176" />
    <rect width="16" height="16" x="448" y="192" />
    <rect width="16" height="16" x="448" y="208" />
    <rect width="16" height="16" x="448" y="224" />
    <rect width="16" height="16" x="448" y="240" />
    <rect width="16" height="16" x="448" y="288" />
    <rect width="16" height="16" x="448" y="368" />
    <rect width="16" height="16" x="448" y="416" />
    <rect width="16" height="16" x="448" y="432" />
  </g>
</svg>
