<svg width="1316" height="594" viewBox="0 0 1316 594" fill="none" xmlns="http://www.w3.org/2000/svg">
<rect width="1316" height="594" fill="#424242"/>
<path d="M261 366.125V375.938H211.75V366.125H261ZM213.625 327V418H201.562V327H213.625ZM271.5 327V418H259.5V327H271.5ZM288.125 384.938V383.5C288.125 378.625 288.833 374.104 290.25 369.938C291.667 365.729 293.708 362.083 296.375 359C299.042 355.875 302.271 353.458 306.062 351.75C309.854 350 314.104 349.125 318.812 349.125C323.562 349.125 327.833 350 331.625 351.75C335.458 353.458 338.708 355.875 341.375 359C344.083 362.083 346.146 365.729 347.562 369.938C348.979 374.104 349.688 378.625 349.688 383.5V384.938C349.688 389.812 348.979 394.333 347.562 398.5C346.146 402.667 344.083 406.312 341.375 409.438C338.708 412.521 335.479 414.938 331.688 416.688C327.938 418.396 323.688 419.25 318.938 419.25C314.188 419.25 309.917 418.396 306.125 416.688C302.333 414.938 299.083 412.521 296.375 409.438C293.708 406.312 291.667 402.667 290.25 398.5C288.833 394.333 288.125 389.812 288.125 384.938ZM299.688 383.5V384.938C299.688 388.312 300.083 391.5 300.875 394.5C301.667 397.458 302.854 400.083 304.438 402.375C306.062 404.667 308.083 406.479 310.5 407.812C312.917 409.104 315.729 409.75 318.938 409.75C322.104 409.75 324.875 409.104 327.25 407.812C329.667 406.479 331.667 404.667 333.25 402.375C334.833 400.083 336.021 397.458 336.812 394.5C337.646 391.5 338.062 388.312 338.062 384.938V383.5C338.062 380.167 337.646 377.021 336.812 374.062C336.021 371.062 334.812 368.417 333.188 366.125C331.604 363.792 329.604 361.958 327.188 360.625C324.812 359.292 322.021 358.625 318.812 358.625C315.646 358.625 312.854 359.292 310.438 360.625C308.062 361.958 306.062 363.792 304.438 366.125C302.854 368.417 301.667 371.062 300.875 374.062C300.083 377.021 299.688 380.167 299.688 383.5ZM381.312 406L398.688 350.375H406.312L404.812 361.438L387.125 418H379.688L381.312 406ZM369.625 350.375L384.438 406.625L385.5 418H377.688L358.062 350.375H369.625ZM422.938 406.188L437.062 350.375H448.562L428.938 418H421.188L422.938 406.188ZM408 350.375L425 405.062L426.938 418H419.562L401.375 361.312L399.875 350.375H408ZM520.5 350.375V359.25H483.938V350.375H520.5ZM496.312 333.938H507.875V401.25C507.875 403.542 508.229 405.271 508.938 406.438C509.646 407.604 510.562 408.375 511.688 408.75C512.812 409.125 514.021 409.312 515.312 409.312C516.271 409.312 517.271 409.229 518.312 409.062C519.396 408.854 520.208 408.688 520.75 408.562L520.812 418C519.896 418.292 518.688 418.562 517.188 418.812C515.729 419.104 513.958 419.25 511.875 419.25C509.042 419.25 506.438 418.688 504.062 417.562C501.688 416.438 499.792 414.562 498.375 411.938C497 409.271 496.312 405.688 496.312 401.188V333.938ZM529.75 384.938V383.5C529.75 378.625 530.458 374.104 531.875 369.938C533.292 365.729 535.333 362.083 538 359C540.667 355.875 543.896 353.458 547.688 351.75C551.479 350 555.729 349.125 560.438 349.125C565.188 349.125 569.458 350 573.25 351.75C577.083 353.458 580.333 355.875 583 359C585.708 362.083 587.771 365.729 589.188 369.938C590.604 374.104 591.312 378.625 591.312 383.5V384.938C591.312 389.812 590.604 394.333 589.188 398.5C587.771 402.667 585.708 406.312 583 409.438C580.333 412.521 577.104 414.938 573.312 416.688C569.562 418.396 565.312 419.25 560.562 419.25C555.812 419.25 551.542 418.396 547.75 416.688C543.958 414.938 540.708 412.521 538 409.438C535.333 406.312 533.292 402.667 531.875 398.5C530.458 394.333 529.75 389.812 529.75 384.938ZM541.312 383.5V384.938C541.312 388.312 541.708 391.5 542.5 394.5C543.292 397.458 544.479 400.083 546.062 402.375C547.688 404.667 549.708 406.479 552.125 407.812C554.542 409.104 557.354 409.75 560.562 409.75C563.729 409.75 566.5 409.104 568.875 407.812C571.292 406.479 573.292 404.667 574.875 402.375C576.458 400.083 577.646 397.458 578.438 394.5C579.271 391.5 579.688 388.312 579.688 384.938V383.5C579.688 380.167 579.271 377.021 578.438 374.062C577.646 371.062 576.438 368.417 574.812 366.125C573.229 363.792 571.229 361.958 568.812 360.625C566.438 359.292 563.646 358.625 560.438 358.625C557.271 358.625 554.479 359.292 552.062 360.625C549.688 361.958 547.688 363.792 546.062 366.125C544.479 368.417 543.292 371.062 542.5 374.062C541.708 377.021 541.312 380.167 541.312 383.5ZM668.688 404.188L695.5 327H708.562L674.875 418H665.562L668.688 404.188ZM643.625 327L670.188 404.188L673.5 418H664.188L630.562 327H643.625ZM713.125 384.938V383.5C713.125 378.625 713.833 374.104 715.25 369.938C716.667 365.729 718.708 362.083 721.375 359C724.042 355.875 727.271 353.458 731.062 351.75C734.854 350 739.104 349.125 743.812 349.125C748.562 349.125 752.833 350 756.625 351.75C760.458 353.458 763.708 355.875 766.375 359C769.083 362.083 771.146 365.729 772.562 369.938C773.979 374.104 774.688 378.625 774.688 383.5V384.938C774.688 389.812 773.979 394.333 772.562 398.5C771.146 402.667 769.083 406.312 766.375 409.438C763.708 412.521 760.479 414.938 756.688 416.688C752.938 418.396 748.688 419.25 743.938 419.25C739.188 419.25 734.917 418.396 731.125 416.688C727.333 414.938 724.083 412.521 721.375 409.438C718.708 406.312 716.667 402.667 715.25 398.5C713.833 394.333 713.125 389.812 713.125 384.938ZM724.688 383.5V384.938C724.688 388.312 725.083 391.5 725.875 394.5C726.667 397.458 727.854 400.083 729.438 402.375C731.062 404.667 733.083 406.479 735.5 407.812C737.917 409.104 740.729 409.75 743.938 409.75C747.104 409.75 749.875 409.104 752.25 407.812C754.667 406.479 756.667 404.667 758.25 402.375C759.833 400.083 761.021 397.458 761.812 394.5C762.646 391.5 763.062 388.312 763.062 384.938V383.5C763.062 380.167 762.646 377.021 761.812 374.062C761.021 371.062 759.812 368.417 758.188 366.125C756.604 363.792 754.604 361.958 752.188 360.625C749.812 359.292 747.021 358.625 743.812 358.625C740.646 358.625 737.854 359.292 735.438 360.625C733.062 361.958 731.062 363.792 729.438 366.125C727.854 368.417 726.667 371.062 725.875 374.062C725.083 377.021 724.688 380.167 724.688 383.5ZM816.25 409.75C819 409.75 821.542 409.188 823.875 408.062C826.208 406.938 828.125 405.396 829.625 403.438C831.125 401.438 831.979 399.167 832.188 396.625H843.188C842.979 400.625 841.625 404.354 839.125 407.812C836.667 411.229 833.438 414 829.438 416.125C825.438 418.208 821.042 419.25 816.25 419.25C811.167 419.25 806.729 418.354 802.938 416.562C799.188 414.771 796.062 412.312 793.562 409.188C791.104 406.062 789.25 402.479 788 398.438C786.792 394.354 786.188 390.042 786.188 385.5V382.875C786.188 378.333 786.792 374.042 788 370C789.25 365.917 791.104 362.312 793.562 359.188C796.062 356.062 799.188 353.604 802.938 351.812C806.729 350.021 811.167 349.125 816.25 349.125C821.542 349.125 826.167 350.208 830.125 352.375C834.083 354.5 837.188 357.417 839.438 361.125C841.729 364.792 842.979 368.958 843.188 373.625H832.188C831.979 370.833 831.188 368.312 829.812 366.062C828.479 363.812 826.646 362.021 824.312 360.688C822.021 359.312 819.333 358.625 816.25 358.625C812.708 358.625 809.729 359.333 807.312 360.75C804.938 362.125 803.042 364 801.625 366.375C800.25 368.708 799.25 371.312 798.625 374.188C798.042 377.021 797.75 379.917 797.75 382.875V385.5C797.75 388.458 798.042 391.375 798.625 394.25C799.208 397.125 800.188 399.729 801.562 402.062C802.979 404.396 804.875 406.271 807.25 407.688C809.667 409.062 812.667 409.75 816.25 409.75ZM896.062 406.438V371.625C896.062 368.958 895.521 366.646 894.438 364.688C893.396 362.688 891.812 361.146 889.688 360.062C887.562 358.979 884.938 358.438 881.812 358.438C878.896 358.438 876.333 358.938 874.125 359.938C871.958 360.938 870.25 362.25 869 363.875C867.792 365.5 867.188 367.25 867.188 369.125H855.625C855.625 366.708 856.25 364.312 857.5 361.938C858.75 359.562 860.542 357.417 862.875 355.5C865.25 353.542 868.083 352 871.375 350.875C874.708 349.708 878.417 349.125 882.5 349.125C887.417 349.125 891.75 349.958 895.5 351.625C899.292 353.292 902.25 355.812 904.375 359.188C906.542 362.521 907.625 366.708 907.625 371.75V403.25C907.625 405.5 907.812 407.896 908.188 410.438C908.604 412.979 909.208 415.167 910 417V418H897.938C897.354 416.667 896.896 414.896 896.562 412.688C896.229 410.438 896.062 408.354 896.062 406.438ZM898.062 377L898.188 385.125H886.5C883.208 385.125 880.271 385.396 877.688 385.938C875.104 386.438 872.938 387.208 871.188 388.25C869.438 389.292 868.104 390.604 867.188 392.188C866.271 393.729 865.812 395.542 865.812 397.625C865.812 399.75 866.292 401.688 867.25 403.438C868.208 405.188 869.646 406.583 871.562 407.625C873.521 408.625 875.917 409.125 878.75 409.125C882.292 409.125 885.417 408.375 888.125 406.875C890.833 405.375 892.979 403.542 894.562 401.375C896.188 399.208 897.062 397.104 897.188 395.062L902.125 400.625C901.833 402.375 901.042 404.312 899.75 406.438C898.458 408.562 896.729 410.604 894.562 412.562C892.438 414.479 889.896 416.083 886.938 417.375C884.021 418.625 880.729 419.25 877.062 419.25C872.479 419.25 868.458 418.354 865 416.562C861.583 414.771 858.917 412.375 857 409.375C855.125 406.333 854.188 402.938 854.188 399.188C854.188 395.562 854.896 392.375 856.312 389.625C857.729 386.833 859.771 384.521 862.438 382.688C865.104 380.812 868.312 379.396 872.062 378.438C875.812 377.479 880 377 884.625 377H898.062ZM925.75 322H937.375V404.875L936.375 418H925.75V322ZM983.062 383.625V384.938C983.062 389.854 982.479 394.417 981.312 398.625C980.146 402.792 978.438 406.417 976.188 409.5C973.938 412.583 971.188 414.979 967.938 416.688C964.688 418.396 960.958 419.25 956.75 419.25C952.458 419.25 948.688 418.521 945.438 417.062C942.229 415.562 939.521 413.417 937.312 410.625C935.104 407.833 933.333 404.458 932 400.5C930.708 396.542 929.812 392.083 929.312 387.125V381.375C929.812 376.375 930.708 371.896 932 367.938C933.333 363.979 935.104 360.604 937.312 357.812C939.521 354.979 942.229 352.833 945.438 351.375C948.646 349.875 952.375 349.125 956.625 349.125C960.875 349.125 964.646 349.958 967.938 351.625C971.229 353.25 973.979 355.583 976.188 358.625C978.438 361.667 980.146 365.312 981.312 369.562C982.479 373.771 983.062 378.458 983.062 383.625ZM971.438 384.938V383.625C971.438 380.25 971.125 377.083 970.5 374.125C969.875 371.125 968.875 368.5 967.5 366.25C966.125 363.958 964.312 362.167 962.062 360.875C959.812 359.542 957.042 358.875 953.75 358.875C950.833 358.875 948.292 359.375 946.125 360.375C944 361.375 942.188 362.729 940.688 364.438C939.188 366.104 937.958 368.021 937 370.188C936.083 372.312 935.396 374.521 934.938 376.812V391.875C935.604 394.792 936.688 397.604 938.188 400.312C939.729 402.979 941.771 405.167 944.312 406.875C946.896 408.583 950.083 409.438 953.875 409.438C957 409.438 959.667 408.812 961.875 407.562C964.125 406.271 965.938 404.5 967.312 402.25C968.729 400 969.771 397.396 970.438 394.438C971.104 391.479 971.438 388.312 971.438 384.938ZM1010.25 322V418H998.625V322H1010.25ZM1047.81 411L1066.62 350.375H1079L1051.88 428.438C1051.25 430.104 1050.42 431.896 1049.38 433.812C1048.38 435.771 1047.08 437.625 1045.5 439.375C1043.92 441.125 1042 442.542 1039.75 443.625C1037.54 444.75 1034.9 445.312 1031.81 445.312C1030.9 445.312 1029.73 445.188 1028.31 444.938C1026.9 444.688 1025.9 444.479 1025.31 444.312L1025.25 434.938C1025.58 434.979 1026.1 435.021 1026.81 435.062C1027.56 435.146 1028.08 435.188 1028.38 435.188C1031 435.188 1033.23 434.833 1035.06 434.125C1036.9 433.458 1038.44 432.312 1039.69 430.688C1040.98 429.104 1042.08 426.917 1043 424.125L1047.81 411ZM1034 350.375L1051.56 402.875L1054.56 415.062L1046.25 419.312L1021.38 350.375H1034Z" fill="#BABABA"/>
<g style="mix-blend-mode:color-dodge">
<rect x="179" y="315" width="914" height="140" fill="#28A5FF" fill-opacity="0.68"/>
</g>
<path d="M1110.75 446.6C1110.75 448.934 1111.67 451.172 1113.31 452.823C1114.95 454.473 1117.18 455.4 1119.5 455.4H1137V473H1115.12C1110.31 473 1102 469.04 1102 464.2C1102 469.04 1093.69 473 1088.88 473H1067V455.4H1084.5C1086.82 455.4 1089.05 454.473 1090.69 452.823C1092.33 451.172 1093.25 448.934 1093.25 446.6V323.4C1093.25 321.066 1092.33 318.828 1090.69 317.177C1089.05 315.527 1086.82 314.6 1084.5 314.6H1067V297H1088.88C1093.69 297 1102 300.96 1102 305.8C1102 300.96 1110.31 297 1115.12 297H1137V314.6H1119.5C1117.18 314.6 1114.95 315.527 1113.31 317.177C1111.67 318.828 1110.75 321.066 1110.75 323.4V446.6Z" fill="#252525"/>
<path d="M607.083 297.437V169.562L692.333 233.5M635.5 91.4165C616.841 91.4165 598.365 95.0916 581.127 102.232C563.889 109.372 548.225 119.838 535.032 133.032C508.386 159.678 493.417 195.817 493.417 233.5C493.417 271.183 508.386 307.322 535.032 333.968C548.225 347.162 563.889 357.627 581.127 364.768C598.365 371.908 616.841 375.583 635.5 375.583C673.183 375.583 709.322 360.614 735.968 333.968C762.614 307.322 777.583 271.183 777.583 233.5C777.583 214.841 773.908 196.365 766.768 179.127C759.627 161.889 749.162 146.225 735.968 133.032C722.774 119.838 707.111 109.372 689.873 102.232C672.634 95.0916 654.158 91.4165 635.5 91.4165Z" fill="#BABABA" fill-opacity="0.64"/>
</svg>
