<svg width="4704" height="3555" viewBox="0 0 4704 3555" fill="none" xmlns="http://www.w3.org/2000/svg">
<path d="M4137 542.5C4107 385.3 3927.17 263 3841 221.5C4028.5 439 3989 608.5 4066 803.5C3998.1 699.277 3953.92 648.345 3848.25 590.5C3750.39 518.15 3702.28 471.861 3630.5 377.5C3619.5 656 3975 774 4148 1017.5C4156.84 924.667 4167 699.7 4137 542.5Z" fill="white" stroke="black"/>
<path d="M4353.52 1078.51C4383.9 822.5 4290.01 594 4185.51 511C4263.46 769.038 4154.09 1090.28 4207.03 1305.9C4173.76 1186.04 4172.78 1108.05 4089.51 1021C4018.05 922.479 3868.95 872.128 3829.01 760.5C3842 1111 4089.5 1115 4220.6 1534.67C4257.05 1448.84 4334.66 1237.44 4353.52 1078.51Z" fill="white" stroke="black"/>
<path d="M4393.5 1713.5C4495.89 1476.89 4483.37 1187.94 4407 1078.5C4407.84 1348.05 4179.52 1660.26 4168.53 1882.01C4170.96 1757.64 4223.41 1660.74 4168.53 1553.5C4128.27 1438.65 3972.82 1301.89 3966.5 1183.5C3878.63 1523.05 4110.56 1665.46 4116.05 2105.09C4175.54 2033.28 4329.94 1860.37 4393.5 1713.5Z" fill="white" stroke="black"/>
<path d="M4208.5 2333C4449.91 2146.63 4509.24 1839.44 4473 1711C4385.36 1965.91 4078.5 2186 3971.5 2381C4020 2231 4026.57 2242.5 4026.57 2096.92C4026.57 1927.41 3983.5 1780.5 3995 1664C3800.6 1955.93 3935.07 2183.67 3796.03 2600.77C3875.79 2552.45 4081.82 2430.8 4208.5 2333Z" fill="white" stroke="black"/>
<path d="M3842 2851C4130.09 2750.91 4313.59 2437.8 4320 2304.5C4155.96 2518.4 3779.51 2647.64 3616.14 2798.58C3709.75 2671.73 3712.32 2684.72 3758.54 2546.68C3812.36 2385.93 3790.61 2214.82 3838.5 2108C3561.47 2323.11 3644.24 2599.89 3379.97 2951.27C3489 2951.27 3690.83 2903.52 3842 2851Z" fill="white" stroke="black"/>
<path d="M3269.99 3179.95C3573.96 3204.84 3859 3121.5 3993 2829.5C3799.5 3070.5 3295.03 2968.68 3084.59 3040.71C3269.99 2977.25 3255.93 3010.59 3354 2903C3468.2 2777.72 3455.02 2642.85 3542 2564.5C3240.5 2721 3332 2851 2806.85 3084.92C2906.59 3128.99 3110.49 3166.89 3269.99 3179.95Z" fill="white" stroke="black"/>
<path d="M3782 228C3717 158 3591.5 75.5 3413 27C3548.5 129 3617 273 3669 329C3721 385 3822.5 500 3941.5 572C3902.62 439.726 3856.5 301 3782 228Z" fill="white"/>
<path d="M566.667 515.5C596.667 358.3 776.5 236 862.667 194.5C675.168 412 714.668 581.5 637.667 776.5C705.572 672.277 749.747 621.345 855.417 563.5C953.284 491.15 1001.39 444.861 1073.17 350.5C1084.17 629 728.668 747 555.667 990.5C546.834 897.667 536.667 672.7 566.667 515.5Z" fill="white" stroke="black"/>
<path d="M350.15 1051.51C319.767 795.5 413.661 567 518.161 484C440.206 742.038 549.58 1063.28 496.636 1278.9C529.906 1159.04 530.886 1081.05 614.161 994C685.618 895.479 834.724 845.128 874.661 733.5C861.668 1084 614.168 1088 483.071 1507.67C446.623 1421.84 369.01 1210.44 350.15 1051.51Z" fill="white" stroke="black"/>
<path d="M310.168 1686.5C207.776 1449.89 220.298 1160.94 296.668 1051.5C295.833 1321.05 524.148 1633.26 535.136 1855.01C532.706 1730.64 480.261 1633.74 535.136 1526.5C575.403 1411.65 730.853 1274.89 737.168 1156.5C825.042 1496.05 593.109 1638.46 587.62 2078.09C528.128 2006.28 373.728 1833.37 310.168 1686.5Z" fill="white" stroke="black"/>
<path d="M495.168 2306C253.759 2119.63 194.427 1812.44 230.668 1684C318.31 1938.91 625.168 2159 732.168 2354C683.668 2204 677.104 2215.5 677.104 2069.92C677.104 1900.41 720.168 1753.5 708.668 1637C903.074 1928.93 768.598 2156.67 907.641 2573.77C827.883 2525.45 621.846 2403.8 495.168 2306Z" fill="white" stroke="black"/>
<path d="M861.668 2824C573.578 2723.91 390.079 2410.8 383.668 2277.5C547.707 2491.4 924.16 2620.64 1087.53 2771.58C993.92 2644.73 991.347 2657.72 945.129 2519.68C891.309 2358.93 913.06 2187.82 865.168 2081C1142.2 2296.11 1059.43 2572.89 1323.7 2924.27C1214.67 2924.27 1012.84 2876.52 861.668 2824Z" fill="white" stroke="black"/>
<path d="M1433.67 3152.95C1129.71 3177.84 844.668 3094.5 710.668 2802.5C904.169 3043.5 1408.64 2941.68 1619.08 3013.71C1433.67 2950.25 1447.74 2983.59 1349.67 2876C1235.47 2750.72 1248.65 2615.85 1161.67 2537.5C1463.17 2694 1371.67 2824 1896.82 3057.92C1797.08 3101.99 1593.18 3139.89 1433.67 3152.95Z" fill="white" stroke="black"/>
<path d="M921.668 201C986.668 131 1112.17 48.5 1290.67 0C1155.17 102 1086.67 246 1034.67 302C982.668 358 881.168 473 762.168 545C801.046 412.726 847.168 274 921.668 201Z" fill="white"/>
<path d="M1890 3553.5L1802 3472C1965.92 3320.31 2062.5 3263 2271.5 3125C2097.5 3062.93 1790.5 3452.5 1499.5 3420.5C1208.5 3388.5 1113.17 3305.33 1048.5 3217.5C1139.33 3237.67 1352.82 3297.46 1469.5 3275C1669.5 3236.5 1772.5 3121 2049 3084.5C2170.28 3068.49 2321.67 3081.67 2377 3106C2531.5 2996 3068.86 3243.3 3269.5 3263C3488.5 3284.5 3611.5 3245.83 3696.5 3211.5C3598.5 3326 3396.4 3404.9 3200 3402.5C2954.5 3399.5 2713 3181.5 2646.5 3139C2593.3 3105 2502.33 3110.83 2467 3125C2692.69 3234.6 2792.63 3326.1 2946.24 3466.73L2952 3472L2867.5 3553.5C2692.84 3383.31 2592.65 3290.11 2377 3160C2160.66 3281.04 2058 3372.15 1890 3553.5Z" fill="white" stroke="black"/>
</svg>
