<svg width="2873" height="592" viewBox="0 0 2873 592" fill="none" xmlns="http://www.w3.org/2000/svg">
<path d="M1133.5 154.172C1111.39 194.978 1087.57 247.693 1058.08 313.444L1050.71 329.88L988.899 470.45H986.064L846 154.172H936.728L1026.89 359.359L1041.06 326.487C1072.82 255.635 1089.83 197.819 1091.53 154.172H1133.5Z" fill="#212121"/>
<path d="M1292.85 147.371C1385.85 147.371 1453.33 209.154 1453.33 304.95C1453.33 400.746 1381.88 465.923 1288.31 465.923C1195.31 465.923 1127.83 404.14 1127.83 308.351C1127.83 212.555 1198.72 147.371 1292.85 147.371ZM1289.45 155.313C1241.25 155.313 1216.3 211.995 1216.3 305.517C1216.3 398.479 1244.08 457.996 1291.15 457.996C1339.35 457.996 1364.87 401.313 1364.87 308.918C1364.87 215.389 1337.08 155.313 1289.45 155.313Z" fill="#212121"/>
<path d="M1644.44 147.371C1696.04 147.371 1734.6 167.207 1761.25 197.252L1732.33 222.756C1705.68 177.976 1684.13 155.872 1651.81 155.872C1604.17 155.872 1574.69 206.887 1574.69 290.774C1574.69 383.729 1610.41 432.477 1667.69 432.477C1700.01 432.477 1732.33 416.034 1757.85 381.462L1764.65 385.43C1729.49 439.278 1684.7 465.916 1630.83 465.916C1549.17 465.916 1485.09 404.699 1485.09 311.177C1483.39 213.688 1557.68 145.671 1644.44 147.371V147.371Z" fill="#212121"/>
<path d="M2078.23 446.087C2064.62 455.155 2041.93 464.79 2014.72 464.79C1975.59 464.79 1960.27 443.82 1956.31 421.716C1929.66 448.921 1893.93 464.79 1858.21 464.79C1810.01 464.79 1778.26 434.752 1778.26 392.238C1778.26 340.656 1825.89 305.517 1903.01 297.016C1927.97 295.316 1945.54 293.615 1955.75 292.482V261.303C1955.75 232.391 1951.21 210.288 1942.14 194.419C1933.63 177.983 1915.49 170.048 1887.69 170.048C1858.21 170.048 1830.42 180.817 1803.77 201.787L1798.67 195.552C1833.26 163.814 1865.58 147.371 1919.45 147.371C1999.41 147.371 2039.67 182.517 2039.67 255.635V400.739C2039.67 431.918 2040.81 443.82 2066.9 443.82C2069.73 443.82 2073.7 443.253 2078.24 442.686V446.087H2078.23ZM1955.74 300.983C1891.66 308.351 1859.34 335.562 1859.34 381.477C1859.34 417.756 1878.06 437.593 1903.57 437.593C1922.28 437.593 1939.29 428.525 1955.74 410.955V300.983V300.983Z" fill="#212121"/>
<path d="M2272.73 465.923C2226.8 465.923 2189.94 453.454 2162.72 428.51L2116.23 464.223H2113.96V23.8037L2195.61 0H2197.88V193.852C2226.24 162.68 2258.56 147.371 2294.29 147.371C2367.44 147.371 2425.28 211.421 2425.28 300.416C2425.28 396.205 2357.23 465.923 2272.73 465.923V465.923ZM2267.06 171.182C2242.68 171.182 2219.44 183.65 2197.88 208.595V398.472C2207.52 434.185 2231.9 456.288 2261.96 456.288C2309.6 456.288 2336.25 401.306 2336.25 306.65C2336.25 210.854 2311.86 171.182 2267.06 171.182V171.182Z" fill="#212121"/>
<path d="M2472.33 23.8037L2554 0H2556.26V459.129H2472.33V23.8037Z" fill="#212121"/>
<path d="M2872.11 154.172C2849.99 194.978 2827.31 247.693 2800.66 309.477L2794.42 324.779L2716.17 505.596C2688.94 567.379 2646.42 591.75 2588.01 591.75L2592.55 549.81C2603.32 554.344 2615.23 556.611 2627.13 556.611C2659.46 556.611 2691.21 539.042 2705.39 505.036L2722.4 465.923L2585.73 154.172H2675.9L2766.63 362.192L2784.77 320.812C2813.7 253.361 2828.44 197.812 2830.13 154.172H2872.11Z" fill="#212121"/>
<path d="M224.31 105.151C42.797 216.338 7.0402 402.976 0 472.947C56.1195 373.7 213.345 162.22 527.645 179.219C527.645 179.219 219.358 183.925 48.574 515.749C141.36 540.303 343.74 577.675 494.785 489.508C721.419 357.206 726 91.4738 726 91.4738C726 91.4738 423.995 -17.1668 224.31 105.151Z" fill="#346751"/>
</svg>
