<svg width="204" height="48" viewBox="0 0 204 48" fill="none" xmlns="http://www.w3.org/2000/svg">
<path d="M40.2016 8.95746H3.20448C1.45658 8.95746 0 10.356 0 12.1624V33.1405C0 34.8887 1.39832 36.3455 3.20448 36.3455H5.65154V43.9209C5.65154 45.4943 6.52548 46.8929 7.86554 47.5921C8.38991 47.8835 8.97254 48 9.55518 48C10.4291 48 11.2448 47.7086 12.0022 47.1842L24.2375 36.4038H40.2016C41.9495 36.4038 43.4061 35.0052 43.4061 33.1988V12.2207C43.4061 10.4143 41.9495 8.95746 40.2016 8.95746ZM10.3126 44.9699C9.78823 45.3778 9.32212 45.2029 9.14733 45.0864C8.97254 44.9698 8.50644 44.6785 8.50644 43.9209V23.3507C8.50644 22.0105 9.43864 20.0292 10.4874 19.1551L22.0235 9.1323V34.6556L10.3126 44.9699Z" fill="#555"/>
<path d="M36.0067 2.48921C36.0067 0.741039 34.1423 -0.948905 31.9283 0.624451L24.4123 6.97616H36.0067V2.48921Z" fill="#555"/>
<path d="M67.5889 37.1275L60.042 9.24124H64.4743L70.384 33.3266H70.6236L76.5333 9.24124H80.9656L73.3788 37.1275H67.5889Z" fill="#555"/>
<path d="M92.2881 37.6476C89.9455 37.6476 88.1087 37.1542 86.7777 36.1673C85.4467 35.1804 84.4884 33.7801 83.9027 31.9663C83.3437 30.1259 83.0642 27.9521 83.0642 25.4449C83.0642 22.9376 83.3437 20.7772 83.9027 18.9634C84.4884 17.123 85.4467 15.7094 86.7777 14.7225C88.1087 13.7356 89.9455 13.2421 92.2881 13.2421C94.6041 13.2421 96.4276 13.7356 97.7586 14.7225C99.0896 15.7094 100.035 17.123 100.594 18.9634C101.153 20.7772 101.432 22.9376 101.432 25.4449C101.432 27.9521 101.153 30.1259 100.594 31.9663C100.035 33.7801 99.0896 35.1804 97.7586 36.1673C96.4276 37.1542 94.6041 37.6476 92.2881 37.6476ZM92.2881 34.2068C93.2198 34.2068 93.9918 34.1001 94.6041 33.8868C95.243 33.6467 95.7488 33.2199 96.1215 32.6065C96.5208 31.993 96.8003 31.1128 96.96 29.9659C97.1197 28.7923 97.1996 27.2853 97.1996 25.4449C97.1996 23.6045 97.1064 22.1108 96.9201 20.9639C96.7604 19.7903 96.4941 18.8967 96.1215 18.2833C95.7488 17.6698 95.243 17.2564 94.6041 17.043C93.9918 16.8029 93.2198 16.6829 92.2881 16.6829C91.3298 16.6829 90.5312 16.8029 89.8923 17.043C89.28 17.2564 88.7742 17.6698 88.3749 18.2833C88.0022 18.8967 87.736 19.7903 87.5763 20.9639C87.4166 22.1108 87.3367 23.6045 87.3367 25.4449C87.3367 27.2853 87.4166 28.7923 87.5763 29.9659C87.736 31.1128 88.0022 31.993 88.3749 32.6065C88.7742 33.2199 89.28 33.6467 89.8923 33.8868C90.5312 34.1001 91.3298 34.2068 92.2881 34.2068Z" fill="#555"/>
<path d="M116.123 37.6476C114.233 37.6476 112.556 37.2342 111.092 36.4073C109.654 35.5805 108.523 34.2602 107.698 32.4464C106.899 30.6327 106.5 28.2722 106.5 25.3648C106.5 22.991 106.779 21.0172 107.339 19.4435C107.898 17.8432 108.643 16.6029 109.575 15.7227C110.533 14.8158 111.651 14.1757 112.929 13.8023C114.233 13.4288 115.604 13.2421 117.042 13.2421C118.186 13.2421 119.304 13.3221 120.396 13.4822C121.514 13.6422 122.392 13.8023 123.031 13.9623L122.552 17.323C121.966 17.243 121.101 17.1363 119.957 17.003C118.812 16.8429 117.641 16.7629 116.443 16.7629C115.431 16.7629 114.606 16.8429 113.967 17.003C113.355 17.163 112.889 17.4164 112.569 17.7631C112.064 18.2966 111.651 19.2435 111.332 20.6038C111.012 21.9641 110.852 23.6045 110.852 25.5249C110.852 27.3119 110.986 28.7523 111.252 29.8458C111.518 30.9394 111.824 31.7663 112.17 32.3264C112.543 32.8865 112.889 33.2866 113.208 33.5267C113.395 33.66 113.661 33.8067 114.007 33.9668C114.38 34.1001 114.885 34.1668 115.524 34.1668C116.243 34.1668 117.002 34.0735 117.8 33.8868C118.599 33.6734 119.344 33.4467 120.036 33.2066C120.729 32.9665 121.288 32.7532 121.714 32.5665C122.139 32.3797 122.352 32.2864 122.352 32.2864L123.59 35.4471C123.59 35.4471 123.284 35.6338 122.672 36.0072C122.06 36.354 121.194 36.7141 120.076 37.0875C118.958 37.4609 117.641 37.6476 116.123 37.6476Z" fill="#555"/>
<path d="M133.548 37.6476C132.323 37.6476 131.218 37.3542 130.233 36.7674C129.275 36.1806 128.516 35.3404 127.957 34.2468C127.398 33.1266 127.119 31.7663 127.119 30.1659C127.119 28.2455 127.518 26.7518 128.317 25.6849C129.115 24.5913 130.233 23.8178 131.671 23.3644C133.135 22.8843 134.825 22.6442 136.742 22.6442H140.615C140.615 21.364 140.575 20.3104 140.496 19.4835C140.416 18.63 140.229 18.0032 139.937 17.6031C139.724 17.283 139.404 17.0697 138.978 16.963C138.552 16.8296 138.033 16.7629 137.421 16.7629C136.383 16.7629 135.358 16.8563 134.346 17.043C133.361 17.2297 132.443 17.4564 131.591 17.7231C130.766 17.9632 130.1 18.1766 129.595 18.3633C129.115 18.55 128.876 18.6433 128.876 18.6433L127.678 15.4826C127.678 15.4826 127.931 15.3759 128.437 15.1626C128.969 14.9225 129.674 14.6558 130.553 14.3624C131.431 14.069 132.416 13.8156 133.508 13.6022C134.599 13.3622 135.744 13.2421 136.942 13.2421C138.885 13.2421 140.429 13.6022 141.574 14.3224C142.718 15.0159 143.544 16.0027 144.049 17.283C144.555 18.5633 144.808 20.0837 144.808 21.8441V37.1275H142.133L141.534 34.6469H141.294C141.108 34.7803 140.775 35.007 140.296 35.3271C139.817 35.6471 139.231 35.9939 138.539 36.3673C137.847 36.7141 137.075 37.0075 136.223 37.2475C135.371 37.5142 134.479 37.6476 133.548 37.6476ZM134.506 34.0868C135.384 34.0868 136.236 33.9534 137.062 33.6867C137.913 33.3933 138.659 33.0999 139.298 32.8065C139.937 32.4864 140.376 32.2464 140.615 32.0864V26.165C140.376 26.1384 139.91 26.0983 139.218 26.045C138.552 25.965 137.674 25.925 136.582 25.925C134.346 25.925 132.949 26.165 132.39 26.6451C132.097 26.8852 131.857 27.2986 131.671 27.8854C131.511 28.4722 131.431 29.2057 131.431 30.0859C131.431 31.4996 131.671 32.5264 132.15 33.1666C132.629 33.7801 133.415 34.0868 134.506 34.0868Z" fill="#555"/>
<path d="M160.938 37.6476C160.166 37.6476 159.221 37.5676 158.103 37.4075C156.985 37.2742 155.854 37.0875 154.709 36.8474C153.591 36.6074 152.606 36.3406 151.754 36.0472V6.92072H155.947V14.0423C156.267 13.9623 156.732 13.8689 157.345 13.7622C157.957 13.6289 158.636 13.5089 159.381 13.4022C160.153 13.2955 160.925 13.2421 161.697 13.2421C164.146 13.2421 166.036 14.1757 167.367 16.0428C168.725 17.9098 169.404 20.9239 169.404 25.0848C169.404 27.6454 169.164 29.7525 168.685 31.4062C168.206 33.0332 167.554 34.3002 166.728 35.207C165.93 36.1139 165.025 36.7541 164.013 37.1275C163.002 37.4742 161.977 37.6476 160.938 37.6476ZM160.819 34.0468C161.484 34.0468 162.017 34.0068 162.416 33.9268C162.815 33.8467 163.135 33.7 163.374 33.4867C163.614 33.2466 163.867 32.8465 164.133 32.2864C164.399 31.7263 164.625 30.8327 164.812 29.6058C164.998 28.3522 165.091 26.6185 165.091 24.4046C165.091 22.2441 164.985 20.6305 164.772 19.5635C164.559 18.47 164.266 17.7631 163.893 17.4431C163.388 17.043 162.496 16.8429 161.218 16.8429C159.94 16.8429 158.822 16.963 157.864 17.203C156.932 17.4431 156.293 17.6298 155.947 17.7631V33.4867C156.133 33.54 156.453 33.62 156.905 33.7267C157.385 33.8067 157.944 33.8868 158.583 33.9668C159.248 34.0201 159.993 34.0468 160.819 34.0468Z" fill="#555"/>
<path d="M175.746 37.1275V6.92072H179.939V37.1275H175.746Z" fill="#555"/>
<path d="M188.439 43.769L191.634 34.847L184.087 13.7622H188.479L193.511 30.366H193.67L198.662 13.7622H203.054L195.148 35.7672L192.832 43.769H188.439Z" fill="#555"/>
</svg>
